<svg xmlns="http://www.w3.org/2000/svg" viewBox="0 0 51.73 59.75"><defs><style>.cls-1{fill:#43525a;fill-rule:evenodd;}</style></defs><title>and-dark</title><g id="Layer_2" data-name="Layer 2"><g id="Layer_1-2" data-name="Layer 1"><path class="cls-1" d="M37.89,58.29l-3.28-4.37a15.5,15.5,0,0,1-6.05,4.3,21.25,21.25,0,0,1-8.16,1.53A20.2,20.2,0,0,1,6,54.06,18,18,0,0,1,0,40.44,18.23,18.23,0,0,1,3.5,29.58a19.28,19.28,0,0,1,9.25-7,20.24,20.24,0,0,1-3-4.59,10.2,10.2,0,0,1-1-4.16,13.17,13.17,0,0,1,4.08-9.76A13.18,13.18,0,0,1,22.59,0a13.32,13.32,0,0,1,9.25,3.42,10.66,10.66,0,0,1,3.86,8.24q0,3.57-3.2,7.43a31.25,31.25,0,0,1-8.82,7.14L35,40.8a12.87,12.87,0,0,0,3.21-5.46,23.2,23.2,0,0,0,1.16-7.65H51.73V35H44.81a15.72,15.72,0,0,1-1.24,5.76,30.05,30.05,0,0,1-3.5,6.63L42.62,51h9.11v7.29ZM21.13,52.46a11.17,11.17,0,0,0,4.95-1.17,11.42,11.42,0,0,0,4.16-3.2L16.39,28.78A21,21,0,0,0,10,34.17a9.64,9.64,0,0,0-2.33,5.9,11.52,11.52,0,0,0,3.93,8.75,13.56,13.56,0,0,0,9.55,3.64ZM20,20a16.19,16.19,0,0,0,5.83-3.43,6,6,0,0,0,2.18-4.22,5.59,5.59,0,0,0-1.82-4.16,6.25,6.25,0,0,0-4.37-1.67,4.36,4.36,0,0,0-3.57,1.89,7.37,7.37,0,0,0-1.53,4.66,7.9,7.9,0,0,0,.87,3.57A10.51,10.51,0,0,0,20,20Z"/></g></g></svg>