<svg xmlns="http://www.w3.org/2000/svg" viewBox="0 0 109.59 69.97"><defs><style>.cls-1,.cls-3,.cls-5{fill:none;stroke-linecap:round;stroke-miterlimit:2.61;stroke-width:2px;}.cls-1{stroke:#ec008c;}.cls-1,.cls-2,.cls-3{fill-rule:evenodd;}.cls-2{fill:#43525a;opacity:0.6;}.cls-3{stroke:#a3238e;}.cls-4{fill:#f6adcd;}.cls-5{stroke:#849daa;}</style></defs><title>booklet-design-dark</title><g id="Layer_2" data-name="Layer 2"><g id="Layer_1-2" data-name="Layer 1"><polyline class="cls-1" points="108.59 15.19 108.59 68.97 14.4 68.97"/><polyline class="cls-1" points="108.59 54.78 108.59 1 8.19 1"/><path class="cls-1" d="M8.19,8.19H1m7.19,0V1"/><polygon class="cls-2" points="51.77 20.97 68.45 20.97 45.03 27.36 51.77 20.97"/><polygon class="cls-2" points="51.77 20.97 59.76 39.07 45.03 27.36 51.77 20.97"/><polygon class="cls-2" points="68.64 20.97 51.96 20.97 75.38 27.36 68.64 20.97"/><polygon class="cls-2" points="68.64 20.97 63.23 36.23 75.38 27.36 68.64 20.97"/><path class="cls-3" d="M8.19,23.38H1m7.19,0V16.19"/><path class="cls-3" d="M8.19,38.58H1m7.19,0V31.39"/><path class="cls-3" d="M8.19,53.77H1m7.19,0V46.58"/><path class="cls-3" d="M8.19,69H1m7.19,0v-7.2"/><rect class="cls-4" x="32.4" y="44.08" width="55.61" height="9.16" rx="4.58"/><line class="cls-5" x1="45.73" y1="57.15" x2="74.68" y2="57.15"/></g></g></svg>