<svg xmlns="http://www.w3.org/2000/svg" xmlns:xlink="http://www.w3.org/1999/xlink" viewBox="0 0 82.58 57.01"><defs><style>.cls-1,.cls-6{fill:none;}.cls-2{fill:#fff;}.cls-3{clip-path:url(#clip-path);}.cls-10,.cls-12,.cls-13,.cls-14,.cls-4,.cls-7,.cls-8{fill-rule:evenodd;}.cls-4{fill:url(#GradientFill_10);}.cls-5{fill:#e6e7e8;}.cls-14,.cls-15,.cls-6{stroke:#bcbec0;stroke-miterlimit:2.61;}.cls-7{fill:#43525a;}.cls-8{fill:#fff200;}.cls-9{fill:#231f20;}.cls-10{fill:#00aeef;}.cls-11{fill:#ec008c;}.cls-12{fill:#939598;}.cls-13{fill:#647883;}.cls-14,.cls-15{fill:#bcbec0;stroke-width:0.22px;}</style><clipPath id="clip-path"><rect class="cls-1" x="5.78" y="0.5" width="76.3" height="55.86" rx="3.18"/></clipPath><linearGradient id="GradientFill_10" x1="-45.45" y1="45.74" x2="133.31" y2="45.74" gradientUnits="userSpaceOnUse"><stop offset="0" stop-color="#00aeef"/><stop offset="1" stop-color="#8ed8f8"/></linearGradient></defs><title>booklets</title><g id="Layer_2" data-name="Layer 2"><g id="Layer_1-2" data-name="Layer 1"><rect class="cls-2" x="5.78" y="0.5" width="76.3" height="55.86" rx="3.18"/><g class="cls-3"><path class="cls-4" d="M5.78,46.35c52,10,43.6-14.3,76.3-10.9V56.36H5.78Z"/><rect class="cls-5" y="0.5" width="11.57" height="56.51"/></g><rect class="cls-6" x="5.78" y="0.5" width="76.3" height="55.86" rx="3.18"/><path class="cls-7" d="M40.4,10H36.88v6.25c0,.15,0,.3,0,.45s0,.31,0,.46V31.56h7V28H40.4V22.87a7.08,7.08,0,1,0,0-12.25V10Zm0,7v-.65a3.55,3.55,0,1,1,0,.65Z"/><path class="cls-8" d="M45.69,31.56a1.76,1.76,0,1,0-1.76-1.76A1.76,1.76,0,0,0,45.69,31.56Z"/><circle class="cls-9" cx="49.21" cy="29.8" r="1.76"/><path class="cls-10" d="M45.69,28a1.76,1.76,0,1,0-1.76-1.76A1.76,1.76,0,0,0,45.69,28Z"/><circle class="cls-11" cx="49.21" cy="26.28" r="1.76"/><path class="cls-12" d="M37.29,33.28a.17.17,0,0,1,.18.18.22.22,0,0,1,0,.14.21.21,0,0,1-.13,0,.17.17,0,0,1-.13,0,.18.18,0,0,1-.06-.14.18.18,0,0,1,.06-.13.17.17,0,0,1,.13,0Zm-.12.72h.23v2a.54.54,0,0,1-.08.32.25.25,0,0,1-.22.1.85.85,0,0,1-.25-.05v-.2a.34.34,0,0,0,.16,0,.15.15,0,0,0,.14-.07.53.53,0,0,0,0-.21V34Zm.68,0h.22v.82a1.92,1.92,0,0,0,0,.42.48.48,0,0,0,.19.25.52.52,0,0,0,.33.1.55.55,0,0,0,.32-.09.43.43,0,0,0,.18-.24,1.41,1.41,0,0,0,0-.44V34h.23v.87a1.46,1.46,0,0,1-.08.54.67.67,0,0,1-.26.29.9.9,0,0,1-.86,0,.61.61,0,0,1-.26-.29,1.35,1.35,0,0,1-.08-.56V34Zm2.94.19-.15.15a.55.55,0,0,0-.36-.17.28.28,0,0,0-.19.07.25.25,0,0,0-.08.17.26.26,0,0,0,.07.16.72.72,0,0,0,.27.19,1.09,1.09,0,0,1,.35.25.47.47,0,0,1,.09.28.53.53,0,0,1-.54.52.59.59,0,0,1-.29-.07.58.58,0,0,1-.23-.18l.14-.16a.5.5,0,0,0,.37.19.32.32,0,0,0,.23-.09.23.23,0,0,0,.1-.2.25.25,0,0,0-.06-.17,1,1,0,0,0-.29-.19.8.8,0,0,1-.32-.24.45.45,0,0,1-.09-.28.42.42,0,0,1,.14-.33.45.45,0,0,1,.34-.13.76.76,0,0,1,.5.23Zm.59-.85h.23V34H42v.2h-.36v1.56h-.23V34.2h-.31V34h.31Z"/><path class="cls-13" d="M42.72,34v.19A1.06,1.06,0,0,1,43,34a.73.73,0,0,1,.3-.06.77.77,0,0,1,.59.26,1,1,0,0,1,0,1.32.79.79,0,0,1-.59.27.68.68,0,0,1-.29-.06.88.88,0,0,1-.26-.17v.83h-.44V34Zm.47.36a.45.45,0,0,0-.35.15.5.5,0,0,0-.14.37.56.56,0,0,0,.14.38.48.48,0,0,0,.35.14.49.49,0,0,0,.34-.14.56.56,0,0,0,.14-.38.51.51,0,0,0-.14-.37.45.45,0,0,0-.34-.15ZM44.37,34h.38v.23a.47.47,0,0,1,.16-.2.39.39,0,0,1,.23-.07.45.45,0,0,1,.18,0l-.14.39a.24.24,0,0,0-.13,0c-.07,0-.12,0-.17.12a1.14,1.14,0,0,0-.07.5v.79h-.44V34Zm1.34-.72a.3.3,0,0,1,.2.08.26.26,0,0,1,.08.2.27.27,0,0,1-.28.29.28.28,0,0,1-.2-.09.29.29,0,0,1,0-.4.26.26,0,0,1,.2-.08Zm-.22.72h.44v1.76h-.44V34Zm.84,0h.44v.18a1,1,0,0,1,.28-.17.53.53,0,0,1,.25,0,.6.6,0,0,1,.44.18.64.64,0,0,1,.16.46v1.16h-.44V35a1.86,1.86,0,0,0,0-.42.27.27,0,0,0-.1-.15.25.25,0,0,0-.17-.06.32.32,0,0,0-.23.09.51.51,0,0,0-.14.25,2.45,2.45,0,0,0,0,.36v.7h-.44V34Zm2.05-.65h.44V34h.26v.38h-.26v1.38h-.44V34.38h-.23V34h.23Z"/><path class="cls-12" d="M49.64,33.28a.19.19,0,0,1,.13,0,.18.18,0,0,1,.06.13.18.18,0,0,1-.06.14.19.19,0,0,1-.13,0,.21.21,0,0,1-.13,0,.17.17,0,0,1,0-.14.17.17,0,0,1,0-.13.21.21,0,0,1,.13,0Zm-.11.72h.22v1.76h-.22V34Zm.89-.66h.23V34H51v.2h-.36v1.56h-.23V34.2h-.31V34h.31Z"/><path class="cls-14" d="M3.22,6.63H8.34A.62.62,0,0,1,9,7.25H9a.63.63,0,0,1-.62.63H3.22a.63.63,0,0,1-.62-.63h0A.62.62,0,0,1,3.22,6.63Z"/><path class="cls-14" d="M3.22,13.72H8.34a.63.63,0,0,1,.62.63H9a.62.62,0,0,1-.62.62H3.22a.62.62,0,0,1-.62-.62h0A.63.63,0,0,1,3.22,13.72Z"/><path class="cls-14" d="M3.22,20.82H8.34a.62.62,0,0,1,.62.62H9a.63.63,0,0,1-.62.63H3.22a.63.63,0,0,1-.62-.63h0A.62.62,0,0,1,3.22,20.82Z"/><path class="cls-14" d="M3.22,27.91H8.34a.63.63,0,0,1,.62.63H9a.62.62,0,0,1-.62.62H3.22a.62.62,0,0,1-.62-.62h0A.63.63,0,0,1,3.22,27.91Z"/><rect class="cls-15" x="2.6" y="35.01" width="6.36" height="1.25" rx="0.62"/><rect class="cls-15" x="2.6" y="42.1" width="6.36" height="1.25" rx="0.62"/><rect class="cls-15" x="2.6" y="49.2" width="6.36" height="1.25" rx="0.62"/></g></g></svg>