<svg xmlns="http://www.w3.org/2000/svg" viewBox="0 0 90.44 57.48"><defs><style>.cls-1,.cls-2,.cls-3,.cls-5,.cls-7{fill:none;stroke-linecap:round;stroke-miterlimit:2.61;}.cls-1{stroke:#ec008c;}.cls-1,.cls-2,.cls-3{stroke-width:2px;}.cls-1,.cls-2,.cls-4,.cls-6,.cls-8{fill-rule:evenodd;}.cls-2,.cls-3{stroke:#a3238e;}.cls-4{fill:#43525a;opacity:0.6;}.cls-5{stroke:#43525a;}.cls-6{fill:#f6adcd;}.cls-7{stroke:#f6adcd;}.cls-8,.cls-9{fill:#849daa;}.cls-10{fill:#a5c3d2;}</style></defs><title>brochure-design-dark</title><g id="Layer_2" data-name="Layer 2"><g id="Layer_1-2" data-name="Layer 1"><polyline class="cls-1" points="89.44 13.47 89.44 56.48 60.16 56.48 60.16 1"/><path class="cls-2" d="M89.44,1.16H67.3m22.14,0V7"/><line class="cls-3" x1="55.26" y1="1.16" x2="35.39" y2="1.16"/><path class="cls-2" d="M30.27,56.48H53.92m-23.65,0V33.08"/><polyline class="cls-1" points="1 45.68 1 1.17 30.27 1.17 30.27 28.79"/><path class="cls-2" d="M1,56.15H23.89M1,56.15V50.37"/><polygon class="cls-4" points="10.56 8.68 21.07 8.68 6.3 12.71 10.56 8.68"/><polygon class="cls-4" points="10.56 8.68 15.59 20.1 6.3 12.71 10.56 8.68"/><polygon class="cls-4" points="21.19 8.68 10.67 8.68 25.44 12.71 21.19 8.68"/><polygon class="cls-4" points="21.19 8.68 17.78 18.3 25.44 12.71 21.19 8.68"/><line class="cls-5" x1="34.23" y1="9.23" x2="51.56" y2="9.23"/><line class="cls-5" x1="34.23" y1="9.23" x2="49.01" y2="9.23"/><line class="cls-5" x1="34.23" y1="12.09" x2="49.01" y2="12.09"/><line class="cls-5" x1="34.23" y1="14.7" x2="50.02" y2="14.7"/><line class="cls-5" x1="34.23" y1="17.22" x2="48.29" y2="17.22"/><line class="cls-5" x1="34.23" y1="19.73" x2="46.13" y2="19.73"/><line class="cls-5" x1="34.23" y1="22.19" x2="47.11" y2="22.19"/><line class="cls-5" x1="56.8" y1="33.34" x2="42.02" y2="33.34"/><line class="cls-5" x1="56.8" y1="36.2" x2="42.02" y2="36.2"/><line class="cls-5" x1="56.8" y1="38.81" x2="41.01" y2="38.81"/><line class="cls-5" x1="56.8" y1="41.32" x2="42.74" y2="41.32"/><line class="cls-5" x1="56.8" y1="43.84" x2="44.91" y2="43.84"/><line class="cls-5" x1="56.8" y1="46.3" x2="43.92" y2="46.3"/><line class="cls-5" x1="84.68" y1="26.18" x2="69.9" y2="26.18"/><line class="cls-5" x1="84.68" y1="28.79" x2="68.89" y2="28.79"/><line class="cls-5" x1="84.68" y1="31.31" x2="70.62" y2="31.31"/><line class="cls-5" x1="84.68" y1="33.82" x2="72.79" y2="33.82"/><line class="cls-5" x1="84.68" y1="36.28" x2="71.8" y2="36.28"/><line class="cls-5" x1="84.68" y1="38.97" x2="69.9" y2="38.97"/><line class="cls-5" x1="84.68" y1="41.83" x2="69.9" y2="41.83"/><line class="cls-5" x1="84.68" y1="44.45" x2="68.89" y2="44.45"/><line class="cls-5" x1="84.68" y1="46.96" x2="70.62" y2="46.96"/><line class="cls-5" x1="84.68" y1="49.48" x2="72.79" y2="49.48"/><line class="cls-5" x1="84.68" y1="51.94" x2="71.8" y2="51.94"/><path class="cls-6" d="M37.17,47a2.88,2.88,0,1,0-2.88-2.88A2.88,2.88,0,0,0,37.17,47Z"/><line class="cls-7" x1="7.98" y1="22.54" x2="23.77" y2="22.54"/><line class="cls-7" x1="8.84" y1="25.05" x2="22.91" y2="25.05"/><line class="cls-7" x1="9.93" y1="27.57" x2="21.82" y2="27.57"/><path class="cls-8" d="M61.92,8.68a7.28,7.28,0,0,1,0,14.14V8.68ZM58.29,22.79a7.29,7.29,0,0,1,0-14.08Z"/><rect class="cls-9" x="61.92" y="8.47" width="17.67" height="14.57"/><circle class="cls-10" cx="79.59" cy="15.75" r="7.28"/></g></g></svg>