<svg xmlns="http://www.w3.org/2000/svg" xmlns:xlink="http://www.w3.org/1999/xlink" viewBox="0 0 32.62 25.52"><defs><style>.cls-1,.cls-2,.cls-3{fill-rule:evenodd;}.cls-1{fill:url(#GradientFill_19);}.cls-2{fill:url(#GradientFill_19-2);}.cls-3{fill:url(#GradientFill_19-3);}</style><linearGradient id="GradientFill_19" x1="9.5" y1="-5.65" x2="26.1" y2="19.92" gradientUnits="userSpaceOnUse"><stop offset="0" stop-color="#0095da"/><stop offset="0.31" stop-color="#3c6bbe"/><stop offset="0.63" stop-color="#7344a4"/><stop offset="0.87" stop-color="#962c94"/><stop offset="1" stop-color="#a3238e"/></linearGradient><linearGradient id="GradientFill_19-2" x1="2.79" y1="-12.63" x2="38.62" y2="42.53" xlink:href="#GradientFill_19"/><linearGradient id="GradientFill_19-3" x1="-14.84" y1="-31.79" x2="55.55" y2="76.61" xlink:href="#GradientFill_19"/></defs><title>cart</title><g id="Layer_2" data-name="Layer 2"><g id="Layer_1-2" data-name="Layer 1"><path class="cls-1" d="M8.35,6,7.5,2.27h0a1.78,1.78,0,0,0-.09-.33l-.09-.23c-.1-.2-.16-.27-.19-.27H5.9a2.25,2.25,0,0,1,.1.64H6A2.07,2.07,0,0,1,3.93,4.13H2.07a2.06,2.06,0,0,1-1.46-.6A2,2,0,0,1,0,2.07H0A2,2,0,0,1,.61.61,2,2,0,0,1,2.07,0H7.13A1.67,1.67,0,0,1,8.6,1.08a3.7,3.7,0,0,1,.17.4A4.49,4.49,0,0,1,8.9,2h0l.81,3.59h5.1a5.93,5.93,0,0,1,11.78,0H29.5A4.28,4.28,0,0,1,31.7,6c.76.46,1.18,1.28.74,2.74l-2.07,6.94a4.94,4.94,0,0,1-.94,1.84,2.55,2.55,0,0,1-2,.92h-14a2.71,2.71,0,0,1-.66-.08,2.57,2.57,0,0,1-.6-.23h0a3.63,3.63,0,0,1-1.68-2.5L8.44,6.42,8.35,6ZM10,7l.51,2.24,1.36,6.07a2.3,2.3,0,0,0,1,1.55h0a1.08,1.08,0,0,0,.27.1,1.06,1.06,0,0,0,.31,0h14a1.16,1.16,0,0,0,.91-.44,3.38,3.38,0,0,0,.65-1.3L31.07,8.3c.19-.67.1-1-.11-1.11A3.21,3.21,0,0,0,29.5,7H26.59A5.93,5.93,0,0,1,14.81,7ZM3.93,1.44H2.07a.65.65,0,0,0-.64.64h0a.65.65,0,0,0,.64.63H3.93a.64.64,0,0,0,.45-.19.63.63,0,0,0,.18-.44h0a.67.67,0,0,0-.18-.45.68.68,0,0,0-.45-.19Z"/><path class="cls-2" d="M15.18,15.53A.58.58,0,0,1,14.6,15a.57.57,0,0,1,.58-.57H26.23a.57.57,0,0,1,.58.57.58.58,0,0,1-.58.58Z"/><path class="cls-3" d="M14.75,19.3h0a3.11,3.11,0,0,1,2.2.91,3.15,3.15,0,0,1,.83,1.48h5.16a3.06,3.06,0,0,1,.82-1.48A3.11,3.11,0,0,1,26,19.3h0a3.11,3.11,0,0,1,3.11,3.11h0A3.11,3.11,0,0,1,26,25.52h0a3.11,3.11,0,0,1-2.2-.91,3.06,3.06,0,0,1-.82-1.48H17.78A3.15,3.15,0,0,1,17,24.61a3.11,3.11,0,0,1-2.2.91h0a3.11,3.11,0,0,1-3.11-3.11h0a3.11,3.11,0,0,1,3.11-3.11ZM26,20.73h0a1.68,1.68,0,0,0-1.18.5,1.64,1.64,0,0,0-.5,1.18h0A1.69,1.69,0,0,0,26,24.09h0a1.67,1.67,0,0,0,1.68-1.68h0A1.69,1.69,0,0,0,26,20.73Zm-11.21,0h0a1.68,1.68,0,0,0-1.18.5,1.64,1.64,0,0,0-.5,1.18h0a1.69,1.69,0,0,0,1.68,1.68h0a1.69,1.69,0,0,0,1.68-1.68h0a1.71,1.71,0,0,0-1.68-1.68Z"/></g></g></svg>