<svg xmlns="http://www.w3.org/2000/svg" viewBox="0 0 31 48"><defs><style>.cls-1{fill:#43525a;}.cls-1,.cls-2,.cls-3,.cls-4,.cls-5{fill-rule:evenodd;}.cls-2{fill:#fff200;}.cls-3{fill:#231f20;}.cls-4{fill:#00aeef;}.cls-5{fill:#ec008c;}</style></defs><title>favicon</title><g id="Layer_2" data-name="Layer 2"><g id="Layer_1-2" data-name="Layer 1"><path class="cls-1" d="M7.75.8H0V14.5c0,.33,0,.67,0,1s0,.67,0,1V48H15.5V40.28H7.75V28.93a15.5,15.5,0,1,0,0-26.86V.8Zm0,15.42V14.79a7.78,7.78,0,1,1,0,1.43Z"/><path class="cls-2" d="M19.36,48a3.86,3.86,0,1,0-3.86-3.86A3.86,3.86,0,0,0,19.36,48Z"/><path class="cls-3" d="M27.08,48a3.86,3.86,0,1,0-3.86-3.86A3.86,3.86,0,0,0,27.08,48Z"/><path class="cls-4" d="M19.36,40.28a3.86,3.86,0,1,0-3.86-3.86A3.87,3.87,0,0,0,19.36,40.28Z"/><path class="cls-5" d="M27.08,40.28a3.86,3.86,0,1,0-3.86-3.86A3.87,3.87,0,0,0,27.08,40.28Z"/></g></g></svg>