<svg xmlns="http://www.w3.org/2000/svg" viewBox="0 0 21.45 14.3"><defs><style>.cls-1{fill:#f89623;}.cls-2{fill:#fff;}.cls-2,.cls-3{fill-rule:evenodd;}.cls-3{fill:#1b2368;}.cls-4{fill:#008443;}</style></defs><title>Flag</title><g id="Layer_2" data-name="Layer 2"><g id="Layer_1-2" data-name="Layer 1"><rect class="cls-1" width="21.45" height="4.77"/><path class="cls-2" d="M8.51,7.15A2.22,2.22,0,0,1,9.1,5.64a2.35,2.35,0,0,1,1.41-.7H11a2.32,2.32,0,0,1,1.4.7,2.22,2.22,0,0,1,.59,1.51v0a2.21,2.21,0,0,1-2.1,2.18h-.19A2.2,2.2,0,0,1,8.51,7.15ZM0,9.53H21.45V4.77H0Z"/><path class="cls-2" d="M10.25,5.26l0,.15a6.11,6.11,0,0,0,.21.65,2,2,0,0,1,.1.32,1.5,1.5,0,0,0,0,.2c0,.07,0,.12,0,.18h.06l-.05-.5.06-1h0l.06,1,0,.5h.06c0-.12,0-.18,0-.36a1.91,1.91,0,0,1,.1-.34,4.45,4.45,0,0,0,.21-.65l0-.15c-.05,0,0,0-.07,0s0,.09-.16.09h0c-.06,0-.1-.07-.1-.13H10.6c0,.06,0,.13-.11.13h0c-.11,0-.09-.09-.14-.09Z"/><path class="cls-2" d="M11.17,5.41a2.8,2.8,0,0,1-.11.71.9.9,0,0,1-.1.35,1.15,1.15,0,0,0-.1.33c.1,0,.15-.22.19-.3a1.38,1.38,0,0,1,.17-.32c.07-.09.36-.55.41-.59a6.46,6.46,0,0,1-.32.65,1,1,0,0,1-.18.31.71.71,0,0,0-.18.3c.1,0,.21-.19.26-.26a1.72,1.72,0,0,1,.27-.27,6.06,6.06,0,0,1,.59-.5,6.47,6.47,0,0,1-.51.56c-.08.08-.16.22-.25.27A1.45,1.45,0,0,0,11,6.9v0a1.54,1.54,0,0,0,.31-.21,1.06,1.06,0,0,1,.33-.19c.13-.06.6-.31.69-.34s-.52.36-.61.42a7.31,7.31,0,0,1-.68.35l0,.06.31-.11a1.69,1.69,0,0,1,.34-.1,6.26,6.26,0,0,1,.73-.14l.12,0v0l0-.07c-.1,0-.15,0-.15-.12v0c0-.06.05,0,.05-.09s-.09-.16-.11-.23,0,0-.08,0S12.15,6,12.15,6s0-.08,0-.13A1,1,0,0,0,12,5.68s0,0-.07,0h0a.1.1,0,0,1-.09-.09h0a.24.24,0,0,1,0-.09l-.23-.12s-.06.07-.1.07-.12,0-.12-.09V5.3l-.16,0Z"/><path class="cls-2" d="M10.25,9l0-.16a3.38,3.38,0,0,1,.12-.72c0-.31.16-.41.21-.66h-.07a2.52,2.52,0,0,0-.14.33,1.57,1.57,0,0,1-.18.31c-.07.09-.34.53-.4.57,0-.11.26-.52.32-.65a1.57,1.57,0,0,1,.18-.31,1,1,0,0,0,.19-.3c-.1,0-.22.19-.27.26A1.72,1.72,0,0,1,10,8a7.54,7.54,0,0,1-.58.5c.08-.12.39-.44.5-.56a1.12,1.12,0,0,1,.26-.27,1.72,1.72,0,0,0,.28-.25v0a1,1,0,0,0-.3.21,1.25,1.25,0,0,1-.34.19c-.12.06-.6.31-.69.34s.53-.36.62-.42a4.76,4.76,0,0,1,.67-.35V7.27a1.52,1.52,0,0,0-.32.12,2.25,2.25,0,0,1-.35.09A6.68,6.68,0,0,1,9,7.62a5,5,0,0,1,1.38-.38V7.16l-.47.06-1,0v0l.95-.06.49,0V7.06h0L9.93,7A2.55,2.55,0,0,1,9.6,6.9,6.55,6.55,0,0,1,9,6.68a6.26,6.26,0,0,1,.73.14,2.25,2.25,0,0,1,.35.09,1.66,1.66,0,0,0,.31.12l0-.06a5.45,5.45,0,0,1-.68-.35c-.09-.06-.59-.38-.62-.42s.57.28.69.34a1.48,1.48,0,0,1,.33.18,1.1,1.1,0,0,0,.31.22l0,0a1.61,1.61,0,0,0-.28-.24c-.12-.07-.17-.18-.27-.28s-.42-.44-.5-.56.5.43.57.49a1.79,1.79,0,0,1,.28.27c0,.08.17.26.27.27a.79.79,0,0,0-.18-.29.87.87,0,0,1-.18-.31,6.76,6.76,0,0,1-.33-.66,5.82,5.82,0,0,1,.4.58,1.2,1.2,0,0,1,.18.31c0,.09.09.31.2.32a1.09,1.09,0,0,0-.1-.32.9.9,0,0,1-.1-.34,3.36,3.36,0,0,1-.12-.73l0-.15-.16,0v.09c0,.06-.07.09-.13.09s-.06,0-.1-.08l-.23.13a.24.24,0,0,1,0,.09h0a.1.1,0,0,1-.09.09H9.51s0,0-.07,0a1.49,1.49,0,0,0-.18.17c0,.05,0,.05,0,.13s-.08.1-.11.1,0,0-.1,0S9,6.22,9,6.29s.06,0,.06.09v0c0,.1-.06.12-.16.12l-.07.26s.09,0,.09.09v0C8.9,7,8.84,7,8.77,7v.28c.07,0,.13,0,.13.09v0c0,.05-.05.08-.1.09l.08.26c.1,0,.16,0,.16.12v0C9,8,9,8,9,8s.09.16.11.23,0,0,.09,0,.12,0,.12.1,0,.07,0,.13a1.49,1.49,0,0,0,.18.17s0,0,.07,0h.05a.1.1,0,0,1,.09.08v0c0,.05,0,.05,0,.08l.22.13s.06-.07.1-.07.13,0,.13.09V9Z"/><path class="cls-2" d="M12.47,6.68a6,6,0,0,1-.63.23,3.23,3.23,0,0,1-.74.15v.07a2,2,0,0,0,.36,0c.16,0,.18,0,.34,0s.5,0,.74,0v0l-.74,0a1.29,1.29,0,0,1-.34,0l-.36,0v.07a3.12,3.12,0,0,1,.74.15,6,6,0,0,1,.63.23l.12,0v0l.05-.19a.1.1,0,0,1-.08-.09v0c0-.07,0-.09.12-.09V7c-.07,0-.12,0-.12-.09v0s0-.08.09-.09l-.06-.19v0Z"/><path class="cls-2" d="M11.17,8.88l0,.16.16,0V8.92c0-.06.06-.09.12-.09s.06.05.11.07l.22-.12a.24.24,0,0,1,0-.09v0a.1.1,0,0,1,.09-.08h0s0,0,.07,0a1,1,0,0,0,.18-.17c0-.06,0,0,0-.13s.08-.1.11-.1,0,0,.1,0,.11-.17.11-.23-.05,0-.05-.09v0c0-.1.05-.12.15-.12l0-.07v0l-.12,0a6.1,6.1,0,0,1-.72-.14,2.46,2.46,0,0,1-.34-.09,1.75,1.75,0,0,0-.32-.12l0,.05a7.45,7.45,0,0,1,.68.36c.09.06.58.38.61.42s-.56-.28-.69-.34a1.77,1.77,0,0,1-.33-.19,1.25,1.25,0,0,0-.3-.21l0,0a1.12,1.12,0,0,0,.28.25c.12.07.17.18.26.28a6.47,6.47,0,0,1,.51.56A7.59,7.59,0,0,1,11.49,8a1.72,1.72,0,0,1-.27-.27c-.06-.08-.18-.26-.27-.27s.13.23.18.29a1.33,1.33,0,0,1,.18.31,6.57,6.57,0,0,1,.32.66c-.05,0-.34-.49-.4-.58a1.26,1.26,0,0,1-.18-.32c0-.08-.09-.3-.19-.31a.92.92,0,0,0,.1.32,1.52,1.52,0,0,1,.1.34A3.32,3.32,0,0,1,11.17,8.88Z"/><path class="cls-3" d="M10.28,5.41a3.36,3.36,0,0,0,.12.73.9.9,0,0,0,.1.34,1.09,1.09,0,0,1,.1.32c-.11,0-.16-.23-.2-.32a1.2,1.2,0,0,0-.18-.31,5.82,5.82,0,0,0-.4-.58,6.76,6.76,0,0,0,.33.66.87.87,0,0,0,.18.31.79.79,0,0,1,.18.29c-.1,0-.22-.19-.27-.27A1.79,1.79,0,0,0,10,6.31c-.07-.06-.52-.48-.57-.49s.39.44.5.56.15.21.27.28a1.61,1.61,0,0,1,.28.24l0,0a1.1,1.1,0,0,1-.31-.22,1.48,1.48,0,0,0-.33-.18c-.12-.06-.6-.31-.69-.34s.53.36.62.42a5.45,5.45,0,0,0,.68.35l0,.06a1.66,1.66,0,0,1-.31-.12,2.25,2.25,0,0,0-.35-.09A6.26,6.26,0,0,0,9,6.68a6.55,6.55,0,0,0,.63.22A2.55,2.55,0,0,0,9.93,7l.37,0h0v.07l-.49,0-.95.06v0l1,0,.47-.06v.08A5,5,0,0,0,9,7.62a6.68,6.68,0,0,0,.73-.14,2.25,2.25,0,0,0,.35-.09,1.52,1.52,0,0,1,.32-.12v.06a4.76,4.76,0,0,0-.67.35c-.09.06-.59.38-.62.42s.57-.28.69-.34a1.25,1.25,0,0,0,.34-.19,1,1,0,0,1,.3-.21v0a1.72,1.72,0,0,1-.28.25,1.12,1.12,0,0,0-.26.27c-.11.12-.42.44-.5.56A7.54,7.54,0,0,0,10,8a1.72,1.72,0,0,0,.27-.27c0-.07.17-.25.27-.26a1,1,0,0,1-.19.3,1.57,1.57,0,0,0-.18.31c-.06.13-.29.54-.32.65.06,0,.33-.48.4-.57a1.57,1.57,0,0,0,.18-.31,2.52,2.52,0,0,1,.14-.33h.07c0,.25-.16.35-.21.66a3.38,3.38,0,0,0-.12.72c0-.11.17-.51.21-.64a2,2,0,0,0,.1-.32,1.5,1.5,0,0,1,0-.2c0-.07,0-.12,0-.19h0v.08l0,.38a9.45,9.45,0,0,0,.05,1h0l.06-1c0-.13,0-.24,0-.39V7.53h.06c0,.13,0,.19,0,.37a2.19,2.19,0,0,0,.1.34,4.76,4.76,0,0,1,.21.64,3.32,3.32,0,0,0-.11-.72,1.52,1.52,0,0,0-.1-.34.92.92,0,0,1-.1-.32c.1,0,.16.23.19.31a1.26,1.26,0,0,0,.18.32c.06.09.35.54.4.58a6.57,6.57,0,0,0-.32-.66,1.33,1.33,0,0,0-.18-.31c-.05-.06-.18-.22-.18-.29s.21.19.27.27a1.72,1.72,0,0,0,.27.27,7.59,7.59,0,0,0,.58.49,6.47,6.47,0,0,0-.51-.56c-.09-.1-.14-.21-.26-.28A1.12,1.12,0,0,1,11,7.39l0,0a1.25,1.25,0,0,1,.3.21,1.77,1.77,0,0,0,.33.19c.13.06.6.31.69.34s-.52-.36-.61-.42a7.45,7.45,0,0,0-.68-.36l0-.05a1.75,1.75,0,0,1,.32.12,2.46,2.46,0,0,0,.34.09,6.1,6.1,0,0,0,.72.14,6,6,0,0,0-.63-.23,3.12,3.12,0,0,0-.74-.15V7.17l.36,0a1.29,1.29,0,0,0,.34,0l.74,0v0c-.24,0-.51,0-.74,0s-.18,0-.34,0a2,2,0,0,1-.36,0V7.06a3.23,3.23,0,0,0,.74-.15,6,6,0,0,0,.63-.23,6.26,6.26,0,0,0-.73.14,1.69,1.69,0,0,0-.34.1L11.09,7l0-.06a7.31,7.31,0,0,0,.68-.35c.09-.06.58-.38.61-.42s-.56.28-.69.34a1.06,1.06,0,0,0-.33.19,1.54,1.54,0,0,1-.31.21v0a1.45,1.45,0,0,1,.29-.25c.09-.05.17-.19.25-.27a6.47,6.47,0,0,0,.51-.56,6.06,6.06,0,0,0-.59.5,1.72,1.72,0,0,0-.27.27c-.05.07-.16.25-.26.26a.71.71,0,0,1,.18-.3,1,1,0,0,0,.18-.31,6.46,6.46,0,0,0,.32-.65c-.05,0-.34.5-.41.59a1.38,1.38,0,0,0-.17.32c0,.08-.09.29-.19.3a1.15,1.15,0,0,1,.1-.33.9.9,0,0,0,.1-.35,2.8,2.8,0,0,0,.11-.71,4.45,4.45,0,0,1-.21.65,1.91,1.91,0,0,0-.1.34c0,.18,0,.24,0,.36h-.06l0-.5-.06-1h0l-.06,1,.05.5h-.06c0-.06,0-.11,0-.18a1.5,1.5,0,0,1,0-.2,2,2,0,0,0-.1-.32A6.11,6.11,0,0,1,10.28,5.41Z"/><path class="cls-2" d="M10.28,8.88l0,.16s0,0,.07,0,0-.09.15-.09h0c.06,0,.1.06.11.12h.26A.11.11,0,0,1,11,9h0c.12,0,.09.09.14.09a.24.24,0,0,0,.09,0l0-.16A4.76,4.76,0,0,0,11,8.24a2.19,2.19,0,0,1-.1-.34c0-.18,0-.24,0-.37h-.06V7.6c0,.15.05.26,0,.39l-.06,1h0a9.45,9.45,0,0,1-.05-1l0-.38V7.53h0c0,.07,0,.12,0,.19a1.5,1.5,0,0,0,0,.2,2,2,0,0,1-.1.32C10.45,8.37,10.29,8.77,10.28,8.88Z"/><path class="cls-3" d="M10.25,5.26l.08,0c.05,0,0,.09.14.09h0c.06,0,.1-.07.11-.13h.26c0,.06,0,.13.1.13h0c.13,0,.07-.09.16-.09s0,0,.07,0l.16,0v.08c0,.06.06.09.12.09s.06,0,.1-.07l.23.12a.24.24,0,0,0,0,.09h0a.1.1,0,0,0,.09.09h0s0,0,.07,0a1,1,0,0,1,.18.17c0,.05,0,.05,0,.13s.08.1.13.1,0,0,.08,0,.11.16.11.23-.05,0-.05.09v0c0,.1.05.12.15.12l0,.07.06.19c-.05,0-.09,0-.09.09v0c0,.06,0,.09.12.09v.28c-.07,0-.12,0-.12.09v0a.1.1,0,0,0,.08.09l-.05.19,0,.07c-.1,0-.15,0-.15.12v0c0,.06.05,0,.05.09s-.09.16-.11.23,0,0-.1,0-.11.06-.11.1,0,.07,0,.13a1,1,0,0,1-.18.17s0,0-.07,0h0a.1.1,0,0,0-.09.08v0a.24.24,0,0,0,0,.09l-.22.12s-.07-.07-.11-.07-.12,0-.12.09V9l-.16,0a.24.24,0,0,1-.09,0S11.1,9,11,9h0a.11.11,0,0,0-.1.12H10.6c0-.06,0-.12-.11-.12h0c-.13,0-.06.09-.15.09s0,0-.07,0l-.16,0V8.92c0-.06-.07-.09-.13-.09s-.06.05-.1.07l-.22-.13s0,0,0-.08v0a.1.1,0,0,0-.09-.08H9.51s0,0-.07,0a1.49,1.49,0,0,1-.18-.17c0-.06,0,0,0-.13s-.07-.1-.12-.1,0,0-.09,0S9,8.07,9,8,9,8,9,7.92v0c0-.1-.06-.12-.16-.12L8.8,7.52s.1,0,.1-.09v0c0-.07-.06-.09-.13-.09V7c.07,0,.13,0,.13-.09v0s-.05-.08-.09-.09l.07-.26C9,6.52,9,6.5,9,6.4v0c0-.06-.06,0-.06-.09s.09-.16.11-.23,0,0,.1,0S9.3,6,9.3,6s0-.08,0-.13a1.49,1.49,0,0,1,.18-.17s0,0,.07,0h.05a.1.1,0,0,0,.09-.09h0a.24.24,0,0,0,0-.09l.23-.13s.06.08.1.08.13,0,.13-.09V5.29l.16,0ZM8.51,7.15a2.2,2.2,0,0,0,2.14,2.21h.19a2.21,2.21,0,0,0,2.1-2.18v0a2.22,2.22,0,0,0-.59-1.51,2.32,2.32,0,0,0-1.4-.7h-.44a2.35,2.35,0,0,0-1.41.7A2.22,2.22,0,0,0,8.51,7.15Z"/><rect class="cls-4" y="9.53" width="21.45" height="4.77"/></g></g></svg>