<svg xmlns="http://www.w3.org/2000/svg" viewBox="0 0 94.66 63.14"><defs><style>.cls-1{fill:#d1d3d4;}.cls-1,.cls-2,.cls-3{stroke:#d1d3d4;stroke-miterlimit:2.61;}.cls-1,.cls-2{stroke-width:2px;}.cls-1,.cls-10,.cls-11,.cls-4,.cls-6,.cls-8,.cls-9{fill-rule:evenodd;}.cls-2,.cls-3,.cls-8{fill:#fff;}.cls-4,.cls-7{fill:#000002;}.cls-5{fill:#000001;}.cls-6{fill:#8b8a8a;}.cls-9{fill:#ed1c24;}.cls-10{fill:#231f20;}.cls-11{fill:#00a651;}</style></defs><title>foam boards</title><g id="Layer_2" data-name="Layer 2"><g id="Layer_1-2" data-name="Layer 1"><polygon class="cls-1" points="3.38 19.41 76.75 19.41 76.75 56.64 74.41 57.62 3.38 56.64 1.04 20.39 3.38 19.41"/><rect class="cls-2" x="1.04" y="20.39" width="73.36" height="37.23"/><polygon class="cls-1" points="44.51 1 93.66 1 93.66 60.56 92.09 62.13 44.51 60.56 42.94 2.57 44.51 1"/><rect class="cls-3" x="42.94" y="2.57" width="49.15" height="59.56"/><path class="cls-4" d="M66.17,15.8v.77a3.73,3.73,0,0,0,3.45,3.64c0,7.48,8.63,1.45,8.63,5.75v1.91h1.34V26.53c0-6.14-8.63-1.84-8.63-5v-.19c0-3.44.9-1.54-1.6-2.42a2.84,2.84,0,0,1-2-2.57c0-1.6,1.16-2.37,2.49-2.68V12.54A3.74,3.74,0,0,0,66.17,15.8Z"/><path class="cls-4" d="M71.16,15c1.6,0,3.25,1.34,3.25,2.69s-1,2.31-1,2.87c0,.11.27.4.39.57,4,0,6.51.49,6.51,4.6v2.11H81.5V25.38c0-3.65-2.54-5.56-6.32-5.56a4.55,4.55,0,0,0,.38-1.72,4,4,0,0,0-3.83-4.22h-.57Z"/><rect class="cls-5" x="78.25" y="28.45" width="1.34" height="4.02"/><polygon class="cls-6" points="68.47 32.28 68.09 31.89 68.09 32.28 53.53 32.28 53.53 28.64 64.83 28.64 64.64 28.45 53.34 28.45 53.34 32.47 68.47 32.28"/><polygon class="cls-4" points="68.09 31.89 64.83 28.64 53.53 28.64 53.53 32.28 68.09 32.28 68.09 31.89"/><path class="cls-4" d="M76.33,32.28h1.15V28.64h-5C72.88,29.21,75.72,32.28,76.33,32.28Z"/><rect class="cls-7" x="80.35" y="28.45" width="1.15" height="3.83"/><path class="cls-8" d="M78.25,28.45h1.34v4H78.25v-4Zm2.1,0H81.5v3.83H80.35V28.45Zm-4,3.83c-.61,0-3.45-3.07-3.83-3.64h5v3.64ZM73.45,20.59c0-.56,1-1.46,1-2.87S72.76,15,71.16,15V13.88h.57a4,4,0,0,1,3.83,4.22,4.55,4.55,0,0,1-.38,1.72c3.78,0,6.32,1.91,6.32,5.56v2.49H80.35V25.76c0-4.11-2.48-4.6-6.51-4.6-.12-.17-.39-.46-.39-.57ZM66.17,15.8v.77a3.73,3.73,0,0,0,3.45,3.64c0,7.48,8.63,1.45,8.63,5.75v1.91h1.34V26.53c0-6.14-8.63-1.84-8.63-5v-.19c0-3.44.9-1.54-1.6-2.42a2.84,2.84,0,0,1-2-2.57c0-1.6,1.16-2.37,2.49-2.68V12.54a3.74,3.74,0,0,0-3.64,3.26Zm-8.43-1.53L81.12,37.64c1.44-1,3.26-6.26,3.26-9v-.19c0-9.57-7.22-17.25-16.67-17.25H66.56a16,16,0,0,0-4.87,1.07C60.5,12.74,58.4,14.09,57.74,14.27Z"/><path class="cls-8" d="M68.47,32.28l-15.13.19v-4h11.3L54.1,17.91c-1.38,2.62-3.26,5.11-3.26,9.19v1c0,9.46,7.69,16.67,17.25,16.67h.19a18.66,18.66,0,0,0,5.24-1.08c1.12-.49,3.6-2,4.2-2.22Z"/><path class="cls-9" d="M64.64,28.45l.19.19,3.26,3.25.38.39,9.25,9.15c-.6.19-3.08,1.73-4.2,2.22a18.66,18.66,0,0,1-5.24,1.08h-.19c-9.56,0-17.25-7.21-17.25-16.67v-1c0-4.08,1.88-6.57,3.26-9.19L64.64,28.45Zm-6.9-14.18L81.12,37.64c1.44-1,3.26-6.26,3.26-9v-.19c0-9.57-7.22-17.25-16.67-17.25H66.56a16,16,0,0,0-4.87,1.07c-1.19.47-3.29,1.82-3.95,2ZM46.05,25.76V29.4c.16.25.66,3.57.81,4.18a21.94,21.94,0,0,0,1.3,3.68,21.13,21.13,0,0,0,4.27,5.89c3,3,8.11,6.18,13.94,6.18h2.49C79.15,49.33,89,39.51,89,29.21V26.72c0-5.82-3.22-11-6.18-13.94A21.25,21.25,0,0,0,77,8.58a19.92,19.92,0,0,0-3.65-1.33c-.59-.14-4.18-.74-4.33-.84H65.41c-.69.44-3.14.65-4.06.93a22,22,0,0,0-3.42,1.37,22.5,22.5,0,0,0-5.58,4,22.48,22.48,0,0,0-4.06,5.71,18.8,18.8,0,0,0-1.35,3.44C46.65,22.88,46.48,25.09,46.05,25.76Z"/><path class="cls-10" d="M47.77,53.72h1.14l1.48,2.53V53.72h1.15V58.3H50.39l-1.47-2.51V58.3H47.77V53.72ZM52.19,56a2.57,2.57,0,0,1,.54-1.74,1.84,1.84,0,0,1,1.49-.63,1.91,1.91,0,0,1,1.52.62A2.56,2.56,0,0,1,56.27,56,3.27,3.27,0,0,1,56,57.29a1.92,1.92,0,0,1-.67.81,2,2,0,0,1-1.1.28,2.16,2.16,0,0,1-1.1-.25,1.75,1.75,0,0,1-.71-.78A2.93,2.93,0,0,1,52.19,56Zm1.21,0a1.68,1.68,0,0,0,.23,1,.69.69,0,0,0,.6.31.71.71,0,0,0,.61-.3A2,2,0,0,0,55.05,56a1.57,1.57,0,0,0-.22-.94.72.72,0,0,0-.61-.3.7.7,0,0,0-.59.3,1.75,1.75,0,0,0-.23,1Zm5.15.77,1.15-.09a1.13,1.13,0,0,0,.16.5.61.61,0,0,0,.53.28.54.54,0,0,0,.4-.14.46.46,0,0,0,.15-.33.45.45,0,0,0-.14-.32,1.39,1.39,0,0,0-.62-.27A2.42,2.42,0,0,1,59,55.86,1.18,1.18,0,0,1,58.7,55a1.45,1.45,0,0,1,.17-.67,1.26,1.26,0,0,1,.53-.49,2.18,2.18,0,0,1,1-.18,1.75,1.75,0,0,1,1.15.33A1.5,1.5,0,0,1,62,55l-1.14.08a.79.79,0,0,0-.19-.45.56.56,0,0,0-.41-.15.44.44,0,0,0-.32.11.34.34,0,0,0-.11.25.27.27,0,0,0,.09.2.89.89,0,0,0,.41.17,4.77,4.77,0,0,1,1.14.4,1.28,1.28,0,0,1,.5.51,1.39,1.39,0,0,1,.16.68,1.6,1.6,0,0,1-.21.81,1.41,1.41,0,0,1-.59.57,2,2,0,0,1-.94.19A1.75,1.75,0,0,1,59,57.93a1.88,1.88,0,0,1-.44-1.14Zm4.17-3.07h1.6l.61,2.79.62-2.79h1.59V58.3h-1V54.81l-.77,3.49h-.9l-.77-3.49V58.3h-1V53.72Zm5,2.29a2.57,2.57,0,0,1,.53-1.74,2.12,2.12,0,0,1,3,0A2.52,2.52,0,0,1,71.85,56a3.1,3.1,0,0,1-.24,1.31,1.85,1.85,0,0,1-.67.81,2,2,0,0,1-1.09.28,2.2,2.2,0,0,1-1.11-.25,1.74,1.74,0,0,1-.7-.78A2.93,2.93,0,0,1,67.77,56ZM69,56a1.77,1.77,0,0,0,.22,1,.7.7,0,0,0,.61.31.69.69,0,0,0,.6-.3A1.85,1.85,0,0,0,70.63,56a1.57,1.57,0,0,0-.22-.94.73.73,0,0,0-.61-.3.71.71,0,0,0-.6.3A1.84,1.84,0,0,0,69,56Zm3.53-2.3h1.21v1.73L75,53.72h1.61l-1.43,1.72,1.5,2.86h-1.5l-.83-1.88-.63.77V58.3H72.51V53.72Zm4.62,0h1.22V58.3H77.13V53.72Zm2.1,0h1.14l1.47,2.53V53.72H83V58.3H81.84l-1.46-2.51V58.3H79.23V53.72Zm6.55,2.93v-1h1.88v2a3.92,3.92,0,0,1-1,.59,3,3,0,0,1-1,.15,2.07,2.07,0,0,1-1.14-.28,1.77,1.77,0,0,1-.68-.83,3.28,3.28,0,0,1,0-2.56,2,2,0,0,1,.78-.85,2.16,2.16,0,0,1,1.07-.22,2.68,2.68,0,0,1,1,.14,1.25,1.25,0,0,1,.54.43,2,2,0,0,1,.32.73l-1.17.24a.72.72,0,0,0-.25-.39.65.65,0,0,0-.44-.14.74.74,0,0,0-.64.32,1.74,1.74,0,0,0-.24,1,1.84,1.84,0,0,0,.24,1.07.81.81,0,0,0,.67.32,1.23,1.23,0,0,0,.39-.07,2.44,2.44,0,0,0,.43-.24v-.42Z"/><path class="cls-11" d="M25.39,23.82c-.52,0-1.35,1.26-1.35,1.78v.74a2.91,2.91,0,0,0,2.46,2.45h.24a3,3,0,0,0,1.81-.7,3.65,3.65,0,0,0,.95-1.63v-.62a2.77,2.77,0,0,0-.79-1.66,3,3,0,0,0-1.66-.79h-.37C26.12,23.39,25.59,23.45,25.39,23.82Z"/><path class="cls-11" d="M19.14,33.93,20,34v-.18h.12l-.67-1.29c-.33,0-.54.45-1,.62-.23.09-1.13.22-1.23.36.45,0,1.05.17,1.35.19s1.17-.07,1.29.24Z"/><path class="cls-11" d="M20.12,33.81H20V34l-.86-.06a12.22,12.22,0,0,1-2.22-.37l-.84-.3c-.61,0-1.08-.43-1.35-.43-.1,0-.4.84-.47,1a4.54,4.54,0,0,1-.58,1,6.26,6.26,0,0,1-.8.73c-.3.21-.82.33-.85.68.15,0,.93.92,1.54.92l1.1,0L17,36.88h.73c.27,0,.19.09.49.12v-.25c0-1,2.49-2.62,2.58-2.92Z"/><path class="cls-11" d="M16.51,29.64c.11.08.1.13.24.13h.19c.17.42,1.18.14,1.34.55h.19c.14,0,.13.05.24.12l0-.06,3.17.92a12.11,12.11,0,0,0,1.79.6c.83.18.91.48,1.16,1.29a15.07,15.07,0,0,1,1,4l6.86-.36h.62a19.57,19.57,0,0,0-1.53-4.05c-.1-.12-.29-.71-.46-.95,0,0-.49-.88-.5-.91a5.27,5.27,0,0,0-1.13-1.68H15.1A2.68,2.68,0,0,0,16.51,29.64Z"/><path class="cls-11" d="M31.7,53.42c0-.48.17-1.38.19-2a7,7,0,0,1,.18-.93c0-.31,0-.71,0-1,0-.66.18-1.34.25-1.9s0-1.43.14-2c.23-1.26.23-2.59.45-3.85.06-.34.14-1.68.14-2s.3-1.83-.06-1.83H30.66v-.13H27.72l-1.9-.07-.57,3.81-.11.18a19.9,19.9,0,0,1-.52,3.52c-.1.6-.19,1.1-.28,1.74-.06.41-.23,1.36-.23,1.73V49c-.29.11-.21.91-.26,1.27a9.72,9.72,0,0,0-.17,1.36h-.13v.25l-.3,2h.18l-.06,0L29.06,43.3a11.11,11.11,0,0,1,.5,1.85v.37c.23.09.31.9.31,1.22.18.07.18.31.18.55v.19h.12l.39,2.08.1,0c0,.85.35,1,.37,1.69,0,.32.24,1.51.43,1.59v.24c0,.27.05.48.24.56Z"/><path class="cls-11" d="M21,42.88c0-1.22.31-2.37.31-3.61H10.44l1,5.44.09.19a17.6,17.6,0,0,0,.35,2.16c.1.7.28,1.46.37,2.14s.2.65.26,1a8,8,0,0,0,.17,1.05,17.39,17.39,0,0,1,.31,2.2c.11.08.11.12.25.12h6.49c.35,0,.2-1.38.28-1.74a14.43,14.43,0,0,0,.22-1.75,13.52,13.52,0,0,1,.17-1.85c0-.27,0-.65.07-.9s.17-.44.19-.8a16.51,16.51,0,0,1,.1-1.92A14.17,14.17,0,0,0,21,42.88Z"/></g></g></svg>