<svg xmlns="http://www.w3.org/2000/svg" viewBox="0 0 157.61 180.35"><defs><style>.cls-1{fill:#eaf6fa;}.cls-1,.cls-10,.cls-11,.cls-12,.cls-13,.cls-14,.cls-15,.cls-16,.cls-17,.cls-18,.cls-19,.cls-2,.cls-20,.cls-21,.cls-22,.cls-23,.cls-24,.cls-25,.cls-26,.cls-3,.cls-4,.cls-5,.cls-6,.cls-7,.cls-8,.cls-9{fill-rule:evenodd;}.cls-2{fill:#dff2f7;}.cls-3{fill:#7bd1eb;}.cls-4{fill:#f9c412;}.cls-5{fill:#ffcb05;}.cls-6{fill:#d5eef6;}.cls-7{fill:#cdebf3;}.cls-8{fill:#fcd0b9;}.cls-9{fill:#f9ab85;}.cls-10{fill:#163c59;}.cls-11{fill:#e1c5b3;}.cls-12{fill:#c7d6d9;}.cls-13{fill:#e3b8a3;}.cls-14{fill:#544ca0;}.cls-15{fill:#4d3f99;}.cls-16{fill:#403193;}.cls-17{fill:#f79555;}.cls-18{fill:#e96824;}.cls-19{fill:#fbb67b;}.cls-20{fill:#ef8034;}.cls-21{fill:#e0b025;}.cls-22{fill:#c59b2d;}.cls-23{fill:#dbdcdc;}.cls-24{fill:#af8a2f;}.cls-25{fill:#fff;}.cls-26{fill:#e286b1;}</style></defs><title>footer-boy</title><g id="Layer_2" data-name="Layer 2"><g id="Layer_1-2" data-name="Layer 1"><path class="cls-1" d="M132.48,52.64a30.11,30.11,0,0,0,3.7-3.53A29.57,29.57,0,1,0,87.68,16c.68,1,1.36,2,2,3,2.57,3.92,5,8,7.45,12.06a16.54,16.54,0,1,1,24.52,13.56,56.41,56.41,0,0,1,10.81,8Zm-5.37-10a56.65,56.65,0,0,1,4.74,3.39l-.72.9q-2.24-1.77-4.64-3.32Z"/><path class="cls-2" d="M85.67,38.16a56.18,56.18,0,0,1,8.56-.65c1.58,0,3.14.06,4.68.19a16,16,0,0,1-1.28-3.44q-1.63-.09-3.3-.09H94V33h.33c1,0,2,0,3,.07a16.12,16.12,0,0,1-.23-2C94.71,27.05,92.27,23,89.7,19.07c-.66-1-1.34-2-2-3a29.48,29.48,0,0,0-3.27,13.53,30.68,30.68,0,0,0,.29,4.21c1.16-.18,2.32-.34,3.49-.45l.12,1.14q-1.73.18-3.42.45A29.4,29.4,0,0,0,85.67,38.16Z"/><path class="cls-3" d="M102,41.91a16.54,16.54,0,1,0,0-23.4A16.54,16.54,0,0,0,102,41.91Z"/><path class="cls-3" d="M133.37,18.38a4.84,4.84,0,1,0,0-6.85A4.85,4.85,0,0,0,133.37,18.38Z"/><path class="cls-3" d="M135.08,29.8a2.42,2.42,0,1,0,0-3.42A2.44,2.44,0,0,0,135.08,29.8Z"/><path class="cls-3" d="M148.82,22.82a2.43,2.43,0,1,0,0-3.43A2.44,2.44,0,0,0,148.82,22.82Z"/><path class="cls-2" d="M41.32,158.09a7.47,7.47,0,1,0-7.47-7.46A7.46,7.46,0,0,0,41.32,158.09Z"/><path class="cls-2" d="M29.19,140.88a7.47,7.47,0,1,0-7.47-7.47A7.46,7.46,0,0,0,29.19,140.88Z"/><path class="cls-2" d="M20.1,160a7.47,7.47,0,1,0-7.47-7.46A7.46,7.46,0,0,0,20.1,160Z"/><path class="cls-4" d="M68,29.24c-.7-.8-1.44-1.57-2.22-2.3l.44-.47c.79.74,1.55,1.53,2.27,2.34l-.49.43Zm-4.66-4.37c-.85-.64-1.73-1.25-2.64-1.81l.34-.55c.93.58,1.83,1.19,2.69,1.85l-.39.51Zm-5.44-3.36C57,21,56,20.62,55,20.24l.23-.6c1,.38,2,.82,3,1.29l-.29.58Zm-6-2.25c-1-.27-2.07-.5-3.13-.69l.11-.63c1.08.18,2.14.42,3.18.7l-.16.62Zm-6.3-1.07c-.85-.07-1.71-.1-2.57-.1h-.63l0-.65h.65q1.32,0,2.61.09l0,.65Zm-6.4.11q-1.6.18-3.15.51L36,18.17c1.06-.22,2.13-.39,3.22-.51l.07.64ZM33,19.61a30.78,30.78,0,0,0-3,1.09l-.25-.6c1-.41,2-.79,3.07-1.11l.19.62Zm-5.9,2.47c-.94.5-1.85,1.06-2.74,1.65L24,23.19c.9-.6,1.84-1.17,2.8-1.68l.3.57Zm-5.3,3.56c-.83.68-1.61,1.4-2.36,2.15L19,27.34a31.43,31.43,0,0,1,2.41-2.2l.41.5Zm-4.5,4.53a30,30,0,0,0-1.88,2.59l-.54-.36a29,29,0,0,1,1.92-2.63l.5.4Zm-3.48,5.35a28.21,28.21,0,0,0-1.3,2.92l-.61-.23a30.68,30.68,0,0,1,1.33-3l.58.29Zm-2.28,6a29.43,29.43,0,0,0-.65,3.13l-.64-.1a31.29,31.29,0,0,1,.66-3.2l.63.17Zm-1,6.3c0,.42,0,.83,0,1.25v.41c0,.52,0,1,.06,1.54L10,51c0-.52-.06-1-.06-1.57,0-.14,0-.28,0-.42,0-.43,0-.85,0-1.27l.64,0ZM11,54.15q.29,1.59.72,3.12l-.62.18a28.38,28.38,0,0,1-.73-3.19l.63-.11Zm1.78,6.13a28.24,28.24,0,0,0,1.37,2.89l-.57.31a29.44,29.44,0,0,1-1.4-2.95l.6-.25Zm3,5.62c.61.87,1.26,1.72,2,2.53l-.5.42c-.7-.83-1.36-1.69-2-2.59l.53-.36ZM20,70.76a30.2,30.2,0,0,0,2.41,2.1l-.4.51c-.86-.68-1.68-1.39-2.46-2.14l.45-.47Zm5,3.95c.41.26.82.51,1.24.75l-.32.56c-.43-.25-.85-.5-1.27-.77Z"/><path class="cls-4" d="M26.17,77.77A1.81,1.81,0,1,0,24.25,76,1.87,1.87,0,0,0,26.17,77.77Z"/><path class="cls-4" d="M68.31,31.1a1.81,1.81,0,1,0-1.92-1.79A1.85,1.85,0,0,0,68.31,31.1Z"/><path class="cls-5" d="M36.05,104.9q.56,2.84,1.36,5.55l-1.11.33q-.82-2.77-1.38-5.66l1.13-.22Zm3.25,10.95q1.08,2.66,2.4,5.18l-1,.54q-1.35-2.58-2.45-5.29l1.07-.43ZM44.59,126c1,1.6,2.16,3.14,3.35,4.63l-.9.72c-1.21-1.51-2.35-3.09-3.42-4.72l1-.63Zm7.13,8.92q2,2.06,4.17,3.9l-.74.88q-2.22-1.87-4.26-4l.83-.8Zm8.7,7.39c1.56,1.09,3.18,2.11,4.84,3l-.57,1c-1.69-1-3.34-2-4.93-3.1l.66-.95Zm10,5.6c1.74.77,3.51,1.45,5.33,2.06L75.34,151c-1.85-.61-3.67-1.31-5.44-2.09l.47-1.06Zm10.84,3.58q2.76.63,5.63,1l-.15,1.14c-1.94-.24-3.86-.58-5.74-1l.26-1.13Zm11.32,1.43q.9,0,1.8,0c1.32,0,2.62,0,3.92-.13l.07,1.15c-1.32.09-2.65.13-4,.13q-.92,0-1.83,0l0-1.15Zm11.39-.74q2.85-.46,5.59-1.19l.3,1.12q-2.81.74-5.7,1.21l-.19-1.14Zm11-2.91c1.79-.67,3.55-1.42,5.26-2.25l.5,1q-2.61,1.28-5.36,2.29l-.4-1.08Zm10.27-5A56.14,56.14,0,0,0,130,141l.69.93q-2.33,1.74-4.82,3.27l-.6-1Zm9.13-6.86a57,57,0,0,0,4-4l.86.78q-2,2.16-4.11,4.13l-.78-.86Zm7.66-8.47c1.13-1.52,2.19-3.11,3.18-4.74l1,.59c-1,1.67-2.09,3.29-3.25,4.84l-.92-.69Zm5.89-9.77q1.23-2.56,2.22-5.27l1.08.4q-1,2.74-2.26,5.37l-1-.5Zm3.91-10.73q.7-2.75,1.16-5.59l1.14.18c-.3,1.93-.7,3.83-1.18,5.7l-1.12-.29Zm1.77-11.27c.07-1.19.11-2.39.11-3.6,0-.71,0-1.41,0-2.12l1.16,0q0,1.08,0,2.16c0,1.23,0,2.45-.1,3.67l-1.16-.07Zm-.4-11.41q-.37-2.87-1-5.62l1.13-.26q.64,2.82,1,5.73l-1.15.15Zm-2.57-11.12c-.61-1.82-1.31-3.59-2.08-5.32l1.05-.48q1.18,2.66,2.12,5.43l-1.09.37ZM146,64.19q-1.42-2.49-3.07-4.82l1-.67q1.68,2.38,3.12,4.92l-1,.57Zm-6.58-9.33a57,57,0,0,0-3.93-4.15l.8-.83q2.1,2,4,4.23l-.88.75ZM131.13,47q-2.24-1.77-4.64-3.32l.62-1a56.65,56.65,0,0,1,4.74,3.39l-.72.9Zm-9.59-6.19q-2.54-1.3-5.2-2.37l.43-1.07q2.72,1.08,5.3,2.42l-.53,1Zm-10.6-4.23a57,57,0,0,0-5.56-1.33l.22-1.14q2.88.55,5.66,1.36l-.32,1.11ZM99.72,34.42c-1.77-.17-3.57-.25-5.39-.25H94V33h.32c1.85,0,3.69.08,5.5.24l-.11,1.16Zm-11.41,0c-1.91.2-3.8.48-5.65.85l-.23-1.13a57.49,57.49,0,0,1,5.76-.86l.12,1.14ZM77.12,36.71a55.6,55.6,0,0,0-5.39,1.92l-.44-1.07q2.68-1.11,5.49-2l.34,1.11ZM66.56,41.06c-1.69.89-3.33,1.87-4.91,2.91L61,43q2.43-1.6,5-3l.54,1ZM57,47.35q-2.22,1.8-4.26,3.8L52,50.33c1.38-1.36,2.84-2.66,4.35-3.88l.72.9Zm-8.15,8c-1.22,1.46-2.38,3-3.46,4.55l-1-.66q1.65-2.4,3.53-4.63l.88.74ZM42.4,64.75Q41,67.24,39.87,69.87l-1.06-.46q1.17-2.68,2.58-5.23l1,.57ZM37.85,75.21a56.06,56.06,0,0,0-1.5,5.52l-1.13-.25a58.12,58.12,0,0,1,1.53-5.62l1.1.35ZM35.4,86.36q-.34,2.81-.42,5.7l-1.15,0q.08-2.94.42-5.81l1.15.14ZM35,93.54c0,1.93.09,3.83.27,5.71l-1.15.11q-.29-2.88-.28-5.82Z"/><path class="cls-2" d="M94.23,149.29a56.66,56.66,0,0,0,7.3-.47c-2.25.25-4.53.4-6.83.43h-.18l-1.55,0,1.26,0Zm-12.4-1.38c-.75-7.38-1.36-15-1.89-22.45-3.9,5.93-8.46,11.86-11,17.78a55.31,55.31,0,0,0,12.9,4.67Zm31.57-2a56,56,0,0,0,35.95-43.2c-7.07,3.28-24.63,10.86-33.2,13,0,.12,0,.23,0,.35a.24.24,0,0,1-.17.23A159.53,159.53,0,0,1,113.4,145.92Z"/><path class="cls-1" d="M145.76,77c.29-1,.59-2,.89-3a56,56,0,0,0-14.17-21.31,29.49,29.49,0,0,1-16.06,6.41,62.19,62.19,0,0,0,12.52,10.6A66.29,66.29,0,0,0,145.76,77Z"/><path class="cls-2" d="M58.28,136.2c1.67-5.68,3.5-11.29,5.61-16.82.34-.9.7-1.8,1.06-2.69l0-.1,0-.06.26-.63.26-.6a2.56,2.56,0,0,1,.11-.24l.06-.15.24-.54.21-.45s0-.09.07-.14a1.89,1.89,0,0,1,.11-.25l.15-.3c.07-.16.15-.32.23-.47h0l0-.08,0-.07a30.64,30.64,0,0,1,5.91-8.44,18.83,18.83,0,0,1,9.09-4.94l0,0h0a16.08,16.08,0,0,1,3.06-1.71c.28-.11,1.77-.37,2.58-.56l1.37-16.24a6,6,0,0,1-3.57-2.53,2.93,2.93,0,0,1,.89-3.92,3.91,3.91,0,0,1,1.31-.35h.21a7.26,7.26,0,0,1,1.65.29,11.67,11.67,0,0,1-3-3.75c-.8-1.79-1.06-6-1.06-6A18.21,18.21,0,0,1,85.43,56a9.41,9.41,0,0,1,2.9-5.12l-.08-.2a2.33,2.33,0,0,1-.2-1.77l.1-.14h.12l2,.73.6-.25a3.62,3.62,0,0,1-.53-1.87V47.3a29.52,29.52,0,0,1-4.63-9.14,55.9,55.9,0,0,0-27.39,98ZM102.06,98l.28-.21.09-.09.51.09c4.94-1.94,10.33-2.67,15.62-3.38l22.23-3,.09,0c.06-.16.13-.31.19-.46a.17.17,0,0,1,.17-.12.24.24,0,0,1,.23.24,16.38,16.38,0,0,0,1-2.8L145.76,77a66.29,66.29,0,0,1-16.82-7.34,62.19,62.19,0,0,1-12.52-10.6c-.8.06-1.62.1-2.44.1s-1.91,0-2.85-.14c0,.19-.1.37-.16.55l-.09.09A27.81,27.81,0,0,1,112.51,64a44.3,44.3,0,0,1,1.72,12.9v.16a2.26,2.26,0,0,1,0,.26c0,.57,0,1.14-.08,1.71-.19,3-.83,6.17-3.1,8.08a8.55,8.55,0,0,1-5.17,1.79h-.52a28.11,28.11,0,0,1-5-.61h0l.54,3Z"/><path class="cls-6" d="M116.42,59.05a29.49,29.49,0,0,0,16.06-6.41,56.41,56.41,0,0,0-10.81-8,16.57,16.57,0,0,1-16.27-.15A111.63,111.63,0,0,0,116.42,59.05Z"/><path class="cls-7" d="M114,59.15c.82,0,1.64,0,2.44-.1a111.63,111.63,0,0,1-11-14.51A16.75,16.75,0,0,1,102,41.91a16.47,16.47,0,0,1-3.06-4.21c-1.54-.13-3.1-.19-4.68-.19a56.18,56.18,0,0,0-8.56.65A29.52,29.52,0,0,0,90.3,47.3a.29.29,0,0,1,.07-.16.22.22,0,0,1,.17-.07.73.73,0,0,1,.35.12l2.58,1.6.49-.11a3.56,3.56,0,0,1,0-1.34,1.23,1.23,0,0,1,.84-1l.43.24a5.13,5.13,0,0,0,4,2.54c1.61.28,3.26.16,4.87.43A9.09,9.09,0,0,1,109.85,53a7.36,7.36,0,0,1,1.28,6C112.07,59.1,113,59.15,114,59.15Z"/><path class="cls-3" d="M113.67,46.75a16.55,16.55,0,0,0,8-2.06,55.55,55.55,0,0,0-22.76-7A16.47,16.47,0,0,0,102,41.91a16.75,16.75,0,0,0,3.43,2.63A16.46,16.46,0,0,0,113.67,46.75Z"/><path class="cls-8" d="M100.35,88.34a25.71,25.71,0,0,0,5.52.6A8.55,8.55,0,0,0,111,87.15c2.27-1.91,2.91-5.12,3.1-8.08a44.13,44.13,0,0,0-1.63-15c-1.16-4-2.87-8-6.82-9.86-3.78-1.8-9.55-2-12.88.91a8.89,8.89,0,0,0-2.09,3c-2.32,5-1.58,10.89-.59,16.34a8.85,8.85,0,0,0-2.64-.52,3.91,3.91,0,0,0-1.31.35,2.93,2.93,0,0,0-.89,3.92,6,6,0,0,0,3.57,2.53L87.48,97a7.29,7.29,0,0,0,1.87,4,9,9,0,0,0,1.6,1.66,8.29,8.29,0,0,0,4.73,1.24,7,7,0,0,0,2.92-.35c1.8-.71,2.82-2.56,3.68-4.29Z"/><path class="cls-9" d="M88.93,78.57a.32.32,0,0,0,.32-.23,3.51,3.51,0,0,0-.15-1.19,5.73,5.73,0,0,0,.75.45l.13,0a.25.25,0,0,0,.21-.37A3.37,3.37,0,0,0,88,75.76h-.08c-.28,0-.44.43-.16.56a4.4,4.4,0,0,1,.66.39,1.6,1.6,0,0,0,.35,1.83A.26.26,0,0,0,88.93,78.57Z"/><path class="cls-10" d="M100.84,71.43c0,.66.08,1.67-.44,2.15a.66.66,0,0,1-.92,0c-.62-.52-.46-1.68-.23-2.36A.81.81,0,0,1,100.84,71.43Z"/><path class="cls-10" d="M110.52,71.43c0,.66.08,1.67-.44,2.15a.67.67,0,0,1-.93,0c-.61-.52-.45-1.68-.22-2.36A.81.81,0,0,1,110.52,71.43Z"/><path class="cls-10" d="M105.5,71a10,10,0,0,1,.46,2.61,7.74,7.74,0,0,1,0,2.63.23.23,0,0,1-.45,0,14,14,0,0,1-.2-2.43C105.21,72.87,105,72,105,71A.25.25,0,0,1,105.5,71Z"/><path class="cls-10" d="M108.93,78.18c-1.86,2-6.85,1.79-7.86-1.07-.07-.19.21-.35.35-.2,1.65,1.87,5.13,2.75,7.13.89A.27.27,0,0,1,108.93,78.18Z"/><path class="cls-9" d="M96.53,81a3.09,3.09,0,1,0-3.09-3.08A3.08,3.08,0,0,0,96.53,81Z"/><path class="cls-11" d="M114.22,77.36a2.26,2.26,0,0,0,0-.26v-.16C114.23,77.08,114.22,77.22,114.22,77.36Z"/><path class="cls-9" d="M111.93,79.4a2.3,2.3,0,0,0,2.29-2c0-.14,0-.28,0-.42a2.3,2.3,0,1,0-2.3,2.46Z"/><polygon class="cls-12" points="100.89 91.36 100.35 88.34 100.89 91.36 100.89 91.36"/><path class="cls-13" d="M100.89,91.36l-.54-3h-.11c-.5,0-2.78-.22-6.8-3.7C93.44,84.65,95.53,90.77,100.89,91.36Z"/><path class="cls-14" d="M90.23,49.53l-2-.73h-.12l-.1.14a2.33,2.33,0,0,0,.2,1.77l.08.2A9.45,9.45,0,0,0,85.43,56a18.21,18.21,0,0,0-.11,8.37s.26,4.23,1.06,6a13.57,13.57,0,0,0,3.56,4.3l.4.27a9.86,9.86,0,0,0,2.48-5.35,15.24,15.24,0,0,0-.43-5.93l.06-.33a2.94,2.94,0,0,0,1.88-.09,1.35,1.35,0,0,0,.79-1.56l.09-.19A15.69,15.69,0,0,0,105.8,63c2-.42,4-1.37,4.91-3.2l.26-.27A7.29,7.29,0,0,0,109.85,53,9.09,9.09,0,0,0,104,49.58c-1.61-.27-3.26-.15-4.87-.43a5.13,5.13,0,0,1-4-2.54l-.43-.24a1.23,1.23,0,0,0-.84,1,3.56,3.56,0,0,0,0,1.34l-.49.11-2.58-1.6c-.16-.1-.4-.19-.52,0a.37.37,0,0,0-.07.27,3.62,3.62,0,0,0,.53,1.87Z"/><path class="cls-15" d="M107.89,59.68a.28.28,0,0,0,.28-.25c.37-2.21-.39-4.8-2.48-5.9a.23.23,0,0,0-.14,0,.29.29,0,0,0-.21.49c1.45,1.45,2.46,3.14,2.16,5.26A.4.4,0,0,0,107.89,59.68Z"/><path class="cls-15" d="M105.14,60.37a.28.28,0,0,0,.29-.22,5.31,5.31,0,0,0-2.54-5.77.32.32,0,0,0-.16,0c-.31,0-.58.4-.29.63a5.71,5.71,0,0,1,2.38,5.1A.3.3,0,0,0,105.14,60.37Z"/><path class="cls-15" d="M102.14,60.48a.36.36,0,0,0,.36-.43,6.51,6.51,0,0,0-2.33-4A.32.32,0,0,0,100,56a.4.4,0,0,0-.25.64,8.45,8.45,0,0,1,2.11,3.62A.29.29,0,0,0,102.14,60.48Z"/><path class="cls-15" d="M98.85,60.93c.24,0,.44-.34.22-.51a7.55,7.55,0,0,1-2.37-3.48.27.27,0,0,0-.27-.17.21.21,0,0,0-.23.24,5.32,5.32,0,0,0,2.51,3.88A.23.23,0,0,0,98.85,60.93Z"/><path class="cls-15" d="M90.14,73.65a.41.41,0,0,0,.4-.29c.69-2,.88-4.51-.28-6.36a.39.39,0,0,0-.34-.2.41.41,0,0,0-.4.51c.48,2,.86,3.76.22,5.83A.39.39,0,0,0,90.14,73.65Z"/><path class="cls-15" d="M89.27,73.12c.29,0,.53-.39.27-.6a4,4,0,0,1-1-2.24c-.23-.86-.39-1.74-.7-2.57a.32.32,0,0,0-.31-.22.29.29,0,0,0-.3.3,10.45,10.45,0,0,0,.63,3.41,3.07,3.07,0,0,0,1.28,1.87A.25.25,0,0,0,89.27,73.12Z"/><path class="cls-15" d="M89.6,71.92a.26.26,0,0,0,.27-.27,14,14,0,0,0-.38-4.08.2.2,0,0,0-.21-.15.19.19,0,0,0-.2.21,31.9,31.9,0,0,1,.25,4A.26.26,0,0,0,89.6,71.92Z"/><path class="cls-15" d="M92.1,63.47a.38.38,0,0,0,.36-.54.33.33,0,0,1-.15,0,.31.31,0,0,1-.32-.32V62.4a7.72,7.72,0,0,1-1.37-3,.32.32,0,0,0-.32-.26.37.37,0,0,0-.38.35,4.81,4.81,0,0,0,1.93,3.87A.38.38,0,0,0,92.1,63.47Z"/><path class="cls-15" d="M92.46,62.93a.33.33,0,0,0,.19-.29A24.34,24.34,0,0,0,92.77,59a.36.36,0,0,0-.37-.36A.4.4,0,0,0,92,59a22.43,22.43,0,0,0,0,3.38,4,4,0,0,0,.4.43A.3.3,0,0,1,92.46,62.93Z"/><path class="cls-16" d="M92.31,63a.33.33,0,0,0,.15,0,.61.61,0,0,0-.07-.1,4,4,0,0,1-.4-.43v.24A.31.31,0,0,0,92.31,63Z"/><path class="cls-15" d="M89.19,55.64a.2.2,0,0,0,.2-.12,10.92,10.92,0,0,1,3.55-4.19,5.46,5.46,0,0,1,3.12-.95,12.79,12.79,0,0,1,3.79.77l.09,0c.26,0,.32-.41,0-.52a11.26,11.26,0,0,0-4.15-1,5.42,5.42,0,0,0-2.72.71,9.06,9.06,0,0,0-4.19,5A.25.25,0,0,0,89.19,55.64Z"/><path class="cls-15" d="M87,62.62a.23.23,0,0,0,.22-.27c-.23-1.09-.83-3.27.09-4.19a.28.28,0,0,0-.19-.46.17.17,0,0,0-.13,0c-1.33,1-.81,3.51-.15,4.77A.16.16,0,0,0,87,62.62Z"/><path class="cls-8" d="M156.94,70.8c0,.75-.09,1.5-.15,2.25a30.68,30.68,0,0,1-8.85-1.31,31.53,31.53,0,0,0-1.21-12.28,2.51,2.51,0,0,1-.19-1.23.83.83,0,0,1,.89-.7,1.23,1.23,0,0,1,.45.27C148.63,58.47,150,60,150,60c-.1-1.69-.19-3.38-.28-5.07,0-.48.06-1.21.73-1.11a1.15,1.15,0,0,1,.77.61,11.42,11.42,0,0,1,1.1,4.4c-.11-1,.32-4.8,1.48-5.12.74-.2,1,.66,1,1.2.16,1.54-.16,3.12.17,4.63,0-1-.12-5.22,1.79-4.74.59.15.78.9.8,1.52.06,1.51-.69,8.18-.64,9.26Q157.07,68.18,156.94,70.8Z"/><path class="cls-17" d="M155.68,64.84a.24.24,0,0,0,0-.47,2.92,2.92,0,0,1-1.91-1.05.22.22,0,0,0-.18-.08h-.08a.28.28,0,0,1,0,.44l-.12.1a2.85,2.85,0,0,0,2.25,1.05Z"/><path class="cls-17" d="M150.6,64.94h0a5,5,0,0,0,2.82-1.15l-.09-.13a.27.27,0,0,1,.17-.41.28.28,0,0,0-.18-.06.27.27,0,0,0-.14,0,6.81,6.81,0,0,1-2.66,1.12A.3.3,0,0,0,150.6,64.94Z"/><path class="cls-18" d="M153.43,63.79l.12-.1a.28.28,0,0,0,0-.44.27.27,0,0,0-.17.41Z"/><path class="cls-17" d="M151.56,61.27c.22,0,.4-.27.2-.44a7.24,7.24,0,0,0-1.3-.88l-.08.06a.24.24,0,0,1-.18.08.26.26,0,0,1-.23-.16.18.18,0,0,0,0,.27,7.76,7.76,0,0,0,1.44,1Z"/><path class="cls-19" d="M150,59.93l0,0c0-.07,0-.14,0-.21a.24.24,0,0,0,0,.24Z"/><path class="cls-17" d="M150.46,60a1,1,0,0,1,.62-.23h.19a.3.3,0,1,0,0-.59h-.14a1.49,1.49,0,0,0-1.14.52l0,0c0,.07,0,.14,0,.21a.26.26,0,0,1,.16-.07.23.23,0,0,1,.11,0l.19.1Zm-.49,0Z"/><path class="cls-20" d="M150,60a.25.25,0,0,1,0-.08l0,0Z"/><path class="cls-18" d="M150.2,60.09a.24.24,0,0,0,.18-.08l.08-.06-.19-.1a.23.23,0,0,0-.11,0,.26.26,0,0,0-.16.07.25.25,0,0,0,0,.08l0,0h0A.26.26,0,0,0,150.2,60.09Z"/><path class="cls-4" d="M114,116.12c7.77-1.11,30.27-10.94,36.71-14a8.92,8.92,0,0,0,5-6.77,162.71,162.71,0,0,0,1.72-23.54l-.33-.36-8.9-2.38-.07,0q-2.81,9.57-5.6,19.15a15.38,15.38,0,0,1-1.12,3l-.56.12-22.23,3c-6.29.84-12.72,1.72-18.38,4.61Z"/><path class="cls-12" d="M140.88,91.37l.47-.1.12-.24a.24.24,0,0,0-.23-.24.17.17,0,0,0-.17.12C141,91.06,140.94,91.21,140.88,91.37Z"/><path class="cls-21" d="M140.71,98.12a.3.3,0,0,0,.28-.27c0-1-.25-2.08-.21-3.14a11.75,11.75,0,0,1,.42-2.77c0-.13-.07-.25-.1-.37a.2.2,0,0,1,.19-.25.16.16,0,0,1,.09,0,2.25,2.25,0,0,1,.08-.24.25.25,0,0,0,0-.08l-.12.24-.47.1c-.75,2-1.32,4.76-.35,6.63A.2.2,0,0,0,140.71,98.12Z"/><path class="cls-21" d="M143.4,95.24c.16,0,.32-.17.19-.33a10.65,10.65,0,0,1-2.13-3.46.21.21,0,0,0-.08-.1c-.07.19-.12.39-.18.59a6.25,6.25,0,0,0,2.06,3.25A.24.24,0,0,0,143.4,95.24Z"/><path class="cls-22" d="M141.2,91.94c.06-.2.11-.4.18-.59a.16.16,0,0,0-.09,0,.2.2,0,0,0-.19.25C141.13,91.69,141.16,91.81,141.2,91.94Z"/><path class="cls-21" d="M144.27,93.75a.21.21,0,0,0,.13-.36,23.11,23.11,0,0,1-2.31-2.53.22.22,0,0,0-.17-.09.21.21,0,0,0-.19.32,6.29,6.29,0,0,0,2.44,2.64Z"/><path class="cls-8" d="M51.47,164q.31-1,.66-1.92a27.41,27.41,0,0,1,7.41,3.19,28.39,28.39,0,0,0-1.77,11,2.3,2.3,0,0,1-.13,1.11.74.74,0,0,1-.93.41,1.07,1.07,0,0,1-.33-.34C55.88,176.64,55,175,55,175c-.31,1.49-.62,3-.92,4.48-.09.43-.34,1.05-.9.8a1,1,0,0,1-.53-.71,10.43,10.43,0,0,1,0-4.09c-.14.93-1.38,4.11-2.47,4.12-.69,0-.71-.8-.63-1.28a38.94,38.94,0,0,0,.93-4.09c-.2.87-1.11,4.59-2.66,3.73-.49-.27-.47-1-.35-1.51.3-1.33,2.49-7,2.7-7.93C50.58,167,51,165.47,51.47,164Z"/><path class="cls-4" d="M85.73,114.53c-3.54,10.24-14.06,20.52-17.6,30.76-2.79,8-5.58,16.11-9.47,23.67l-1.7-.28q-3.08-1.44-6.25-2.66l0-.4c3.71-15.6,7.44-31.25,13.15-46.24,2.11-5.52,4.58-11.1,8.82-15.22s10.64-6.52,16.21-4.54Z"/><polygon class="cls-23" points="58.66 168.97 58.66 168.96 58.66 168.97 58.45 168.93 58.66 168.97"/><path class="cls-13" d="M58.45,168.93h0L57,168.68c-2-.94-4-1.81-6.11-2.61h0c2.07.8,4.1,1.67,6.11,2.61Z"/><path class="cls-21" d="M58.66,169h0l.05-.1c-1.63-.73-3.27-1.43-4.94-2.07l0-.4c3.71-15.6,7.44-31.25,13.15-46.24,2.1-5.53,4.58-11.1,8.82-15.23a19.18,19.18,0,0,1,2.94-2.35c.21-1.81,1.68-2.4,3.09-3.35a18.83,18.83,0,0,0-9.09,4.94,30.64,30.64,0,0,0-5.91,8.44l0,.07,0,.08h0c-.08.15-.16.31-.23.47l-.15.3a2.72,2.72,0,0,0-.11.25s0,.1-.07.14l-.21.45-.24.54-.06.15a2.56,2.56,0,0,0-.11.24l-.26.6-.26.63a.14.14,0,0,0,0,.06l0,.1c-.36.89-.72,1.79-1.06,2.69-5.71,15-9.44,30.64-13.15,46.24l0,.4.14,0c2.07.8,4.1,1.67,6.11,2.61l1.49.25Z"/><path class="cls-4" d="M78.7,102.72c.14-2,1.69-2.54,3.15-3.53a16.08,16.08,0,0,1,3.06-1.71c.38-.15,3-.57,3.09-.73l-.09.18A12.93,12.93,0,0,0,95,99.84a10.84,10.84,0,0,0,7.33-2.09l.09-.09c3.35.58,6.77,1.18,9.77,2.79a6.48,6.48,0,0,1,2.36,1.91c1.89,2.73,1.28,7.76,1.36,10.93a160,160,0,0,1-2.54,32.76c-.63.27-1.22.55-1.79.84a67.84,67.84,0,0,1-17.07,2.36c-2,0-4,.08-6,0-.77-.11-1.55-.16-2.32-.27-1.47-.3-2.92-.63-4.34-1-1-9.37-1.67-19.13-2.31-28.41C79.13,113.94,78.28,108.37,78.7,102.72Z"/><path class="cls-12" d="M93,149.27l1.55,0h0l-1.55,0Z"/><path class="cls-21" d="M79.94,125.46h0c-.15-2-.29-4-.42-5.91-.12-1.76-.29-3.52-.45-5.27h0c.16,1.75.33,3.51.45,5.27C79.65,121.5,79.79,123.48,79.94,125.46Z"/><path class="cls-12" d="M94.6,149.25h0Zm.08,0h0Z"/><path class="cls-21" d="M78.84,111.66h0a58,58,0,0,1-.14-8.94A58,58,0,0,0,78.84,111.66Z"/><path class="cls-12" d="M81.8,99.22h0l0,0Z"/><path class="cls-21" d="M78.7,102.64s0,0,0-.07h0a.15.15,0,0,1,0,.07Zm3.1-3.42Z"/><path class="cls-22" d="M78.71,102.57h0c.21-1.81,1.68-2.4,3.09-3.35h0C80.39,100.17,78.92,100.76,78.71,102.57Z"/><path class="cls-21" d="M91.19,149.29l1.78,0,1.55,0h.18a67.9,67.9,0,0,0,10.7-1c-3.82.07-8.11.12-11.72.12-4.31,0-7.65-.08-8-.32-1.17-10.53-2-21.74-2.73-32.31-.14-1.89-.32-3.78-.49-5.66a31.29,31.29,0,0,1-2.92,4.74.23.23,0,0,1-.18.09.19.19,0,0,1-.18-.3c1-1.59,1.86-3.35,3-4.87a.25.25,0,0,1,.19-.09h.08A66.29,66.29,0,0,1,82.09,99l-.24.16h0l0,0h0c-1.41,1-2.88,1.54-3.09,3.35a.15.15,0,0,1,0,.07v.08h0a58,58,0,0,0,.14,8.94,30.25,30.25,0,0,1,1.11-5,.28.28,0,0,1,.27-.21.3.3,0,0,1,.31.37c-.49,2.5-1,5-1.46,7.47.16,1.75.33,3.51.45,5.27.13,2,.27,3.93.42,5.91.54,7.46,1.14,15.1,1.89,22.5,1.42.37,2.87.7,4.34,1,.77.11,1.55.16,2.32.27S90.29,149.29,91.19,149.29Z"/><path class="cls-21" d="M78.49,115.51c.13,0,.28-.09.26-.24s0-.32,0-.49a.23.23,0,0,1-.19-.23c0-.27,0-.54.08-.81a12.14,12.14,0,0,0-1.42-4.58A.21.21,0,0,0,77,109a.26.26,0,0,0-.26.31c.48,2,1.22,3.91,1.54,6A.21.21,0,0,0,78.49,115.51Z"/><path class="cls-21" d="M78.78,114.79a.22.22,0,0,0,.23-.18l.06-.33c-.08-.88-.16-1.75-.23-2.62-.1.69-.18,1.39-.24,2.08,0,.35.08.7.11,1Z"/><path class="cls-22" d="M79.07,114.28h0c-.08-.88-.16-1.75-.23-2.62h0C78.91,112.53,79,113.4,79.07,114.28Z"/><path class="cls-22" d="M79.07,114.28c.42-2.51,1-5,1.46-7.47a.3.3,0,0,0-.31-.37.28.28,0,0,0-.27.21,30.25,30.25,0,0,0-1.11,5C78.91,112.53,79,113.4,79.07,114.28Z"/><path class="cls-22" d="M78.71,114.78c0-.34-.07-.69-.11-1,0,.27,0,.54-.08.81A.23.23,0,0,0,78.71,114.78Z"/><path class="cls-21" d="M82.43,110.09l.08-.18a.17.17,0,0,0-.12-.24C82.41,109.81,82.42,110,82.43,110.09Z"/><path class="cls-22" d="M79.33,114.92a.23.23,0,0,0,.18-.09,31.29,31.29,0,0,0,2.92-4.74c0-.14,0-.28,0-.42h-.08a.25.25,0,0,0-.19.09c-1.11,1.52-2,3.28-3,4.87A.19.19,0,0,0,79.33,114.92Z"/><path class="cls-12" d="M116,116.26a.24.24,0,0,0,.17-.23c0-.12,0-.23,0-.35l-.18,0Z"/><path class="cls-21" d="M116,115.72l.18,0c0-.34,0-.69,0-1l0,.18a.2.2,0,0,1-.11.14c0,.07,0,.13,0,.2S116,115.54,116,115.72Z"/><path class="cls-21" d="M115.89,116.27H116v-.54c0-.18,0-.37,0-.56,0,.18-.07.37-.11.55a.16.16,0,0,1-.17.14h-.05c0,.06,0,.13,0,.19a.24.24,0,0,0,.25.24Zm-.38-1.67a39,39,0,0,0-.33-5.55,16.68,16.68,0,0,0-2.78-5.36.16.16,0,0,0-.14-.08.26.26,0,0,0-.22.36A31.17,31.17,0,0,1,115.51,114.6Z"/><path class="cls-21" d="M115.63,115.84q0-.63-.12-1.23c0,.34,0,.7,0,1A.18.18,0,0,0,115.63,115.84Z"/><path class="cls-21" d="M116,112.58c.09-.61.18-1.22.28-1.83a21.38,21.38,0,0,0-.31-2.76c0,1.47,0,3,0,4.26C115.93,112.36,116,112.47,116,112.58Z"/><path class="cls-21" d="M115.92,112.25c0-1.3.06-2.79,0-4.26a19.89,19.89,0,0,0-1.47-4.81.2.2,0,0,0-.2-.13.27.27,0,0,0-.27.32,40.24,40.24,0,0,1,1.19,5.68A22.14,22.14,0,0,1,115.92,112.25Z"/><path class="cls-22" d="M116,115.16c0-.07,0-.13,0-.2h0v.19Zm0-2.25c0-.11,0-.22,0-.33s0-.22,0-.33Q115.91,112.58,115.92,112.91Z"/><path class="cls-22" d="M115.68,115.85a.16.16,0,0,0,.17-.14c0-.18.08-.37.11-.55V115h-.06a.21.21,0,0,1-.23-.22c.08-.62.16-1.23.25-1.85q0-.33,0-.66a22.14,22.14,0,0,0-.74-3.2,39,39,0,0,1,.33,5.56q.08.6.12,1.23Z"/><path class="cls-21" d="M116.14,114.64c.39-2.5,1-5,1.35-7.47a.25.25,0,0,0-.24-.29.2.2,0,0,0-.2.17,32.94,32.94,0,0,0-.81,3.7,20.2,20.2,0,0,1-.13,3.4Z"/><path class="cls-22" d="M116,115a.2.2,0,0,0,.11-.14l0-.18,0-.49C116.08,114.42,116,114.69,116,115Z"/><path class="cls-22" d="M116.11,114.15a20.2,20.2,0,0,0,.13-3.4c-.1.61-.19,1.22-.28,1.83C116,113.1,116.08,113.63,116.11,114.15Z"/><path class="cls-24" d="M116,115h0c0-.27.08-.54.11-.81,0-.52-.08-1.05-.15-1.57,0,.11,0,.22,0,.33v.38C115.94,113.85,116,114.41,116,115Z"/><path class="cls-24" d="M115.9,115H116c0-.56,0-1.12,0-1.68v-.38c-.09.62-.17,1.23-.25,1.85A.21.21,0,0,0,115.9,115Z"/><path class="cls-25" d="M99.05,112.91a7.88,7.88,0,0,1,2.46,15.37v4.84h-1v1.47h-3v-1.47h-1v-4.84a7.88,7.88,0,0,1,2.47-15.37Z"/><path class="cls-25" d="M99.05,111.43a.49.49,0,0,1-.5-.49v-2a.5.5,0,1,1,1,0v2A.49.49,0,0,1,99.05,111.43Z"/><path class="cls-25" d="M87.22,120.3h2a.5.5,0,0,1,0,1h-2a.5.5,0,1,1,0-1Z"/><path class="cls-25" d="M108.9,120.3h2a.5.5,0,1,1,0,1h-2a.5.5,0,0,1,0-1Z"/><path class="cls-25" d="M91,112.08l1.39,1.4a.5.5,0,0,1-.35.84.46.46,0,0,1-.34-.15l-1.4-1.39a.49.49,0,0,1,.7-.7Z"/><path class="cls-25" d="M106.36,127.42l1.4,1.39a.5.5,0,0,1,0,.7.51.51,0,0,1-.7,0l-1.39-1.4a.49.49,0,0,1,.69-.69Z"/><path class="cls-25" d="M91.73,127.42a.49.49,0,0,1,.69.69L91,129.51a.51.51,0,0,1-.7,0,.5.5,0,0,1,0-.7Z"/><path class="cls-25" d="M106.36,114.17a.46.46,0,0,1-.34.15.5.5,0,0,1-.35-.84l1.39-1.4a.49.49,0,0,1,.7.7Z"/><path class="cls-14" d="M47.54,28.92c16.11,0,29.18,9.79,29.18,21.87A17.72,17.72,0,0,1,73,61.42L74,67.3,75,74a1.79,1.79,0,0,1-2.4,2L66.31,73.5l-7-2.69a37.72,37.72,0,0,1-11.75,1.85c-16.11,0-29.17-9.79-29.17-21.87S31.43,28.92,47.54,28.92Z"/><path class="cls-26" d="M12.5,94.07l2.63-2.77L24,97.56a1.73,1.73,0,0,1-1.11.56L3.06,100a1.68,1.68,0,0,1-1.18-.35l7.53-7.77Z"/><path class="cls-26" d="M.43,84a1.66,1.66,0,0,1,1.1-.56l19.81-1.83a1.69,1.69,0,0,1,1.18.35L12.35,92.42Z"/><polygon class="cls-26" points="23.14 82.89 24.4 96.62 15.79 90.57 23.14 82.89"/><polygon class="cls-26" points="8.63 91.23 1.27 98.75 0 85.02 8.63 91.23"/><path class="cls-26" d="M18.45,116.36,20.91,115l4.77,6.35a1.18,1.18,0,0,1-.89.14l-14.27-3.15a1.21,1.21,0,0,1-.74-.5l7-3.75Z"/><path class="cls-26" d="M12.26,106.59a1.24,1.24,0,0,1,.89-.14l14.27,3.15a1.22,1.22,0,0,1,.75.51l-9.46,5.06Z"/><polygon class="cls-26" points="28.39 110.91 26.2 120.8 21.53 114.64 28.39 110.91"/><polygon class="cls-26" points="16.37 113.5 9.54 117.12 11.72 107.23 16.37 113.5"/><path class="cls-26" d="M10.47,131l1.4-1.75,5.45,3.23a1,1,0,0,1-.62.38l-11.46,2a1,1,0,0,1-.7-.14l4-4.89Z"/><path class="cls-26" d="M3,125.65a1,1,0,0,1,.62-.37l11.45-2a1,1,0,0,1,.71.14L10.3,130Z"/><polygon class="cls-26" points="16.14 123.94 17.53 131.88 12.22 128.76 16.14 123.94"/><polygon class="cls-26" points="8.08 129.49 4.14 134.23 2.75 126.28 8.08 129.49"/><path class="cls-25" d="M29.7,48.36v2.19H33V48.36a1,1,0,0,1,.21-.7.77.77,0,0,1,1.12,0,1,1,0,0,1,.22.7v6a1,1,0,0,1-.22.7.74.74,0,0,1-.56.24.7.7,0,0,1-.56-.24,1,1,0,0,1-.21-.7V51.81H29.7v2.58a1,1,0,0,1-.22.7.75.75,0,0,1-.57.24.71.71,0,0,1-.56-.24,1.08,1.08,0,0,1-.2-.7v-6a1.08,1.08,0,0,1,.2-.7.71.71,0,0,1,.56-.24.73.73,0,0,1,.57.24,1,1,0,0,1,.22.7Zm11.59.39H37.8v1.88H41a.72.72,0,0,1,.52.16.52.52,0,0,1,.18.42.57.57,0,0,1-.17.42.75.75,0,0,1-.53.16H37.8V54h3.61a.79.79,0,0,1,.55.17.57.57,0,0,1,.19.45A.55.55,0,0,1,42,55a.79.79,0,0,1-.55.17H37.2a1,1,0,0,1-.72-.22,1,1,0,0,1-.23-.73V48.5a1.37,1.37,0,0,1,.1-.54.62.62,0,0,1,.31-.31,1.21,1.21,0,0,1,.54-.1h4.09a.79.79,0,0,1,.55.17.6.6,0,0,1,0,.86.79.79,0,0,1-.55.17Zm3.61-.39v5.57H48a.81.81,0,0,1,.57.18.58.58,0,0,1,.2.46.59.59,0,0,1-.19.46.91.91,0,0,1-.58.17H44.3a.81.81,0,0,1-.95-1V48.36a1,1,0,0,1,.21-.7.69.69,0,0,1,.55-.24.73.73,0,0,1,.57.24,1,1,0,0,1,.22.7Zm6.45,0v5.57h3.14a.81.81,0,0,1,.57.18.59.59,0,0,1,.21.46.6.6,0,0,1-.2.46.89.89,0,0,1-.58.17H50.75a.81.81,0,0,1-1-1V48.36a1,1,0,0,1,.21-.7.77.77,0,0,1,1.12,0,1,1,0,0,1,.22.7Zm7.77-.94a4,4,0,0,1,2,.49,3.06,3.06,0,0,1,1.29,1.37,4.7,4.7,0,0,1,.44,2.09A5.13,5.13,0,0,1,62.65,53a3.45,3.45,0,0,1-.72,1.25,3.1,3.1,0,0,1-1.18.82,4.23,4.23,0,0,1-1.6.28A4.32,4.32,0,0,1,57.54,55a3.21,3.21,0,0,1-1.18-.82A3.41,3.41,0,0,1,55.64,53a5.2,5.2,0,0,1-.24-1.6,4.92,4.92,0,0,1,.25-1.62,3.46,3.46,0,0,1,.74-1.25,3,3,0,0,1,1.16-.79,4.07,4.07,0,0,1,1.57-.28Zm2.2,3.94a3.62,3.62,0,0,0-.27-1.46,2,2,0,0,0-.78-.93,2.11,2.11,0,0,0-1.15-.32,2,2,0,0,0-.86.18,1.77,1.77,0,0,0-.68.51,2.36,2.36,0,0,0-.45.85A4.19,4.19,0,0,0,57,51.36a4.37,4.37,0,0,0,.16,1.18,2.41,2.41,0,0,0,.47.87,2,2,0,0,0,.69.52,2.15,2.15,0,0,0,.85.17,2.05,2.05,0,0,0,1.09-.3,2,2,0,0,0,.79-.92,3.46,3.46,0,0,0,.3-1.52Zm5.94.53-.17-2.5c0-.49,0-.84,0-1a.94.94,0,0,1,.23-.67.76.76,0,0,1,.6-.25.6.6,0,0,1,.59.31,2.15,2.15,0,0,1,.15.9c0,.23,0,.46,0,.7l-.23,2.57a1.93,1.93,0,0,1-.15.7.42.42,0,0,1-.4.25.41.41,0,0,1-.39-.24,2.47,2.47,0,0,1-.15-.72Zm.57,3.43a.81.81,0,0,1-.55-.21.7.7,0,0,1-.24-.57.75.75,0,0,1,.23-.55.78.78,0,0,1,1.11,0,.8.8,0,0,1,0,1.12A.81.81,0,0,1,67.83,55.32Z"/></g></g></svg>