<svg xmlns="http://www.w3.org/2000/svg" xmlns:xlink="http://www.w3.org/1999/xlink" viewBox="0 0 48.81 72.69"><defs><style>.cls-1{fill:none;clip-rule:evenodd;}.cls-2{fill:#b68856;}.cls-10,.cls-11,.cls-12,.cls-13,.cls-14,.cls-2,.cls-3,.cls-4,.cls-5,.cls-7,.cls-8,.cls-9{fill-rule:evenodd;}.cls-3{fill:#936d40;}.cls-4{fill:#573c15;}.cls-5{fill:#080302;}.cls-6{clip-path:url(#clip-path);}.cls-7{fill:#fff;}.cls-8{fill:#43525a;}.cls-9{fill:#fff200;}.cls-10{fill:#231f20;}.cls-11{fill:#00aeef;}.cls-12{fill:#ec008c;}.cls-13{fill:#939598;}.cls-14{fill:#647883;}</style><clipPath id="clip-path"><path class="cls-1" d="M19.36,6.26h7.39l7.39,0a2.47,2.47,0,0,1,2.47,2.45h0a2.42,2.42,0,0,1-2.47,2.38l-7.4,0-7.39,0a2.45,2.45,0,0,1-2.46-2.4h0A2.4,2.4,0,0,1,19.36,6.26Z"/></clipPath></defs><title>hand-bags</title><g id="Layer_2" data-name="Layer 2"><g id="Layer_1-2" data-name="Layer 1"><path class="cls-2" d="M2.07.51,25.43.27,48.81,0q0,16.65,0,33.29t0,33.29c-7.09,1.11-14.18,2.21-21.26,3.22s-14.18,2-21.27,2.89q-1.05-18.13-2.1-36.2T2.07.51Z"/><path class="cls-3" d="M2.07.51q-.52,16-1,32T0,64.48l6.24,8.21q-1.05-18.13-2.1-36.2T2.07.51Z"/><path class="cls-4" d="M5.59,61.45,0,64.48l6.24,8.21Q5.91,67.07,5.59,61.45Z"/><path class="cls-5" d="M19.36,6.26h7.39l7.39,0a2.47,2.47,0,0,1,2.47,2.45h0a2.42,2.42,0,0,1-2.47,2.38l-7.4,0-7.39,0a2.45,2.45,0,0,1-2.46-2.4h0A2.4,2.4,0,0,1,19.36,6.26Z"/><g class="cls-6"><path class="cls-7" d="M17.55,6l14.78-.14a2.46,2.46,0,0,1,2.46,2.46h0a2.49,2.49,0,0,1-2.46,2.47l-14.78.14a2.46,2.46,0,0,1-2.46-2.46h0A2.49,2.49,0,0,1,17.55,6Z"/></g><path class="cls-7" d="M16.17,19.38l9.3.15c3.09,0,6.19.12,9.29.16a1.84,1.84,0,0,1,1.84,1.79q0,6.9,0,13.81c0,4.6,0,9.21,0,13.8a2.14,2.14,0,0,1-1.67,2l-8.44,1.44c-2.81.48-5.63.93-8.44,1.39a1.64,1.64,0,0,1-1.78-1.71q-.45-7.74-.89-15.49c-.29-5.15-.59-10.31-.89-15.45A1.74,1.74,0,0,1,16.17,19.38Z"/><path class="cls-8" d="M22,22.6H18.49c.11,2.23.21,4.45.32,6.67v.5c0,.16,0,.32,0,.48.1,1.93.19,3.87.28,5.8s.19,3.87.29,5.8c0,1.27.11,2.52.17,3.78,1.1-.14,2.2-.27,3.31-.39l3.32-.4c0-1.21-.08-2.42-.1-3.64l-3.36.33c-.07-1.82-.15-3.63-.22-5.44a5.56,5.56,0,0,0,3.44.74,7.8,7.8,0,0,0,4.77-2.44,7.56,7.56,0,0,0,2-5.11,7,7,0,0,0-2.12-4.95,7.89,7.89,0,0,0-5.05-2.09,5.8,5.8,0,0,0-3.51,1c0-.21,0-.41,0-.61ZM22.3,30c0-.23,0-.46,0-.7a3.47,3.47,0,0,1,3.38-3.44,3.62,3.62,0,0,1,3.59,3.55,3.71,3.71,0,0,1-3.38,3.78A3.48,3.48,0,0,1,22.3,30Z"/><path class="cls-9" d="M27.79,41a1.92,1.92,0,0,0-1.63,2,1.58,1.58,0,0,0,1.71,1.62,2,2,0,0,0,1.62-2A1.57,1.57,0,0,0,27.79,41Z"/><path class="cls-10" d="M31.13,40.69a1.54,1.54,0,0,1,1.69,1.58,2,2,0,0,1-1.64,2,1.54,1.54,0,0,1-1.69-1.59A1.92,1.92,0,0,1,31.13,40.69Z"/><path class="cls-11" d="M27.79,41a1.61,1.61,0,0,1-1.73-1.65,1.85,1.85,0,0,1,1.63-1.94,1.6,1.6,0,0,1,1.73,1.64A1.92,1.92,0,0,1,27.79,41Z"/><path class="cls-12" d="M31.13,40.69a1.93,1.93,0,0,0,1.66-1.93,1.59,1.59,0,0,0-1.71-1.61,1.87,1.87,0,0,0-1.66,1.92A1.58,1.58,0,0,0,31.13,40.69Z"/><path class="cls-13" d="M20.06,47.41a.15.15,0,0,1,.13,0,.24.24,0,0,1,0,.14.23.23,0,0,1,0,.14.2.2,0,0,1-.12.09.21.21,0,0,1-.13-.05.2.2,0,0,1-.05-.14.23.23,0,0,1,0-.14.13.13,0,0,1,.12-.07Zm-.07.78a1.66,1.66,0,0,0,.22,0l.09,2.17a.72.72,0,0,1-.05.36.27.27,0,0,1-.2.13.42.42,0,0,1-.24,0c0-.06,0-.14,0-.2a.29.29,0,0,0,.15,0,.15.15,0,0,0,.13-.1,1.29,1.29,0,0,0,0-.23c0-.7-.06-1.4-.1-2.1Zm.63-.08.21,0c0,.3,0,.59,0,.88a1.89,1.89,0,0,0,.05.44.41.41,0,0,0,.18.24.52.52,0,0,0,.61-.08.61.61,0,0,0,.16-.28,2.81,2.81,0,0,0,0-.46c0-.29,0-.58,0-.87a1.66,1.66,0,0,1,.22,0c0,.3,0,.61,0,.91a1.58,1.58,0,0,1-.06.59.7.7,0,0,1-.22.35.69.69,0,0,1-.39.16.68.68,0,0,1-.41,0,.6.6,0,0,1-.25-.27,1.72,1.72,0,0,1-.11-.59c0-.31,0-.6,0-.91ZM23.37,48l-.13.17A.4.4,0,0,0,22.9,48a.23.23,0,0,0-.17.1.28.28,0,0,0-.07.19.23.23,0,0,0,.07.17.78.78,0,0,0,.26.16,1,1,0,0,1,.33.21.5.5,0,0,1,.09.29.64.64,0,0,1-.13.41.49.49,0,0,1-.34.2.42.42,0,0,1-.27,0,.46.46,0,0,1-.23-.17s.09-.12.14-.18a.35.35,0,0,0,.34.16.38.38,0,0,0,.21-.12.35.35,0,0,0,.08-.24.25.25,0,0,0-.06-.17.82.82,0,0,0-.28-.16.79.79,0,0,1-.31-.21.45.45,0,0,1-.09-.28.52.52,0,0,1,.43-.55.58.58,0,0,1,.47.19Zm.52-1,.21,0,0,.69.33,0a1.34,1.34,0,0,0,0,.2l-.33,0c0,.55,0,1.1.06,1.65l-.21,0c0-.54,0-1.09-.06-1.63l-.29,0a1.55,1.55,0,0,1,0-.22l.29,0Z"/><path class="cls-14" d="M25.17,47.5v.2a1.23,1.23,0,0,1,.24-.22.67.67,0,0,1,.28-.1.64.64,0,0,1,.55.2.94.94,0,0,1,.25.66,1.09,1.09,0,0,1-.22.71.82.82,0,0,1-.53.36.48.48,0,0,1-.27,0,.69.69,0,0,1-.24-.15c0,.29,0,.57,0,.87l-.4.05c0-.83-.07-1.67-.1-2.51l.42,0Zm.44.32a.51.51,0,0,0-.32.19.62.62,0,0,0-.11.41.54.54,0,0,0,.14.37.41.41,0,0,0,.33.11.48.48,0,0,0,.31-.2.66.66,0,0,0,.12-.41.56.56,0,0,0-.14-.36.34.34,0,0,0-.33-.11Zm1.1-.52c.11,0,.24,0,.35-.06a2,2,0,0,1,0,.24.69.69,0,0,1,.14-.24.48.48,0,0,1,.21-.09.35.35,0,0,1,.17,0l-.12.42a.27.27,0,0,0-.12,0c-.06,0-.11,0-.15.14a1.37,1.37,0,0,0-.05.52v.09c0,.24,0,.49,0,.73-.14,0-.28.05-.42.06,0-.61,0-1.2,0-1.81Zm1.23-.91a.22.22,0,0,1,.19.06.26.26,0,0,1,.08.19.3.3,0,0,1-.07.21A.31.31,0,0,1,28,47a.19.19,0,0,1-.19-.07.24.24,0,0,1-.09-.2.37.37,0,0,1,.08-.21.19.19,0,0,1,.18-.1Zm-.19.76c.14,0,.27,0,.41-.06,0,.6,0,1.21.05,1.81L27.8,49c0-.6,0-1.2-.05-1.81Zm.79-.11L29,47v.18A1.11,1.11,0,0,1,29.2,47a.53.53,0,0,1,.24-.08.49.49,0,0,1,.41.12.66.66,0,0,1,.16.45c0,.39,0,.79,0,1.18l-.4.06c0-.26,0-.51,0-.79a2.25,2.25,0,0,0,0-.41.24.24,0,0,0-.1-.15.17.17,0,0,0-.16,0,.33.33,0,0,0-.21.12.52.52,0,0,0-.12.26,3.25,3.25,0,0,0,0,.37c0,.24,0,.49,0,.73l-.41.06c0-.6,0-1.2,0-1.81Zm1.89-.91.42-.06c0,.22,0,.43,0,.65l.25,0v.38l-.24,0c0,.47,0,.94,0,1.39l-.41.06,0-1.39-.2,0c0-.13,0-.26,0-.39l.21,0C30.44,46.56,30.44,46.34,30.43,46.13Z"/><path class="cls-13" d="M31.6,45.89a.13.13,0,0,1,.13,0,.17.17,0,0,1,.05.12.2.2,0,0,1,0,.13.26.26,0,0,1-.13.08.11.11,0,0,1-.12,0,.22.22,0,0,1,0-.13.2.2,0,0,1,0-.14.15.15,0,0,1,.11-.07Zm-.08.74a.69.69,0,0,0,.2,0q0,.9,0,1.77l-.21,0c0-.59,0-1.17,0-1.77Zm.82-.77.22,0v.66l.33-.05a1.34,1.34,0,0,1,0,.19c-.11,0-.23,0-.34.06,0,.52,0,1,0,1.56a1.52,1.52,0,0,0-.21,0c0-.53,0-1,0-1.57l-.29,0v-.2l.29,0C32.35,46.3,32.34,46.08,32.34,45.86Z"/></g></g></svg>