<svg xmlns="http://www.w3.org/2000/svg" xmlns:xlink="http://www.w3.org/1999/xlink" viewBox="0 0 43.18 71.36"><defs><style>.cls-1,.cls-6{fill:none;}.cls-2{fill:#bbbdbf;}.cls-14,.cls-3{fill:#fff;}.cls-4{clip-path:url(#clip-path);}.cls-5{fill:#e6e7e8;}.cls-6{stroke:#bbbdbf;stroke-width:0.22px;}.cls-14,.cls-6{stroke-miterlimit:2.61;}.cls-7{fill:#43525a;}.cls-10,.cls-11,.cls-12,.cls-13,.cls-15,.cls-16,.cls-7,.cls-8,.cls-9{fill-rule:evenodd;}.cls-8{fill:#fff100;}.cls-9{fill:#231f20;}.cls-10{fill:#00adee;}.cls-11{fill:#eb008b;}.cls-12{fill:#929497;}.cls-13{fill:#647882;}.cls-14{stroke:#e6e7e8;stroke-width:0.5px;}.cls-15{fill:#839ca9;}.cls-16{fill:#2e3191;}</style><clipPath id="clip-path"><rect class="cls-1" x="0.19" y="0.84" width="42.11" height="68.49" rx="3.28"/></clipPath></defs><title>id-card</title><g id="Layer_2" data-name="Layer 2"><g id="Layer_1-2" data-name="Layer 1"><rect class="cls-2" x="1.07" width="42.11" height="68.49" rx="3.28"/><rect class="cls-3" x="0.19" y="0.84" width="42.11" height="68.49" rx="3.28"/><g class="cls-4"><rect class="cls-5" y="23.47" width="42.48" height="47.89"/></g><rect class="cls-6" x="0.19" y="0.84" width="42.11" height="68.49" rx="3.28"/><path class="cls-7" d="M5,3.61H3.09V15.27H6.91V13.36H5v-2.8a3.86,3.86,0,0,0,1.91.51,3.83,3.83,0,1,0,0-7.65A3.76,3.76,0,0,0,5,3.93V3.61ZM5,7.42V7.07a1.92,1.92,0,1,1,0,.35Z"/><path class="cls-8" d="M7.87,15.27a1,1,0,1,0-1-.95A1,1,0,0,0,7.87,15.27Z"/><path class="cls-9" d="M9.77,15.27a1,1,0,1,0-.95-.95A1,1,0,0,0,9.77,15.27Z"/><path class="cls-10" d="M7.87,13.36a1,1,0,1,0-1-.95A1,1,0,0,0,7.87,13.36Z"/><path class="cls-11" d="M9.77,13.36a.95.95,0,1,0-.95-.95A1,1,0,0,0,9.77,13.36Z"/><path class="cls-12" d="M13.37,7.63a.23.23,0,0,1,.17.07.29.29,0,0,1,.07.18.24.24,0,0,1-.24.24.24.24,0,0,1-.17-.07.23.23,0,0,1-.07-.17.24.24,0,0,1,.07-.18.21.21,0,0,1,.17-.07Zm-.15.94h.3V11.2a.63.63,0,0,1-.11.41.33.33,0,0,1-.28.13.85.85,0,0,1-.33-.07v-.26a.48.48,0,0,0,.21.06.19.19,0,0,0,.18-.1.68.68,0,0,0,0-.26V8.57Zm.87,0h.3V9.64a2.14,2.14,0,0,0,0,.53.57.57,0,0,0,.24.33.75.75,0,0,0,.42.13.7.7,0,0,0,.42-.12.6.6,0,0,0,.24-.31,2.28,2.28,0,0,0,0-.56V8.57h.3V9.69a1.67,1.67,0,0,1-.11.71.79.79,0,0,1-.33.37,1,1,0,0,1-.55.14,1.06,1.06,0,0,1-.56-.14.87.87,0,0,1-.34-.37,1.93,1.93,0,0,1-.11-.73V8.57Zm3.81.25L17.71,9a.7.7,0,0,0-.46-.23.37.37,0,0,0-.25.1.29.29,0,0,0,0,.43,1,1,0,0,0,.35.24,1.11,1.11,0,0,1,.44.33.6.6,0,0,1,.12.36.63.63,0,0,1-.2.47.66.66,0,0,1-.49.2.85.85,0,0,1-.38-.09.76.76,0,0,1-.3-.23l.19-.21a.64.64,0,0,0,.48.25.48.48,0,0,0,.3-.11.37.37,0,0,0,.12-.27.35.35,0,0,0-.08-.22,1.34,1.34,0,0,0-.37-.25,1.08,1.08,0,0,1-.42-.31.54.54,0,0,1-.11-.35.58.58,0,0,1,.17-.44.64.64,0,0,1,.45-.17.92.92,0,0,1,.64.31Zm.77-1.1H19v.85h.47v.25H19v2h-.29v-2h-.4V8.57h.4Z"/><path class="cls-13" d="M20.41,8.57v.25a1,1,0,0,1,.33-.23,1,1,0,0,1,.39-.08,1,1,0,0,1,.76.34,1.33,1.33,0,0,1,0,1.72,1,1,0,0,1-.77.34.86.86,0,0,1-.36-.07,1,1,0,0,1-.34-.23v1.08h-.57V8.57ZM21,9a.61.61,0,0,0-.45.18.68.68,0,0,0-.18.48.7.7,0,0,0,.18.5.62.62,0,0,0,.45.19.59.59,0,0,0,.44-.2.66.66,0,0,0,.18-.48.65.65,0,0,0-.18-.48A.55.55,0,0,0,21,9Zm1.53-.47H23v.29a.61.61,0,0,1,.21-.26.5.5,0,0,1,.29-.09.53.53,0,0,1,.23.06l-.18.5A.32.32,0,0,0,23.43,9a.26.26,0,0,0-.23.16,1.5,1.5,0,0,0-.09.64v1h-.58V8.57Zm1.74-.94a.38.38,0,0,1,.37.37.35.35,0,0,1-.11.26.33.33,0,0,1-.26.11A.36.36,0,0,1,24,8.26.37.37,0,0,1,23.91,8,.34.34,0,0,1,24,7.74a.36.36,0,0,1,.26-.11ZM24,8.57h.57v2.28H24V8.57Zm1.09,0h.58V8.8A1.42,1.42,0,0,1,26,8.58a.71.71,0,0,1,.32-.07.78.78,0,0,1,.58.24.82.82,0,0,1,.2.6v1.5h-.57v-1a3.06,3.06,0,0,0,0-.54.37.37,0,0,0-.13-.2A.35.35,0,0,0,26.15,9a.48.48,0,0,0-.3.11.65.65,0,0,0-.17.33,2.39,2.39,0,0,0,0,.46v.91h-.58V8.57Zm2.65-.84h.58v.84h.34v.49h-.34v1.79h-.58V9.06h-.29V8.57h.29Z"/><path class="cls-12" d="M29.37,7.63a.22.22,0,0,1,.17.07.23.23,0,0,1,.07.17.24.24,0,0,1-.07.18.26.26,0,0,1-.17.07.28.28,0,0,1-.17-.07.24.24,0,0,1-.07-.18.24.24,0,0,1,.24-.24Zm-.14.94h.29v2.28h-.29V8.57Zm1.15-.85h.3v.85h.46v.25h-.46v2h-.3v-2H30V8.57h.4Z"/><rect class="cls-14" x="13.58" y="13.63" width="17.7" height="21.32"/><path class="cls-15" d="M22.43,26.1a4.31,4.31,0,1,0-4.31-4.31A4.31,4.31,0,0,0,22.43,26.1Z"/><path class="cls-7" d="M22.43,26.1A8.86,8.86,0,0,1,31.29,35H13.58A8.86,8.86,0,0,1,22.43,26.1Z"/><path class="cls-16" d="M6.37,38.91a5.92,5.92,0,0,1,.35.55h0c0-.26,0-.45,0-.57V38h.37v2H6.7L6,39.06c-.11-.16-.23-.34-.35-.55h0c0,.24,0,.43,0,.57V40H5.33V38h.38l.66.93Zm2,.92h0l-.08.07L8.2,40l-.12,0H7.94a.64.64,0,0,1-.2,0,.38.38,0,0,1-.15-.09.31.31,0,0,1-.1-.15.41.41,0,0,1,0-.19.46.46,0,0,1,0-.21.61.61,0,0,1,.12-.16.77.77,0,0,1,.18-.1.93.93,0,0,1,.24,0H8.2l.14,0V39a.38.38,0,0,0,0-.1l-.06-.08-.1-.06-.15,0-.22,0a1.27,1.27,0,0,0-.23.08V38.6a.88.88,0,0,1,.23-.07,1.15,1.15,0,0,1,.26,0,.79.79,0,0,1,.28,0,.54.54,0,0,1,.2.1.52.52,0,0,1,.12.17.45.45,0,0,1,0,.2v.79c0,.07,0,.13,0,.19H8.39l0-.16Zm0-.46-.11,0H8.09a.31.31,0,0,0-.2,0,.18.18,0,0,0-.08.16.19.19,0,0,0,0,.08.1.1,0,0,0,0,.06s0,0,.06,0h.19l.09,0,.07,0,.05,0v-.22ZM11,39.1a5761954991250.2,5761954991250.2,0,0,0,0-.16.21.21,0,0,0-.06-.1.2.2,0,0,0-.14,0h-.09l-.1,0-.09.06-.08.08v1H10V39s0-.06,0-.08a.2.2,0,0,0-.2-.14h-.1l-.1,0-.09.06L9.45,39v1H9.09V38.54h.3l0,.2h0l.08-.09.11-.08.13,0,.15,0a.53.53,0,0,1,.26.06.44.44,0,0,1,.18.2h0l.1-.11.11-.08.14,0,.15,0a.5.5,0,0,1,.26.06.42.42,0,0,1,.17.18.14.14,0,0,1,0,.06.19.19,0,0,1,0,.08.25.25,0,0,1,0,.09v1H11V39.1Zm1.49.64.22,0,.22-.06v.28l-.21.06a1.37,1.37,0,0,1-.29,0,1,1,0,0,1-.3,0,.55.55,0,0,1-.24-.12.63.63,0,0,1-.16-.23.9.9,0,0,1-.06-.34,1.18,1.18,0,0,1,0-.35.72.72,0,0,1,.16-.25.55.55,0,0,1,.22-.14.7.7,0,0,1,.25,0,.75.75,0,0,1,.26,0,.63.63,0,0,1,.2.13.58.58,0,0,1,.13.23,1.16,1.16,0,0,1,.05.34.41.41,0,0,1,0,.12H12a.48.48,0,0,0,.05.18.31.31,0,0,0,.09.11.35.35,0,0,0,.15.07l.17,0Zm-.14-1a.24.24,0,0,0-.21.09.21.21,0,0,0-.06.1.24.24,0,0,0,0,.12h.57a.43.43,0,0,0,0-.12.31.31,0,0,0-.05-.1.27.27,0,0,0-.08-.07.25.25,0,0,0-.12,0Zm1.65.81h.4V40H14v-.4Zm0-1h.4V39H14v-.4ZM17.09,38h.37v1.48a.81.81,0,0,1,0,.17s0,.09,0,.13a.4.4,0,0,1-.1.12.35.35,0,0,1-.13.08A.44.44,0,0,1,17,40h-.35l-.15,0v-.31l.14,0h.15a.29.29,0,0,0,.21-.06.3.3,0,0,0,.06-.2V38Zm1.82,1.28a.64.64,0,0,0,0-.2.36.36,0,0,0-.08-.15.31.31,0,0,0-.11-.09.37.37,0,0,0-.15,0,.32.32,0,0,0-.14,0,.34.34,0,0,0-.12.09.52.52,0,0,0-.07.15.64.64,0,0,0,0,.2.66.66,0,0,0,0,.21.61.61,0,0,0,.07.14l.12.09a.33.33,0,0,0,.15,0,.32.32,0,0,0,.14,0,.24.24,0,0,0,.11-.09.39.39,0,0,0,.08-.14.66.66,0,0,0,0-.21Zm.36,0a.75.75,0,0,1-.05.31.57.57,0,0,1-.14.24.67.67,0,0,1-.53.21.75.75,0,0,1-.31-.05.63.63,0,0,1-.23-.16.7.7,0,0,1-.15-.24,1,1,0,0,1-.05-.31,1,1,0,0,1,.05-.31,1,1,0,0,1,.15-.24.63.63,0,0,1,.23-.16.94.94,0,0,1,.3,0,1,1,0,0,1,.31,0,.63.63,0,0,1,.23.16.72.72,0,0,1,.14.24.78.78,0,0,1,.05.31Zm1,.31a.15.15,0,0,0,0-.08l-.07-.05-.1,0-.12,0-.15,0a.33.33,0,0,1-.13-.07.31.31,0,0,1-.08-.11.31.31,0,0,1,0-.17.46.46,0,0,1,.05-.21.42.42,0,0,1,.11-.15.49.49,0,0,1,.18-.08.64.64,0,0,1,.2,0l.25,0a.79.79,0,0,1,.22.06v.28l-.11,0-.11,0-.11,0H20l-.07,0a.1.1,0,0,0,0,.05.07.07,0,0,0,0,0,.19.19,0,0,0,0,.08.16.16,0,0,0,.08.05l.09,0,.1,0,.15,0a.39.39,0,0,1,.14.08.31.31,0,0,1,.09.11.36.36,0,0,1,0,.19.46.46,0,0,1,0,.21.7.7,0,0,1-.13.16.72.72,0,0,1-.2.09A1.1,1.1,0,0,1,20,40a1,1,0,0,1-.25,0l-.18,0v-.29l.22.06.18,0H20l.1,0,.07-.06a.14.14,0,0,0,0-.07Zm1.41.17.22,0,.22-.06v.28l-.21.06a1.37,1.37,0,0,1-.29,0,1,1,0,0,1-.3,0,.55.55,0,0,1-.24-.12.63.63,0,0,1-.16-.23.89.89,0,0,1-.07-.34.91.91,0,0,1,.06-.35.72.72,0,0,1,.16-.25.55.55,0,0,1,.22-.14.7.7,0,0,1,.25,0,.75.75,0,0,1,.26,0,.63.63,0,0,1,.2.13.73.73,0,0,1,.13.23,1.16,1.16,0,0,1,.05.34s0,.09,0,.12h-.95a.48.48,0,0,0,0,.18.52.52,0,0,0,.1.11.37.37,0,0,0,.14.07l.18,0Zm-.14-1a.24.24,0,0,0-.21.09.21.21,0,0,0-.06.1.24.24,0,0,0,0,.12h.57a.43.43,0,0,0,0-.12.31.31,0,0,0-.05-.1.22.22,0,0,0-.09-.07.2.2,0,0,0-.11,0Zm1.64,0a.48.48,0,0,0-.17,0,.44.44,0,0,0-.15.12v.65l.05,0,.07,0,.09,0h.1a.32.32,0,0,0,.14,0,.36.36,0,0,0,.11-.1.77.77,0,0,0,.07-.16,1.11,1.11,0,0,0,0-.19,1.25,1.25,0,0,0,0-.21.52.52,0,0,0-.07-.15.28.28,0,0,0-.1-.09.32.32,0,0,0-.14,0ZM23.19,40A.46.46,0,0,1,23,40a.49.49,0,0,1-.16-.1h0a.17.17,0,0,1,0,.08v.72h-.36V38.54h.31l0,.16h0a.39.39,0,0,1,.17-.14.45.45,0,0,1,.24-.06.66.66,0,0,1,.23,0,.56.56,0,0,1,.2.14.59.59,0,0,1,.14.23.81.81,0,0,1,.06.33.91.91,0,0,1-.06.35.7.7,0,0,1-.15.24.51.51,0,0,1-.21.15.59.59,0,0,1-.23,0Zm1.33-1.61v.18s0,.1,0,.13h0l.08-.08.1-.07.12,0,.16,0h.14l.13.05a.35.35,0,0,1,.1.08.23.23,0,0,1,.08.11.5.5,0,0,1,0,.13.86.86,0,0,1,0,.17V40h-.36V39a.64.64,0,0,0,0-.07.18.18,0,0,0-.09-.1l-.14,0a.34.34,0,0,0-.19.05.52.52,0,0,0-.16.14v1h-.35V37.82h.35v.59Zm2.58.8h-.18V40h-.37V38h.58l.25,0a1,1,0,0,1,.19,0,.68.68,0,0,1,.32.2.53.53,0,0,1,.11.36.58.58,0,0,1-.06.26.61.61,0,0,1-.17.19.78.78,0,0,1-.29.13,1.43,1.43,0,0,1-.38,0Zm-.18-.32h.18a.82.82,0,0,0,.24,0,.54.54,0,0,0,.17-.07.19.19,0,0,0,.08-.1.28.28,0,0,0,0-.13.29.29,0,0,0,0-.16.32.32,0,0,0-.14-.1l-.13,0h-.39v.6Zm1.11.7h.41V40H28v-.4Zm2.08-.38h-.19V40h-.37V38h.58l.26,0a1.08,1.08,0,0,1,.19,0,.73.73,0,0,1,.32.2.59.59,0,0,1,.11.36.58.58,0,0,1-.06.26.54.54,0,0,1-.18.19.73.73,0,0,1-.28.13,1.48,1.48,0,0,1-.38,0Zm-.19-.32h.18a.9.9,0,0,0,.25,0,.48.48,0,0,0,.16-.07.28.28,0,0,0,.09-.1.28.28,0,0,0,0-.13.29.29,0,0,0,0-.16.39.39,0,0,0-.14-.1l-.13,0h-.4v.6Zm1.8-.48v.18s0,.1,0,.13h0l.08-.08.1-.07.13,0,.15,0h.14l.13.05a.25.25,0,0,1,.1.08.33.33,0,0,1,.09.11.5.5,0,0,1,0,.13.86.86,0,0,1,0,.17V40h-.35V39.1s0-.08,0-.11a.14.14,0,0,0,0-.07.18.18,0,0,0-.09-.1l-.13,0a.35.35,0,0,0-.2.05.67.67,0,0,0-.16.14v1h-.35V37.82h.35v.59Zm1.36.13h.36V40h-.36V38.54Zm0-.72h.37v.38h-.37v-.38ZM33.85,40V37.82h.35V40Zm.77,0V37.82H35V40Zm.77-1.45h.36V40h-.36V38.54Zm0-.72h.38v.38h-.38v-.38Zm1.45,1a.61.61,0,0,0-.18,0,.79.79,0,0,0-.15.12v.65l.06,0,.07,0a.2.2,0,0,0,.08,0h.1a.33.33,0,0,0,.15,0,.52.52,0,0,0,.11-.1.76.76,0,0,0,.06-.16.58.58,0,0,0,0-.19.68.68,0,0,0,0-.21.35.35,0,0,0-.07-.15.22.22,0,0,0-.1-.09.28.28,0,0,0-.13,0ZM36.88,40a.54.54,0,0,1-.22,0l-.16-.1h0v.8h-.35V38.54h.31v.16h0a.39.39,0,0,1,.17-.14.48.48,0,0,1,.24-.06.59.59,0,0,1,.23,0,.6.6,0,0,1,.21.14.74.74,0,0,1,.14.23,1,1,0,0,1,.05.33,1.18,1.18,0,0,1-.05.35.7.7,0,0,1-.15.24.69.69,0,0,1-.21.15.62.62,0,0,1-.23,0Zm1.6-.45a.1.1,0,0,0,0-.08.13.13,0,0,0-.07-.05l-.1,0-.11,0a.53.53,0,0,1-.15,0,.33.33,0,0,1-.13-.07.24.24,0,0,1-.09-.11.43.43,0,0,1,0-.17.46.46,0,0,1,0-.21.44.44,0,0,1,.12-.15.53.53,0,0,1,.17-.08.76.76,0,0,1,.21,0l.25,0a.65.65,0,0,1,.21.06v.28l-.1,0-.11,0-.11,0h-.21l-.07,0a.07.07,0,0,0,0,.05.08.08,0,0,0,0,0,.11.11,0,0,0,0,.08.18.18,0,0,0,.07.05l.1,0,.1,0,.15,0a.35.35,0,0,1,.13.08.35.35,0,0,1,.1.11.36.36,0,0,1,0,.19.46.46,0,0,1,0,.21.4.4,0,0,1-.13.16.53.53,0,0,1-.2.09,1.57,1.57,0,0,1-.5,0l-.18,0v-.29l.21.06.19,0h.12l.1,0,.07-.06a.14.14,0,0,0,0-.07ZM5.33,45.75v-2h.81l.14,0,.11,0a1.12,1.12,0,0,1,.29.14,1,1,0,0,1,.33.47,1.12,1.12,0,0,1,0,.32A1.39,1.39,0,0,1,7,45a1,1,0,0,1-.11.26.76.76,0,0,1-.19.21.72.72,0,0,1-.26.14,1.23,1.23,0,0,1-.29.08l-.37,0Zm.52-.31a1.15,1.15,0,0,0,.5-.09.49.49,0,0,0,.24-.23.74.74,0,0,0,.08-.38.82.82,0,0,0,0-.23.89.89,0,0,0-.08-.17.5.5,0,0,0-.12-.13,1,1,0,0,0-.17-.1l-.19,0-.23,0H5.7v1.39Zm2.3.06.21,0a1,1,0,0,0,.23-.06v.28l-.21.06a1.45,1.45,0,0,1-.3,0,1.35,1.35,0,0,1-.29,0,.7.7,0,0,1-.24-.13.66.66,0,0,1-.17-.23.9.9,0,0,1-.06-.34,1,1,0,0,1,.06-.35.7.7,0,0,1,.15-.24.62.62,0,0,1,.22-.15A.75.75,0,0,1,8,44.26a.66.66,0,0,1,.25,0,.46.46,0,0,1,.2.13.59.59,0,0,1,.14.23,1.18,1.18,0,0,1,0,.34v.13h-1a.47.47,0,0,0,0,.17.27.27,0,0,0,.1.11.37.37,0,0,0,.14.07l.18,0Zm-.15-1a.25.25,0,0,0-.12,0l-.09.07-.06.1,0,.12h.57a.49.49,0,0,0,0-.12.26.26,0,0,0-.14-.17.22.22,0,0,0-.12,0Zm1.61.79a.11.11,0,0,0,0-.08.18.18,0,0,0-.07,0l-.1,0-.12,0-.15,0A.57.57,0,0,1,9,45a.31.31,0,0,1-.08-.11.4.4,0,0,1,0-.17.46.46,0,0,1,0-.21.33.33,0,0,1,.12-.14.46.46,0,0,1,.17-.09.71.71,0,0,1,.21,0l.25,0a1.05,1.05,0,0,1,.21.06v.29a.35.35,0,0,0-.11,0l-.11,0H9.37l-.07,0,0,0a.09.09,0,0,0,0,0,.1.1,0,0,0,0,.08s0,0,.07.06l.1,0,.09,0,.15,0a.37.37,0,0,1,.14.07.4.4,0,0,1,.1.12.45.45,0,0,1,0,.18.46.46,0,0,1,0,.21.42.42,0,0,1-.13.16.61.61,0,0,1-.2.09,1,1,0,0,1-.26,0,.88.88,0,0,1-.24,0,.74.74,0,0,1-.19,0v-.29l.22.06.18,0h.13l.1,0,.06-.06a.08.08,0,0,0,0-.07Zm.67-1h.36v1.45h-.36V44.3Zm0-.72h.38V44h-.38Z"/><path class="cls-16" d="M12,45.79v-.15h0l-.07,0-.1.05a.35.35,0,0,1-.11,0l-.13,0a.59.59,0,0,1-.22,0,.44.44,0,0,1-.2-.13.69.69,0,0,1-.14-.22,1.16,1.16,0,0,1,0-.34,1.11,1.11,0,0,1,0-.34.87.87,0,0,1,.15-.25.48.48,0,0,1,.2-.15.64.64,0,0,1,.24-.05.46.46,0,0,1,.23.06.39.39,0,0,1,.17.14h0V44.3h.32v1.48a1.25,1.25,0,0,1,0,.21.87.87,0,0,1-.07.17.53.53,0,0,1-.12.14.69.69,0,0,1-.17.1.65.65,0,0,1-.21.06.9.9,0,0,1-.24,0h-.14l-.13,0-.11,0-.09,0v-.28l.21,0a.86.86,0,0,0,.23,0,.65.65,0,0,0,.37-.09.31.31,0,0,0,.13-.28v0Zm-.32-.29h.1l.09,0,.08-.05.05,0v-.65a.38.38,0,0,0-.14-.11.41.41,0,0,0-.18-.05h-.07a.11.11,0,0,0-.07,0,.18.18,0,0,0-.07,0,.24.24,0,0,0-.06.09.85.85,0,0,0-.06.31,1.11,1.11,0,0,0,0,.19.52.52,0,0,0,.06.15.31.31,0,0,0,.11.09.32.32,0,0,0,.14,0Zm1.39-1h0a.32.32,0,0,1,.08-.09l.1-.08.14,0,.16,0,.15,0,.14,0a.4.4,0,0,1,.18.25.3.3,0,0,1,0,.1.53.53,0,0,1,0,.13v.94h-.36v-1a.64.64,0,0,0,0-.07.21.21,0,0,0-.08-.1.28.28,0,0,0-.13,0,.35.35,0,0,0-.2,0,.46.46,0,0,0-.17.14v1h-.36V44.3H13l0,.2Zm2.23,1.09h0l-.07.07-.1.06-.12.05-.14,0a.45.45,0,0,1-.2,0,.38.38,0,0,1-.15-.09.4.4,0,0,1-.1-.15.38.38,0,0,1,0-.19.65.65,0,0,1,0-.21.61.61,0,0,1,.12-.16.48.48,0,0,1,.19-.09.59.59,0,0,1,.23,0h.18l.13,0V44.8a.28.28,0,0,0,0-.09.18.18,0,0,0-.06-.09l-.1-.06-.15,0a.76.76,0,0,0-.21,0,1.27,1.27,0,0,0-.24.07v-.28a1,1,0,0,1,.23-.07,1.15,1.15,0,0,1,.26,0,.79.79,0,0,1,.28,0,.43.43,0,0,1,.2.11.48.48,0,0,1,.12.16.45.45,0,0,1,0,.2v.79a1.34,1.34,0,0,1,0,.19H15.3l0-.16Zm0-.46-.11,0H15a.39.39,0,0,0-.2,0,.18.18,0,0,0-.08.16.19.19,0,0,0,0,.08.18.18,0,0,0,0,.07l.06,0H15l.09,0,.07-.05a.12.12,0,0,0,.05,0v-.22Zm1.64.62-.14,0H16.6a.61.61,0,0,1-.3-.06.35.35,0,0,1-.17-.17.69.69,0,0,1,0-.22v-.75h-.27V44.3h.27v-.41h.35v.41h.42v.29h-.42v.7a.23.23,0,0,0,0,.13s.09.07.18.07h.12l.11,0v.3Zm.29-1.45h.36v1.45h-.36V44.3Zm0-.72h.38V44h-.38v-.38ZM19,45a1.23,1.23,0,0,0,0-.2.53.53,0,0,0-.08-.15.31.31,0,0,0-.11-.09l-.15,0-.15,0a.31.31,0,0,0-.11.09.35.35,0,0,0-.07.15.64.64,0,0,0,0,.2.66.66,0,0,0,0,.21.31.31,0,0,0,.07.14.27.27,0,0,0,.12.09.32.32,0,0,0,.14,0l.15,0a.31.31,0,0,0,.11-.09.47.47,0,0,0,.08-.14A1.25,1.25,0,0,0,19,45Zm.37,0a1,1,0,0,1-.05.31.58.58,0,0,1-.15.25.61.61,0,0,1-.23.15.78.78,0,0,1-.6,0,.65.65,0,0,1-.24-.15.68.68,0,0,1-.14-.25,1,1,0,0,1-.05-.31,1,1,0,0,1,.05-.31.61.61,0,0,1,.15-.24.63.63,0,0,1,.23-.16.94.94,0,0,1,.3-.05,1,1,0,0,1,.31.05.73.73,0,0,1,.23.16.72.72,0,0,1,.14.24,1,1,0,0,1,.05.31ZM20,44.5h0a.32.32,0,0,1,.08-.09l.11-.08.13,0,.16,0,.15,0,.14,0a.4.4,0,0,1,.18.25.3.3,0,0,1,0,.1.53.53,0,0,1,0,.13v.94h-.36v-1a.64.64,0,0,0,0-.07.16.16,0,0,0-.08-.1.28.28,0,0,0-.13,0,.35.35,0,0,0-.2,0,.46.46,0,0,0-.17.14v1h-.36V44.3h.3l0,.2Zm2.06.85h.41v.4H22v-.4Zm0-1h.41v.4H22v-.4Zm2.16,1.35v-2H25l.14,0,.12,0a1.22,1.22,0,0,1,.28.14,1,1,0,0,1,.33.47,1.12,1.12,0,0,1,0,.32,1.39,1.39,0,0,1,0,.3,1,1,0,0,1-.11.26.76.76,0,0,1-.19.21.72.72,0,0,1-.26.14,1.23,1.23,0,0,1-.29.08l-.37,0Zm.52-.31a1.15,1.15,0,0,0,.5-.09.49.49,0,0,0,.24-.23.74.74,0,0,0,.09-.38.8.8,0,0,0,0-.23.89.89,0,0,0-.08-.17.37.37,0,0,0-.12-.13,1,1,0,0,0-.17-.1l-.19,0-.23,0h-.16v1.39Zm1.56-1.14h.35v1.45h-.35V44.3Zm0-.72h.37V44h-.37v-.38Zm1.62,1h0a.82.82,0,0,0-.28.05.32.32,0,0,0-.19.15v1H27V44.3h.29l0,.2h0a.52.52,0,0,1,.18-.18.53.53,0,0,1,.26-.06h.09v.31Zm1,.92.22,0a1,1,0,0,0,.23-.06v.28l-.21.06a1.53,1.53,0,0,1-.3,0,1.35,1.35,0,0,1-.29,0,.7.7,0,0,1-.24-.13.66.66,0,0,1-.17-.23.9.9,0,0,1-.06-.34,1,1,0,0,1,.06-.35.7.7,0,0,1,.15-.24.54.54,0,0,1,.22-.15.75.75,0,0,1,.26-.05.69.69,0,0,1,.25,0,.46.46,0,0,1,.2.13.58.58,0,0,1,.13.23.9.9,0,0,1,0,.34v.13h-1a.48.48,0,0,0,.05.17.22.22,0,0,0,.1.11.37.37,0,0,0,.14.07l.17,0Zm-.14-1a.25.25,0,0,0-.12,0l-.09.07-.06.1,0,.12H29a.25.25,0,0,0,0-.12.19.19,0,0,0-.05-.1.27.27,0,0,0-.08-.07.22.22,0,0,0-.12,0Zm2,1.18-.17.05-.2,0a.94.94,0,0,1-.3,0,.58.58,0,0,1-.24-.14.67.67,0,0,1-.16-.23.79.79,0,0,1-.06-.32,1,1,0,0,1,.07-.36.8.8,0,0,1,.18-.25.72.72,0,0,1,.24-.14.82.82,0,0,1,.26,0l.19,0a.62.62,0,0,1,.16,0v.29l-.14,0-.16,0a.45.45,0,0,0-.16,0,.39.39,0,0,0-.14.08.38.38,0,0,0-.09.15A.53.53,0,0,0,30,45a.57.57,0,0,0,0,.18.39.39,0,0,0,.08.14.45.45,0,0,0,.13.1.54.54,0,0,0,.19,0h.18l.15,0v.29Zm1.19,0-.14,0H31.6a.67.67,0,0,1-.3-.06.37.37,0,0,1-.16-.17.67.67,0,0,1,0-.22v-.75h-.27V44.3h.27v-.41h.36v.41h.42v.29h-.42v.7a.23.23,0,0,0,0,.13.18.18,0,0,0,.17.07h.13l.11,0v.3ZM33.2,45a.64.64,0,0,0,0-.2.36.36,0,0,0-.08-.15.31.31,0,0,0-.11-.09l-.15,0a.32.32,0,0,0-.14,0,.27.27,0,0,0-.12.09.52.52,0,0,0-.07.15.64.64,0,0,0,0,.2.66.66,0,0,0,0,.21.46.46,0,0,0,.07.14.34.34,0,0,0,.12.09.33.33,0,0,0,.15,0,.32.32,0,0,0,.14,0,.31.31,0,0,0,.11-.09.32.32,0,0,0,.08-.14.66.66,0,0,0,0-.21Zm.36,0a.75.75,0,0,1-.05.31.68.68,0,0,1-.14.25.7.7,0,0,1-.23.15.73.73,0,0,1-.3.06.75.75,0,0,1-.31-.06.61.61,0,0,1-.23-.15.7.7,0,0,1-.15-.25,1,1,0,0,1,0-.31,1,1,0,0,1,0-.31,1,1,0,0,1,.15-.24.63.63,0,0,1,.23-.16.94.94,0,0,1,.3-.05,1,1,0,0,1,.31.05.63.63,0,0,1,.23.16.72.72,0,0,1,.14.24.78.78,0,0,1,.05.31Zm1.18-.44h0a.88.88,0,0,0-.29.05.4.4,0,0,0-.19.15v1h-.35V44.3h.29l0,.2h0a.49.49,0,0,1,.17-.18.57.57,0,0,1,.27-.06h.09v.31ZM6.48,51H5.72l-.2.51H5.13l.8-2h.33l.8,2H6.67L6.48,51Zm-.39-1c-.07.21-.13.38-.19.52l-.06.18h.52l-.07-.18c0-.14-.12-.31-.19-.52Zm2.15,1.56v-.08s0,0,0-.07h0l-.08.05-.09,0-.12,0-.12,0a.85.85,0,0,1-.23,0,.5.5,0,0,1-.19-.13.59.59,0,0,1-.14-.23,1,1,0,0,1,0-.68.68.68,0,0,1,.14-.25.7.7,0,0,1,.2-.15.69.69,0,0,1,.24,0,.48.48,0,0,1,.24.06.58.58,0,0,1,.17.14h0l0-.16H8.6v1.48a1.5,1.5,0,0,1,0,.22l-.06.16a.57.57,0,0,1-.13.14.44.44,0,0,1-.16.1.83.83,0,0,1-.21.06,1,1,0,0,1-.25,0H7.63l-.13,0-.11,0-.08,0v-.29l.21,0h.22a.63.63,0,0,0,.37-.09.31.31,0,0,0,.13-.28v0Zm-.31-.28.1,0,.09,0,.07,0s0,0,.05-.05v-.65a.31.31,0,0,0-.14-.11.35.35,0,0,0-.18,0H7.85l-.07,0a.18.18,0,0,0-.07,0l-.06.09a.5.5,0,0,0,0,.13.9.9,0,0,0,0,.18,1.11,1.11,0,0,0,0,.19.52.52,0,0,0,.07.15.22.22,0,0,0,.1.09.33.33,0,0,0,.15,0Zm1.81,0a.75.75,0,0,0,.21,0,1,1,0,0,0,.23-.06v.28l-.21.06a1.45,1.45,0,0,1-.3,0,1.35,1.35,0,0,1-.29,0,.7.7,0,0,1-.24-.13A.66.66,0,0,1,9,51.15a.86.86,0,0,1-.06-.34A1,1,0,0,1,9,50.46a.7.7,0,0,1,.15-.24.62.62,0,0,1,.22-.15.8.8,0,0,1,.26,0,.93.93,0,0,1,.25,0,.48.48,0,0,1,.2.14.48.48,0,0,1,.14.23,1.06,1.06,0,0,1,0,.33v.13h-1a.43.43,0,0,0,0,.17.4.4,0,0,0,.1.12.35.35,0,0,0,.14.06.52.52,0,0,0,.18,0Zm-.15-1-.12,0-.09.07-.06.1,0,.12h.57a.49.49,0,0,0,0-.12.26.26,0,0,0-.14-.17l-.12,0Zm1.66.81h.4v.4h-.4v-.4Zm0-1h.4v.4h-.4v-.4Zm2.57.41a.5.5,0,0,1-.07.27.44.44,0,0,1-.21.19h0a.31.31,0,0,1,.13.06.47.47,0,0,1,.1.1.54.54,0,0,1,.07.13.88.88,0,0,1,0,.17.55.55,0,0,1,0,.26.49.49,0,0,1-.14.21.68.68,0,0,1-.24.13,1.18,1.18,0,0,1-.34,0H13l-.12,0-.12,0-.1,0v-.31l.19.07a1,1,0,0,0,.24,0,.56.56,0,0,0,.2,0,.4.4,0,0,0,.13-.07.26.26,0,0,0,.07-.11.27.27,0,0,0,0-.13.25.25,0,0,0,0-.16.18.18,0,0,0-.11-.1l-.09,0h-.36v-.3h.28a.17.17,0,0,0,.1,0,.22.22,0,0,0,.13-.1.27.27,0,0,0,0-.18.21.21,0,0,0,0-.12.18.18,0,0,0-.07-.08l-.11,0h-.12a.9.9,0,0,0-.24,0l-.21.06v-.3a.79.79,0,0,1,.22-.06,1.12,1.12,0,0,1,.27,0,1.18,1.18,0,0,1,.28,0,.72.72,0,0,1,.21.12.48.48,0,0,1,.12.17.54.54,0,0,1,.05.22Zm.78.27h.08a1,1,0,0,1,.31,0,.52.52,0,0,1,.22.12.53.53,0,0,1,.13.2.66.66,0,0,1,.05.25.81.81,0,0,1-.05.27.65.65,0,0,1-.16.21.63.63,0,0,1-.24.14,1.16,1.16,0,0,1-.34.05l-.24,0-.2-.06v-.31l.22.07.19,0a.66.66,0,0,0,.21,0l.14-.07a.29.29,0,0,0,.07-.12.32.32,0,0,0,0-.14.4.4,0,0,0,0-.15.25.25,0,0,0-.08-.1.35.35,0,0,0-.15-.07.78.78,0,0,0-.22,0h-.15l-.18,0,.16-1.1h1v.32h-.72l-.07.46Zm-7.82,5a.45.45,0,0,1-.25.42h0a.31.31,0,0,1,.13.06.36.36,0,0,1,.11.1.35.35,0,0,1,.07.12.4.4,0,0,1,0,.15.45.45,0,0,1,0,.16.35.35,0,0,1-.08.16.71.71,0,0,1-.15.15.82.82,0,0,1-.25.1l-.08,0h-1v-2H6a1.19,1.19,0,0,1,.36,0,.51.51,0,0,1,.18.09.34.34,0,0,1,.12.12.46.46,0,0,1,.08.13.77.77,0,0,1,0,.15Zm-1.08.6V57h.4l.12,0,.13,0,.08-.06a.3.3,0,0,0,0-.08.29.29,0,0,0,0-.09.25.25,0,0,0,0-.15.28.28,0,0,0-.14-.09l-.11,0H5.7ZM6,56.09a.61.61,0,0,0,.22,0A.27.27,0,0,0,6.37,56a.32.32,0,0,0,0-.14.23.23,0,0,0,0-.14.24.24,0,0,0-.14-.09l-.09,0H5.7v.52Zm1.18,1.18V55.1h.35v2.17ZM9,56.55a.66.66,0,0,0,0-.21.52.52,0,0,0-.07-.15.34.34,0,0,0-.12-.09.33.33,0,0,0-.15,0,.32.32,0,0,0-.14,0,.31.31,0,0,0-.11.09.36.36,0,0,0-.08.15.66.66,0,0,0,0,.21.64.64,0,0,0,0,.2.36.36,0,0,0,.08.15.31.31,0,0,0,.11.09.37.37,0,0,0,.15,0,.32.32,0,0,0,.14,0,.34.34,0,0,0,.12-.09A.52.52,0,0,0,9,56.75a.64.64,0,0,0,0-.2Zm.37,0a.81.81,0,0,1-.06.31.72.72,0,0,1-.14.24.51.51,0,0,1-.23.15.73.73,0,0,1-.3.06.75.75,0,0,1-.31-.06.51.51,0,0,1-.23-.15,1,1,0,0,1-.15-.24,1.06,1.06,0,0,1-.05-.31A.83.83,0,0,1,8,56.23.72.72,0,0,1,8.09,56a.7.7,0,0,1,.23-.15.73.73,0,0,1,.3-.06.75.75,0,0,1,.31.06.61.61,0,0,1,.23.15,1,1,0,0,1,.15.24A1.07,1.07,0,0,1,9.36,56.55Z"/><path class="cls-16" d="M10.69,56.55a.66.66,0,0,0,0-.21.52.52,0,0,0-.07-.15.34.34,0,0,0-.12-.09.33.33,0,0,0-.15,0,.32.32,0,0,0-.14,0,.47.47,0,0,0-.12.09.52.52,0,0,0-.07.15.66.66,0,0,0,0,.21.64.64,0,0,0,0,.2.36.36,0,0,0,.08.15.31.31,0,0,0,.11.09.37.37,0,0,0,.15,0,.32.32,0,0,0,.14,0,.34.34,0,0,0,.12-.09.52.52,0,0,0,.07-.15.64.64,0,0,0,0-.2Zm.37,0a.81.81,0,0,1-.06.31.72.72,0,0,1-.14.24.51.51,0,0,1-.23.15.73.73,0,0,1-.3.06.75.75,0,0,1-.31-.06.51.51,0,0,1-.23-.15,1,1,0,0,1-.15-.24,1.06,1.06,0,0,1-.05-.31.83.83,0,0,1,.06-.32A.72.72,0,0,1,9.79,56a.7.7,0,0,1,.23-.15.73.73,0,0,1,.3-.06.75.75,0,0,1,.31.06.61.61,0,0,1,.23.15,1,1,0,0,1,.15.24,1.07,1.07,0,0,1,.05.32ZM12,57l.1,0,.08,0,.08,0,.05-.06v-.69l-.14-.08a.41.41,0,0,0-.16,0,.25.25,0,0,0-.12,0,.26.26,0,0,0-.11.07.53.53,0,0,0-.08.15.62.62,0,0,0,0,.25.55.55,0,0,0,.09.34A.29.29,0,0,0,12,57Zm-.71-.46a.93.93,0,0,1,.06-.34.77.77,0,0,1,.14-.25.8.8,0,0,1,.21-.15.69.69,0,0,1,.24,0h.11l.1,0,.09,0,.07,0h0a.34.34,0,0,0,0-.09V55.1h.36v2a1.21,1.21,0,0,1,0,.18h-.32l0-.15h0l-.08.07a.33.33,0,0,1-.1.06l-.11,0-.14,0a.59.59,0,0,1-.23,0,.63.63,0,0,1-.2-.13.73.73,0,0,1-.13-.23.9.9,0,0,1-.06-.34Zm3.6-.07h-.45v-.3h.81v1l-.11,0-.16,0-.17,0h-.18a1.68,1.68,0,0,1-.48-.07.93.93,0,0,1-.33-.21.79.79,0,0,1-.2-.31,1.07,1.07,0,0,1-.07-.41.92.92,0,0,1,0-.29.79.79,0,0,1,.1-.27.68.68,0,0,1,.17-.21.92.92,0,0,1,.22-.17,1.09,1.09,0,0,1,.27-.11,1.66,1.66,0,0,1,.32,0,1.37,1.37,0,0,1,.29,0,.9.9,0,0,1,.22,0v.31l-.23,0a1,1,0,0,0-.24,0,.81.81,0,0,0-.31.05.63.63,0,0,0-.24.14A.61.61,0,0,0,14,56a.79.79,0,0,0-.06.32.69.69,0,0,0,.19.53.7.7,0,0,0,.52.18h.13l.12,0V56.5Zm1.63-.4h0a.78.78,0,0,0-.28,0,.38.38,0,0,0-.2.15v1h-.35V55.82H16l0,.2h0a.46.46,0,0,1,.17-.17.5.5,0,0,1,.27-.07h.09v.31Zm1.23.45a.66.66,0,0,0,0-.21.35.35,0,0,0-.07-.15.27.27,0,0,0-.12-.09.32.32,0,0,0-.14,0,.37.37,0,0,0-.15,0,.31.31,0,0,0-.11.09.53.53,0,0,0-.08.15,1.25,1.25,0,0,0,0,.21,1.23,1.23,0,0,0,0,.2.53.53,0,0,0,.08.15.31.31,0,0,0,.11.09l.15,0a.32.32,0,0,0,.14,0,.27.27,0,0,0,.12-.09.35.35,0,0,0,.07-.15.64.64,0,0,0,0-.2Zm.37,0a1.06,1.06,0,0,1-.05.31.75.75,0,0,1-.15.24.51.51,0,0,1-.23.15.73.73,0,0,1-.3.06.78.78,0,0,1-.31-.06.57.57,0,0,1-.23-.15.72.72,0,0,1-.14-.24.81.81,0,0,1-.05-.31.83.83,0,0,1,.05-.32.72.72,0,0,1,.14-.24.75.75,0,0,1,.24-.15.78.78,0,0,1,.6,0,.61.61,0,0,1,.23.15.75.75,0,0,1,.15.24,1.07,1.07,0,0,1,.05.32Zm1,.76a.81.81,0,0,1-.37-.08.41.41,0,0,1-.21-.2.35.35,0,0,1-.06-.14.55.55,0,0,1,0-.18v-.89h.35v.85a.51.51,0,0,0,0,.13.16.16,0,0,0,0,.09.18.18,0,0,0,.1.09.25.25,0,0,0,.16,0,.29.29,0,0,0,.16,0,.22.22,0,0,0,.1-.11.34.34,0,0,0,0-.19v-.86h.35v.89a.73.73,0,0,1-.06.3.47.47,0,0,1-.09.12.45.45,0,0,1-.13.1l-.17.06-.2,0Zm1.71-1.24a.37.37,0,0,0-.18,0,.44.44,0,0,0-.15.12v.65l.05,0,.07,0,.09,0,.1,0a.42.42,0,0,0,.15,0,.24.24,0,0,0,.1-.1.52.52,0,0,0,.07-.15,1.23,1.23,0,0,0,0-.2,1.25,1.25,0,0,0,0-.21.46.46,0,0,0-.07-.14.28.28,0,0,0-.1-.09.31.31,0,0,0-.13,0Zm0,1.24a.65.65,0,0,1-.21,0,.64.64,0,0,1-.16-.11h0V58H20.1V55.82h.32V56h0a.53.53,0,0,1,.41-.2.64.64,0,0,1,.23,0,.46.46,0,0,1,.2.13.76.76,0,0,1,.15.23,1.14,1.14,0,0,1,.05.33.88.88,0,0,1-.21.6.66.66,0,0,1-.2.14.69.69,0,0,1-.24.05Zm1.65-.44h.4v.4h-.4v-.4Zm0-.95h.4v.4h-.4v-.4Zm2.54.84h-.76l-.2.51h-.39l.8-2h.33l.8,2h-.39L25,56.76Zm-.39-1c-.07.21-.13.38-.19.52l-.06.19h.52l-.07-.19c-.06-.14-.12-.31-.19-.52Zm1.19.58h.48v-.51h.3v.51h.49v.29H26.6v.51h-.3v-.51h-.48v-.29ZM6.3,61.3a.81.81,0,0,0-.27.05.55.55,0,0,0-.22.14.63.63,0,0,0-.14.24.75.75,0,0,0,0,.31,1,1,0,0,0,0,.31.74.74,0,0,0,.14.23.57.57,0,0,0,.21.13.82.82,0,0,0,.28,0l.24,0,.22-.05V63l-.23,0-.25,0A1.25,1.25,0,0,1,5.82,63a.89.89,0,0,1-.32-.21.87.87,0,0,1-.2-.32,1.29,1.29,0,0,1-.06-.4,1.18,1.18,0,0,1,.07-.43.83.83,0,0,1,.2-.34,1,1,0,0,1,.33-.23A1.23,1.23,0,0,1,6.28,61a1,1,0,0,1,.25,0l.2,0v.31l-.22,0Zm1.79,1a.68.68,0,0,0,0-.21A.47.47,0,0,0,8,62a.31.31,0,0,0-.11-.09l-.15,0a.32.32,0,0,0-.14,0,.27.27,0,0,0-.12.09.31.31,0,0,0-.07.14.66.66,0,0,0,0,.21.64.64,0,0,0,0,.2.35.35,0,0,0,.07.15.27.27,0,0,0,.12.09.32.32,0,0,0,.14,0,.37.37,0,0,0,.15,0A.31.31,0,0,0,8,62.66a.53.53,0,0,0,.08-.15.65.65,0,0,0,0-.2Zm.37,0a.78.78,0,0,1-.05.31.72.72,0,0,1-.14.24A.73.73,0,0,1,8,63a1.06,1.06,0,0,1-.31,0,.94.94,0,0,1-.3,0,.63.63,0,0,1-.23-.16.75.75,0,0,1-.15-.24,1,1,0,0,1,0-.31,1,1,0,0,1,0-.31.87.87,0,0,1,.15-.25.76.76,0,0,1,.23-.15.73.73,0,0,1,.3-.06A.78.78,0,0,1,8,61.6a.91.91,0,0,1,.23.15.68.68,0,0,1,.14.25.75.75,0,0,1,.05.31Zm.64-.53h0l.08-.09.11-.07.13-.06.16,0,.16,0a.38.38,0,0,1,.13.06.35.35,0,0,1,.11.1.37.37,0,0,1,.07.14.36.36,0,0,1,0,.1.53.53,0,0,1,0,.13V63H9.73V62a.19.19,0,0,0,0-.07.2.2,0,0,0-.08-.1.28.28,0,0,0-.13,0,.46.46,0,0,0-.2,0,.55.55,0,0,0-.17.14v1H8.77V61.58h.3l0,.2ZM11.37,63l-.15,0h-.15a.67.67,0,0,1-.3-.06.4.4,0,0,1-.17-.17.61.61,0,0,1,0-.22v-.75H10.3v-.29h.27v-.4h.36v.4h.42v.29h-.42v.71c0,.05,0,.1,0,.12s.09.07.18.07h.12l.12,0V63Zm1.13-.15h0l-.07.06a.31.31,0,0,1-.09.07l-.12,0-.15,0a.63.63,0,0,1-.19,0,.38.38,0,0,1-.15-.09.36.36,0,0,1-.1-.15.41.41,0,0,1,0-.19.46.46,0,0,1,0-.21.4.4,0,0,1,.12-.16.52.52,0,0,1,.18-.1.88.88,0,0,1,.24,0h.17l.14,0v-.06a.16.16,0,0,0,0-.1.22.22,0,0,0,0-.08.21.21,0,0,0-.1-.06.34.34,0,0,0-.15,0,.86.86,0,0,0-.22,0l-.23.07v-.28l.23-.07a2.06,2.06,0,0,1,.26,0,1.11,1.11,0,0,1,.28,0,1,1,0,0,1,.2.11.61.61,0,0,1,.12.16.65.65,0,0,1,0,.2v.8a1,1,0,0,0,0,.18h-.32l0-.15Zm0-.47-.11,0h-.14a.39.39,0,0,0-.2,0,.19.19,0,0,0-.08.16.24.24,0,0,0,0,.09l0,.06.07,0h.08l.11,0,.08,0,.08-.05.05,0v-.23Zm1.8.59-.16,0-.21,0a.92.92,0,0,1-.29,0,.72.72,0,0,1-.24-.14.63.63,0,0,1-.16-.23.88.88,0,0,1-.06-.33.8.8,0,0,1,.07-.36.61.61,0,0,1,.17-.24.58.58,0,0,1,.24-.14.86.86,0,0,1,.27-.05l.19,0,.16,0v.29l-.14,0H14a.41.41,0,0,0-.16,0,.47.47,0,0,0-.14.08.49.49,0,0,0-.1.16.69.69,0,0,0,0,.22,1.1,1.1,0,0,0,0,.18.53.53,0,0,0,.08.15.34.34,0,0,0,.14.09.34.34,0,0,0,.18,0l.18,0,.15,0V63Zm1.2,0-.15,0h-.15a.67.67,0,0,1-.3-.06.4.4,0,0,1-.17-.17.61.61,0,0,1,0-.22v-.75H14.4v-.29h.27v-.4H15v.4h.41v.29H15v.71c0,.05,0,.1,0,.12s.09.07.18.07h.12l.12,0V63Zm1-.4h.4V63h-.4v-.4Zm0-.94h.4v.39h-.4v-.39Zm1.94-.25.21.3h0l.2-.3.29-.41h.42l-.7,1,.73,1h-.42l-.31-.44-.22-.32h0l-.21.32-.32.44h-.41l.72-1-.69-1h.42l.28.41Zm2.31.87a.58.58,0,0,0-.09-.35.3.3,0,0,0-.48,0,.73.73,0,0,0,0,.7.3.3,0,0,0,.48,0,.58.58,0,0,0,.09-.35Zm.36,0a1,1,0,0,1,0,.3.7.7,0,0,1-.13.24.6.6,0,0,1-.22.16.78.78,0,0,1-.6,0,.56.56,0,0,1-.21-.16.72.72,0,0,1-.14-.24,1,1,0,0,1,0-.3,1.06,1.06,0,0,1,0-.31.72.72,0,0,1,.14-.24.56.56,0,0,1,.21-.16.78.78,0,0,1,.6,0,.6.6,0,0,1,.22.16A.7.7,0,0,1,21,62a1.06,1.06,0,0,1,0,.31Zm1.22,0a.58.58,0,0,0-.09-.35.26.26,0,0,0-.24-.12.29.29,0,0,0-.24.12.81.81,0,0,0,0,.7.29.29,0,0,0,.24.12.26.26,0,0,0,.24-.12.58.58,0,0,0,.09-.35Zm.37,0a.94.94,0,0,1-.05.3.7.7,0,0,1-.13.24.6.6,0,0,1-.22.16.67.67,0,0,1-.3.06.65.65,0,0,1-.29-.06.6.6,0,0,1-.22-.16.72.72,0,0,1-.14-.24,1,1,0,0,1,0-.3,1.06,1.06,0,0,1,0-.31.72.72,0,0,1,.14-.24.6.6,0,0,1,.22-.16.65.65,0,0,1,.29-.06.67.67,0,0,1,.3.06.6.6,0,0,1,.22.16.7.7,0,0,1,.13.24,1.06,1.06,0,0,1,.05.31Zm.89.22-.38.5h-.4l.57-.74-.54-.71h.42l.34.48.34-.48h.42l-.55.71.57.74h-.42l-.37-.5Zm1.92-.22a.67.67,0,0,0-.08-.35.29.29,0,0,0-.24-.12.29.29,0,0,0-.25.12.81.81,0,0,0,0,.7.29.29,0,0,0,.25.12.29.29,0,0,0,.24-.12.67.67,0,0,0,.08-.35Zm.37,0a.94.94,0,0,1,0,.3.7.7,0,0,1-.13.24.65.65,0,0,1-.21.16.73.73,0,0,1-.3.06.67.67,0,0,1-.3-.06.6.6,0,0,1-.22-.16.7.7,0,0,1-.13-.24.94.94,0,0,1,0-.3,1.06,1.06,0,0,1,0-.31.7.7,0,0,1,.13-.24.6.6,0,0,1,.22-.16.67.67,0,0,1,.3-.06.73.73,0,0,1,.3.06.65.65,0,0,1,.21.16.7.7,0,0,1,.13.24,1.06,1.06,0,0,1,0,.31Zm1.21,0a.67.67,0,0,0-.08-.35.29.29,0,0,0-.24-.12.29.29,0,0,0-.25.12.81.81,0,0,0,0,.7.29.29,0,0,0,.25.12.29.29,0,0,0,.24-.12.67.67,0,0,0,.08-.35Zm.37,0a1.36,1.36,0,0,1,0,.3.72.72,0,0,1-.14.24A.56.56,0,0,1,27,63a.73.73,0,0,1-.3.06.7.7,0,0,1-.3-.06.6.6,0,0,1-.22-.16.7.7,0,0,1-.13-.24.94.94,0,0,1-.05-.3,1.06,1.06,0,0,1,.05-.31.7.7,0,0,1,.13-.24.6.6,0,0,1,.22-.16.7.7,0,0,1,.3-.06.73.73,0,0,1,.3.06.56.56,0,0,1,.21.16.72.72,0,0,1,.14.24,1.55,1.55,0,0,1,0,.31Zm1.21,0a.67.67,0,0,0-.08-.35.29.29,0,0,0-.24-.12A.26.26,0,0,0,28,62a.73.73,0,0,0,0,.7.26.26,0,0,0,.24.12.29.29,0,0,0,.24-.12.67.67,0,0,0,.08-.35Zm.37,0a1,1,0,0,1,0,.3.92.92,0,0,1-.13.24.6.6,0,0,1-.22.16.78.78,0,0,1-.6,0,.62.62,0,0,1-.35-.4.94.94,0,0,1-.05-.3,1.06,1.06,0,0,1,.05-.31.62.62,0,0,1,.35-.4.78.78,0,0,1,.6,0,.6.6,0,0,1,.22.16.92.92,0,0,1,.13.24,1.06,1.06,0,0,1,0,.31Zm.87-.87.2.3h0l.2-.3.29-.41H31l-.7,1L31,63h-.42l-.31-.44c-.08-.11-.15-.22-.21-.32h0l-.21.32-.32.44H29.1l.73-1-.7-1h.42l.29.41Zm2.3.87a.58.58,0,0,0-.09-.35.26.26,0,0,0-.24-.12.29.29,0,0,0-.24.12.81.81,0,0,0,0,.7.29.29,0,0,0,.24.12.26.26,0,0,0,.24-.12.58.58,0,0,0,.09-.35Zm.36,0a1,1,0,0,1,0,.3.7.7,0,0,1-.13.24.6.6,0,0,1-.22.16.67.67,0,0,1-.3.06.73.73,0,0,1-.3-.06.65.65,0,0,1-.21-.16.72.72,0,0,1-.14-.24,1,1,0,0,1,0-.3,1.06,1.06,0,0,1,0-.31.72.72,0,0,1,.14-.24.65.65,0,0,1,.21-.16.73.73,0,0,1,.3-.06.67.67,0,0,1,.3.06.6.6,0,0,1,.22.16.7.7,0,0,1,.13.24A1.06,1.06,0,0,1,32.5,62.31Z"/><path class="cls-16" d="M33.72,62.31a.58.58,0,0,0-.09-.35.26.26,0,0,0-.24-.12.29.29,0,0,0-.24.12.81.81,0,0,0,0,.7.29.29,0,0,0,.24.12.26.26,0,0,0,.24-.12.58.58,0,0,0,.09-.35Zm.37,0a.94.94,0,0,1-.05.3.7.7,0,0,1-.13.24.6.6,0,0,1-.22.16.67.67,0,0,1-.3.06A.65.65,0,0,1,33.1,63a.6.6,0,0,1-.22-.16.74.74,0,0,1-.18-.54,1.06,1.06,0,0,1,0-.31,1,1,0,0,1,.14-.24.6.6,0,0,1,.22-.16.65.65,0,0,1,.29-.06.67.67,0,0,1,.3.06.6.6,0,0,1,.22.16A.7.7,0,0,1,34,62,1.06,1.06,0,0,1,34.09,62.31Z"/></g></g></svg>