<svg xmlns="http://www.w3.org/2000/svg" viewBox="0 0 97.73 56.67"><defs><style>.cls-1,.cls-3{fill:#fff;}.cls-1,.cls-5,.cls-7{stroke:#ec008c;}.cls-1,.cls-5,.cls-6,.cls-7{stroke-miterlimit:2.61;}.cls-1{stroke-width:2px;}.cls-1,.cls-4{fill-rule:evenodd;}.cls-2,.cls-7{fill:#ec008c;}.cls-4{fill:#43525a;opacity:0.6;}.cls-5,.cls-6{fill:none;stroke-linecap:round;}.cls-6{stroke:#fff;}.cls-7{stroke-width:0.22px;}</style></defs><title>label-design-dark_1</title><g id="Layer_2" data-name="Layer 2"><g id="Layer_1-2" data-name="Layer 1"><path class="cls-1" d="M18.83,17.18H78.9A17.7,17.7,0,0,1,96.73,34.65h0A17.7,17.7,0,0,1,78.9,52.12H18.83A17.7,17.7,0,0,1,1,34.65H1A17.7,17.7,0,0,1,18.83,17.18Z"/><circle class="cls-2" cx="48.86" cy="17.18" r="17.18" transform="translate(-2.12 8.05) rotate(-9.22)"/><circle class="cls-3" cx="48.86" cy="17.18" r="15.4" transform="translate(14.29 55.75) rotate(-67.5)"/><polygon class="cls-4" points="42.55 10.41 55.04 10.41 37.51 15.19 42.55 10.41"/><polygon class="cls-4" points="42.55 10.41 48.53 23.95 37.51 15.19 42.55 10.41"/><polygon class="cls-4" points="55.17 10.41 42.69 10.41 60.22 15.19 55.17 10.41"/><polygon class="cls-4" points="55.17 10.41 51.12 21.83 60.22 15.19 55.17 10.41"/><line class="cls-5" x1="40.08" y1="36.89" x2="57.65" y2="36.89"/><line class="cls-5" x1="41.04" y1="39.69" x2="56.69" y2="39.69"/><line class="cls-5" x1="42.25" y1="42.49" x2="55.48" y2="42.49"/><rect class="cls-2" x="10.5" y="23.02" width="16.91" height="23.2" rx="2.38"/><rect class="cls-2" x="70.04" y="23.02" width="16.91" height="23.2" rx="2.38"/><line class="cls-6" x1="11.88" y1="28.07" x2="24.21" y2="28.07"/><line class="cls-6" x1="11.88" y1="30.72" x2="22.4" y2="30.72"/><line class="cls-6" x1="11.88" y1="33.24" x2="23.12" y2="33.24"/><line class="cls-6" x1="11.88" y1="35.63" x2="21.89" y2="35.63"/><line class="cls-6" x1="11.88" y1="38.3" x2="20.35" y2="38.3"/><line class="cls-6" x1="11.88" y1="40.71" x2="21.05" y2="40.71"/><line class="cls-6" x1="85.17" y1="28.07" x2="72.84" y2="28.07"/><line class="cls-6" x1="85.17" y1="30.72" x2="74.66" y2="30.72"/><line class="cls-6" x1="85.17" y1="33.24" x2="73.94" y2="33.24"/><line class="cls-6" x1="85.17" y1="35.63" x2="75.17" y2="35.63"/><line class="cls-6" x1="85.17" y1="38.3" x2="76.71" y2="38.3"/><line class="cls-6" x1="85.17" y1="40.71" x2="76.01" y2="40.71"/><rect class="cls-7" x="14.4" y="52.12" width="68.93" height="4.44"/></g></g></svg>