<svg xmlns="http://www.w3.org/2000/svg" viewBox="0 0 130 245.81"><defs><style>.cls-1{fill:#43525a;}.cls-1,.cls-2,.cls-3,.cls-4,.cls-5,.cls-6,.cls-7{fill-rule:evenodd;}.cls-2{fill:#fff200;}.cls-3{fill:#231f20;}.cls-4{fill:#00aeef;}.cls-5{fill:#ec008c;}.cls-6{fill:#939598;}.cls-7{fill:#647883;}</style></defs><title>logo</title><g id="Layer_2" data-name="Layer 2"><g id="Layer_1-2" data-name="Layer 1"><path class="cls-1" d="M32.6,3.34H.27V60.72C.19,62.1.14,63.49.14,64.89s0,2.8.13,4.18V201H65V168.62H32.6V121.11a64.9,64.9,0,1,0,0-112.43V3.34Zm0,64.54v-6a32.57,32.57,0,1,1,0,6Z"/><path class="cls-2" d="M81.19,201A16.17,16.17,0,1,0,65,184.78,16.19,16.19,0,0,0,81.19,201Z"/><path class="cls-3" d="M113.51,201a16.17,16.17,0,1,0-16.16-16.17A16.2,16.2,0,0,0,113.51,201Z"/><path class="cls-4" d="M81.19,168.62A16.16,16.16,0,1,0,65,152.46,16.19,16.19,0,0,0,81.19,168.62Z"/><path class="cls-5" d="M113.51,168.62a16.16,16.16,0,1,0-16.16-16.16A16.19,16.19,0,0,0,113.51,168.62Z"/><path class="cls-6" d="M4,216.65a1.61,1.61,0,0,1,1.2.51,1.69,1.69,0,0,1,.49,1.22,1.67,1.67,0,0,1-.49,1.21,1.61,1.61,0,0,1-1.2.51,1.61,1.61,0,0,1-1.2-.51,1.67,1.67,0,0,1-.49-1.21,1.69,1.69,0,0,1,.49-1.22,1.61,1.61,0,0,1,1.2-.51ZM3,223.3H5.09v18.62a4.77,4.77,0,0,1-.73,3,2.4,2.4,0,0,1-2,.93A6.37,6.37,0,0,1,0,245.3v-1.84a3.29,3.29,0,0,0,1.5.43,1.37,1.37,0,0,0,1.27-.7A4.54,4.54,0,0,0,3,241.33v-18Zm6.17,0h2.07v7.56a16,16,0,0,0,.3,3.81A4.28,4.28,0,0,0,13.27,237a5.23,5.23,0,0,0,3,.86,5.08,5.08,0,0,0,3-.84,4.23,4.23,0,0,0,1.68-2.21,15.39,15.39,0,0,0,.32-4V223.3h2.13v7.94a12.56,12.56,0,0,1-.78,5,5.9,5.9,0,0,1-2.36,2.65,7.31,7.31,0,0,1-3.94,1,7.41,7.41,0,0,1-3.95-1A5.86,5.86,0,0,1,10,236.26a13.06,13.06,0,0,1-.78-5.16v-7.8Zm27,1.76-1.34,1.38a4.87,4.87,0,0,0-3.27-1.61,2.45,2.45,0,0,0-1.74.67,2,2,0,0,0-.73,1.56,2.3,2.3,0,0,0,.6,1.5,8.12,8.12,0,0,0,2.5,1.71,9.39,9.39,0,0,1,3.16,2.32,4.26,4.26,0,0,1,.82,2.54,4.55,4.55,0,0,1-1.41,3.38,4.79,4.79,0,0,1-3.5,1.39,6.22,6.22,0,0,1-2.68-.61,5.83,5.83,0,0,1-2.11-1.69l1.31-1.49a4.56,4.56,0,0,0,3.39,1.8,3.11,3.11,0,0,0,2.14-.8,2.47,2.47,0,0,0,.3-3.48A9.47,9.47,0,0,0,31,231.91a8.4,8.4,0,0,1-3-2.23,4.14,4.14,0,0,1-.79-2.5,4.07,4.07,0,0,1,1.26-3.06,4.42,4.42,0,0,1,3.19-1.22,6.67,6.67,0,0,1,4.52,2.16Zm5.46-7.8h2.08v6H47v1.8H43.72v14.4H41.64V225.1H38.81v-1.8h2.83Z"/><path class="cls-7" d="M54,223.3v1.78a7.67,7.67,0,0,1,2.38-1.63,7,7,0,0,1,2.74-.55,7.1,7.1,0,0,1,5.39,2.39,8.71,8.71,0,0,1,2.21,6.14,8.45,8.45,0,0,1-2.29,6A7.23,7.23,0,0,1,59,239.9a6.77,6.77,0,0,1-2.6-.5,7.86,7.86,0,0,1-2.4-1.63v7.65H49.9V223.3Zm4.26,3.33a4.24,4.24,0,0,0-3.18,1.3,4.75,4.75,0,0,0-1.26,3.42A4.86,4.86,0,0,0,55,234.84a4.2,4.2,0,0,0,3.18,1.33,4.13,4.13,0,0,0,3.13-1.35,4.82,4.82,0,0,0,1.27-3.45A4.73,4.73,0,0,0,61.37,228a4.1,4.1,0,0,0-3.15-1.33ZM69.1,223.3h3.5v2.06a4.45,4.45,0,0,1,1.5-1.83,3.58,3.58,0,0,1,2-.63,3.74,3.74,0,0,1,1.65.42l-1.26,3.51a2.72,2.72,0,0,0-1.17-.36,1.86,1.86,0,0,0-1.58,1.16,10.68,10.68,0,0,0-.64,4.55v7.32H69.1V223.3Zm12.31-6.65a2.5,2.5,0,0,1,1.83.77,2.64,2.64,0,0,1,0,3.72,2.56,2.56,0,0,1-3.66,0,2.6,2.6,0,0,1-.77-1.89,2.59,2.59,0,0,1,2.59-2.58Zm-2,6.65h4.06v16.2H79.37V223.3Zm7.74,0h4.06V225a9.85,9.85,0,0,1,2.5-1.61,6.17,6.17,0,0,1,2.3-.46,5.55,5.55,0,0,1,4.09,1.68,5.81,5.81,0,0,1,1.42,4.23V239.5h-4v-7.08a18.15,18.15,0,0,0-.26-3.85,2.68,2.68,0,0,0-.9-1.45,2.58,2.58,0,0,0-1.6-.49,3,3,0,0,0-2.12.82,4.42,4.42,0,0,0-1.23,2.28,19.65,19.65,0,0,0-.17,3.28v6.49H87.11V223.3Zm18.8-6h4v6h2.41v3.51H110V239.5h-4V226.81h-2.08V223.3h2.08Z"/><path class="cls-6" d="M117.46,216.65a1.65,1.65,0,0,1,1.21.51,1.7,1.7,0,0,1,.5,1.22,1.68,1.68,0,0,1-.5,1.21,1.65,1.65,0,0,1-1.21.51,1.61,1.61,0,0,1-1.2-.51,1.65,1.65,0,0,1-.51-1.21,1.67,1.67,0,0,1,.51-1.22,1.61,1.61,0,0,1,1.2-.51Zm-1,6.65h2.07v16.2h-2.07V223.3Zm8.21-6h2.07v6H130v1.8h-3.29v14.4h-2.07V225.1H121.8v-1.8h2.84Z"/></g></g></svg>