<svg xmlns="http://www.w3.org/2000/svg" viewBox="0 0 33.2 62.87"><defs><style>.cls-1{fill:#ffcb05;}.cls-1,.cls-2,.cls-3,.cls-4,.cls-5,.cls-6,.cls-7{fill-rule:evenodd;}.cls-2{fill:#fff200;}.cls-3{fill:#f1f2f2;}.cls-4{fill:#f58220;}.cls-5{fill:#43525a;}.cls-6{fill:#fff;}.cls-7{fill:#231f20;}</style></defs><title>menu-card</title><g id="Layer_2" data-name="Layer 2"><g id="Layer_1-2" data-name="Layer 1"><polygon class="cls-1" points="0 1.88 33.2 0 33.2 59.29 0 61.17 0 1.88"/><polygon class="cls-2" points="0 1.88 30.66 3.58 30.66 62.87 0 61.17 0 1.88"/><path class="cls-3" d="M0,1.88l15.33.85,15.33.85V62.87Q23,62.44,15.33,62L0,61.18V1.88Z"/><path class="cls-4" d="M0,1.88l15.33.85,15.33.85v22Q23,32.81,15.33,32.39T0,23.89v-22Z"/><path class="cls-5" d="M0,1.88l15.33.85,15.33.85V25.22Q23,31.57,15.33,31.16T0,23.53V1.88Z"/><path class="cls-4" d="M0,61.18,15.33,62q7.67.4,15.33.84Q23,61.55,15.33,60.27L0,57.66Z"/><path class="cls-1" d="M30.66,62.87l-9.37-.52-9.37-.52,9.37-1.24,9.37-1.24Z"/><path class="cls-6" d="M30.66,53.35h-.09A6.9,6.9,0,0,1,26.09,51a7.94,7.94,0,0,1-2-4.86v-.48A7.09,7.09,0,0,1,26,40.75a6.26,6.26,0,0,1,4.5-1.93h.18V34.94l-2.41.16-.12.11a8.56,8.56,0,0,0-3,1.22,12.3,12.3,0,0,0-2.26,2,11.15,11.15,0,0,0-2.4,6.47V46A9.77,9.77,0,0,0,21,48.84,11.75,11.75,0,0,0,22.28,52a12.64,12.64,0,0,0,1.95,2.4,10.91,10.91,0,0,0,2.57,1.83,11.13,11.13,0,0,0,3.32,1l.54,0Z"/><path class="cls-6" d="M25,45.43v.68a7,7,0,0,0,1.62,4.13,6.11,6.11,0,0,0,3.59,2.1l.5,0V39.8l-.23,0C27.63,39.63,25,42.41,25,45.43Z"/><path class="cls-6" d="M15,40.46a2.68,2.68,0,0,0,.46,1.7c.28.44.74.65,1,1.09.31.63.1,3.1.1,4.08,0,2.7-.27,5.46-.27,8.17v.84a1.2,1.2,0,0,0,1,1.18c.57,0,1.17-.3,1.17-.87v-1c0-2.69-.22-5.46-.22-8.16a24.74,24.74,0,0,1,0-4c.34-.76,1.53-1,1.53-2.44V34.73a.41.41,0,0,0-.32-.42c-.26,0-.3.12-.41.29v6c-.05.08-.1.19-.23.19a.13.13,0,0,0-.08,0c-.22,0-.24-.11-.32-.25v-6a.42.42,0,0,0-.37-.27c-.12,0-.31.14-.31.28v6c-.16,0-.09.13-.32.12h-.09c-.13,0-.18-.12-.23-.21v-6c-.08-.15-.15-.31-.36-.32-.5,0-.36.73-.36,1.26v5c-.05.07-.1.19-.23.18a.55.55,0,0,0-.18,0c-.37,0-.23-1.17-.23-1.59V35.49c0-.57.15-1.37-.36-1.39-.18,0-.32.16-.32.37Z"/><path class="cls-1" d="M15.45,6.76h0a8.45,8.45,0,0,1,5.88,3,9.87,9.87,0,0,1,2.43,6.49h0c0,.31,0,.63,0,.94h0a.68.68,0,0,0,0,.14h0c0,.24-.07.5-.11.75l0,.13h-.13l-8-.44-8-.44H7.35l0-.13h0c0-.08,0-.17-.05-.26s0-.18,0-.26h0a9.83,9.83,0,0,1-.09-1.34h0A8.89,8.89,0,0,1,9.58,9.06a7.57,7.57,0,0,1,5.87-2.3Zm0,.33h0A7.3,7.3,0,0,0,9.79,9.31a8.61,8.61,0,0,0-2.34,6h0a9.36,9.36,0,0,0,.09,1.3h0a1.72,1.72,0,0,0,0,.24.5.5,0,0,0,0,.12l7.85.44,7.86.43.09-.59h0a.81.81,0,0,1,0-.15h0c0-.3,0-.6,0-.9h0A9.45,9.45,0,0,0,21.11,10,8.13,8.13,0,0,0,15.45,7.09Z"/><path class="cls-1" d="M15.58,15.1h-.12a2,2,0,0,1-1.28-.66,2.24,2.24,0,0,1-.57-1.38V12.9a2,2,0,0,1,.54-1.39A1.84,1.84,0,0,1,15.43,11h.09a2.14,2.14,0,0,1,1.9,2.17h0a1.88,1.88,0,0,1-1.84,2Zm0,1.1a2.6,2.6,0,0,0,2-.79,3.13,3.13,0,0,0,.87-2.07V13l-.06-.52,0,0a3.29,3.29,0,0,0-.37-1,3.34,3.34,0,0,0-.61-.78,3.64,3.64,0,0,0-.81-.56,3,3,0,0,0-1.09-.27l-.68.05,0,0a2.24,2.24,0,0,0-.84.35,3.29,3.29,0,0,0-.65.58,3.14,3.14,0,0,0-.68,1.84V13a2.64,2.64,0,0,0,.13.81,3.07,3.07,0,0,0,.38.89,3.64,3.64,0,0,0,.55.68,3,3,0,0,0,1.68.81Z"/><path class="cls-4" d="M13.86,12.84V13a2,2,0,0,0,.46,1.18,1.68,1.68,0,0,0,1,.6l.33,0a1.53,1.53,0,0,0,1-.49,1.78,1.78,0,0,0,.46-1.18h0a1.84,1.84,0,0,0-1.62-1.91h-.14A1.62,1.62,0,0,0,13.86,12.84Z"/><path class="cls-1" d="M18.77,12.26a3.33,3.33,0,0,0,.16,1c.14.38.4.27.4.75,0,.74,0,1.49,0,2.26v.17a.34.34,0,0,0,.29.28.27.27,0,0,0,.32-.29v-.11c0-.5-.05-1.09-.05-1.58s0-1.06,0-1.62,0-1.09,0-1.61V10.7c0-.24,0-.61-.18-.63h-.07a.51.51,0,0,0-.4.25,1.4,1.4,0,0,0-.22.44A3.83,3.83,0,0,0,18.77,12Z"/><path class="cls-1" d="M11,11.42a.74.74,0,0,0,.13.48c.08.13.21.19.27.32a5.35,5.35,0,0,1,0,1.16c0,.77-.08,1.55-.08,2.32V16a.33.33,0,0,0,.27.33c.16,0,.34-.08.34-.24v-.3c0-.77-.07-1.55-.07-2.32a7.07,7.07,0,0,1,0-1.13c.1-.22.44-.29.44-.69V9.79c0-.06,0-.12-.09-.12s-.09,0-.12.09v1.7s0,0-.06,0h0c-.06,0-.06,0-.09-.08V9.73a.12.12,0,0,0-.1-.08.1.1,0,0,0-.09.08v1.72s0,.05-.09,0h0s-.05,0-.06-.06V9.73c0-.05,0-.1-.11-.1s-.1.21-.1.36v1.43s0,.05-.06.05h-.06c-.1,0-.06-.33-.06-.45V10c0-.16,0-.39-.1-.4a.1.1,0,0,0-.09.11Z"/><path class="cls-4" d="M2.39,17.92l4.2.23v3.74l-4.2-.23c.69-.58,1.4-1.16,2.1-1.76Z"/><path class="cls-4" d="M28.16,19.34,24,19.11v3.74l4.21.23-2.1-2Z"/><path class="cls-1" d="M5,16.84l10.24.56L25.51,18v3.74l-10.24-.57L5,20.58Z"/><path class="cls-2" d="M5,20.58l1.56.08v1.23Z"/><path class="cls-2" d="M25.51,21.71,24,21.62v1.23Z"/><path class="cls-5" d="M10.6,20.15h-.29V18.39c0-.14,0-.31,0-.52h0a1.11,1.11,0,0,1-.07.26c-.28.65-.55,1.31-.83,2H9.3l-.83-2a1.68,1.68,0,0,1-.07-.27h0c0,.1,0,.27,0,.51V20H8.13V17.4l.38,0c.24.62.49,1.24.74,1.86a2.46,2.46,0,0,1,.11.32h0c.05-.14.09-.25.11-.32l.76-1.77.36,0v2.61Zm1.15-2.54v.26h-.23V20h.23v.26l-.75,0v-.26h.23V17.84H11v-.27l.75.05Zm2.13,2.73-.33,0-.41-.76a1,1,0,0,0-.11-.17.34.34,0,0,0-.1-.13.37.37,0,0,0-.12-.07l-.14,0h-.24v1.12l-.28,0V17.63l.72,0a.94.94,0,0,1,.3,0,.7.7,0,0,1,.23.15.66.66,0,0,1,.15.22.75.75,0,0,1,.06.31.66.66,0,0,1,0,.25.78.78,0,0,1-.11.2.79.79,0,0,1-.17.14.73.73,0,0,1-.22.09h0a.6.6,0,0,1,.11.06.39.39,0,0,1,.08.1l.08.12.09.16.45.81Zm-1.45-2.42v.94l.39,0a.69.69,0,0,0,.2,0,.34.34,0,0,0,.15-.09.31.31,0,0,0,.1-.15.49.49,0,0,0,0-.21.4.4,0,0,0-.13-.33.55.55,0,0,0-.36-.15Zm3.66,2.54-.32,0c-.08-.25-.17-.49-.25-.75l-1-.05-.24.72-.31,0c.3-.86.61-1.71.92-2.56h.3c.31.9.62,1.78.93,2.67Zm-.66-1c-.13-.39-.26-.77-.38-1.15a.53.53,0,0,1,0-.17h0a.8.8,0,0,1,0,.18l-.37,1.09.84.05Zm2.65,1a1.3,1.3,0,0,1-.66.12,1.13,1.13,0,0,1-.83-.41,1.49,1.49,0,0,1-.31-1,1.37,1.37,0,0,1,.35-1,1.11,1.11,0,0,1,.89-.35,1.48,1.48,0,0,1,.56.14v.33a1.05,1.05,0,0,0-.57-.19.82.82,0,0,0-.67.27,1.13,1.13,0,0,0-.26.78,1.17,1.17,0,0,0,.24.78.84.84,0,0,0,.64.32,1,1,0,0,0,.62-.14v.3Zm1.75.21-1.25-.08V18l.28,0v2.34l1,.05v.28Zm1.65.09-1.28-.07V18.08l1.23.06v.27l-.94-.05v.87l.87.05v.28l-.87,0v.91l1,.06Z"/><path class="cls-6" d="M10.45,23h-.18c-.08-.13-.15-.26-.22-.4l-.06-.1-.06-.07-.06,0h-.2V23H9.51V21.56l.39,0a.41.41,0,0,1,.16,0,.57.57,0,0,1,.13.08.36.36,0,0,1,.08.12.45.45,0,0,1,0,.16.52.52,0,0,1,0,.14.6.6,0,0,1-.06.11.31.31,0,0,1-.09.07l-.12.05h0l.06,0,0,.05.05.06a.36.36,0,0,0,0,.09c.08.14.16.29.25.43Zm-.78-1.3v.51l.2,0,.11,0a.12.12,0,0,0,.08,0,.21.21,0,0,0,.06-.08.5.5,0,0,0,0-.12.24.24,0,0,0-.07-.18.28.28,0,0,0-.19-.08Zm1.64,1.35-.69,0V21.62l.66,0v.15l-.5,0v.47l.47,0v.14l-.47,0v.49l.53,0v.15Zm.19,0v-.2s.05,0,.07.06l.1.05.09,0h.09a.41.41,0,0,0,.21,0,.2.2,0,0,0,.07-.16.22.22,0,0,0,0-.1L12,22.59,12,22.53l-.12-.08-.13-.08a.45.45,0,0,1-.1-.09.34.34,0,0,1-.07-.11.35.35,0,0,1,0-.14.47.47,0,0,1,0-.17.35.35,0,0,1,.11-.1.31.31,0,0,1,.14-.07H12a.46.46,0,0,1,.27.07v.18a.5.5,0,0,0-.29-.1h-.1l-.09,0s-.05,0-.06.06a.19.19,0,0,0,0,.1.3.3,0,0,0,0,.1.33.33,0,0,0,.06.08l.08.06.13.07.13.09a.45.45,0,0,1,.1.09.42.42,0,0,1,.08.12.33.33,0,0,1,0,.15.33.33,0,0,1,0,.17.35.35,0,0,1-.1.11.38.38,0,0,1-.15.05h-.25a.32.32,0,0,1-.09,0l-.09,0-.07,0Zm1.82-1.11-.38,0v1.26h-.15V21.89l-.37,0v-.14l.9.05v.14Zm1.2,1.33h-.16c0-.13-.1-.27-.14-.4l-.55,0c0,.13-.09.25-.13.38h-.17c.17-.46.33-.93.5-1.38H14c.17.49.34,1,.5,1.44Zm-.35-.56c-.07-.2-.14-.41-.2-.61a.41.41,0,0,1,0-.1h0a.3.3,0,0,1,0,.1c-.07.2-.13.39-.2.58l.45,0Zm1.5,0c0,.4-.17.59-.5.57s-.47-.22-.47-.6v-.86h.15v.85c0,.29.11.44.34.45s.32-.11.32-.4V21.9h.16v.84Zm1.25.64h-.18c-.07-.14-.14-.27-.22-.4l-.05-.1-.06-.07-.06,0h-.21v.6H16V21.92l.39,0a.47.47,0,0,1,.16,0,.36.36,0,0,1,.12.08.25.25,0,0,1,.08.12.42.42,0,0,1,0,.16.32.32,0,0,1,0,.14.47.47,0,0,1-.05.1.39.39,0,0,1-.1.08.36.36,0,0,1-.11,0h0a.1.1,0,0,1,.05,0l.05.05s0,0,0,.06a.41.41,0,0,0,.05.09l.24.43Zm-.78-1.3v.51h.32l.08-.05a.22.22,0,0,0,.05-.08.2.2,0,0,0,0-.11.27.27,0,0,0-.07-.18.31.31,0,0,0-.2-.08Zm2,1.37h-.17c-.05-.14-.09-.27-.14-.4l-.55,0c-.05.13-.09.25-.13.38H17l.5-1.38h.16c.16.48.33,1,.5,1.44Zm-.36-.56c-.07-.2-.14-.41-.2-.61a.3.3,0,0,1,0-.1h0a.3.3,0,0,1,0,.1c-.06.19-.13.39-.2.58l.45,0Zm1.59.62h-.18c-.23-.38-.45-.77-.67-1.15a.3.3,0,0,1,0-.1h0a1,1,0,0,1,0,.2v1l-.15,0v-1.4h.2c.21.38.43.76.65,1.14a.88.88,0,0,1,.05.1h0a1.1,1.1,0,0,1,0-.21v-1h.15v1.4Zm1.11-1.19-.37,0v1.26h-.15V22.29l-.38,0v-.15l.9.05Z"/><path class="cls-7" d="M11.76,37.64V36.36l.93,0V36l-.93,0v-.91l1,.05v-.37l-1.42-.08v2.94l.41,0Zm2.33-2.85c-.7,0-1.18.54-1.18,1.47s.45,1.52,1.14,1.56,1.17-.46,1.17-1.48c0-.85-.41-1.51-1.13-1.55Zm0,.37c.49,0,.72.61.72,1.17s-.25,1.15-.73,1.13-.71-.6-.71-1.19.22-1.14.72-1.11Zm2.43-.24c-.7,0-1.17.55-1.17,1.47s.44,1.52,1.13,1.56,1.17-.45,1.17-1.48c0-.84-.41-1.5-1.13-1.55Zm0,.37c.49,0,.72.62.72,1.17s-.25,1.15-.73,1.12-.71-.58-.71-1.17.22-1.15.72-1.12ZM17.89,38a3.67,3.67,0,0,0,.58.07,1.41,1.41,0,0,0,1.11-.32A1.56,1.56,0,0,0,20,36.57h0a1.34,1.34,0,0,0-1.39-1.51,3.77,3.77,0,0,0-.69,0V38Zm.41-2.53a.92.92,0,0,1,.31,0c.59,0,.93.42.93,1.13s-.37,1.18-1,1.14a1.7,1.7,0,0,1-.26,0V35.44Zm-4.73,3.27-.51,0L12.67,40c-.11.35-.19.67-.26,1h0c-.07-.32-.15-.66-.25-1l-.39-1.32c-.17,0-.34,0-.5,0-.07,1-.13,2-.19,2.94l.39,0c0-.41,0-.81,0-1.21s.05-.87.06-1.24h0c.07.36.17.75.28,1.13s.25.89.37,1.33l.31,0c.13-.44.27-.88.4-1.32s.22-.73.3-1.07h0c0,.37,0,.82,0,1.22l.06,1.24.4,0c-.06-1-.11-2-.17-2.95Zm2,2.68-1.06-.06v-1l.95.06V40l-.95,0v-.86l1,.06v-.37l-1.42-.08v2.94l1.48.08v-.37Zm2.2-2.45-.38,0V40c0,.47,0,.85,0,1.25h0a7.14,7.14,0,0,0-.44-1l-.71-1.41c-.15,0-.3,0-.45,0v2.94l.38,0V40.7c0-.51,0-.89,0-1.27h0a8.33,8.33,0,0,0,.45,1c.23.47.47.94.71,1.41l.42,0V38.94Zm2.31.13-.41,0v1.77c0,.59-.22.83-.56.81s-.53-.27-.53-.87V39l-.41,0v1.75c0,.88.37,1.26.93,1.29s1-.31,1-1.18Z"/><path class="cls-4" d="M10.05,51.82c1.76.09,3.52.2,5.28.3l5.27.29a2.21,2.21,0,0,1,2,2.24h0a2,2,0,0,1-2,2.05l-5.27-.3c-1.76-.1-3.52-.21-5.28-.3a2.2,2.2,0,0,1-2-2.25h0A2,2,0,0,1,10.05,51.82Z"/></g></g></svg>