<svg xmlns="http://www.w3.org/2000/svg" xmlns:xlink="http://www.w3.org/1999/xlink" viewBox="0 0 48.88 74.43"><defs><style>.cls-1,.cls-6{fill:none;}.cls-2,.cls-7{fill:#0095da;}.cls-13,.cls-14,.cls-15,.cls-2,.cls-8{fill-rule:evenodd;}.cls-15,.cls-3{fill:#fff;}.cls-4{clip-path:url(#clip-path);}.cls-5{fill:#e6e7e8;}.cls-6{stroke:#0095da;stroke-miterlimit:2.61;}.cls-8{fill:#43525a;}.cls-9{fill:#fff200;}.cls-10{fill:#231f20;}.cls-11{fill:#00aeef;}.cls-12{fill:#ec008c;}.cls-13{fill:#939598;}.cls-14{fill:#647883;}</style><clipPath id="clip-path"><rect class="cls-1" x="0.5" y="3.94" width="45.15" height="69.99"/></clipPath></defs><title>office-files</title><g id="Layer_2" data-name="Layer 2"><g id="Layer_1-2" data-name="Layer 1"><polygon class="cls-2" points="0.5 3.94 48.88 0 48.88 69.99 0.5 73.93 0.5 3.94"/><rect class="cls-3" x="0.5" y="3.94" width="45.15" height="69.99"/><g class="cls-4"><rect class="cls-5" x="0.5" y="4.17" width="5.74" height="69.53"/></g><rect class="cls-6" x="0.5" y="3.94" width="45.15" height="69.99"/><path class="cls-2" d="M3.48,29.58a1.14,1.14,0,1,0-1.13-1.14A1.14,1.14,0,0,0,3.48,29.58Z"/><circle class="cls-7" cx="3.48" cy="49.43" r="1.13"/><path class="cls-8" d="M19.54,25.91H16v6.25c0,.15,0,.3,0,.46s0,.3,0,.45V47.44h7.06V43.92H19.54V38.74a7.07,7.07,0,1,0,0-12.25v-.58Zm0,7v-.65a3.55,3.55,0,1,1,0,.65Z"/><circle class="cls-9" cx="24.84" cy="45.68" r="1.76"/><circle class="cls-10" cx="28.36" cy="45.68" r="1.76"/><circle class="cls-11" cx="24.84" cy="42.15" r="1.76"/><circle class="cls-12" cx="28.36" cy="42.15" r="1.76"/><path class="cls-13" d="M16.43,49.15a.19.19,0,0,1,.13.05.2.2,0,0,1,.06.14.18.18,0,0,1-.06.13.15.15,0,0,1-.13.05.17.17,0,0,1-.13-.05.21.21,0,0,1-.05-.13.24.24,0,0,1,.05-.14.21.21,0,0,1,.13-.05Zm-.11.72h.23v2a.51.51,0,0,1-.08.32.27.27,0,0,1-.22.1.66.66,0,0,1-.26,0v-.2a.41.41,0,0,0,.17,0,.14.14,0,0,0,.13-.08.43.43,0,0,0,0-.2v-2Zm.67,0h.23v.83a1.82,1.82,0,0,0,0,.41.49.49,0,0,0,.19.26.58.58,0,0,0,.33.09.57.57,0,0,0,.32-.09.43.43,0,0,0,.18-.24,1.73,1.73,0,0,0,0-.43v-.83h.23v.87a1.34,1.34,0,0,1-.09.55.64.64,0,0,1-.25.29.83.83,0,0,1-.43.1.81.81,0,0,1-.43-.1.64.64,0,0,1-.26-.3,1.33,1.33,0,0,1-.09-.56v-.85Zm2.94.19-.14.16a.52.52,0,0,0-.36-.18.26.26,0,0,0-.19.07.25.25,0,0,0-.08.17.25.25,0,0,0,.07.17.87.87,0,0,0,.27.18.91.91,0,0,1,.34.26.44.44,0,0,1,.09.27.5.5,0,0,1-.15.37.52.52,0,0,1-.38.15.59.59,0,0,1-.29-.07.52.52,0,0,1-.23-.18l.14-.16a.5.5,0,0,0,.37.19.31.31,0,0,0,.23-.08.3.3,0,0,0,.1-.21.23.23,0,0,0-.07-.17,1,1,0,0,0-.28-.19.93.93,0,0,1-.33-.24A.43.43,0,0,1,19,50.3a.45.45,0,0,1,.13-.34.49.49,0,0,1,.35-.13.74.74,0,0,1,.49.23Zm.6-.84h.22v.65h.36v.2h-.36v1.57h-.22V50.07h-.31v-.2h.31Z"/><path class="cls-14" d="M21.87,49.87v.2a.87.87,0,0,1,.26-.18.73.73,0,0,1,.3-.06.77.77,0,0,1,.58.26,1,1,0,0,1,.24.67.92.92,0,0,1-.25.66.79.79,0,0,1-.59.26.87.87,0,0,1-.28,0,1,1,0,0,1-.26-.18v.83h-.44V49.87Zm.46.37a.42.42,0,0,0-.34.14.51.51,0,0,0-.14.37.54.54,0,0,0,.14.38.46.46,0,0,0,.68,0,.51.51,0,0,0,.14-.38.52.52,0,0,0-.13-.37.45.45,0,0,0-.35-.14Zm1.19-.37h.38v.23a.41.41,0,0,1,.16-.2.36.36,0,0,1,.22-.07.41.41,0,0,1,.18.05l-.13.38a.27.27,0,0,0-.13,0,.19.19,0,0,0-.17.13,1.06,1.06,0,0,0-.07.49v.8h-.44V49.87Zm1.34-.72a.3.3,0,0,1,.2.08.32.32,0,0,1,.08.21.28.28,0,0,1-.48.2.28.28,0,0,1-.08-.21.26.26,0,0,1,.08-.2.28.28,0,0,1,.2-.08Zm-.22.72h.44v1.77h-.44V49.87Zm.84,0h.44v.19a.9.9,0,0,1,.27-.18.79.79,0,0,1,.25-.05.61.61,0,0,1,.45.18.65.65,0,0,1,.15.46v1.17H26.6v-.77a2.08,2.08,0,0,0,0-.42.37.37,0,0,0-.1-.16.27.27,0,0,0-.18,0,.33.33,0,0,0-.23.09.47.47,0,0,0-.13.24,2.45,2.45,0,0,0,0,.36v.71h-.44V49.87Zm2.05-.65H28v.65h.26v.39H28v1.38h-.44V50.26H27.3v-.39h.23Z"/><path class="cls-13" d="M28.79,49.15a.21.21,0,0,1,.13.05.19.19,0,0,1,0,.14.17.17,0,0,1-.18.18.15.15,0,0,1-.13-.05.18.18,0,0,1-.06-.13.2.2,0,0,1,.06-.14.19.19,0,0,1,.13-.05Zm-.12.72h.23v1.77h-.23V49.87Zm.9-.65h.22v.65h.36v.2h-.36v1.57h-.22V50.07h-.31v-.2h.31Z"/><path class="cls-8" d="M13.5,63.43H32.65a2.18,2.18,0,0,1,2.17,2.17h0a2.18,2.18,0,0,1-2.17,2.18H13.5a2.18,2.18,0,0,1-2.17-2.18h0A2.18,2.18,0,0,1,13.5,63.43Z"/><path class="cls-15" d="M13.85,66.88h-.47V64.34H15v.38H13.85v.66h1v.39h-1v1.11Zm1.56,0V64.34h.47v2.54ZM17,64.34v2.15h1.19v.39H16.49V64.34Zm2.1,2.15H20.3v.39H18.58V64.34h1.65v.38H19.05v.66h1v.39h-1v.72Zm3.87-1c.18.26.33.49.44.69h0c0-.33,0-.57,0-.72V64.34h.47v2.54h-.49l-.83-1.17a7.32,7.32,0,0,1-.45-.71h0c0,.31,0,.55,0,.73v1.15h-.47V64.34h.49l.84,1.18Zm3.39.08a1.2,1.2,0,0,0-.06-.4.81.81,0,0,0-.16-.29.55.55,0,0,0-.24-.18.92.92,0,0,0-.6,0,.69.69,0,0,0-.24.18.81.81,0,0,0-.16.29,1.2,1.2,0,0,0-.06.4,1.27,1.27,0,0,0,.06.41.81.81,0,0,0,.16.29.66.66,0,0,0,.24.17.78.78,0,0,0,.6,0,.53.53,0,0,0,.24-.17.81.81,0,0,0,.16-.29,1.27,1.27,0,0,0,.06-.41Zm.48,0a1.8,1.8,0,0,1-.08.54,1.27,1.27,0,0,1-.24.41,1.21,1.21,0,0,1-.39.28,1.47,1.47,0,0,1-.53.09,1.38,1.38,0,0,1-.52-.09,1,1,0,0,1-.39-.28,1.13,1.13,0,0,1-.25-.41,1.83,1.83,0,0,1,0-1.07,1.27,1.27,0,0,1,.25-.42,1.13,1.13,0,0,1,.39-.27,1.38,1.38,0,0,1,.52-.1,1.47,1.47,0,0,1,.53.1,1.36,1.36,0,0,1,.39.27,1.44,1.44,0,0,1,.24.42,1.78,1.78,0,0,1,.08.53Zm.41.77h.51v.51H27.2v-.51Zm1.94,0h.51v.51h-.51v-.51Zm0-1.2h.51v.5h-.51v-.5Zm2.47-.31.26.38h0l.25-.38.37-.52H33l-.88,1.25.92,1.29h-.53l-.4-.57-.27-.4h0l-.27.4-.4.57h-.53l.92-1.29-.88-1.25h.53Z"/></g></g></svg>