<svg xmlns="http://www.w3.org/2000/svg" viewBox="0 0 210.3 177.47"><defs><style>.cls-1{fill:#ecf4fc;}.cls-1,.cls-10,.cls-11,.cls-12,.cls-13,.cls-14,.cls-15,.cls-16,.cls-17,.cls-18,.cls-19,.cls-20,.cls-21,.cls-22,.cls-23,.cls-24,.cls-25,.cls-26,.cls-27,.cls-28,.cls-4,.cls-5,.cls-6,.cls-7,.cls-8,.cls-9{fill-rule:evenodd;}.cls-2{fill:#ffcb05;}.cls-3{fill:#d7e8f7;}.cls-4{fill:#535d66;}.cls-5{fill:#fff;}.cls-6{fill:#c9d7dd;}.cls-7{fill:#394558;}.cls-8{fill:#fdb724;}.cls-9{fill:#ec008c;}.cls-10{fill:#f6adcd;}.cls-11{fill:#cce1f4;}.cls-12{fill:#878f99;}.cls-13{fill:#ec9b5e;}.cls-14{fill:#ffc94e;}.cls-15{fill:#fdd2ba;}.cls-16{fill:#df4d68;}.cls-17{fill:#00b480;}.cls-18{fill:#ec838f;}.cls-19{fill:#58595b;}.cls-20{fill:#f05b72;}.cls-21{fill:#f1fafe;}.cls-22{fill:#e9f3fb;}.cls-23{fill:#979ea3;}.cls-24{fill:#7b8b96;}.cls-25{fill:#8ed8f8;}.cls-26{fill:#d8e2e8;}.cls-27{fill:#a6b2bd;}.cls-28{fill:#81b2dd;}</style></defs><title>pc</title><g id="Layer_2" data-name="Layer 2"><g id="Layer_1-2" data-name="Layer 1"><path class="cls-1" d="M32.54,56.82q.15,25.12.31,50.26c0,3.79.16,7.91,2.56,10.84,2.72,3.32,7.43,4,11.7,4.5A659.72,659.72,0,0,0,168.16,124c3.51-.28,7.31-.71,9.85-3.15,2.82-2.71,3.2-7,3.35-10.91a420.17,420.17,0,0,0-2.1-61c-.44-4.07-1.16-8.55-4.34-11.14-2.46-2-5.82-2.35-9-2.61q-32-2.64-64.23-2.66-16.08,0-32.15.63-8.09.33-16.19.82c-4.06.25-8.58,0-12.54,1.1C32.41,37.31,32.5,50,32.54,56.82Z"/><rect class="cls-2" x="47.37" y="48.73" width="44.98" height="27.55"/><rect class="cls-3" x="98.17" y="88.66" width="28.81" height="27.55"/><rect class="cls-3" x="130.01" y="88.66" width="40.94" height="27.55"/><rect class="cls-3" x="98.42" y="48.73" width="19.46" height="35.38"/><rect class="cls-3" x="124.96" y="48.48" width="19.46" height="13.39"/><rect class="cls-3" x="71.89" y="104.33" width="19.46" height="13.39"/><rect class="cls-3" x="47.63" y="104.33" width="19.46" height="13.39"/><rect class="cls-3" x="148.46" y="48.48" width="19.46" height="13.39"/><rect class="cls-3" x="125.21" y="65.16" width="44.48" height="1.77"/><rect class="cls-3" x="125.21" y="68.44" width="44.48" height="1.77"/><rect class="cls-3" x="125.21" y="71.73" width="44.48" height="1.77"/><rect class="cls-3" x="125.21" y="75.01" width="44.48" height="1.77"/><rect class="cls-3" x="125.21" y="78.3" width="44.48" height="1.77"/><rect class="cls-3" x="125.21" y="81.58" width="44.48" height="1.77"/><rect class="cls-3" x="46.62" y="79.81" width="44.48" height="1.77"/><rect class="cls-3" x="46.62" y="83.1" width="44.48" height="1.77"/><rect class="cls-3" x="46.62" y="86.39" width="44.48" height="1.77"/><rect class="cls-3" x="46.62" y="89.67" width="44.48" height="1.77"/><rect class="cls-3" x="46.62" y="92.96" width="44.48" height="1.77"/><rect class="cls-3" x="46.62" y="96.24" width="44.48" height="1.77"/><path class="cls-4" d="M178.81,109.35c.47-3.45.07-7.09,0-10.56l-.3-12.27-.57-24c-.09-3.82-.14-7.65-.28-11.48-.12-3-.44-6.34-2.31-8.9-3.7-5.11-11.06-4.63-16.71-4.7-21.33-.26-42.71-1-64-.41-2.68.07-5.34,0-8,.07L61.85,37c-3.92,0-7.84-.11-11.76,0a24.35,24.35,0,0,0-8.68,1.49,10.09,10.09,0,0,0-5.6,5.45c-1.29,3-1.25,6.35-1.29,9.57q-.14,12.08-.33,24.16t-.36,24.16c0,3.11-.33,6.51,1,9.43,1.25,2.69,3.85,4.12,6.73,4.62,3.32.56,6.78.31,10.13.31l12.6,0L89,116.07,139,116l24.71-.06h6.05a14.08,14.08,0,0,0,4.92-.62c2.6-1,3.82-3.34,4.18-5.92Zm-5.23-76.8c6.95,1.56,10.06,5.82,9.94,12.76,0,3.12,0,6.24-.06,9.36-.17,13.42-.59,26.84-.59,40.27-.07,8.52,0,17.06-.19,25.58-9.7.11-19.4.26-29.1.22-10.11,0-20.21-.31-30.32-.38-20.21-.14-40.42.06-60.63.07H56.85c-9.3,0-18.61,0-27.91.33-.3-8.25-.22-16.53-.33-24.78-.12-9-.18-17.89-.24-26.84l-.09-13.55A71.19,71.19,0,0,1,28.61,45c.43-3,1.32-6.08,3.49-8.28,2.6-2.64,6.41-2.91,9.91-3,18-.43,36-.61,54.05-.92s36-.56,54-.83q6.78-.09,13.55-.14A44.65,44.65,0,0,1,173.58,32.55Z"/><path class="cls-5" d="M143.44,167.74c-1.6-1.78-4.76-1.58-6.93-1.73q-4.24-.3-8.49-.51-16.62-.83-33.26-.29a12,12,0,0,1-1.58.08c-.8-.09-1.61-.26-2.42-.36a46.91,46.91,0,0,0-4.88-.36,47.57,47.57,0,0,0-9.75.82c-2.21.43-4.54,1.1-6,2.85-.72.88-1.12,2.24-.4,3.13a3.28,3.28,0,0,0,2.24.9,77,77,0,0,0,12.24.5q3.09-.12,6.17-.48c1.72-.2,3.52-.75,5.23-.45a28.81,28.81,0,0,0,4.83.07l33.6-.17a46.1,46.1,0,0,0,7.34-.15,3.52,3.52,0,0,0,2.52-1.25A2.2,2.2,0,0,0,143.44,167.74Z"/><path class="cls-6" d="M105.46,138.93l23.52.28a24.54,24.54,0,0,0-.28,5.11c0,2.16,0,4.32,0,6.48s0,4.32,0,6.48c0,2-.13,4.12,0,6.14q-15.84-.81-31.7-.37c-3.11.09-6.23.22-9.34.38.08-2.07-.14-4.19-.23-6.25-.1-2.24-.18-4.48-.29-6.72s-.22-4.32-.34-6.48a31.63,31.63,0,0,0-.37-5.28Z"/><path class="cls-5" d="M182.63,122.62c-.09,3-.38,6.12-1.78,8.78-1.68,3.2-4.77,4.73-8.21,5.33-3.73.64-7.65.33-11.41.29l-13.63-.15-27-.3L66.34,136,53,135.82c-4,0-8.14.09-12.18-.26-3.24-.29-6.7-1.12-8.93-3.66s-2.73-6.42-2.87-9.78c0-.19,0-.38,0-.57,9.86.43,19.74.43,29.62.49q15.16.08,30.32.23c10.1.1,20.2.14,30.31.18s20.21-.21,30.32-.21C160.57,122.25,171.6,122.44,182.63,122.62Z"/><path class="cls-7" d="M183.52,45.31c0,3.12,0,6.24-.06,9.36-.17,13.42-.59,26.84-.59,40.27-.07,8.52,0,17.06-.19,25.58-9.7.11-19.4.26-29.1.22-10.11,0-20.21-.31-30.32-.38-20.21-.14-40.42.06-60.63.07-11.23,0-22.47-.1-33.69.33-.3-8.25-.22-16.53-.33-24.78-.12-9-.18-17.89-.24-26.84l-.09-13.55A71.19,71.19,0,0,1,28.61,45c.43-3,1.32-6.08,3.49-8.28,2.6-2.64,6.41-2.91,9.91-3,18-.43,36-.61,54.05-.92s36-.56,54-.83q6.78-.09,13.55-.14a44.65,44.65,0,0,1,10,.75c6.95,1.56,10.06,5.82,9.94,12.76Zm-2.67,86.09c-1.68,3.2-4.77,4.73-8.21,5.33-3.73.64-7.65.33-11.41.29l-13.63-.15-27-.3L66.34,136,53,135.82c-4,0-8.14.09-12.18-.26-3.24-.29-6.7-1.12-8.93-3.66s-2.73-6.42-2.87-9.78c0-.19,0-.38,0-.57,9.86.43,19.74.43,29.62.49q15.16.08,30.32.23c10.1.1,20.2.14,30.31.18s20.21-.21,30.32-.21c11,0,22.06.2,33.09.38-.09,3-.38,6.12-1.78,8.78ZM136.51,166c2.17.15,5.33,0,6.93,1.73a2.2,2.2,0,0,1,.5,2.6,3.52,3.52,0,0,1-2.52,1.25,46.1,46.1,0,0,1-7.34.15c-15,.07-30.08-.1-45.11.08-2.66,0-5.34.28-8,.28q-3.23,0-6.45-.22c-1.42-.1-4.87,0-4.87-2.19,0-1.71,2.6-2.29,3.86-2.69,4.63-1.47,9.67-1.2,14.47-1.42,5.28-.25,10.55-.51,15.84-.56q11.42-.12,22.82.41l1.37.07q4.24.21,8.49.51Zm-49.07-8.83c-.1-2.24-.18-4.48-.29-6.72s-.22-4.32-.34-6.48a31.63,31.63,0,0,0-.37-5.28l19,.23,23.52.28a24.54,24.54,0,0,0-.28,5.11c0,2.16,0,4.32,0,6.48s0,4.32,0,6.48c0,2-.13,4.12,0,6.14q-15.84-.81-31.7-.37c-2.88.08-5.75.2-8.63.34l-.71-.07c.07-2-.15-4.11-.23-6.14Zm95.78-122.3c-4-4.57-10.69-5.46-16.44-5.56-4.32-.07-8.65.13-13,.2-4.71.07-9.41.11-14.12.17l-28.25.36q-28.25.35-56.49.6c-4.59.06-9.19,0-13.78.16-3.78.11-7.59.68-10.57,3.2-5.22,4.41-5.06,12.36-5,18.57q.45,28.23.76,56.45c0,4.42,0,8.86.16,13.29.14,3.44.61,7.12,2.58,10,4.32,6.41,13,5.82,19.8,5.9l35.79.42a29.39,29.39,0,0,0,0,5c0,2.24.07,4.48.12,6.73s.12,4.31.18,6.47,0,4.2.19,6.27c-1.7,0-3.41.05-5.11.2-3.47.32-7.4.85-10.44,2.69-2.66,1.61-3.07,4.77-.41,6.65a9.17,9.17,0,0,0,4.8,1.17q3.23.21,6.45.25c2.32,0,4.64,0,7-.12l1.65-.09h3.31q19.71,0,39.41,0c3,0,6.09.21,9.07-.09,1.94-.2,4.11-.79,5-2.68,1-2.05-.08-4.45-1.85-5.67-2.15-1.48-5.06-1.42-7.56-1.59-1.84-.13-3.68-.25-5.52-.35.14-2.06-.05-4.21-.07-6.26s0-4.32-.06-6.48-.09-4.32-.15-6.48a24.55,24.55,0,0,0-.35-5.1l31.63.38c7,.08,15.78.86,20.41-5.61,2-2.83,2.68-6.46,2.9-9.87.28-4.25.12-8.56.13-12.82q0-14.22,0-28.44c0-8.52.12-17,.4-25.54,0-.63.06-1.26.11-1.91C186.48,48.47,188.08,40.41,183.22,34.88Z"/><path class="cls-7" d="M177.32,109a93.27,93.27,0,0,0-.06-10.17q-.4-23.07-.82-46.13c-.06-3.06-.11-6.42-1.86-9.08s-5.05-3.75-8.17-4.13a98.49,98.49,0,0,0-10-.38l-12-.25-19.84-.41c-15.58,0-31.16-.14-46.74-.26L54.06,38c-5.59,0-13.05-.33-16.39,5-1.74,2.79-1.7,6.32-1.78,9.48-.09,3.95-.19,7.89-.27,11.84L35.14,87.5q-.11,5.67-.23,11.34c-.06,3.31-.53,7,.39,10.2,1,3.43,3.92,4.93,7.31,5.32a61.52,61.52,0,0,0,7.57.22l2.77,0,94.8.36,12.1,0c3.72,0,7.48.18,11.2,0a6.48,6.48,0,0,0,4.77-1.77,7.45,7.45,0,0,0,1.5-4.24Zm1.48-10.17c.08,3.47.48,7.11,0,10.56-.36,2.58-1.58,5-4.18,5.92a14.08,14.08,0,0,1-4.92.62h-6.05L139,116,89,116.07l-24.71.05-12.6,0c-3.35,0-6.81.25-10.13-.31-2.88-.5-5.48-1.93-6.73-4.62-1.36-2.92-1.08-6.32-1-9.43q.2-12.09.36-24.16t.33-24.16c0-3.22,0-6.56,1.29-9.57a10.09,10.09,0,0,1,5.6-5.45A24.35,24.35,0,0,1,50.09,37c3.92-.1,7.84,0,11.76,0l24.72.09c2.68,0,5.34,0,8-.07,21.33-.56,42.71.15,64,.41,5.65.07,13-.41,16.71,4.7,1.87,2.56,2.19,5.85,2.31,8.9.14,3.83.19,7.66.28,11.48l.57,24Z"/><path class="cls-6" d="M147,127.32a5.59,5.59,0,0,1-.15.71,3.9,3.9,0,0,1-2.58,2.81c-2.49.54-3.57-1.84-4.18-4a5.71,5.71,0,0,0,2.34.45c1.21,0,2.42.15,3.62.14A4.86,4.86,0,0,0,147,127.32Z"/><path class="cls-6" d="M147.43,123.7c.2,1-.12,1.68-1.23,1.77a26.42,26.42,0,0,1-3.08-.1c-.84,0-1.84.13-2.34-.68a3.25,3.25,0,0,1-.31-2c0-.24.05-.48.08-.72,1.22.14,2.45.27,3.67.33a11.41,11.41,0,0,0,2.8,0A8.9,8.9,0,0,1,147.43,123.7Z"/><path class="cls-8" d="M142.57,105.52l5.64-.41q-2.31,7.9-4.56,15.82l-.33,0a110.3,110.3,0,0,0-3.79-11.76c-.42-1.14-1.58-2.79.16-3.47a3.52,3.52,0,0,1,1-.17C141.33,105.51,142.05,105.55,142.57,105.52Z"/><path class="cls-8" d="M149.57,97.62a10.62,10.62,0,0,1,2.61,15.8c-1.73,2.06-5.35,3.07-5.75,6a3.76,3.76,0,0,0,.09,1.43,12.06,12.06,0,0,0-1.7,0c1.48-5.38,3-10.76,4.43-16.15a.45.45,0,0,0-.43-.57l-7.93.74-.25,0c-1.34.09-3.29-.06-3.09,1.8a18.79,18.79,0,0,0,1.07,3.47c.41,1.26.81,2.5,1.27,3.74.86,2.38,1.69,4.74,2.72,7q-1,.06-2,.15a5.42,5.42,0,0,0-.47-3.46,10.3,10.3,0,0,0-3-2.84,11.13,11.13,0,0,1-3.14-3.68,10.31,10.31,0,0,1-.56-8,.39.39,0,0,0,.06-.11A11.16,11.16,0,0,1,149.57,97.62Z"/><path class="cls-7" d="M143.32,121l-.71,0c-1-2.3-1.86-4.66-2.72-7-.46-1.24-.86-2.48-1.27-3.74a18.79,18.79,0,0,1-1.07-3.47c-.2-1.86,1.75-1.71,3.09-1.8l0,.62a3.52,3.52,0,0,0-1,.17c-1.74.68-.58,2.33-.16,3.47A110.3,110.3,0,0,1,143.32,121Z"/><path class="cls-7" d="M146.82,128a5.59,5.59,0,0,0,.15-.71,4.86,4.86,0,0,1-.95.09c-1.2,0-2.41-.09-3.62-.14a5.71,5.71,0,0,1-2.34-.45c.61,2.18,1.69,4.56,4.18,4a3.9,3.9,0,0,0,2.58-2.81Zm-.62-2.56c1.11-.09,1.43-.73,1.23-1.77a8.9,8.9,0,0,0-.41-1.36,11.41,11.41,0,0,1-2.8,0c-1.22-.06-2.45-.19-3.67-.33,0,.24-.05.48-.08.72a3.25,3.25,0,0,0,.31,2c.5.81,1.5.64,2.34.68a26.42,26.42,0,0,0,3.08.1ZM152,96.82a12.67,12.67,0,0,1,.83,18.78c-1.18,1.18-3.31,2-4.12,3.43-.63,1.12.13,2.35.47,3.45a5.32,5.32,0,0,1,.23,2.44,3.49,3.49,0,0,1-.32.91,7.83,7.83,0,0,1-1.29,4.32,4.93,4.93,0,0,1-3.88,2.43c-3.61.08-5.28-3.63-5-6.75a5.16,5.16,0,0,1-.6-3.15c.1-1.15.58-2.43.22-3.57a5,5,0,0,0-1.92-2.19c-3.07-2.39-5.2-5.37-5.55-9.35a11.85,11.85,0,0,1,7.17-11.83,12.56,12.56,0,0,1,2.31-1.1A12.11,12.11,0,0,1,152,96.82Zm-9.45,8.7c-.52,0-1.24,0-1.89,0l0-.62.25,0,7.93-.74a.45.45,0,0,1,.43.57c-1.45,5.39-2.95,10.77-4.43,16.15a12.06,12.06,0,0,1,1.7,0,3.76,3.76,0,0,1-.09-1.43c.4-3,4-4,5.75-6a10.62,10.62,0,0,0-2.61-15.8,11.16,11.16,0,0,0-16,5.41.39.39,0,0,1-.06.11,10.31,10.31,0,0,0,.56,8,11.13,11.13,0,0,0,3.14,3.68,10.3,10.3,0,0,1,3,2.84,5.42,5.42,0,0,1,.47,3.46q1-.09,2-.15l.71,0,.33,0q2.26-7.91,4.56-15.82Z"/><path class="cls-7" d="M199.16,144.1a7,7,0,0,0,5-2.35,9.4,9.4,0,0,0-6.64-1.66,1.11,1.11,0,0,1-1.1-1.11l.69-10.31c.11-1.55.3-3.13.3-4.69,0-1.77-1-2.38-2.62-2.54-1.05-.1-2.72-.46-3.57.41s-.28,4-.27,5.24c0,4,.09,7.93.29,11.89a1.27,1.27,0,0,1-.64,1.11c-1,.54-2.05,1-3,1.62a11,11,0,0,1,6,.85c1.8.75,3.56,1.63,5.55,1.54Zm5,.12h0a6.53,6.53,0,0,1-2.11,2.23,10.19,10.19,0,0,1-6.32,1.39,14.31,14.31,0,0,1-9.6-5.06l.38-.29a9.38,9.38,0,0,1,4.56-.08c1.9.47,3.54,1.59,5.41,2.16a8.71,8.71,0,0,0,8.22-1.89,8.53,8.53,0,0,1-.54,1.54ZM204,158h0a13.8,13.8,0,0,1-12.77,2.51c-4.13-1.16-8.51-4.22-9-8.81a10.15,10.15,0,0,1,2.06-7,9.68,9.68,0,0,1,1.47-1.58,13.67,13.67,0,0,0,10.69,5.86,10.63,10.63,0,0,0,6.9-1.91,8,8,0,0,0,2.63-3.53,8.86,8.86,0,0,1,1.49,2.74A11,11,0,0,1,204,158Zm5.92-11a13.4,13.4,0,0,1-5.5,13.39,16.35,16.35,0,0,1-15.83,1.42c-4.79-2-8.75-6.23-8.49-11.71.24-5.06,4-9.93,8.65-12,.1-1.3.17-2.59.23-3.89-.12-1.61-.2-3.23-.27-4.85-.09-2-.35-4.15-.24-6.18.19-3.45,3.49-4,6.32-3.7a5.07,5.07,0,0,1,3.8,1.63c1,1.32.81,3,.73,4.61l-.63,12.07A11.43,11.43,0,0,1,209.93,147Z"/><path class="cls-9" d="M207.47,146.22A11,11,0,0,1,204,158a13.8,13.8,0,0,1-12.77,2.51c-4.13-1.16-8.51-4.22-9-8.81a10.15,10.15,0,0,1,2.06-7,9.68,9.68,0,0,1,1.47-1.58,13.67,13.67,0,0,0,10.69,5.86,10.63,10.63,0,0,0,6.9-1.91,8,8,0,0,0,2.63-3.53A8.86,8.86,0,0,1,207.47,146.22Z"/><path class="cls-10" d="M204.66,142.68a8.53,8.53,0,0,1-.54,1.54,6.53,6.53,0,0,1-2.11,2.23,10.19,10.19,0,0,1-6.32,1.39,14.31,14.31,0,0,1-9.6-5.06l.38-.29a9.38,9.38,0,0,1,4.56-.08c1.9.47,3.54,1.59,5.41,2.16A8.71,8.71,0,0,0,204.66,142.68Z"/><path class="cls-11" d="M198.87,144.1h0a13.52,13.52,0,0,1-5.12-1.48h0l-.09,0-.06,0h-.07a11.6,11.6,0,0,0-4.37-.91h0a9.73,9.73,0,0,0-1.43.1h-.06c.94-.57,1.95-1.08,3-1.62a1.28,1.28,0,0,0,.64-1.06V139c-.2-4-.24-7.93-.29-11.89,0-.74-.22-2.07-.22-3.24a3,3,0,0,1,.49-2,2.35,2.35,0,0,1,1.75-.57h0a17.93,17.93,0,0,1,1.81.16h0c1.64.16,2.62.77,2.62,2.53h0c0,1.56-.19,3.14-.3,4.69L196.43,139h0v0a1.13,1.13,0,0,0,1,1.08h.12a9.2,9.2,0,0,1,1.17-.08h0a9.4,9.4,0,0,1,5.44,1.74h0a7,7,0,0,1-5,2.35h-.29Z"/><path class="cls-12" d="M198.87,144.1Zm0,0a13.52,13.52,0,0,1-5.12-1.48,13.52,13.52,0,0,0,5.12,1.48Zm.3,0h0a7,7,0,0,0,5-2.35h0a7,7,0,0,1-5,2.35Zm-5.44-1.49h0Zm0,0-.09,0-.06,0,.06,0,.09,0Zm-.17-.08h0Zm-.05,0a11.6,11.6,0,0,0-4.37-.91,11.6,11.6,0,0,1,4.37.91Zm10.69-.76a9.4,9.4,0,0,0-5.44-1.74,9.4,9.4,0,0,1,5.44,1.74Zm-16.55,0Zm9.82-1.62Zm0,0a1.12,1.12,0,0,1-1-1.08,1.13,1.13,0,0,0,1,1.08Zm.09,0h0Zm1.2-.08Zm-7.48-1V139c-.2-4-.24-7.93-.29-11.89,0-.74-.22-2.07-.22-3.24,0,1.17.21,2.5.22,3.24,0,4,.09,7.93.29,11.89V139Zm5.18-.05h0l.69-10.31c.11-1.55.3-3.13.3-4.69h0c0,1.56-.19,3.14-.3,4.69L196.43,139Zm-1.63-17.54a17.93,17.93,0,0,0-1.81-.16,17.93,17.93,0,0,1,1.81.16Zm-1.82-.16h0Z"/><path class="cls-7" d="M169.26,79.43a2.49,2.49,0,0,1,.88-1.24,33.22,33.22,0,0,0-5.28-1.91c.8,1.76.94,4,1.8,5.74l.06.12a1.37,1.37,0,0,0,2.16-.85c.19-.61.18-1.26.38-1.86Zm5.65,5.78a3.25,3.25,0,0,0-1.32,1.56,4.28,4.28,0,0,0-.17.46c-1.09-.71-2.53-.94-3.64-1.66A8.94,8.94,0,0,1,167.23,83a1.8,1.8,0,0,0,1.45-.07,2.33,2.33,0,0,0,1.07-1.42c.37-1.13.23-2.29,1.55-2.72h0c2.3,1.34,4.35,3.66,3.59,6.4ZM183,92l-3.14-2.21-2.68-1.84c-.75-.51-1.41-1.3-2-.24a2.62,2.62,0,0,0,0,2.3c1.4,2.08,2.87,4.12,4.42,6.09A6.13,6.13,0,0,1,183,92Zm23.88,24.91a63.76,63.76,0,0,1-17.87-10.83,70.32,70.32,0,0,1-8.8-9.21,6.64,6.64,0,0,1,1.27-2.44,7.15,7.15,0,0,1,2.61-1.64l.7.5c6.19,4.52,12.14,9.51,16.91,15.55a48.16,48.16,0,0,1,5.18,8.07Zm3.28,1.51c.36.84-.25,2.1-1.32,1.72a64.26,64.26,0,0,1-21.16-12.45A60.38,60.38,0,0,1,180,99.53a.51.51,0,0,1-.44-.2,54.05,54.05,0,0,1-4.45-6.39,10.5,10.5,0,0,1-1.78-4.3c-2.49.84-5.89-2-7.25-3.7a10.54,10.54,0,0,1-2-4.29c-.4-1.76-.52-4.44-2.51-5.22-1.08-.42-.67-2.12.49-1.77,3.77,1.1,8,2,11.25,4.27,2.3,1.61,4.05,4.32,3.62,7.13a7.49,7.49,0,0,1,.71.43c1.92,1.3,3.85,2.6,5.75,3.93a129.6,129.6,0,0,1,11.28,8.65C201.08,103.73,206.79,110.45,210.2,118.41Z"/><path class="cls-13" d="M201.74,108.83a48.16,48.16,0,0,1,5.18,8.07,63.76,63.76,0,0,1-17.87-10.83,70.32,70.32,0,0,1-8.8-9.21,6.64,6.64,0,0,1,1.27-2.44,7.15,7.15,0,0,1,2.61-1.64l.7.5C191,97.8,197,102.79,201.74,108.83Z"/><path class="cls-14" d="M179.9,89.78,183,92a6.13,6.13,0,0,0-3.41,4.1c-1.55-2-3-4-4.42-6.09a2.62,2.62,0,0,1,0-2.3c.63-1.06,1.29-.27,2,.24Z"/><path class="cls-15" d="M171.32,78.81c2.3,1.34,4.35,3.66,3.59,6.4a3.25,3.25,0,0,0-1.32,1.56,4.28,4.28,0,0,0-.17.46c-1.09-.71-2.53-.94-3.64-1.66A8.94,8.94,0,0,1,167.23,83a1.8,1.8,0,0,0,1.45-.07,2.33,2.33,0,0,0,1.07-1.42c.37-1.13.23-2.29,1.55-2.72Z"/><path class="cls-16" d="M170.14,78.19a2.49,2.49,0,0,0-.88,1.24c-.2.6-.2,1.25-.38,1.86a1.37,1.37,0,0,1-2.16.85l-.06-.12c-.86-1.78-1-4-1.8-5.74A33.22,33.22,0,0,1,170.14,78.19Z"/><path class="cls-7" d="M15.9,34.89c-.37-.34-.76-.68-1.15-1-1.53-1.25-4-2.45-5.85-1-2,1.6-.25,4.41,1,5.86l1.2,1.4a13.72,13.72,0,0,1,2.12-2.74,22.23,22.23,0,0,1,2.71-2.52Zm2.3,2.25a22.38,22.38,0,0,0-5.06,5.4L11.9,41.11c.83-.72,1.49-1.67,2.26-2.44a35.09,35.09,0,0,1,3-2.61l1.07,1.08Zm1.74,1.75c-.8.65-1.53,1.47-2.21,2.09a34.16,34.16,0,0,0-3.16,3.21c-.38-.45-.77-.89-1.16-1.34.9-1,1.86-2,2.84-2.89.83-.77,1.75-1.43,2.62-2.15.35.36.71.73,1.07,1.08ZM35.08,65.68a8.18,8.18,0,0,1,2.17-3.56q-4.91-4.84-9.77-9.72l-5-5a29.54,29.54,0,0,1-4.25-4.55,27.14,27.14,0,0,1-2.9,2.22l.45.52c.73.74,1.45,1.48,2.16,2.23,2.89,3,5.74,6.09,8.58,9.16L31,61.78a26.08,26.08,0,0,0,3.89,3.76l.22.14Zm5.58-5.83a27.91,27.91,0,0,0-3.77-4.23Q31.23,50,25.57,44.44l-4.25-4.19c-.72.74-1.62,1.37-2.33,2l-.48.41a29.35,29.35,0,0,1,4.62,4.15l5.07,4.88c3.32,3.2,6.65,6.4,10,9.62a9,9,0,0,1,2.51-1.45Zm1.75,4.47a5.12,5.12,0,0,0-1.82,1.47,7.76,7.76,0,0,0-1,1.45,15.11,15.11,0,0,1-3.71-1.09A12.53,12.53,0,0,1,38,63a11.82,11.82,0,0,1,3.3-2.12,9.92,9.92,0,0,1,.49,1.1,15.24,15.24,0,0,1,.66,2.35ZM42.87,68c0-.79-.13-1.57-.24-2.35a11.39,11.39,0,0,0-1.27.92,9.73,9.73,0,0,0-.84.86,22.37,22.37,0,0,1,2.35.57Zm2.18-1.51c.08.75.53,2.27.11,3-1.13,1.9-5.34.21-6.83-.08a11.68,11.68,0,0,1-4.78-2c-3.11-2.31-5.57-5.67-8.15-8.53Q21,54,16.69,49.11c-1-1.08-1.88-2.18-2.81-3.28l-2-2.07c-1.93-2.08-4.55-4.23-5.53-7a4.81,4.81,0,0,1,1.52-5.71,6,6,0,0,1,5.66-.33c2.49,1.07,4.36,3.28,6.26,5.13l6.67,6.55c4.41,4.32,8.88,8.59,13.26,13a16.79,16.79,0,0,1,4.31,6.4A22.82,22.82,0,0,1,45.05,66.48Z"/><path class="cls-4" d="M42.63,65.64c.11.78.19,1.56.24,2.35a22.37,22.37,0,0,0-2.35-.57,9.73,9.73,0,0,1,.84-.86A11.39,11.39,0,0,1,42.63,65.64Z"/><path class="cls-15" d="M41.75,62a15,15,0,0,1,.66,2.36,5,5,0,0,0-1.82,1.46,7.76,7.76,0,0,0-1,1.45,15.11,15.11,0,0,1-3.71-1.09A12.53,12.53,0,0,1,38,63a11.82,11.82,0,0,1,3.3-2.12A9.92,9.92,0,0,1,41.75,62Z"/><path class="cls-17" d="M36.89,55.62a27.91,27.91,0,0,1,3.77,4.23,9,9,0,0,0-2.51,1.45c-3.3-3.22-6.63-6.42-9.95-9.62L23.13,46.8a29.35,29.35,0,0,0-4.62-4.15l.48-.41c.71-.62,1.61-1.25,2.33-2l4.25,4.19Q31.24,50,36.89,55.62Z"/><path class="cls-17" d="M37.25,62.12a8.18,8.18,0,0,0-2.17,3.56l-.22-.14A26.08,26.08,0,0,1,31,61.78L26.54,57c-2.84-3.07-5.69-6.13-8.58-9.16-.71-.75-1.43-1.49-2.16-2.23l-.45-.52a27.14,27.14,0,0,0,2.9-2.22,29.54,29.54,0,0,0,4.25,4.55l5,5Q32.36,57.28,37.25,62.12Z"/><path class="cls-8" d="M18.87,37.81c.35.36.71.73,1.07,1.08-.8.65-1.53,1.47-2.21,2.09a34.16,34.16,0,0,0-3.16,3.21c-.38-.45-.77-.89-1.16-1.34.9-1,1.86-2,2.84-2.89C17.08,39.19,18,38.53,18.87,37.81Z"/><path class="cls-8" d="M17.13,36.06l1.07,1.08a22.38,22.38,0,0,0-5.06,5.4L11.9,41.11c.83-.72,1.49-1.67,2.26-2.44A35.09,35.09,0,0,1,17.13,36.06Z"/><path class="cls-18" d="M14.75,33.88c.39.33.78.67,1.15,1a22.23,22.23,0,0,0-2.71,2.52,13.72,13.72,0,0,0-2.12,2.74l-1.2-1.4c-1.22-1.45-3-4.26-1-5.86C10.72,31.43,13.22,32.63,14.75,33.88Z"/><path class="cls-7" d="M38.3,16.32c-.28-.42-.57-.84-.87-1.25-1.19-1.59-3.33-3.34-5.45-2.36-2.31,1.07-1.29,4.22-.45,5.92.27.55.55,1.09.83,1.64a13.14,13.14,0,0,1,2.71-2.15,22.71,22.71,0,0,1,3.23-1.8ZM40,19.05a22.74,22.74,0,0,0-6.2,4c-.28-.56-.57-1.11-.86-1.67,1-.5,1.85-1.27,2.78-1.83a31.48,31.48,0,0,1,3.5-1.83c.27.43.53.86.78,1.3Zm1.28,2.12c-.94.43-1.84,1.06-2.65,1.5A33.91,33.91,0,0,0,34.79,25L34,23.45c1.12-.76,2.28-1.47,3.45-2.13,1-.55,2-1,3-1.46l.79,1.31Zm8.31,29.62a8.33,8.33,0,0,1,3-2.94Q48.93,42,45.37,36.08c-1.22-2-2.43-4-3.65-6a28.91,28.91,0,0,1-3-5.43,29.17,29.17,0,0,1-3.34,1.47c.1.2.2.4.31.6.53.89,1.05,1.79,1.57,2.69q3.11,5.45,6.14,10.93c1,1.9,2.11,3.81,3.17,5.7a24.68,24.68,0,0,0,2.88,4.58,1.54,1.54,0,0,0,.17.19Zm6.81-4.32a27,27,0,0,0-2.65-5q-4.16-6.78-8.32-13.56l-3.13-5.08c-.88.54-1.9.94-2.74,1.37l-.56.29a29.66,29.66,0,0,1,3.49,5.12l3.76,6c2.46,3.9,4.93,7.8,7.37,11.72a8.65,8.65,0,0,1,2.78-.81ZM57,51.23a4.89,4.89,0,0,0-2.11,1,6.82,6.82,0,0,0-1.28,1.18,15.52,15.52,0,0,1-3.35-1.95A12.49,12.49,0,0,1,53,48.87a12,12,0,0,1,3.71-1.28A9.58,9.58,0,0,1,57,48.78,15.43,15.43,0,0,1,57,51.23ZM56.6,54.9c.13-.78.25-1.56.33-2.35a12.43,12.43,0,0,0-1.46.6,9.63,9.63,0,0,0-1,.63A20.85,20.85,0,0,1,56.6,54.9ZM59.07,54c-.09.74,0,2.33-.6,2.91-1.55,1.58-5.23-1.07-6.61-1.71a11.51,11.51,0,0,1-4.16-3.07c-2.48-3-4.07-6.83-5.89-10.23-2.06-3.84-4.12-7.67-6.13-11.53-.67-1.28-1.31-2.57-2-3.86L32.33,24c-1.38-2.48-3.41-5.2-3.71-8.1a4.79,4.79,0,0,1,2.84-5.17,6,6,0,0,1,5.57,1c2.17,1.64,3.46,4.23,4.86,6.48l4.92,8c3.25,5.25,6.57,10.46,9.78,15.74a16.64,16.64,0,0,1,2.66,7.24A22.67,22.67,0,0,1,59.07,54Z"/><path class="cls-19" d="M56.93,52.55c-.08.79-.2,1.57-.33,2.35a20.85,20.85,0,0,0-2.15-1.12,9.63,9.63,0,0,1,1-.63A12.43,12.43,0,0,1,56.93,52.55Z"/><path class="cls-15" d="M57,48.78A15.43,15.43,0,0,1,57,51.23a4.89,4.89,0,0,0-2.11,1,6.82,6.82,0,0,0-1.28,1.18,16,16,0,0,1-3.35-1.95A12.49,12.49,0,0,1,53,48.87a12,12,0,0,1,3.71-1.28A9.58,9.58,0,0,1,57,48.78Z"/><path class="cls-20" d="M53.74,41.46a27,27,0,0,1,2.65,5,8.65,8.65,0,0,0-2.78.81c-2.44-3.92-4.91-7.82-7.37-11.72l-3.76-6A29.66,29.66,0,0,0,39,24.48l.56-.29c.84-.43,1.86-.83,2.74-1.37l3.13,5.08Q49.59,34.66,53.74,41.46Z"/><path class="cls-20" d="M52.54,47.85a8.33,8.33,0,0,0-3,2.94,1.54,1.54,0,0,1-.17-.19A24.68,24.68,0,0,1,46.53,46c-1.06-1.89-2.12-3.8-3.17-5.7q-3-5.48-6.14-10.93c-.52-.9-1-1.8-1.57-2.69-.11-.2-.21-.4-.31-.6a29.17,29.17,0,0,0,3.34-1.47,28.91,28.91,0,0,0,3,5.43c1.22,2,2.43,4,3.65,6Q48.94,42,52.54,47.85Z"/><path class="cls-8" d="M40.48,19.86l.79,1.31c-.94.43-1.84,1.06-2.65,1.5A33.91,33.91,0,0,0,34.79,25L34,23.45c1.12-.76,2.28-1.47,3.45-2.13C38.42,20.77,39.47,20.36,40.48,19.86Z"/><path class="cls-8" d="M39.21,17.75c.27.43.53.86.78,1.3a22.74,22.74,0,0,0-6.2,4c-.28-.56-.57-1.11-.86-1.67,1-.5,1.85-1.27,2.78-1.83A31.48,31.48,0,0,1,39.21,17.75Z"/><path class="cls-18" d="M37.43,15.07c.3.41.59.83.87,1.25a22.71,22.71,0,0,0-3.23,1.8,13.14,13.14,0,0,0-2.71,2.15c-.28-.55-.56-1.09-.83-1.64-.84-1.7-1.86-4.85.45-5.92C34.1,11.73,36.24,13.48,37.43,15.07Z"/><path class="cls-21" d="M41.74,115.86Zm-.06,0h0Zm0,0h0Zm6-1.24a44,44,0,0,1-5-.24c-3.39-.39-6.34-1.89-7.31-5.32-.92-3.23-.45-6.89-.39-10.2,0-1.07,0-2.13.07-3.2.3-.24.61-.46.93-.67A13.63,13.63,0,0,1,42,93.53a12.25,12.25,0,0,1,4.63.88v.32h.7c.2.1.41.2.61.32a10.41,10.41,0,0,1,1.68,1.19h-3V98h4.64a12.66,12.66,0,0,1,2.43,6.32H47.63Z"/><path class="cls-22" d="M47.71,114.6h-.08V104.33h6.06a11.6,11.6,0,0,1-.46,4.61,11.24,11.24,0,0,1-4.16,5.65Z"/><path class="cls-22" d="M47.32,94.73h-.7v-.32C46.85,94.51,47.09,94.61,47.32,94.73Z"/><path class="cls-22" d="M51.26,98H46.62V96.24h3A12,12,0,0,1,51.26,98Z"/><path class="cls-23" d="M41.72,117c-.31,0-.61,0-.92,0-5.6-.45-10.15-5.57-10.62-11.06a11.61,11.61,0,0,1,3.73-9.36c0,1.74,0,3.48-.08,5.23,0,1-.06,2.07-.06,3.13a14.66,14.66,0,0,0,1.09,6.3c1.25,2.69,3.85,4.12,6.73,4.62h.15a29.91,29.91,0,0,0,4.35.34A12.4,12.4,0,0,1,41.72,117Z"/><path class="cls-12" d="M46.09,116.2a29.91,29.91,0,0,1-4.35-.34h-.15c-2.88-.5-5.48-1.93-6.73-4.62a14.66,14.66,0,0,1-1.09-6.3c0-1.06,0-2.11.06-3.13,0-1.75.05-3.49.08-5.23A13.6,13.6,0,0,1,35,95.64c0,1.07,0,2.13-.07,3.2-.06,3.31-.53,7,.39,10.2,1,3.43,3.92,4.93,7.31,5.32a44,44,0,0,0,5,.24h1.44A13.22,13.22,0,0,1,46.09,116.2Z"/><path class="cls-7" d="M53.23,108.94a12.2,12.2,0,0,0-5.3-13.89,12.93,12.93,0,0,0-12-.08,12,12,0,0,0-5.73,11c.47,5.49,5,10.61,10.62,11.06,5.28.43,10.81-2.9,12.43-8ZM50.79,95a13.42,13.42,0,0,1-12.54,23.06,13.68,13.68,0,0,1-9.45-14.21,13.45,13.45,0,0,1,4.67-8.49A13.16,13.16,0,0,1,50.79,95Z"/><path class="cls-6" d="M50.19,91.11c6.49,3.7,9.56,12.18,7.34,19.24s-9.9,11.73-17.21,11.14c-7.76-.63-14.06-7.71-14.71-15.32C25.07,99.9,28.51,94.3,33.54,91a17.89,17.89,0,0,1,16.65.1Zm-11.94,27A13.42,13.42,0,0,0,50.79,95a13.16,13.16,0,0,0-17.32.36,13.45,13.45,0,0,0-4.67,8.49A13.68,13.68,0,0,0,38.25,118.08Z"/><path class="cls-7" d="M54.15,91.08c6.29,5.52,8.32,15.44,4.31,22.85S44.92,125.48,36.79,123a17.76,17.76,0,0,1-5.07-2.5l-3.56,3.28a16.39,16.39,0,0,1-3.38,2.72,6,6,0,0,1,0,2.43c-.55,2.72-2.6,4.7-4.66,6.37-2.46,2-5,3.95-7.41,6-2,1.65-4.14,3.9-6.75,4.56a4.73,4.73,0,0,1-5.57-2.25c-1.11-2.41.2-5,1.93-6.68,2.08-2.07,4.41-4,6.66-5.86,1.84-1.9,3.71-3.78,5.64-5.6,1.7-1.6,4-3.32,6.37-2.88a16.07,16.07,0,0,1,3.12-3.1c.81-.72,1.62-1.44,2.45-2.15l1-.83a18.24,18.24,0,0,1-3.83-13.15,18.65,18.65,0,0,1,6.46-11.77,18.24,18.24,0,0,1,24-.48ZM2.32,142.38c.67,2.45,3.81,1.33,5.23.4a72,72,0,0,0,5.68-4.47c1.87-1.53,3.76-3,5.62-4.59,1.68-1.4,3.54-3.06,3.9-5.34A3,3,0,0,0,18.43,125a9.29,9.29,0,0,0-1.23.68c-3.83,3.83-7.68,7.6-11.66,11.29-1.38,1.27-3.82,3.21-3.22,5.38Zm22.09-17A21.23,21.23,0,0,1,27,122.64l3.33-3.2a19.62,19.62,0,0,1-1.68-1.61c-1,1-2.33,1.94-3.35,2.82a23,23,0,0,1-3,2.41,4.79,4.79,0,0,1,2.05,2.31Zm1.2-19.2c.65,7.61,7,14.69,14.71,15.32,7.31.59,15-4,17.21-11.14s-.85-15.54-7.34-19.24A17.89,17.89,0,0,0,33.54,91C28.51,94.3,25.07,99.9,25.61,106.17Z"/><path class="cls-24" d="M27,122.64a21.23,21.23,0,0,0-2.61,2.73,4.79,4.79,0,0,0-2.05-2.31,23,23,0,0,0,3-2.41c1-.88,2.34-1.78,3.35-2.82a19.62,19.62,0,0,0,1.68,1.61Z"/><path class="cls-18" d="M7.55,142.78c-1.42.93-4.56,2.05-5.23-.4-.6-2.17,1.84-4.11,3.22-5.38,4-3.69,7.83-7.46,11.66-11.29a9.29,9.29,0,0,1,1.23-.68,3,3,0,0,1,4.32,3.35c-.36,2.28-2.22,3.94-3.9,5.34-1.86,1.55-3.75,3.06-5.62,4.59A72,72,0,0,1,7.55,142.78Z"/><path class="cls-8" d="M190,39.06a.9.9,0,0,0,.21-1.61c-10.54-7.27-21-14.62-31.64-21.76-.76-.51-1.41.45-1.12,1.12,3.73,8.83,7.89,17.45,11.6,26.26.63,1.48,1.35,2.75,3.17,2.52s3.73-1.25,5.45-1.9L190,39.06Zm12,1.85-5.86,2.22c-.19-.57-.46-1.13-.67-1.67s-1.16-.33-.94.26.4,1.2.65,1.77l-3.56,1.35c0-.1-.11-.19-.16-.28l-.72-1.38c-.24-.46-.9-.06-.68.39s.45.94.67,1.41l.08.17-3.21,1.21c-.23-.45-.48-.9-.72-1.35s-1-.06-.78.46.41.82.63,1.22L183.38,48c-.35-.48-.78-.91-1.13-1.38s-.92,0-.64.37.57.91.88,1.35l-3.57,1.35c-.19-.37-.4-.73-.6-1.1s-1-.05-.73.43c.17.33.33.66.49,1l-3.55,1.35a18,18,0,0,0-1.22-1.62c-.29-.37-.85.1-.63.48s.57,1,.89,1.5l-1,.36a27.64,27.64,0,0,1-3.53,1.3c-.62.14-1,.11-1.39-.49a16.54,16.54,0,0,1-.93-2.16c-.23-.53-.45-1.07-.67-1.61a6.33,6.33,0,0,0,1.64-.83c.31-.24.16-.83-.29-.69a6.66,6.66,0,0,0-1.63.85c-.44-1.07-.89-2.14-1.33-3.22a4.74,4.74,0,0,0,1.52-.77.34.34,0,0,0-.24-.57,5,5,0,0,0-1.62.52c-.17-.4-.34-.8-.5-1.21-.35-.82-.69-1.65-1-2.47a5.23,5.23,0,0,0,1.09-.59.41.41,0,0,0-.31-.75,5.47,5.47,0,0,0-1.13.5c-.52-1.26-1-2.52-1.57-3.78a5.14,5.14,0,0,0,1.44-.73c.33-.27-.05-.68-.37-.63a4.49,4.49,0,0,0-1.42.51L159,32a4.64,4.64,0,0,0,1.26-.82.38.38,0,0,0-.37-.63,4.06,4.06,0,0,0-1.26.56L157,27.28h0a7.55,7.55,0,0,0,1.29-.68.42.42,0,0,0-.32-.76,7.45,7.45,0,0,0-1.34.56c-.42-1-.83-2-1.25-3a7.33,7.33,0,0,0,1-.57c.36-.25.16-.88-.31-.74a7.88,7.88,0,0,0-1.1.44c-.41-1-.83-1.94-1.25-2.91a7.06,7.06,0,0,0,1.26-.63c.36-.22.13-.86-.31-.71a9.15,9.15,0,0,0-1.28.58c-.51-1.16-1-2.32-1.54-3.47a5.63,5.63,0,0,0,1.39-.87A.34.34,0,0,0,153,14a5.26,5.26,0,0,0-1.39.72c-.2-.43-.39-.86-.59-1.3-.26-.77-.51-1.54-.76-2.32a7,7,0,0,0,1.35-.71c.3-.21.13-.75-.26-.62a6.81,6.81,0,0,0-1.32.59c-.68-2.15-1.31-4.32-1.86-6.51,14.22,10,28.66,19.72,43,29.59Z"/><path class="cls-7" d="M196.18,43.13,202,40.91l-10.9-7.51c-14.32-9.87-28.76-19.58-43-29.59.55,2.19,1.18,4.36,1.86,6.51a6.81,6.81,0,0,1,1.32-.59c.39-.13.56.41.26.62a7,7,0,0,1-1.35.71c.25.78.5,1.55.76,2.32.2.44.39.87.59,1.3A5.26,5.26,0,0,1,153,14a.34.34,0,0,1,.32.57,5.63,5.63,0,0,1-1.39.87c.52,1.15,1,2.31,1.54,3.47a9.15,9.15,0,0,1,1.28-.58c.44-.15.67.49.31.71a7.06,7.06,0,0,1-1.26.63c.42,1,.84,1.94,1.25,2.91a7.88,7.88,0,0,1,1.1-.44c.47-.14.67.49.31.74a7.33,7.33,0,0,1-1,.57c.42,1,.83,2,1.25,3a7.45,7.45,0,0,1,1.34-.56.42.42,0,0,1,.32.76,7.55,7.55,0,0,1-1.29.68h0l1.57,3.79a4.06,4.06,0,0,1,1.26-.56.38.38,0,0,1,.37.63A4.64,4.64,0,0,1,159,32l1.35,3.27a4.49,4.49,0,0,1,1.42-.51c.32,0,.7.36.37.63a5.14,5.14,0,0,1-1.44.73c.53,1.26,1,2.52,1.57,3.78a5.47,5.47,0,0,1,1.13-.5.41.41,0,0,1,.31.75,5.23,5.23,0,0,1-1.09.59c.34.82.68,1.65,1,2.47.16.41.33.81.5,1.21a5,5,0,0,1,1.62-.52.34.34,0,0,1,.24.57,4.74,4.74,0,0,1-1.52.77c.44,1.08.89,2.15,1.33,3.22a6.66,6.66,0,0,1,1.63-.85c.45-.14.6.45.29.69a6.33,6.33,0,0,1-1.64.83c.22.54.44,1.08.67,1.61a16.54,16.54,0,0,0,.93,2.16c.36.6.77.63,1.39.49a27.64,27.64,0,0,0,3.53-1.3l1-.36c-.32-.48-.6-1-.89-1.5s.34-.85.63-.48a18,18,0,0,1,1.22,1.62L178.08,50c-.16-.33-.32-.66-.49-1-.25-.48.47-.91.73-.43s.41.73.6,1.1l3.57-1.35c-.31-.44-.57-.93-.88-1.35s.36-.74.64-.37.78.9,1.13,1.38l3.39-1.28c-.22-.4-.42-.82-.63-1.22s.51-1,.78-.46.49.9.72,1.35l3.21-1.21-.08-.17c-.22-.47-.44-.94-.67-1.41s.44-.85.68-.39l.72,1.38c.05.09.11.18.16.28l3.56-1.35c-.25-.57-.43-1.2-.65-1.77s.71-.83.94-.26.48,1.1.67,1.67ZM205,40.22a1.16,1.16,0,0,1-.27,2.08l-18.92,7.22-8.2,3.13-4.41,1.69a26.74,26.74,0,0,1-3.54,1.28,3.53,3.53,0,0,1-3.22-.6,7.08,7.08,0,0,1-1.55-2.88l-3.27-8.42c-.67-1.71-1.34-3.41-2-5.12-1-2-1.87-4-2.77-6q-2.23-4.95-4.22-10c-2.74-7-5-14.07-7.42-21.15A1.16,1.16,0,0,1,146.93.16C151.21,3,155.43,6,159.68,9Q182.36,24.58,205,40.22Z"/><path class="cls-7" d="M178.51,41.51l9.4-3.53c-9.34-6.43-18.71-12.82-28-19.35.46,1.18.92,2.35,1.37,3.53.37.7.73,1.41,1.07,2.13.83,1.77,1.67,3.54,2.47,5.33q2.41,5.39,4.82,10.76c.39.88.76,1.77,1.18,2.63.27.57.45,1,1.18.9a4,4,0,0,0,1-.3c1.85-.68,3.68-1.4,5.52-2.1Zm11.73-4.06a.9.9,0,0,1-.21,1.61L177.7,43.69c-1.72.65-3.61,1.67-5.45,1.9s-2.54-1-3.17-2.52c-3.71-8.81-7.87-17.43-11.6-26.26-.29-.67.36-1.63,1.12-1.12C169.22,22.82,179.7,30.18,190.24,37.45Z"/><path class="cls-7" d="M22.81,146.91c-.07-.93,0-1.92,0-2.79,0-.65.16-1.63-.61-1.7a6.45,6.45,0,0,0-1.89.46c-.64.17-1.33.28-1.95.51-.81.3-.74.81-.56,1.58s.42,1.45.51,2.19h.1c1.47-.1,2.94-.18,4.42-.24Zm4.5,9.24c-3.92.07-7.86,0-11.78-.19,0,1.55,0,3.11,0,4.67l0,6.53c2-.16,4-.15,5.92-.17h3.27c.55,0,1.12,0,1.69,0a6.78,6.78,0,0,1-1.26-3.39,11.38,11.38,0,0,1,2.11-7.4Zm14.76-9,1.1,0a10.79,10.79,0,0,1-.2-2.61,5.1,5.1,0,0,0-.38-2.76c-.57-1-1.8-.84-2.77-.86l-3.51-.06c-1.93,0-5.25-.66-6.66,1-1.2,1.42-.81,3.21-.8,4.91q3.45,0,6.89.09c2.11.05,4.22.14,6.33.25Zm-6.45,23.11a8.13,8.13,0,0,1-8.71-8.87,8.9,8.9,0,0,1,.69-2.83,9.31,9.31,0,0,1,.85-1.36,10.07,10.07,0,0,1,6.41-3.87c4.6-.72,9.18,2.59,9.29,7.37a9.5,9.5,0,0,1-8.53,9.56ZM54,144.75c.14-1.77-1.61-1.58-2.88-1.59a19.25,19.25,0,0,0-2,0c-.27,0-.83,0-1,.29s.06.64.08.82c.12,1,.26,2.05.3,3.08l2.18.08a20.63,20.63,0,0,1,2.69.16c.13-1,.56-1.87.63-2.85Zm1,10.66c0-1.21-.05-2.43-.12-3.64s-.31-2-1.55-2.24A46.89,46.89,0,0,0,46.2,149l-2-.12h-.12q-4.3-.13-8.61-.11c-5.59,0-11.2.23-16.76.77-.85.09-2.07.13-2.68.86a4.25,4.25,0,0,0-.53,2.72v2.07c4.19-.13,8.39-.22,12.58-.1a12.26,12.26,0,0,1,3.06-2.54,10.84,10.84,0,0,1,8.41-.88,9.11,9.11,0,0,1,3.79,2.23,10.4,10.4,0,0,1,1.31,1.66c.89-.08,1.77-.22,2.67-.24s1.91,0,2.86,0l3.1.05c.55,0,1.12,0,1.68,0Zm.06,14.51c-.56,0-1.15-.06-1.71-.06-1.25,0-2.5-.05-3.76-.08s-2.66-.05-4-.1c-1.1-.05-2.15-.24-3.23-.39A10.7,10.7,0,0,1,33.9,172a9.61,9.61,0,0,1-6-3.27l-.35-.41a21,21,0,0,1-2.75,0H21.5c-2,0-3.95,0-5.91-.15,0,1.28,0,2.58,0,3.86A1.94,1.94,0,0,0,17,174.1a10.86,10.86,0,0,0,2.9.27l3.83.12,7.42.24,15.08.48a19.48,19.48,0,0,0,5.86-.24c2.25-.64,2.81-2.53,2.9-4.66,0-.13,0-.26,0-.39Zm.05-1.8c.1-3.71,0-7.42-.07-11.13-.65,0-1.32-.05-2-.07l-2.86-.07c-1,0-2.06-.08-3.1-.14-.66-.05-1.31-.17-2-.27a10.32,10.32,0,0,1,.89,6.5,11.35,11.35,0,0,1-2.71,5.4,22.6,22.6,0,0,1,2.49-.2h3.76c1.33,0,2.67,0,4,0,.5,0,1,0,1.52,0Zm2.18-9.26q.07,4.26,0,8.52c-.05,2.26.14,4.87-1,6.93-2.22,4.1-8.15,3.09-12,3l-17.48-.55c-2.79-.09-5.59-.11-8.38-.28-1.87-.11-3.9-.6-4.68-2.52a9.48,9.48,0,0,1-.39-3.4c0-1.45,0-2.89-.07-4.34,0-2.9-.1-5.79-.15-8.68,0-1.51-.07-3-.09-4.51a7.83,7.83,0,0,1,.37-2.89,4.27,4.27,0,0,1,3.07-2.64c-.18-.45-.3-.92-.45-1.36a4.1,4.1,0,0,1-.32-2.83c.62-1.56,2.87-1.7,4.27-2s3.53-1.12,4.13.7a13.74,13.74,0,0,1,.26,3.08c.05.6.14,1.22.17,1.84.87,0,1.74,0,2.61-.05a6.8,6.8,0,0,1,.85-6c1.75-2.25,4.76-1.84,7.29-1.81,1.64,0,3.28,0,4.92,0a5,5,0,0,1,3.15.8,4.2,4.2,0,0,1,1.47,2.8c.21,1.37-.16,2.9.4,4.2a1.41,1.41,0,0,1,.1.43l1.79.06c-.2-.86-.32-1.74-.47-2.61a3.49,3.49,0,0,1,0-2c.65-1.53,3.08-1,4.37-1,1.52,0,3.36-.18,4.12,1.45s-.34,3.21-.29,4.84v0a3.15,3.15,0,0,1,1.62,1.75,13.76,13.76,0,0,1,.49,4.1C57.16,155.55,57.24,157.21,57.28,158.86Z"/><path class="cls-25" d="M55,157c.09,3.71.17,7.42.07,11.13-.49,0-1,0-1.52,0-1.33,0-2.67,0-4,0H45.82a22.6,22.6,0,0,0-2.49.2,11.35,11.35,0,0,0,2.71-5.4,10.32,10.32,0,0,0-.89-6.5c.65.1,1.3.22,2,.27,1,.06,2.07.11,3.1.14l2.86.07C53.71,156.94,54.38,157,55,157Z"/><path class="cls-5" d="M53.34,169.86c.56,0,1.15.08,1.71.06,0,.13,0,.26,0,.39-.09,2.13-.65,4-2.9,4.66a19.48,19.48,0,0,1-5.86.24l-15.08-.48-7.42-.24-3.83-.12a10.86,10.86,0,0,1-2.9-.27A1.94,1.94,0,0,1,15.62,172c-.06-1.28,0-2.58,0-3.86,2,.16,3.94.14,5.91.15h3.27a21,21,0,0,0,2.75,0l.35.41a9.61,9.61,0,0,0,6,3.27,10.7,10.7,0,0,0,8.46-2.71c1.08.15,2.13.34,3.23.39,1.33,0,2.66.06,4,.1S52.09,169.85,53.34,169.86Z"/><path class="cls-5" d="M54.87,151.77c.07,1.21.09,2.43.12,3.64-.56,0-1.13,0-1.68,0l-3.1-.05c-1,0-1.9,0-2.86,0s-1.78.16-2.67.24a10.4,10.4,0,0,0-1.31-1.66,9.11,9.11,0,0,0-3.79-2.23,10.83,10.83,0,0,0-8.41.88,12.26,12.26,0,0,0-3.06,2.54c-4.19-.12-8.39,0-12.58.1v-2.07a4.25,4.25,0,0,1,.53-2.72c.61-.73,1.83-.77,2.68-.86,5.56-.54,11.17-.74,16.76-.77q4.3,0,8.61.11h.12l2,.12a46.89,46.89,0,0,1,7.12.49C54.56,149.8,54.8,150.61,54.87,151.77Z"/><path class="cls-26" d="M51.13,143.16c1.27,0,3-.18,2.88,1.59-.07,1-.5,1.87-.63,2.85a20.63,20.63,0,0,0-2.69-.16l-2.18-.08c0-1-.18-2.06-.3-3.08,0-.18-.17-.65-.08-.82s.72-.27,1-.29A19.25,19.25,0,0,1,51.13,143.16Z"/><path class="cls-26" d="M42.18,162.47a6.36,6.36,0,0,0-1.68-5.64,5.66,5.66,0,0,0-2.37-1.4,6.8,6.8,0,0,0-5.27.55,7.5,7.5,0,0,0-3.75,6.86,5.61,5.61,0,0,0,1.68,3.25,6,6,0,0,0,3.78,2,7.05,7.05,0,0,0,7.61-5.67Zm2-1.78a9.5,9.5,0,0,1-8.53,9.56,8.13,8.13,0,0,1-8.71-8.87,8.9,8.9,0,0,1,.69-2.83,9.31,9.31,0,0,1,.85-1.36,10.07,10.07,0,0,1,6.41-3.87C39.46,152.6,44,155.91,44.15,160.69Z"/><path class="cls-5" d="M40.3,145.08a1,1,0,0,0,0-2,12.38,12.38,0,0,0-4.7-.35,10.36,10.36,0,0,0-4.36.7.8.8,0,0,0,0,1.37,10.36,10.36,0,0,0,4.36.64,12.18,12.18,0,0,0,4.7-.39Zm2.87,2.1-1.1,0c-2.11-.11-4.22-.2-6.33-.25q-3.43-.09-6.89-.09c0-1.7-.4-3.49.8-4.91,1.41-1.66,4.73-1,6.66-1l3.51.06c1,0,2.2-.11,2.77.86a5.1,5.1,0,0,1,.38,2.76A10.79,10.79,0,0,0,43.17,147.18Z"/><path class="cls-7" d="M35.65,167.05a6,6,0,0,0,5.34-6,5,5,0,0,0-5.82-4.61,6.17,6.17,0,0,0-4.55,3.27,5.73,5.73,0,0,0-.43,1.78,5.11,5.11,0,0,0,5.46,5.56Zm4.85-10.22a6.36,6.36,0,0,1,1.68,5.64,7.05,7.05,0,0,1-7.61,5.67,6,6,0,0,1-3.78-2,5.61,5.61,0,0,1-1.68-3.25A7.5,7.5,0,0,1,32.86,156a6.8,6.8,0,0,1,5.27-.55A5.66,5.66,0,0,1,40.5,156.83Z"/><path class="cls-4" d="M41,161.05a6,6,0,0,1-5.34,6,5.11,5.11,0,0,1-5.46-5.56,5.73,5.73,0,0,1,.43-1.78,6.17,6.17,0,0,1,4.55-3.27A5,5,0,0,1,41,161.05Z"/><path class="cls-27" d="M40.3,143.11a1,1,0,0,1,0,2,12.18,12.18,0,0,1-4.7.39,10.36,10.36,0,0,1-4.36-.64.8.8,0,0,1,0-1.37,10.36,10.36,0,0,1,4.36-.7A12.38,12.38,0,0,1,40.3,143.11Z"/><path class="cls-25" d="M15.53,156c3.92.15,7.86.26,11.78.19a11.38,11.38,0,0,0-2.11,7.4,6.78,6.78,0,0,0,1.26,3.39c-.57,0-1.14,0-1.69,0H21.5c-2,0-3.95,0-5.92.17l0-6.53C15.55,159.07,15.54,157.51,15.53,156Z"/><path class="cls-26" d="M22.79,144.12c0,.87-.05,1.86,0,2.79-1.48.06-2.95.14-4.42.24h-.1c-.09-.74-.36-1.51-.51-2.19s-.25-1.28.56-1.58c.62-.23,1.31-.34,1.95-.51a6.37,6.37,0,0,1,1.89-.46C23,142.49,22.77,143.47,22.79,144.12Z"/><path class="cls-5" d="M161.41,36.5c.93.52,2,1.11,2.37,2.2a4.18,4.18,0,0,1-.37,2.75C145.57,31.89,127.89,22,110.09,12.4c-4.82-2.6-9.63-5.23-14.48-7.78l0-.07c.43-1,1.19-2.19,2.45-2a5.76,5.76,0,0,1,2,.78,7,7,0,0,0-.62,1.44c-.07.24.25.51.44.3a7.25,7.25,0,0,0,1-1.28c.28.17.55.34.81.47L103,5c0,.08-.07.15-.1.23q-.27.61-.57,1.23c-.18.36.43.66.63.31s.61-.85.87-1.32l2.28,1.23c-.25.41-.46.86-.69,1.29s.41.92.69.46.56-.86.8-1.32l2.39,1.29c-.35.51-.61,1.13-.9,1.6a.4.4,0,0,0,.66.44c.32-.48.81-1,1.13-1.56L112.22,10c-.19.39-.35.79-.53,1.15s.36.82.59.41.49-.74.74-1.12l2.16,1.16-.09.23a10.21,10.21,0,0,1-.5,1.23c-.16.32.39.61.56.29a10.28,10.28,0,0,1,.72-1.13L116,12l.44.24,2,1.08c-.14.31-.27.61-.42.88s.31.72.53.36.38-.57.57-.87L121.59,15c-.23.36-.41.76-.61,1.12-.29.53.47,1.05.77.53s.48-.78.68-1.2l2,1.09c-.26.45-.46,1-.7,1.39s.47,1,.77.52.61-.91.88-1.39l2.26,1.21c-.23.41-.43.83-.68,1.23a.36.36,0,0,0,.6.4c.26-.41.6-.79.88-1.19l2.92,1.57c-.23.46-.41.95-.61,1.42s.58.77.81.28.42-.84.6-1.27l2.56,1.38c-.27.48-.44,1-.7,1.52s.35.77.57.38.68-.95,1-1.45L138.18,24c-.24.46-.42,1-.62,1.43s.55.85.82.41.56-.85.8-1.31l3,1.64c-.24.41-.43.86-.67,1.27s.43.93.69.46.54-.85.79-1.29l2.91,1.57c-.35.46-.59,1.05-.88,1.51s.46,1.05.79.53a16.2,16.2,0,0,0,1.08-1.51l2.79,1.5c-.25.49-.43,1-.64,1.52s.62.94.87.44.53-.94.74-1.44l2.68,1.44c-.21.4-.35.84-.57,1.25s.38.85.63.42.59-.77.83-1.19l2.65,1.43c-.23.35-.45.72-.68,1.06a.44.44,0,0,0,.73.49c.27-.36.57-.7.85-1.07l2.75,1.5a14.33,14.33,0,0,0-1.06,1.49c-.36.53.45,1.07.83.56A13,13,0,0,0,161.41,36.5Z"/><path class="cls-7" d="M159.43,47.1A13.5,13.5,0,0,0,163,42.42c-4.91-2.75-9.84-5.45-14.77-8.16-17.6-9.69-35.34-19.18-52.77-29.19-.57,1.58-.83,3.25-1.84,4.54,10,6.22,20.06,12.23,29.87,18.68l8.1,5,14.7,9.09c2.31,1.42,4.59,2.89,6.93,4.25,2,1.15,4.2,2,6.24.45Zm4.35-8.4a4.18,4.18,0,0,1-.37,2.75C145.57,31.89,127.89,22,110.09,12.4c-4.82-2.6-9.63-5.23-14.48-7.78l0-.07c.43-1,1.19-2.19,2.45-2a5.76,5.76,0,0,1,2,.78,7,7,0,0,0-.62,1.44c-.07.24.25.51.44.3a7.25,7.25,0,0,0,1-1.28c.28.17.55.34.81.47L103,5c0,.08-.07.15-.1.23q-.27.61-.57,1.23c-.18.36.43.66.63.31s.61-.85.87-1.32l2.28,1.23c-.25.41-.46.86-.69,1.29s.41.92.69.46.56-.86.8-1.32l2.39,1.29c-.35.51-.61,1.13-.9,1.6a.4.4,0,0,0,.66.44c.32-.48.81-1,1.13-1.56L112.22,10c-.19.39-.35.79-.53,1.15s.36.82.59.41.49-.74.74-1.12l2.16,1.16-.09.23a10.21,10.21,0,0,1-.5,1.23c-.16.32.39.61.56.29a10.28,10.28,0,0,1,.72-1.13L116,12l.44.24,2,1.08c-.14.31-.27.61-.42.88s.31.72.53.36.38-.57.57-.87L121.59,15c-.23.36-.41.76-.61,1.12-.29.53.47,1.05.77.53s.48-.78.68-1.2l2,1.09c-.26.46-.46,1-.7,1.39s.47,1,.77.52.61-.91.88-1.39l2.26,1.21c-.23.41-.43.83-.68,1.23a.36.36,0,0,0,.6.4c.26-.41.6-.79.88-1.19l2.92,1.57c-.24.46-.41.95-.61,1.42s.58.77.81.28.42-.84.6-1.27l2.56,1.38c-.27.48-.44,1-.7,1.52s.35.77.57.38.68-.95,1-1.45L138.18,24c-.24.46-.42,1-.62,1.43s.55.85.82.41.56-.85.8-1.31l3,1.64c-.24.41-.43.86-.67,1.27s.43.93.69.46.54-.85.79-1.29l2.91,1.57c-.35.46-.59,1.05-.88,1.51s.46,1.05.79.53a16.2,16.2,0,0,0,1.08-1.51l2.79,1.5c-.25.49-.43,1-.64,1.52s.62.94.87.44.53-.94.74-1.44l2.68,1.44c-.21.4-.35.84-.57,1.25s.38.85.63.42.59-.77.83-1.19l2.65,1.43c-.23.35-.45.72-.68,1.06a.44.44,0,0,0,.73.49c.27-.36.57-.7.85-1.07l2.75,1.5a14.33,14.33,0,0,0-1.06,1.49c-.36.53.45,1.07.83.56a13,13,0,0,0,1.09-1.58c.93.52,2,1.11,2.37,2.2ZM161.12,34c2.08,1.11,4.49,2.26,4.81,4.88.24,2-.73,3.91-1.72,5.56-1.25,2.11-2.79,4.43-5.21,5.28-2.14.75-4.27,0-6.15-1-2.54-1.42-4.95-3.12-7.4-4.68q-7.77-4.95-15.55-9.86l-5.15-3.26c-11.3-6.44-22.26-13.5-33.37-20.27A1,1,0,0,1,91.29,9c1.34-1,1.6-2.62,2-4.12a7.65,7.65,0,0,1,1.79-3.28C97.3-.53,99.79.93,102,2.12L120.38,12l32.35,17.44Z"/><path class="cls-7" d="M157.41,44.66a1.63,1.63,0,1,0-2.45,0,1.57,1.57,0,0,0,2.13.34,1.71,1.71,0,0,0,.32-.29Zm-1.14-3.81a2.67,2.67,0,0,1,2.56,3,.38.38,0,0,1,0,.15,2.67,2.67,0,1,1-2.56-3.15Z"/><path class="cls-10" d="M158.83,43.85a2.53,2.53,0,1,0,0,.15.38.38,0,0,0,0-.15ZM163,42.42a13.5,13.5,0,0,1-3.54,4.68c-2,1.54-4.25.7-6.24-.45-2.34-1.36-4.62-2.83-6.93-4.25l-14.7-9.09-8.1-5c-9.81-6.45-19.91-12.46-29.87-18.68,1-1.29,1.27-3,1.84-4.54,17.43,10,35.17,19.5,52.77,29.19C153.13,37,158.06,39.67,163,42.42Z"/><path class="cls-28" d="M10.42,57.42a2.46,2.46,0,0,1-.08-4.16,2.43,2.43,0,0,1,3.69,2,2.49,2.49,0,0,1-3.61,2.12Zm-.66-5a3.42,3.42,0,0,0-1.08,4.32,3.33,3.33,0,0,0,.38.65,3.17,3.17,0,0,0,1.23,1,21,21,0,0,0-.14,17.87,5.61,5.61,0,0,1-.65-.32A12.63,12.63,0,0,0,7.39,75a.32.32,0,0,0-.31.54c.93.87,3.13,2.86,4.5,1.87a5.53,5.53,0,0,0,1.33-2.16A14.18,14.18,0,0,0,14.08,72c.07-.38-.43-.79-.73-.42a15,15,0,0,0-2,3.51c-.09.19-.17.55-.29.79a25.68,25.68,0,0,1-1.8-8.62,27,27,0,0,1,1.6-8.73,3.5,3.5,0,0,0,4.25-3A3.46,3.46,0,0,0,9.76,52.39Z"/><path class="cls-28" d="M7.12,90.1c-1.28-.08-3.64,1-4-1s2.28-2.77,3.82-2.38a.3.3,0,0,0,.16-.57,4.06,4.06,0,0,0-3.58.07,3.06,3.06,0,0,0-1.59,2.9c.24,2.57,3.75,3.33,5.54,1.82C7.79,90.62,7.49,90.13,7.12,90.1Z"/><path class="cls-28" d="M12.63,88.7a2.93,2.93,0,0,0-1.49-.61l-.7-.12c-.4,0-.55-.21-.46-.67-.29-.45-.18-.71.3-.77a.89.89,0,0,1,.94.07.32.32,0,0,0,.59-.24c-.52-1.84-3.7-.53-3.43,1.14.18,1.11,1.33,1.48,2.28,1.66.58.12,1,0,1,.72s-.29.51-.83.6a1.91,1.91,0,0,1-2.12-.7.45.45,0,0,0-.74.2c-.38,1,.58,1.8,1.51,2a4.28,4.28,0,0,0,3.32-.82A1.63,1.63,0,0,0,12.63,88.7Z"/><path class="cls-28" d="M18.8,89.76c-.36-1.28-1.87-1.59-3-2-.32-.11-.7-.2-1-.34a.64.64,0,0,1-.58-.47,2.68,2.68,0,0,1,.56-.36,2.86,2.86,0,0,1,2.55,0c.34.17.64-.32.3-.51a3.66,3.66,0,0,0-3.2-.35c-.73.28-1.66,1-1.19,1.85a1.79,1.79,0,0,0,1,.71c.75.32,1.53.6,2.29.93.27.12,1.15.46.74.93-.2.23-1,.2-1.22.19a7.79,7.79,0,0,0-2.1-.06.54.54,0,0,0-.32.78C14.74,92.74,19.52,92.32,18.8,89.76Z"/><path class="cls-28" d="M9.72,103.73a16.31,16.31,0,0,0-2.29-1.24L6.37,102a6.33,6.33,0,0,1-1.28-.62c-.32-.5.68-1.52,1-2a20.2,20.2,0,0,0,1.54-2.52.32.32,0,0,0-.5-.38A28.32,28.32,0,0,0,4.4,99.67c-.47.59-1.14,1.25-.85,2.06s1.41,1.12,2.11,1.46a26.29,26.29,0,0,0,3.6,1.62C9.94,105,10.26,104.09,9.72,103.73Z"/><path class="cls-28" d="M12.17,100.69l0-.48a.5.5,0,0,0-1,0c0,.16,0,.32,0,.48a2.22,2.22,0,0,0,0,.68.58.58,0,0,0,1.11,0A1.94,1.94,0,0,0,12.17,100.69Z"/><path class="cls-28" d="M14.77,101a5,5,0,0,0-.49-1.14.47.47,0,0,0-.57-.32.47.47,0,0,0-.32.57,5.83,5.83,0,0,0,.35,1.32.55.55,0,0,0,.7.23A.57.57,0,0,0,14.77,101Z"/><path class="cls-28" d="M16.64,100.82a5.86,5.86,0,0,1-.36-1c-.13-.59-1-.33-.9.25s-.17,1.63.51,1.94a.55.55,0,0,0,.66-.09A1,1,0,0,0,16.64,100.82Z"/><path class="cls-28" d="M18.08,96.81a.25.25,0,0,0-.3.39,20.59,20.59,0,0,1,1.68,1.69c.84,1.16.21,1.87-.46,2.79a16.59,16.59,0,0,0-2.47,3.68c-.22.63.6.94,1,.6a13.15,13.15,0,0,0,2.1-2.8,8.72,8.72,0,0,0,1.63-2.72C21.71,98.53,19.42,97.59,18.08,96.81Z"/><path class="cls-28" d="M22.39,64.93a3.07,3.07,0,0,0-1.73-2.3.34.34,0,0,0-.52-.14l-.14,0-.3,0a1.91,1.91,0,0,0-1.33,1.14A21.81,21.81,0,0,0,17.32,66c-.22.62.73,1,1.06.44.43-.74.91-1.46,1.39-2.18a21.41,21.41,0,0,1,.41,4,19.11,19.11,0,0,1-.72,4.86,19.81,19.81,0,0,1-5.09,8.63c-.19.18.09.45.28.28a18.7,18.7,0,0,0,5.73-8.66,19.62,19.62,0,0,0,.87-8.24l.12.22A.56.56,0,0,0,22.39,64.93Z"/><path class="cls-28" d="M17,120.1a18.73,18.73,0,0,0-.89-4.11c-.19-.58-1.16-.53-1.11.15a20.79,20.79,0,0,0,.39,2.47c.07.36.15.72.22,1.08A18,18,0,0,1,13,115.2a11,11,0,0,1-.42-5.55c.07-.33-.44-.47-.51-.14-.7,3.48-.28,8,2.51,10.54-1.36-.24-2.75-.69-4-1a.37.37,0,0,0-.2.72c1.21.38,2.41.8,3.61,1.19.68.22,1.76.8,2.49.44C17,121.1,17,120.61,17,120.1Z"/><path class="cls-28" d="M66.8,146.34a2.78,2.78,0,0,1-3.65.72c-1.41-.8-2-2.71-.84-3.82a8.11,8.11,0,0,1,3.31-.33,2.21,2.21,0,0,1,1.18,3.43Zm13.8-1.09c-.62-1.1-.65-2.82-2-3.37s-2,1-3.25,1.14a.32.32,0,0,0,0,.64c.75.05,2-1,2.67-.66a16.89,16.89,0,0,1-1.18,1.91A8.33,8.33,0,0,1,74.25,147a8.88,8.88,0,0,1-6.81.3,3.46,3.46,0,0,0,.35-4.37c-1.38-2-4.23-1.62-6-.39a.47.47,0,0,0-.17.46,3.09,3.09,0,0,0,0,3.87,3.89,3.89,0,0,0,5.32.88l.11-.08a8.28,8.28,0,0,0,7.46.51,8.78,8.78,0,0,0,3.15-2.24,9.18,9.18,0,0,0,1.08-1.38,2,2,0,0,0,1,1.58A.66.66,0,0,0,80.6,145.25Z"/><path class="cls-28" d="M65.72,154.51a4.33,4.33,0,0,1-2.09,1.37c0-.78-.08-1.57-.13-2.36a2.47,2.47,0,0,1,1.5-.42c.77.09,1.18.7.72,1.41Zm1.41-.83a1.82,1.82,0,0,0-1.66-1.43,3.27,3.27,0,0,0-2.1.66.37.37,0,0,0-.62.25v.16a.29.29,0,0,0,0,.38c0,1.09-.05,2.17-.06,3.25a13.71,13.71,0,0,0,.11,3.45.47.47,0,0,0,.89,0,12,12,0,0,0,0-3.17,4.32,4.32,0,0,0,2.17-1A2.78,2.78,0,0,0,67.13,153.68Z"/><path class="cls-28" d="M72.22,152.75c-.07-.86-1.39-.89-1.36,0s0,1.81,0,2.74a14.7,14.7,0,0,1-2.31,0,23.59,23.59,0,0,1-.24-2.45.2.2,0,0,0-.4,0c0,2.07-.66,4.36-.27,6.41a.52.52,0,0,0,1,0,11.08,11.08,0,0,0,0-3.15,12.77,12.77,0,0,0,2.21.33,14.79,14.79,0,0,0,.25,2.69c.12.62,1.18.65,1.28,0a17.74,17.74,0,0,0,.05-3.65A9.47,9.47,0,0,0,72.22,152.75Z"/><path class="cls-28" d="M76.76,153.94c-.34.9-1.2.91-2,1.08-.07-.73-.14-1.47-.2-2.21a2.22,2.22,0,0,1,1-.2c.67,0,1.45.58,1.16,1.33Zm1.22-.62a2.1,2.1,0,0,0-1.9-1.49,3,3,0,0,0-1.85.51.4.4,0,0,0-.51.33l-.37.29c-.23.17.07.57.31.4l0,0c0,1,0,2-.08,2.94a6.39,6.39,0,0,0,.25,2.86c.22.48.86.27,1-.13a5.49,5.49,0,0,0,.05-2.52,4.09,4.09,0,0,0,2-.7A2.38,2.38,0,0,0,78,153.32Z"/><path class="cls-28" d="M144.1,147.39c0,1.2.15,1.5-1.13,1.6l-2.62.21c-.54,0-.85.2-1.07-.34,0-.92,0-1.84,0-2.77,0-.49-.15-1.27.47-1.53a4.54,4.54,0,0,1,1.22,0l1.33,0a5.34,5.34,0,0,1,1.33,0c.7.32.41,2.05.44,2.72Zm18.17-.25c-.07-.75-.94-1.15-1.47-1.51-1-.66-2-1.28-3-1.92a.31.31,0,0,0-.37.48l1.47,1.37c.2.19.7.53,1.1.87-.92-.07-1.86,0-2.77,0l-4.24-.08c-2.55,0-5.09,0-7.64,0,0-.94,0-2-.62-2.52-.85-.68-2.71-.33-3.72-.35s-2.08-.19-2.59.7a3.87,3.87,0,0,0-.21,1.94v2.32a2.84,2.84,0,0,0,0,.88c.24,1.06,1.21,1.09,2.12,1.05l.92-.06a7.39,7.39,0,0,0,.61,6.7c1,1.49,2.87,3.2,4.79,3.2,0,.16-.09.2-.38.43-.85.66-1.93,1-2.54,1.92-.17.26.05.72.39.67a5.28,5.28,0,0,0,2.12-1c.54-.34,1.45-.73,1.68-1.41a1.4,1.4,0,0,0-.35-1.33c-.58-.84-1.27-1.62-1.91-2.42-.18-.24-.52.06-.4.31l.8,1.52a7.88,7.88,0,0,1-3.24-2.33,7.36,7.36,0,0,1-1.07-6.23v-.07l1-.06a4.66,4.66,0,0,0,1.86-.24c.94-.5.74-1.65.71-2.56V147q3.83.25,7.66.37l4,.12c1,0,2.11.15,3.16.11-.3.19-.6.39-.89.6a7.9,7.9,0,0,0-1.55,1.33c-.32.39,0,1.12.53.93a11.72,11.72,0,0,0,2.93-1.78C161.68,148.29,162.33,147.89,162.27,147.14Z"/><path class="cls-28" d="M164.15,169.24a33.09,33.09,0,0,0-.26-3.3,13.26,13.26,0,0,0,2.83-.28,4.38,4.38,0,0,1-2.57,3.58Zm-8.31.08a44.23,44.23,0,0,0,6.5.32,6.13,6.13,0,0,0,1.12-.17c-.3-1.33-.46-2.67-.64-4,0-.3.27-.49.51-.51a16.32,16.32,0,0,1,3.49-.19c.18-2.23.07-4.51.09-6.74,0-.92.47-3.36-.76-3.82a5.89,5.89,0,0,0-1.92,0l-2,0-3.92.05-1.95,0a5.69,5.69,0,0,0-2,.06c-.4.19-.5,1.08-.51,2,.07,1.94.14,3.88.17,5.83,0,1.3,0,2.6,0,3.9a10.58,10.58,0,0,0,0,1.95c.22,1.09.74,1.24,1.7,1.32ZM168,159c0-1.24.1-2.5,0-3.73a2.14,2.14,0,0,0-1.13-2,6.13,6.13,0,0,0-2.69-.25l-4.41.07-4.4.06c-.83,0-1.77,0-2.22.8s-.19,2.51-.17,3.53c0,1.62,0,3.25.07,4.87v.28c0,1.3-.06,2.6-.09,3.9,0,1-.27,2.28.35,3.11a2.34,2.34,0,0,0,1.69.79c1.25.16,2.54.16,3.8.24,2,.13,4.26.4,6.17-.49C169,168.34,168,162.47,168,159Z"/><path class="cls-28" d="M164.56,157.59a10.14,10.14,0,0,0-3.89-.36c-1.57,0-3.15,0-4.72.05a.35.35,0,0,0,0,.69c1.49.11,3,.24,4.47.32,1.3.06,2.83.36,4.06-.1C164.72,158.11,164.85,157.71,164.56,157.59Z"/><path class="cls-28" d="M164.07,160.29a7.09,7.09,0,0,0-3.52-.45,26.91,26.91,0,0,0-3.91.33c-.32,0-.24.55.07.54,1.28,0,2.56,0,3.84.08a10.8,10.8,0,0,0,3.44.15A.36.36,0,0,0,164.07,160.29Z"/><path class="cls-28" d="M161.89,163.08c-1.89-.42-3.95.14-5.86.22-.37,0-.37.59,0,.58,1.91,0,4,.38,5.86-.17A.33.33,0,0,0,161.89,163.08Z"/><path class="cls-28" d="M174,148.34a18.9,18.9,0,0,0-2.14-1.74c-.59-.44-1.33-1.25-2.08-1.37a1,1,0,0,0-1.13.71,12.53,12.53,0,0,0-.67,2.78c-.11.71,1,1,1.11.3a18.22,18.22,0,0,0,.49-1.83l.09-.36v-.07c.25.64.62,1.23.91,1.86a21.66,21.66,0,0,1,1,2.51,23.28,23.28,0,0,1-.94,16.31c-.22.48.48.9.72.42a22.74,22.74,0,0,0,1.47-17.08c-.24-.76-.51-1.64-.86-2.49a11.63,11.63,0,0,0,1.37,1A.58.58,0,0,0,174,148.34Z"/><path class="cls-28" d="M196.17,64.12c-1.09-1.31-3-1.68-4.19-2.87-.63-.65.3-1.45.73-2.1a26.7,26.7,0,0,0,1.47-2.41c.19-.38-.29-.8-.61-.47a29.87,29.87,0,0,0-2.29,2.86c-.48.65-1.27,1.4-.92,2.27s1.32,1.2,1.94,1.62a13.42,13.42,0,0,0,3.33,2A.56.56,0,0,0,196.17,64.12Z"/><path class="cls-28" d="M198.63,60.8a5.57,5.57,0,0,1-.3-.77.4.4,0,0,0-.77.22,5.44,5.44,0,0,1,.11.81c0,.33.14.65.49.74a.43.43,0,0,0,.42-.11A.75.75,0,0,0,198.63,60.8Z"/><path class="cls-28" d="M201.49,61.21a5.63,5.63,0,0,0-.75-1.41.45.45,0,0,0-.82.35,6.09,6.09,0,0,0,.5,1.51A.59.59,0,0,0,201.49,61.21Z"/><path class="cls-28" d="M203.86,60.9a11,11,0,0,1-.39-1c-.1-.56-.95-.33-.85.23a8.92,8.92,0,0,1,0,1c0,.43.35.93.85.79S204,61.29,203.86,60.9Z"/><path class="cls-28" d="M208.19,58c-1.27-.91-2.53-1.77-3.86-2.58-.19-.12-.38.14-.24.3.74.77,1.48,1.53,2.27,2.25.4.36,2.13,1.52,2,2.13-.05.21-.92.9-1.07,1-.35.35-.69.72-1,1.08a5.49,5.49,0,0,0-1.68,2.24.58.58,0,0,0,.71.71c1.2-.39,2-1.61,2.82-2.51C208.73,62,210,61,210,60S208.87,58.46,208.19,58Z"/><path class="cls-28" d="M196.68,72.69c.48.07.7-.65.2-.75-2.48-.49-5.81.49-5.92,3.51s3.45,4.38,5.79,3.08a.45.45,0,0,0-.11-.82c-1.6-.42-4.23.44-4.52-2S194.76,72.4,196.68,72.69Z"/><path class="cls-28" d="M207.59,74.64c-.52-.37-1.44-.5-1.82-1-.39-.18-.39-.42,0-.71a.61.61,0,0,1,.84-.51,2.77,2.77,0,0,1,1.36.44.37.37,0,0,0,.38-.64c-1.21-.82-4.66-1-3.86,1.4a2.46,2.46,0,0,0,.9,1.14c.41.32,1.32.63,1.57,1.1.52,1-.91,1.05-1.56,1.14s-1.4.1-2.1.19l0,0a1.87,1.87,0,0,0-1-2.33,6.17,6.17,0,0,0-1.64-.41,2.68,2.68,0,0,1-.49-.11c-.62-.12-.78-.39-.49-.8.2-.7.94-.56,1.53-.53s.44-.65,0-.69a2.45,2.45,0,0,0-2.36.65,1.46,1.46,0,0,0,.28,2,3.21,3.21,0,0,0,1.4.64c.5.13,2.15.52,1.3,1.22-1,.84-2.65,0-3.76-.06a.51.51,0,0,0-.36.87c.9,1.13,3.45,1.35,4.85.47a.8.8,0,0,0,.49.58c1.54.52,5.44.34,5.68-1.84A2.4,2.4,0,0,0,207.59,74.64Z"/><path class="cls-28" d="M53.43,16.66a26.09,26.09,0,0,1-.14-3.95c0-.59-.88-.58-.91,0-.07,1.2-.14,2.41-.15,3.61a11.3,11.3,0,0,0-2.72.58v-.07c-.1-1.07-.23-2.13-.32-3.2,0-.59-1-.61-.93,0,0,1.14,0,2.29.06,3.43a7.26,7.26,0,0,0,.34,2.75c.17.4.76.25.87-.11a4.76,4.76,0,0,0,.08-1.92,12.79,12.79,0,0,0,2.63-.18,5.57,5.57,0,0,0,.48,2.76.55.55,0,0,0,1-.13A10.81,10.81,0,0,0,53.43,16.66Z"/><path class="cls-28" d="M59.15,12.25c-1.63-.12-3.34.61-4.94.88-.37.07-.29.71.09.67.62-.06,1.27-.06,1.93-.07a13.11,13.11,0,0,0,0,2.87,10.68,10.68,0,0,0,.39,3.48c.21.52,1.05.65,1.2,0a11,11,0,0,0-.15-3.71,13.28,13.28,0,0,0-.42-2.66,7.28,7.28,0,0,0,2-.35A.57.57,0,0,0,59.15,12.25Z"/><path class="cls-28" d="M65.05,18.83c-.3-1.94-.92-3.83-1.12-5.78-.06-.62-1-.87-1.17-.16s-.26,1.26-.38,1.89a7.47,7.47,0,0,1-.41,2c-.22.3-.45-.59-.6-.9l-1-2a.6.6,0,0,0-1.12.3A16.84,16.84,0,0,0,59.46,19a.19.19,0,0,0,.36,0A7.23,7.23,0,0,0,60.25,17c.11.24.23.48.36.71a1.54,1.54,0,0,0,1.77.91,1.67,1.67,0,0,0,1.07-1.47c.1.67.2,1.34.34,2C64,20,65.17,19.64,65.05,18.83Z"/><path class="cls-28" d="M71.19,18a1.81,1.81,0,0,0-1.68-.47c-.57.07-1.3.5-1.87.32-.72-.23-.58-1.58-.62-2.19a12.92,12.92,0,0,0-.26-2.24.2.2,0,0,0-.38,0,17.35,17.35,0,0,0-.45,3,3.1,3.1,0,0,0,.35,2.39,2.12,2.12,0,0,0,1.9.7A15.34,15.34,0,0,0,71,18.79.48.48,0,0,0,71.19,18Z"/><path class="cls-28" d="M60.08,26.1a2.68,2.68,0,0,1-1.28.15c-.7-.17-.68-1.7-.66-2.68.25-.38.81-.45,1.22-.51.63-.1,1.16-.07,1.41.59A3.75,3.75,0,0,1,60.94,25a1.06,1.06,0,0,1-.86,1.12Zm19.46-2.71a14.22,14.22,0,0,0-2.65-1.25h0a.33.33,0,0,0-.32.54A8.67,8.67,0,0,0,78,23.78l.29.17c-.85,0-1.7,0-2.53,0-1.6,0-3.19,0-4.79,0-3,0-6,.28-9,.31-.23-1.47-.94-2.51-2.68-2.27a2.81,2.81,0,0,0-2,.87,2.8,2.8,0,0,0-.19,2.48.48.48,0,0,0,.15.25c0,1,.4,1.75,1.64,1.78,1.73.05,3.29-.73,3.12-2.66,0-.05,0-.1,0-.16,3,.08,6,.38,9,.46l4.54.07c.78,0,1.59.06,2.39.07-.63.31-1.22.64-1.82,1a.54.54,0,0,0,.42,1,24.76,24.76,0,0,0,2.75-1.06c.59-.27,1.46-.56,1.54-1.31S80.11,23.68,79.54,23.39Z"/><path class="cls-28" d="M81.55,13.58a2.3,2.3,0,0,1-1.63-.06,2.52,2.52,0,0,1-.53-4.33l.06,0,.13-.09A2.52,2.52,0,0,1,83.18,11a2.38,2.38,0,0,1-1.26,2.44.25.25,0,0,0-.37.16Zm17.78,8.26a11.75,11.75,0,0,1-4.06-1.75c-.27-.19-.61.24-.35.45a15.42,15.42,0,0,0,2.71,1.84,19.47,19.47,0,0,1-4,.17,13.5,13.5,0,0,1-5.45-1.79,15.64,15.64,0,0,1-5.74-6.36,3.57,3.57,0,0,0,2-3,3.7,3.7,0,0,0-4.68-3.67A3.62,3.62,0,0,0,78,13.51a.37.37,0,0,0,.41.06,3.29,3.29,0,0,0,1.1.87,3.17,3.17,0,0,0,2.35.21,13.49,13.49,0,0,0,6,7.1,14.42,14.42,0,0,0,9.24,1.89,7.75,7.75,0,0,0-1.48,2.43.55.55,0,0,0,.92.54c1.08-1.21,1.93-2.59,3.06-3.76A.61.61,0,0,0,99.33,21.84Z"/><path class="cls-28" d="M200.58,89.05a11.69,11.69,0,0,0,1.54-6.49.28.28,0,0,0-.55,0,13.07,13.07,0,0,1-2,5.88A16.71,16.71,0,0,1,196.05,92c.07-.92.21-1.85.31-2.77,0-.37-.53-.42-.63-.09-.27.93-.6,1.86-.82,2.81a2.27,2.27,0,0,0,.12,1.84,2.8,2.8,0,0,0,3.54.68c.53-.25.19-.93-.27-1-.67-.09-1.49,0-1.94-.28A10,10,0,0,0,200.58,89.05Z"/><path class="cls-28" d="M141.28,12.18a16.25,16.25,0,0,0-7.65-3.87,15,15,0,0,0,2.79-.86c.5-.23.23-1-.27-1a14.82,14.82,0,0,0-2.89.42,7.62,7.62,0,0,0-2.4.69c-1.32.82-1.2,2.52-.43,3.69.37.57,1.44.21,1.16-.49-.09-.54-.37-1.09-.11-1.58,1.52.46,3.1.61,4.6,1.18a15.2,15.2,0,0,1,4.57,2.74,18.31,18.31,0,0,1,5.14,8.45c.1.3.63.27.59-.08A15,15,0,0,0,141.28,12.18Z"/></g></g></svg>