<svg xmlns="http://www.w3.org/2000/svg" xmlns:xlink="http://www.w3.org/1999/xlink" viewBox="0 0 245.42 261.02"><defs><style>.cls-1,.cls-2{fill:none;}.cls-1{clip-rule:evenodd;}.cls-10,.cls-11,.cls-12,.cls-13,.cls-14,.cls-15,.cls-16,.cls-18,.cls-19,.cls-20,.cls-21,.cls-22,.cls-23,.cls-24,.cls-25,.cls-26,.cls-27,.cls-28,.cls-29,.cls-3,.cls-30,.cls-31,.cls-32,.cls-33,.cls-34,.cls-35,.cls-36,.cls-37,.cls-38,.cls-41,.cls-42,.cls-44,.cls-45,.cls-46,.cls-47,.cls-48,.cls-49,.cls-50,.cls-51,.cls-52,.cls-53,.cls-54,.cls-55,.cls-56,.cls-57,.cls-58,.cls-59,.cls-60,.cls-61,.cls-62,.cls-63,.cls-64,.cls-65,.cls-66,.cls-67,.cls-68,.cls-69,.cls-70,.cls-71,.cls-72,.cls-73,.cls-74,.cls-75,.cls-76,.cls-77,.cls-78,.cls-80,.cls-81,.cls-82,.cls-83,.cls-84,.cls-85,.cls-86,.cls-9{fill-rule:evenodd;}.cls-3{fill:url(#GradientFill_3);}.cls-4{clip-path:url(#clip-path);}.cls-5{fill:#8ed8f8;}.cls-41,.cls-6{fill:#2e3192;}.cls-7{clip-path:url(#clip-path-2);}.cls-38,.cls-8{fill:#fff;}.cls-9{fill:url(#GradientFill_4);}.cls-10,.cls-39{fill:#43525a;}.cls-11{fill:#fff200;}.cls-12{fill:#231f20;}.cls-13{fill:#00aeef;}.cls-14{fill:#ec008c;}.cls-15{fill:#939598;}.cls-16{fill:#647883;}.cls-17{clip-path:url(#clip-path-3);}.cls-18,.cls-40{fill:#ffcb05;}.cls-19{fill:#ffef00;}.cls-20{fill:#ffec00;}.cls-21{fill:#ffcd03;}.cls-22{fill:#ffea00;}.cls-23{fill:#ffcf01;}.cls-24{fill:#ffe800;}.cls-25{fill:#ffe600;}.cls-26{fill:#ffd100;}.cls-27{fill:#ffe500;}.cls-28{fill:#ffd200;}.cls-29{fill:#ffe300;}.cls-30{fill:#ffe100;}.cls-31{fill:#ffd400;}.cls-32{fill:#ffdf00;}.cls-33{fill:#fd0;}.cls-34{fill:#ffd600;}.cls-35{fill:#ffdb00;}.cls-36{fill:#ffd800;}.cls-37{fill:#ffda00;}.cls-42{fill:#fabe53;}.cls-43,.cls-44{fill:#fedc63;}.cls-45{fill:#fcc397;}.cls-46{fill:#f4e4bc;}.cls-47{fill:#0095da;}.cls-48{fill:#f08f6f;}.cls-49{fill:#3d261e;}.cls-50{fill:#52342a;}.cls-51{fill:#43261f;}.cls-52{fill:#714c53;}.cls-53{fill:#3e251c;}.cls-54{fill:#2f1c16;}.cls-55{fill:#341c16;}.cls-56{fill:#bca889;}.cls-57{fill:#56373a;}.cls-58{fill:#007db6;}.cls-59{fill:#492d30;}.cls-60{fill:#fff3ce;}.cls-61{fill:#d0b7b1;}.cls-62{fill:#b7968d;}.cls-63,.cls-79{fill:#d0c09e;}.cls-64{fill:#847356;}.cls-65{fill:#d0a89e;}.cls-66{fill:#c69774;}.cls-67{fill:#5c3132;}.cls-68{fill:#006595;}.cls-69{fill:#3c1d1c;}.cls-70{fill:#0071a6;}.cls-71{fill:#c45f43;}.cls-72{fill:#d1a07f;}.cls-73{fill:#f9ad86;}.cls-74{fill:#543d33;}.cls-75{fill:#dec99c;}.cls-76{fill:#3f1d15;}.cls-77{fill:#fff7df;}.cls-78{fill:#5f3517;}.cls-80{fill:#9e9d97;}.cls-81{fill:#88847d;}.cls-82{fill:#efe7dd;}.cls-83{fill:#fff3ea;}.cls-84{fill:#d6c6b4;}.cls-85{fill:#4d4943;}.cls-86{fill:#d7bc90;}</style><linearGradient id="GradientFill_3" x1="122.71" y1="323.28" x2="122.71" y2="-4.58" gradientUnits="userSpaceOnUse"><stop offset="0" stop-color="#c7eafb"/><stop offset="0.19" stop-color="#daf1fc"/><stop offset="0.47" stop-color="#eef9fe"/><stop offset="0.74" stop-color="#fbfdff"/><stop offset="1" stop-color="#fff"/></linearGradient><clipPath id="clip-path"><path class="cls-1" d="M27.3,182.66c-38.74,74.39,4.76,73.88,52.08,49.08,58.94-30.88,47.06,3.43,93.05,4.09,25.58.37,57.81-5.48,62.83-35.9,4.7-28.42-22.75-21.72-23.71-40.91-3.05-60.88-26.56-78.86-83.1-40-38.19,26.25-99.53-44-117.66,4.1C3.25,143.09,35.05,167.78,27.3,182.66Z"/></clipPath><clipPath id="clip-path-2"><rect class="cls-2" x="86.59" y="19.09" width="96.66" height="182.11" rx="9.08"/></clipPath><linearGradient id="GradientFill_4" x1="-168.73" y1="53.06" x2="284.71" y2="116.79" gradientUnits="userSpaceOnUse"><stop offset="0" stop-color="#f58220"/><stop offset="1" stop-color="#ffcb05"/></linearGradient><clipPath id="clip-path-3"><polygon class="cls-1" points="115.48 110.7 117.33 114.16 121.19 114.85 118.47 117.67 119.01 121.56 115.48 119.84 111.95 121.56 112.49 117.67 109.77 114.85 113.64 114.16 115.48 110.7"/></clipPath></defs><title>quality-quantity</title><g id="Layer_2" data-name="Layer 2"><g id="Layer_1-2" data-name="Layer 1"><path class="cls-3" d="M27.3,182.66c-38.74,74.39,4.76,73.88,52.08,49.08,58.94-30.88,47.06,3.43,93.05,4.09,25.58.37,57.81-5.48,62.83-35.9,4.7-28.42-22.75-21.72-23.71-40.91-3.05-60.88-26.56-78.86-83.1-40-38.19,26.25-99.53-44-117.66,4.1C3.25,143.09,35.05,167.78,27.3,182.66Z"/><g class="cls-4"><rect class="cls-5" y="210.58" width="245.42" height="50.45"/></g><rect class="cls-6" x="86.59" y="19.09" width="96.66" height="182.11" rx="9.08"/><g class="cls-7"><rect class="cls-8" x="86.59" width="96.66" height="221.07"/><path class="cls-9" d="M164.73,95.74h0a.81.81,0,0,0-.84-.77H106a.81.81,0,0,0-.84.77h0a.81.81,0,0,0,.84.76h57.94A.81.81,0,0,0,164.73,95.74Z"/><path class="cls-10" d="M127.66,36.61h-7.24V49.46q0,.47,0,.93c0,.32,0,.63,0,.94V80.87h14.5V73.63h-7.26V63a14.54,14.54,0,1,0,0-25.19V36.61Zm0,14.45V49.72a7.3,7.3,0,1,1,0,1.34Z"/><path class="cls-11" d="M138.54,80.87a3.62,3.62,0,1,0-3.62-3.62A3.63,3.63,0,0,0,138.54,80.87Z"/><path class="cls-12" d="M145.78,80.87a3.62,3.62,0,1,0-3.62-3.62A3.63,3.63,0,0,0,145.78,80.87Z"/><path class="cls-13" d="M138.54,73.63A3.62,3.62,0,1,0,134.92,70,3.63,3.63,0,0,0,138.54,73.63Z"/><path class="cls-14" d="M145.78,73.63A3.62,3.62,0,1,0,142.16,70,3.63,3.63,0,0,0,145.78,73.63Z"/><path class="cls-15" d="M121.26,84.38a.34.34,0,0,1,.27.12.39.39,0,0,1,.11.27.37.37,0,0,1-.11.27.34.34,0,0,1-.27.12A.36.36,0,0,1,121,85a.37.37,0,0,1-.11-.27.39.39,0,0,1,.11-.27.36.36,0,0,1,.27-.12ZM121,85.87h.47V90a1.08,1.08,0,0,1-.17.67.54.54,0,0,1-.44.21,1.39,1.39,0,0,1-.53-.12v-.41a.77.77,0,0,0,.33.1.31.31,0,0,0,.28-.16,1,1,0,0,0,.06-.42Z"/><path class="cls-15" d="M122.41,85.87h.47v1.7a3.3,3.3,0,0,0,.07.85.93.93,0,0,0,.38.53,1.23,1.23,0,0,0,.67.19,1.15,1.15,0,0,0,.67-.19,1,1,0,0,0,.37-.49,3.36,3.36,0,0,0,.07-.89v-1.7h.48v1.78a2.94,2.94,0,0,1-.17,1.13,1.4,1.4,0,0,1-.53.6,2,2,0,0,1-1.77,0,1.4,1.4,0,0,1-.53-.6,2.9,2.9,0,0,1-.18-1.16Z"/><path class="cls-15" d="M128.46,86.27l-.3.31a1.1,1.1,0,0,0-.73-.36.53.53,0,0,0-.39.15.44.44,0,0,0-.17.35.51.51,0,0,0,.14.33,1.84,1.84,0,0,0,.56.39,2.2,2.2,0,0,1,.71.51,1,1,0,0,1,.18.57,1.08,1.08,0,0,1-1.1,1.07,1.26,1.26,0,0,1-.6-.14,1.23,1.23,0,0,1-.47-.37l.29-.34a1,1,0,0,0,.76.41.68.68,0,0,0,.48-.18.55.55,0,0,0,.07-.78,2.43,2.43,0,0,0-.59-.39,1.84,1.84,0,0,1-.67-.5.91.91,0,0,1-.18-.56.94.94,0,0,1,.28-.68,1,1,0,0,1,.72-.27A1.5,1.5,0,0,1,128.46,86.27Z"/><polygon class="cls-15" points="129.68 84.52 130.15 84.52 130.15 85.87 130.89 85.87 130.89 86.28 130.15 86.28 130.15 89.5 129.68 89.5 129.68 86.28 129.05 86.28 129.05 85.87 129.68 85.87 129.68 84.52"/><path class="cls-16" d="M132.44,85.87v.4a1.7,1.7,0,0,1,.54-.36,1.54,1.54,0,0,1,.61-.12,1.59,1.59,0,0,1,1.21.53,2,2,0,0,1,.49,1.38,1.92,1.92,0,0,1-.51,1.35,1.63,1.63,0,0,1-1.22.54,1.58,1.58,0,0,1-.58-.11,1.74,1.74,0,0,1-.54-.37v1.72h-.91v-5Zm1,.75a.94.94,0,0,0-.71.29,1.06,1.06,0,0,0-.29.77,1.09,1.09,0,0,0,.29.78,1,1,0,0,0,1.41,0,1.07,1.07,0,0,0,.28-.77,1.05,1.05,0,0,0-.28-.76A.91.91,0,0,0,133.4,86.62Z"/><path class="cls-16" d="M135.83,85.87h.79v.47a.91.91,0,0,1,.33-.41.78.78,0,0,1,.46-.14.87.87,0,0,1,.37.09l-.28.78a.73.73,0,0,0-.26-.08.43.43,0,0,0-.36.26,2.56,2.56,0,0,0-.14,1V89.5h-.91Z"/><path class="cls-16" d="M138.59,84.38a.6.6,0,0,1,.58.6.53.53,0,0,1-.17.41.54.54,0,0,1-.4.17.61.61,0,0,1-.42-.17A.61.61,0,0,1,138,85a.58.58,0,0,1,.17-.41.57.57,0,0,1,.41-.17Zm-.46,1.49H139V89.5h-.91Z"/><path class="cls-16" d="M139.87,85.87h.91v.38a1.74,1.74,0,0,1,.56-.36,1.32,1.32,0,0,1,.51-.1,1.25,1.25,0,0,1,.92.37,1.31,1.31,0,0,1,.32,1V89.5h-.91V87.92a4.88,4.88,0,0,0-.05-.86.55.55,0,0,0-.56-.44.68.68,0,0,0-.48.18,1,1,0,0,0-.27.51,3.89,3.89,0,0,0,0,.74V89.5h-.91Z"/><polygon class="cls-16" points="144.08 84.53 144.99 84.53 144.99 85.87 145.53 85.87 145.53 86.66 144.99 86.66 144.99 89.5 144.08 89.5 144.08 86.66 143.61 86.66 143.61 85.87 144.08 85.87 144.08 84.53"/><path class="cls-15" d="M146.66,84.38a.34.34,0,0,1,.27.12.36.36,0,0,1,.12.27.41.41,0,0,1-.39.39.37.37,0,0,1-.27-.12.37.37,0,0,1-.11-.27.39.39,0,0,1,.11-.27.37.37,0,0,1,.27-.12Zm-.23,1.49h.47V89.5h-.47Z"/><polygon class="cls-15" points="148.27 84.52 148.74 84.52 148.74 85.87 149.47 85.87 149.47 86.28 148.74 86.28 148.74 89.5 148.27 89.5 148.27 86.28 147.64 86.28 147.64 85.87 148.27 85.87 148.27 84.52"/><path class="cls-10" d="M110.77,107.94h48.3a8.47,8.47,0,0,1,8.45,8.45h0a8.47,8.47,0,0,1-8.45,8.45h-48.3a8.48,8.48,0,0,1-8.45-8.45h0A8.48,8.48,0,0,1,110.77,107.94Z"/><g class="cls-17"><polygon class="cls-11" points="115.48 116.13 123.37 116.38 123.37 115.88 115.48 116.13"/><polygon class="cls-18" points="115.48 116.13 107.59 115.88 107.59 116.38 115.48 116.13"/><polygon class="cls-19" points="115.48 116.13 123.37 115.88 123.34 115.37 115.48 116.13"/><polygon class="cls-18" points="115.48 116.13 107.59 116.38 107.62 116.89 115.48 116.13"/><polygon class="cls-19" points="115.48 116.13 123.34 115.37 123.28 114.87 115.48 116.13"/><polygon class="cls-18" points="115.48 116.13 107.62 116.89 107.69 117.39 115.48 116.13"/><polygon class="cls-20" points="115.48 116.13 123.28 114.87 123.18 114.37 115.48 116.13"/><polygon class="cls-21" points="115.48 116.13 107.69 117.39 107.78 117.89 115.48 116.13"/><polygon class="cls-20" points="115.48 116.13 123.18 114.37 123.05 113.88 115.48 116.13"/><polygon class="cls-21" points="115.48 116.13 107.78 117.89 107.91 118.38 115.48 116.13"/><polygon class="cls-22" points="115.48 116.13 123.05 113.88 122.89 113.4 115.48 116.13"/><polygon class="cls-23" points="115.48 116.13 107.91 118.38 108.07 118.86 115.48 116.13"/><polygon class="cls-24" points="115.48 116.13 122.89 113.4 122.7 112.93 115.48 116.13"/><polygon class="cls-23" points="115.48 116.13 108.07 118.86 108.26 119.33 115.48 116.13"/><polygon class="cls-24" points="115.48 116.13 122.7 112.93 122.48 112.48 115.48 116.13"/><polygon class="cls-23" points="115.48 116.13 108.26 119.33 108.48 119.78 115.48 116.13"/><polygon class="cls-24" points="115.48 116.13 122.48 112.48 122.23 112.04 115.48 116.13"/><polygon class="cls-23" points="115.48 116.13 108.48 119.78 108.73 120.22 115.48 116.13"/><polygon class="cls-25" points="115.48 116.13 122.23 112.04 121.96 111.61 115.48 116.13"/><polygon class="cls-26" points="115.48 116.13 108.73 120.22 109.01 120.65 115.48 116.13"/><polygon class="cls-25" points="115.48 116.13 121.96 111.61 121.65 111.21 115.48 116.13"/><polygon class="cls-26" points="115.48 116.13 109.01 120.65 109.31 121.05 115.48 116.13"/><polygon class="cls-27" points="115.48 116.13 121.65 111.21 121.33 110.82 115.48 116.13"/><polygon class="cls-28" points="115.48 116.13 109.31 121.05 109.64 121.44 115.48 116.13"/><polygon class="cls-29" points="115.48 116.13 121.33 110.82 120.97 110.46 115.48 116.13"/><polygon class="cls-28" points="115.48 116.13 109.64 121.44 109.99 121.8 115.48 116.13"/><polygon class="cls-29" points="115.48 116.13 120.97 110.46 120.6 110.12 115.48 116.13"/><polygon class="cls-28" points="115.48 116.13 109.99 121.8 110.36 122.14 115.48 116.13"/><polygon class="cls-29" points="115.48 116.13 120.6 110.12 120.2 109.8 115.48 116.13"/><polygon class="cls-28" points="115.48 116.13 110.36 122.14 110.76 122.46 115.48 116.13"/><polygon class="cls-30" points="115.48 116.13 120.2 109.8 119.79 109.51 115.48 116.13"/><polygon class="cls-31" points="115.48 116.13 110.76 122.46 111.17 122.75 115.48 116.13"/><polygon class="cls-32" points="115.48 116.13 119.79 109.51 119.36 109.25 115.48 116.13"/><polygon class="cls-31" points="115.48 116.13 111.17 122.75 111.61 123.01 115.48 116.13"/><polygon class="cls-32" points="115.48 116.13 119.36 109.25 118.91 109.02 115.48 116.13"/><polygon class="cls-31" points="115.48 116.13 111.61 123.01 112.06 123.24 115.48 116.13"/><polygon class="cls-33" points="115.48 116.13 118.91 109.02 118.44 108.81 115.48 116.13"/><polygon class="cls-34" points="115.48 116.13 112.06 123.24 112.52 123.45 115.48 116.13"/><polygon class="cls-33" points="115.48 116.13 118.44 108.81 117.97 108.64 115.48 116.13"/><polygon class="cls-34" points="115.48 116.13 112.52 123.45 112.99 123.62 115.48 116.13"/><polygon class="cls-35" points="115.48 116.13 117.97 108.64 117.48 108.49 115.48 116.13"/><polygon class="cls-36" points="115.48 116.13 112.99 123.62 113.48 123.77 115.48 116.13"/><polygon class="cls-35" points="115.48 116.13 117.48 108.49 116.99 108.38 115.48 116.13"/><polygon class="cls-36" points="115.48 116.13 113.48 123.77 113.97 123.88 115.48 116.13"/><polygon class="cls-35" points="115.48 116.13 116.99 108.38 116.49 108.3 115.48 116.13"/><polygon class="cls-36" points="115.48 116.13 113.97 123.88 114.47 123.96 115.48 116.13"/><polygon class="cls-35" points="115.48 116.13 116.49 108.3 115.99 108.25 115.48 116.13"/><polygon class="cls-36" points="115.48 116.13 114.47 123.96 114.97 124.01 115.48 116.13"/><polygon class="cls-37" points="115.48 116.13 115.99 108.25 115.48 108.23 115.48 116.13"/><polygon class="cls-37" points="115.48 116.13 114.97 124.01 115.48 124.02 115.48 116.13"/><polygon class="cls-37" points="115.48 116.13 115.48 108.23 114.97 108.25 115.48 116.13"/><polygon class="cls-37" points="115.48 116.13 115.48 124.02 115.99 124.01 115.48 116.13"/><polygon class="cls-36" points="115.48 116.13 114.97 108.25 114.47 108.3 115.48 116.13"/><polygon class="cls-35" points="115.48 116.13 115.99 124.01 116.49 123.96 115.48 116.13"/><polygon class="cls-36" points="115.48 116.13 114.47 108.3 113.97 108.38 115.48 116.13"/><polygon class="cls-35" points="115.48 116.13 116.49 123.96 116.99 123.88 115.48 116.13"/><polygon class="cls-36" points="115.48 116.13 113.97 108.38 113.48 108.49 115.48 116.13"/><polygon class="cls-35" points="115.48 116.13 116.99 123.88 117.48 123.77 115.48 116.13"/><polygon class="cls-36" points="115.48 116.13 113.48 108.49 112.99 108.64 115.48 116.13"/><polygon class="cls-35" points="115.48 116.13 117.48 123.77 117.97 123.62 115.48 116.13"/><polygon class="cls-34" points="115.48 116.13 112.99 108.64 112.52 108.81 115.48 116.13"/><polygon class="cls-33" points="115.48 116.13 117.97 123.62 118.44 123.45 115.48 116.13"/><polygon class="cls-34" points="115.48 116.13 112.52 108.81 112.06 109.02 115.48 116.13"/><polygon class="cls-33" points="115.48 116.13 118.44 123.45 118.91 123.24 115.48 116.13"/><polygon class="cls-31" points="115.48 116.13 112.06 109.02 111.61 109.25 115.48 116.13"/><polygon class="cls-32" points="115.48 116.13 118.91 123.24 119.36 123.01 115.48 116.13"/><polygon class="cls-31" points="115.48 116.13 111.61 109.25 111.17 109.51 115.48 116.13"/><polygon class="cls-32" points="115.48 116.13 119.36 123.01 119.79 122.75 115.48 116.13"/><polygon class="cls-31" points="115.48 116.13 111.17 109.51 110.76 109.8 115.48 116.13"/><polygon class="cls-30" points="115.48 116.13 119.79 122.75 120.2 122.46 115.48 116.13"/><polygon class="cls-28" points="115.48 116.13 110.76 109.8 110.36 110.12 115.48 116.13"/><polygon class="cls-29" points="115.48 116.13 120.2 122.46 120.6 122.14 115.48 116.13"/><polygon class="cls-28" points="115.48 116.13 110.36 110.12 109.99 110.46 115.48 116.13"/><polygon class="cls-29" points="115.48 116.13 120.6 122.14 120.97 121.8 115.48 116.13"/><polygon class="cls-28" points="115.48 116.13 109.99 110.46 109.64 110.82 115.48 116.13"/><polygon class="cls-29" points="115.48 116.13 120.97 121.8 121.33 121.44 115.48 116.13"/><polygon class="cls-28" points="115.48 116.13 109.64 110.82 109.31 111.21 115.48 116.13"/><polygon class="cls-27" points="115.48 116.13 121.33 121.44 121.65 121.05 115.48 116.13"/><polygon class="cls-26" points="115.48 116.13 109.31 111.21 109.01 111.61 115.48 116.13"/><polygon class="cls-25" points="115.48 116.13 121.65 121.05 121.96 120.65 115.48 116.13"/><polygon class="cls-26" points="115.48 116.13 109.01 111.61 108.73 112.04 115.48 116.13"/><polygon class="cls-25" points="115.48 116.13 121.96 120.65 122.23 120.22 115.48 116.13"/><polygon class="cls-23" points="115.48 116.13 108.73 112.04 108.48 112.48 115.48 116.13"/><polygon class="cls-24" points="115.48 116.13 122.23 120.22 122.48 119.78 115.48 116.13"/><polygon class="cls-23" points="115.48 116.13 108.48 112.48 108.26 112.93 115.48 116.13"/><polygon class="cls-24" points="115.48 116.13 122.48 119.78 122.7 119.33 115.48 116.13"/><polygon class="cls-23" points="115.48 116.13 108.26 112.93 108.07 113.4 115.48 116.13"/><polygon class="cls-24" points="115.48 116.13 122.7 119.33 122.89 118.86 115.48 116.13"/><polygon class="cls-23" points="115.48 116.13 108.07 113.4 107.91 113.88 115.48 116.13"/><polygon class="cls-22" points="115.48 116.13 122.89 118.86 123.05 118.38 115.48 116.13"/><polygon class="cls-21" points="115.48 116.13 107.91 113.88 107.78 114.37 115.48 116.13"/><polygon class="cls-20" points="115.48 116.13 123.05 118.38 123.18 117.89 115.48 116.13"/><polygon class="cls-21" points="115.48 116.13 107.78 114.37 107.69 114.87 115.48 116.13"/><polygon class="cls-20" points="115.48 116.13 123.18 117.89 123.28 117.39 115.48 116.13"/><polygon class="cls-18" points="115.48 116.13 107.69 114.87 107.62 115.37 115.48 116.13"/><polygon class="cls-19" points="115.48 116.13 123.28 117.39 123.34 116.89 115.48 116.13"/><polygon class="cls-18" points="115.48 116.13 107.62 115.37 107.59 115.88 115.48 116.13"/><polygon class="cls-19" points="115.48 116.13 123.34 116.89 123.37 116.38 115.48 116.13"/></g><path class="cls-38" d="M131,118.89l1.35,1.73h-1.75l-.67-.86a4,4,0,0,1-1.86.44,3.8,3.8,0,0,1-2.86-1.19,4.08,4.08,0,0,1-.61-4.84,4,4,0,0,1,1.46-1.46,3.89,3.89,0,0,1,2-.54,3.82,3.82,0,0,1,2.8,1.17,3.92,3.92,0,0,1,1.17,2.87,3.88,3.88,0,0,1-1,2.68Zm-.91-1.18a2.69,2.69,0,0,0,.46-1.51,2.56,2.56,0,0,0-.73-1.84,2.49,2.49,0,0,0-3.56,0,2.56,2.56,0,0,0-.72,1.87,2.44,2.44,0,0,0,.91,2,2.5,2.5,0,0,0,1.61.57,2.4,2.4,0,0,0,1-.19l-1.38-1.78h1.75Z"/><path class="cls-38" d="M133.25,114.35h1.44v2.72a3.59,3.59,0,0,0,.11,1.11,1,1,0,0,0,.35.48,1,1,0,0,0,.6.17,1.06,1.06,0,0,0,.6-.17,1,1,0,0,0,.37-.5,3.71,3.71,0,0,0,.09-1v-2.77h1.41v2.4a6,6,0,0,1-.23,2,2.19,2.19,0,0,1-.84,1,2.6,2.6,0,0,1-1.42.36,2.47,2.47,0,0,1-1.5-.42,2.13,2.13,0,0,1-.81-1.16,6.53,6.53,0,0,1-.17-1.86Z"/><path class="cls-38" d="M143.83,114.35h1.41V120h-1.41v-.6a2.74,2.74,0,0,1-.84.56,2.27,2.27,0,0,1-.91.18,2.53,2.53,0,0,1-1.89-.85,3,3,0,0,1-.81-2.11,3,3,0,0,1,.78-2.14,2.45,2.45,0,0,1,1.88-.83,2.38,2.38,0,0,1,1,.19,2.47,2.47,0,0,1,.83.57v-.63Zm-1.5,1.16a1.43,1.43,0,0,0-1.09.47,1.68,1.68,0,0,0-.44,1.19,1.73,1.73,0,0,0,.44,1.21,1.53,1.53,0,0,0,2.21,0,1.7,1.7,0,0,0,.44-1.21,1.67,1.67,0,0,0-.44-1.2A1.52,1.52,0,0,0,142.33,115.51Z"/><rect class="cls-8" x="146.52" y="112.17" width="1.42" height="7.84"/><path class="cls-38" d="M149.79,112a.85.85,0,0,1,.63.27.89.89,0,0,1,.27.65.91.91,0,0,1-.26.65.86.86,0,0,1-.64.26.87.87,0,0,1-.64-.27.9.9,0,0,1-.27-.66.83.83,0,0,1,.27-.63.85.85,0,0,1,.64-.27Zm-.72,2.32h1.42V120h-1.42Z"/><polygon class="cls-38" points="151.95 112.27 153.36 112.27 153.36 114.35 154.2 114.35 154.2 115.58 153.36 115.58 153.36 120.01 151.95 120.01 151.95 115.58 151.22 115.58 151.22 114.35 151.95 114.35 151.95 112.27"/><polygon class="cls-38" points="154.34 114.35 155.79 114.35 157.26 117.89 158.88 114.35 160.33 114.35 156.79 122.08 155.34 122.08 156.49 119.59 154.34 114.35"/><path class="cls-16" d="M108.41,137.25h53a8.48,8.48,0,0,1,8.45,8.45h0a8.48,8.48,0,0,1-8.45,8.45h-53A8.47,8.47,0,0,1,100,145.7h0A8.48,8.48,0,0,1,108.41,137.25Z"/><path class="cls-38" d="M127.19,148.62l1.14,1.44h-1l-.78-1a4.15,4.15,0,0,1-5-.59,3.84,3.84,0,0,1-1.17-2.82,4.11,4.11,0,0,1,.53-2,4,4,0,0,1,1.46-1.48,4.07,4.07,0,0,1,2-.53,4,4,0,0,1,4,4,4.07,4.07,0,0,1-.32,1.62,4.33,4.33,0,0,1-1,1.37Zm-.47-.6a3.26,3.26,0,0,0-.62-5.22,3.17,3.17,0,0,0-1.63-.44,3.13,3.13,0,0,0-1.62.44,3.23,3.23,0,0,0-1.19,1.19,3.34,3.34,0,0,0-.42,1.67,3.21,3.21,0,0,0,3.22,3.24,3.24,3.24,0,0,0,1.66-.44l-1.72-2.17h.95Z"/><path class="cls-38" d="M129.84,143.8h.73v2.63a5.61,5.61,0,0,0,.1,1.33,1.47,1.47,0,0,0,.6.82,1.81,1.81,0,0,0,1,.31,1.72,1.72,0,0,0,1-.3,1.45,1.45,0,0,0,.59-.77,5.6,5.6,0,0,0,.11-1.39V143.8h.74v2.77a4.44,4.44,0,0,1-.27,1.76,2,2,0,0,1-.82.92,3,3,0,0,1-2.76,0,2,2,0,0,1-.82-.93,4.39,4.39,0,0,1-.28-1.8Z"/><path class="cls-38" d="M142,143.8v5.65h-.72v-1a3,3,0,0,1-1,.83,2.88,2.88,0,0,1-3.3-.59,2.92,2.92,0,0,1-.84-2.11,2.88,2.88,0,0,1,.85-2.09,2.82,2.82,0,0,1,2.06-.86,2.6,2.6,0,0,1,1.26.29,2.69,2.69,0,0,1,1,.89v-1Zm-2.91.56a2.22,2.22,0,0,0-1.94,1.13,2.31,2.31,0,0,0-.3,1.14,2.22,2.22,0,0,0,.31,1.14,2.14,2.14,0,0,0,.82.84,2.07,2.07,0,0,0,1.11.31,2.24,2.24,0,0,0,1.12-.3,2.11,2.11,0,0,0,.83-.82,2.3,2.3,0,0,0,.28-1.15,2.22,2.22,0,0,0-.64-1.63A2.14,2.14,0,0,0,139.13,144.36Z"/><path class="cls-38" d="M143.69,143.8h.72v1a3,3,0,0,1,1-.87,2.4,2.4,0,0,1,1.16-.28,2,2,0,0,1,1.13.32,1.87,1.87,0,0,1,.72.87,4.41,4.41,0,0,1,.24,1.69v2.91h-.73v-2.69a6.29,6.29,0,0,0-.08-1.31,1.33,1.33,0,0,0-1.43-1.12,1.77,1.77,0,0,0-1.18.43,2,2,0,0,0-.69,1.08,7.32,7.32,0,0,0-.11,1.54v2.07h-.72Z"/><polygon class="cls-38" points="150.81 141.69 151.53 141.69 151.53 143.79 152.68 143.79 152.68 144.42 151.53 144.42 151.53 149.45 150.81 149.45 150.81 144.42 149.82 144.42 149.82 143.79 150.81 143.79 150.81 141.69"/><path class="cls-38" d="M154,141.47a.58.58,0,0,1,.43.18.61.61,0,0,1,.17.43.61.61,0,0,1-.17.42.58.58,0,0,1-.43.18.58.58,0,0,1-.42-.18.61.61,0,0,1-.17-.42.61.61,0,0,1,.17-.43.58.58,0,0,1,.42-.18Zm-.36,2.33h.73v5.65h-.73Z"/><polygon class="cls-38" points="156.55 141.69 157.27 141.69 157.27 143.79 158.42 143.79 158.42 144.42 157.27 144.42 157.27 149.45 156.55 149.45 156.55 144.42 155.56 144.42 155.56 143.79 156.55 143.79 156.55 141.69"/><polygon class="cls-38" points="158.92 143.79 159.68 143.79 161.63 148.13 163.53 143.79 164.3 143.79 160.93 151.52 160.15 151.52 161.26 148.99 158.92 143.79"/><path class="cls-18" d="M112.29,151.27a5.57,5.57,0,1,0-5.57-5.57A5.58,5.58,0,0,0,112.29,151.27Z"/><path class="cls-11" d="M112.29,150A4.33,4.33,0,1,0,108,145.7,4.34,4.34,0,0,0,112.29,150Z"/><polygon class="cls-18" points="111.63 145 111.8 145.03 111.77 144.12 111.77 145 111.63 145"/><path class="cls-18" d="M112.78,146.24c.3,0,.67.16.67.44v.07c0,.29-.37.5-.67.5v-1Zm-1-2.12,0,.91-.17,0a.38.38,0,0,1-.37-.34v-.1c0-.23.28-.42.51-.44Zm1,0a.6.6,0,0,1,.58.64h1v-.1a1.72,1.72,0,0,0-1.62-1.55v-.71h-1v.71a1.71,1.71,0,0,0-1.59,1.41v.24c0,.88.85,1.14,1.59,1.32v1.17a.82.82,0,0,1-.61-.8h-1a2,2,0,0,0,1.66,1.82V149h1v-.74a1.82,1.82,0,0,0,1.72-1.49v-.37c0-.7-1-1.21-1.72-1.21Z"/><path class="cls-13" d="M133.44,128.53a2.64,2.64,0,0,1,1.28.34,2.51,2.51,0,0,1,.93,3.44,2.39,2.39,0,0,1-.92.92,2.49,2.49,0,0,1-1.29.34,2.51,2.51,0,0,1-2.49-2.52,2.43,2.43,0,0,1,.82-1.87,2.46,2.46,0,0,1,1.67-.65Zm0,1.13a1.24,1.24,0,0,0-.94.39,1.37,1.37,0,0,0-.37,1,1.4,1.4,0,0,0,.37,1,1.22,1.22,0,0,0,.93.39,1.25,1.25,0,0,0,.94-.4,1.38,1.38,0,0,0,.38-1,1.36,1.36,0,0,0-.37-1A1.23,1.23,0,0,0,133.46,129.66Z"/><path class="cls-13" d="M136.69,128.65h1v.61a1.26,1.26,0,0,1,.44-.54,1,1,0,0,1,.6-.19,1,1,0,0,1,.49.13l-.37,1a.73.73,0,0,0-.35-.11.53.53,0,0,0-.46.34,3.09,3.09,0,0,0-.2,1.35v2.17h-1.2Z"/><rect class="cls-39" x="86.59" y="192.12" width="96.66" height="28.95"/><rect class="cls-40" x="86.59" y="188.68" width="96.66" height="3.44"/></g><path class="cls-41" d="M95.67,17.68h78.5a10.52,10.52,0,0,1,10.49,10.48h0v164h0a10.52,10.52,0,0,1-10.49,10.49H95.67a10.52,10.52,0,0,1-10.49-10.49h0V28.17h0A10.52,10.52,0,0,1,95.67,17.68Zm58.42,2.82a3.56,3.56,0,0,0-1.74,3.06,3.57,3.57,0,0,1-3.56,3.55H121.07a3.56,3.56,0,0,1-3.55-3.55h0a3.57,3.57,0,0,0-1.75-3.06H95.67A7.73,7.73,0,0,0,88,28.17h0v164h0a7.7,7.7,0,0,0,7.67,7.67h78.5a7.68,7.68,0,0,0,7.67-7.67h0V28.17h0a7.72,7.72,0,0,0-7.67-7.67H154.09Z"/><path class="cls-42" d="M206.61,175c-2.53-2.49-4.22-2.58-6.74-5.09s-6.75-3.39-9.7-5-4.22-5.19-8.86-5.41-7.16,5.4-8,6.58-1.13-16.48-2-27.32c-.11-1.5.75-16.19-2.51-19.06-1.26-1.11-5.24-1.18-7.19.13-2.59,1.72-2.5,3.42-2.5,4.51v60.83c-1.29.94-6.84,3.91-9,.47-2.53-4-8.43-15-16-17.49s-7.75,3.81-6.28,5.41,7.49,12.3,10.86,21.29,12.22,23.06,15.6,27.61c1.3,1.76,2.36,6.52,3.16,11.69a70.81,70.81,0,0,0,14.94,1.67,124.33,124.33,0,0,0,21.42-1.41c.07-.64.14-1.27.21-1.88.94-8.15,16.35-46.24,16.35-50.49S209.14,177.44,206.61,175Z"/><path class="cls-43" d="M163.47,121.95h3a2,2,0,0,1,2,2v4.79a2,2,0,0,1-2,2h-3a2,2,0,0,1-2-2v-4.79A2,2,0,0,1,163.47,121.95Z"/><path class="cls-44" d="M127.87,173.57s1.81-3.36,3.82-1.39,3.65,3.68,3.65,5.07c0,1.82-3.65,2.53-3.65,2.53Z"/><path class="cls-45" d="M78.2,76.08c.57-1.81,3.88-3.34,2.88-5-.9-1.48-3.58-2.48-4,3.91Z"/><path class="cls-45" d="M77.78,72c1.49,2.72,3.4.9,3.87.09s-.29-3.27-1-3.76S77.2,71,77.78,72Z"/><path class="cls-45" d="M79.19,69.38c0-1.78-.7-4-1.17-4s.27,1.88,0,3.39-.37,2.7.11,3S79.23,71.16,79.19,69.38Z"/><path class="cls-45" d="M81.08,68.1c.6-1,.7-1.87.43-2.14s-.57.36-1.16,1.41S78.76,69.46,79,69.74,80.48,69.15,81.08,68.1Z"/><path class="cls-45" d="M82.09,69.6c.78-.82,1.11-2.13.88-2.46s-.77.72-1.56,1.54-1.25,1.41-1,1.73S81.3,70.41,82.09,69.6Z"/><path class="cls-45" d="M82.27,71.54c.75-.87,1-1.65.75-2s-.62.42-1.37,1.28-1.27,1.49-1,1.81S81.52,72.41,82.27,71.54Z"/><polygon class="cls-46" points="76.18 73.24 74.56 76.18 79.31 78.32 80.21 75.39 76.18 73.24"/><path class="cls-13" d="M52.19,96.93s13.87,4.87,16.67,3.26,1.24-12.7-.52-11.87c-2.9,1.38-12.69-5.34-15.27-3.8C51.35,85.55,51,96.07,52.19,96.93Z"/><path class="cls-47" d="M69.73,98.23c-2.69,1.32-14-1.69-18.08-2.84a2.65,2.65,0,0,0,.54,1.54s13.87,4.87,16.67,3.26A3.33,3.33,0,0,0,70.13,98,2,2,0,0,1,69.73,98.23Z"/><path class="cls-13" d="M68.86,100C71,99.52,80.62,80.7,80.36,79s-4.31-3.84-6.91-3.84C72,77.29,66.8,87.47,66.55,88.12,65.13,91.79,67.09,100.33,68.86,100Z"/><path class="cls-47" d="M67.54,98.7l-.15,0c.47,1,1,1.6,1.63,1.45C71.15,99.64,80.62,80.7,80.36,79a1.68,1.68,0,0,0-.16-.44C77.71,84.1,69.32,98.26,67.54,98.7Z"/><path class="cls-48" d="M33.55,86,30.81,75,40,73.1l3.2,12S36.09,88,33.55,86Z"/><path class="cls-10" d="M52.65,206.71c.32-1.2,0-5.51,0-10,0-.53-.29-3.07-.59-5.47a77.76,77.76,0,0,1,.73-10.86c1.59-9.64,4.69-40.13,1.33-55.93L29.71,130s.79,29.74,3.72,41.77,2.77,38.75,2.77,38.75h2.43A161.71,161.71,0,0,0,40.28,187a51.93,51.93,0,0,0-1.71-11.16c-.87-3.66,1.37-27.07,4.16-28.38,3.16-1.49,3.45,13,4.51,26.06,1,12.9-2.53,7.52,2,32.77,0,.24-.05.52-.06.83a6.54,6.54,0,0,0,1,4,2,2,0,0,0,1.76-.41h.79s0-.18,0-.49l.8-.54s.44-1.58-.17-2.18C53.19,207.38,53,207.08,52.65,206.71Z"/><path class="cls-49" d="M36.82,209.32s2.71-26.64-2-39c-4.42-11.58-2.11-35-2.11-35l22.22-6.12c-.21-1.71-.47-3.32-.78-4.8L29.71,130s.79,29.74,3.72,41.77,2.77,38.75,2.77,38.75Z"/><path class="cls-49" d="M53.63,208.79l-.33.22c0,.31,0,.48,0,.48h-.79a2.07,2.07,0,0,1-1.76.42,6.54,6.54,0,0,1-1-4c0-.31,0-.59.06-.83-4.53-25.26-1-19.88-2-32.77-1.06-13.1-1-26.53-4.11-25.05-.39.18-1.16-.23-1.51.67a1.3,1.3,0,0,1,.49-.46c3.16-1.49,3.45,13,4.51,26.06,1,12.9-2.53,7.52,2,32.77,0,.24-.05.52-.06.83a6.54,6.54,0,0,0,1,4,2,2,0,0,0,1.76-.41h.79s0-.18,0-.49l.8-.54A4.58,4.58,0,0,0,53.63,208.79Z"/><path class="cls-49" d="M36.79,210.76a1.71,1.71,0,0,1-1.29-1.87c0-.88,1.53-3.84,1.53-3.84Z"/><path class="cls-50" d="M38.07,211.12c1.06,0,2.4.21,2.15-1-.11-.54.15-4.85,0-8.56-.18-4.49-.77-8.45-.77-8.45Z"/><polygon class="cls-51" points="31.13 134.87 51.16 127.72 50.72 126.8 34.97 130.65 31.13 134.87"/><path class="cls-46" d="M29.53,131.94c5.56.21,22.12-4,24-6.19L52.38,84.54c-3.44-.38-6.71-.26-9.46-.85-3.85,2.77-5.84,3.1-9.81,2.68a53.75,53.75,0,0,0-8,4.72Z"/><polygon class="cls-52" points="36.28 88.62 38.61 89.6 40.13 87.18 38.67 86 37.01 86.33 36.28 88.62"/><polygon class="cls-52" points="38.01 88.62 40.07 123.74 42.9 127.15 44.76 123.65 38.87 88.62 38.01 88.62"/><path class="cls-53" d="M32.19,144c0-.84.06-1.63.09-2.37a29,29,0,0,0,6.45-8l1.33-.37A33.23,33.23,0,0,1,32.19,144Z"/><path class="cls-54" d="M30.41,145.33c-.05-.72-.09-1.43-.13-2.13a24,24,0,0,0,2-1.55c0,.74-.07,1.53-.09,2.37a15.38,15.38,0,0,1-1.78,1.31Zm8.32-11.63c.33-.6.65-1.23,1-1.88l1.23-.45c-.27.67-.55,1.33-.86,2Z"/><path class="cls-55" d="M39.69,131.82c.22-.48.43-1,.63-1.46l1.08-.26c-.15.43-.31.86-.48,1.27Z"/><path class="cls-56" d="M40.32,130.36a30.42,30.42,0,0,0,1.42-4.61l.69.83a29.14,29.14,0,0,1-1,3.52Z"/><path class="cls-53" d="M55.64,141.17c-4.63-1.41-8.1-5.68-10.31-9.29l.69-.19A19.68,19.68,0,0,0,55.59,139C55.61,139.7,55.63,140.43,55.64,141.17Z"/><path class="cls-54" d="M45.33,131.88c-.36-.6-.69-1.18-1-1.73l.54-.19c.37.62.75,1.19,1.14,1.73Z"/><path class="cls-55" d="M44.34,130.15c-.13-.24-.26-.47-.37-.7l.53-.15c.12.23.25.45.38.66Z"/><path class="cls-56" d="M44,129.45c-.51-1-.88-1.81-1.13-2.38l.06.08.29-.54a25,25,0,0,0,1.31,2.69Z"/><path class="cls-57" d="M42.9,127.15l-.06-.08c-.22-.52-.33-.82-.33-.82s0,.22-.08.33l-.69-.83c.15-.65.28-1.33.4-2a27.55,27.55,0,0,0,1,2.88Z"/><path class="cls-58" d="M40.72,99.63l-.29-1.75a57.91,57.91,0,0,1,1.45-8.4l.47-.21A61,61,0,0,0,40.72,99.63Z"/><path class="cls-58" d="M38.53,97.55a42.63,42.63,0,0,0-3.06-6.49l.5,0c.73,1.39,1.68,3.54,2.5,5.49Z"/><path class="cls-59" d="M40.62,105.11l-.07-.21a41.67,41.67,0,0,0-2-7.35l-.06-1c1,2.37,1.8,4.43,1.8,4.43a26.49,26.49,0,0,1,.16-3.06l.29,1.75C40.58,101.74,40.57,103.58,40.62,105.11Z"/><path class="cls-13" d="M42.33,113.83C40.67,98.55,32,86.59,32,86.59L20.24,93a90.22,90.22,0,0,0,3.27,12.5c.59,4.06,2.06,9.69,3,8.79l0,.16c-.61,1.07-.62,2,.34,1.72,1.59,9.29,1.24,27.36,2.47,27.66C29.31,143.82,44.65,135.31,42.33,113.83Z"/><path class="cls-58" d="M41.05,109.1c-.7-6.57-1.83-12-8.79-22.2l-3.55,1.48c-.65.36-.08.69.18,1.07C30.29,91.53,38.82,99.53,41.05,109.1Z"/><path class="cls-47" d="M26.47,114.28l0,.16c-.61,1.07-.62,2,.34,1.72,1.59,9.29,1,27,2.47,27.66h0c-.15-7.29-.37-20.63-.77-27.28-.55-9.41-5.15-13-5.53-12.6l.49,1.56C24.1,109.55,25.57,115.18,26.47,114.28Z"/><path class="cls-13" d="M56.54,139.24s-14-2.66-16-23.57c-1.11-11.92,3.68-31.89,3.68-31.89l10.6.59s2.21,14.17,0,22.78C51.63,119.25,56.54,128,56.54,139.24Z"/><path class="cls-47" d="M41,110s-2.18-11.7,3-26.5l3.09-.13a.66.66,0,0,1,.54,1C46.42,86.57,42.87,93.45,41,110Z"/><path class="cls-47" d="M41.08,110.08A41.19,41.19,0,0,0,32.3,86.33l-3,1.34a.68.68,0,0,0-.47,1C30.22,90.87,39.6,98.64,41.08,110.08Z"/><path class="cls-13" d="M28.45,100.53S19,111.67,15,114.94c-2.76,2.26-9.21.08-8.52-1.88.86-2.43,12-20,14-20.15S29,99,28.45,100.53Z"/><path class="cls-47" d="M12.32,114.88a7.38,7.38,0,0,1-2,.88,6,6,0,0,0,4.73-.82,118.11,118.11,0,0,0,9.7-10.13C20.58,108.46,15,113.21,12.32,114.88Z"/><path class="cls-58" d="M43.25,119a.94.94,0,0,0-.81-1.05,1,1,0,0,0-.91,1,.87.87,0,1,0,1.72.08Z"/><path class="cls-47" d="M43.41,118.64a.87.87,0,1,0-1.72-.08.87.87,0,1,0,1.72.08Z"/><path class="cls-58" d="M42.92,114.07a1,1,0,0,0-.88-1,.92.92,0,0,0-.84,1,1,1,0,0,0,.88,1A.91.91,0,0,0,42.92,114.07Z"/><path class="cls-47" d="M43,113.66a1,1,0,0,0-.89-1,.92.92,0,0,0-.84,1,1,1,0,0,0,.89,1A.93.93,0,0,0,43,113.66Z"/><polygon class="cls-60" points="31.57 86.59 32.3 84.95 38.14 86.07 35.82 89.73 31.57 86.59"/><polygon class="cls-60" points="44.41 83.45 43.52 82.34 37.88 86.13 41.22 88.6 44.41 83.45"/><path class="cls-46" d="M46.53,103.05h4.52s-1.51-2.71-2.39-2.46S46.53,103.05,46.53,103.05Z"/><path class="cls-61" d="M58.08,211.23H50.35S51.58,209,52.41,209C53.67,209,58.08,211.23,58.08,211.23Z"/><path class="cls-61" d="M32,211.23h6.88s-.56-2.1-1.3-2.1C36.44,209.13,32,211.23,32,211.23Z"/><path class="cls-49" d="M39.2,146.72a5.61,5.61,0,0,0,5.39,1.33c1.11-.33,2.41-1.65,3.69-2.75a38.84,38.84,0,0,1-5,1.51A18,18,0,0,1,39.2,146.72Z"/><polygon class="cls-62" points="44.74 130.65 41.65 131.11 41.86 132.53 44.95 132.08 44.74 130.65"/><path class="cls-58" d="M50.82,120.87l3.44.43.31,2.66S51,123.74,50.82,120.87Z"/><path class="cls-47" d="M50.72,120.81l3.54-.18.37,2.57S51.37,122.83,50.72,120.81Z"/><path class="cls-47" d="M30.06,124.78l-2.47,1.61.57,2.53S30.75,127.49,30.06,124.78Z"/><path class="cls-63" d="M30.29,124.46l-3,1,.25,2.53S30.42,126.57,30.29,124.46Z"/><path class="cls-47" d="M23.69,106.08s1.76-2.66,2.23-2.8-1.72,3.44-1.72,3.44Z"/><path class="cls-47" d="M24.71,105.16a8.41,8.41,0,0,1,2.09-.09c.46.15-2.56,1.71-2.56,1.71Z"/><path class="cls-47" d="M26.8,113.6s3.21-1.21,3.68-1.06a20.33,20.33,0,0,0-4.14,2.68Z"/><path class="cls-47" d="M68.83,99.38c.59-.41-2.2-3-2.42-4.77,0,0,.28,3.76,1.09,4.77A3.9,3.9,0,0,0,68.83,99.38Z"/><path class="cls-64" d="M68.86,99.33c.37-.62-3.23-1.84-4.17-3.4,0,0,1.8,3.33,3,3.93C67.64,99.86,68.72,99.55,68.86,99.33Z"/><path class="cls-47" d="M52.74,108.83a21.59,21.59,0,0,0,1.14,10,33.8,33.8,0,0,1,.93-11.63,41,41,0,0,0,1.25-10.58l-1.77-.7S53.54,101.61,52.74,108.83Z"/><path class="cls-47" d="M56,98.13s-3.29-4-2.69-3.58c1.11.86,3.38,2.66,3.38,2.66Z"/><path class="cls-65" d="M49.28,84.06,47.8,84a.34.34,0,0,0,0-.1.51.51,0,0,1,0,.09c.17,0,.66,0,1.47.09Zm-1.68-.55a.77.77,0,0,0-.43-.19l-1.72.07,1.74-.09A.79.79,0,0,1,47.6,83.51Z"/><path class="cls-66" d="M36,91l-.16-.29c.33-.55.68-1.21,1-1.88l1.24.52.08,1.34A18.72,18.72,0,0,1,36,91Zm3.21-.55L39,89.06l.85-1.35c.81.66,1.66,1.33,2.09,1.74v0A18.92,18.92,0,0,1,39.18,90.47Z"/><path class="cls-67" d="M38.05,89.37l-1.24-.52c.37-.77.71-1.54.94-2.16l.28-.44.1.07c.36.34,1,.86,1.67,1.39L39,89.06l-.08-.44H38Z"/><path class="cls-67" d="M38.13,90.71l-.08-1.34,0-.75h.86l.08.44.23,1.41-.83.2Z"/><path class="cls-68" d="M41.88,89.48v0c-.43-.41-1.28-1.08-2.09-1.74l.07-.11,1.35,1,2.47-4c-.53,1.6-1,3.15-1.34,4.66Z"/><path class="cls-68" d="M35.47,91.06c-.57-1-1.2-2-1.89-3l2.24,1.65.65-1,.34.15c-.32.67-.67,1.33-1,1.88L36,91Z"/><path class="cls-69" d="M36.81,88.85l-.34-.15,1.28-2c-.23.62-.57,1.39-.94,2.16Zm3-1.14c-.67-.53-1.31-1-1.67-1.39l1.74,1.28Z"/><path class="cls-47" d="M29.76,90.54A9,9,0,0,1,27,89.35l1.6-.87c-.39.32.11.62.34,1A12.25,12.25,0,0,0,29.76,90.54Z"/><path class="cls-68" d="M30.57,90.73l-.81-.19a12.25,12.25,0,0,1-.87-1.09c-.23-.35-.73-.65-.34-1l0,0,.12-.08h0a.75.75,0,0,0,.1.32A20.78,20.78,0,0,0,30.57,90.73Z"/><path class="cls-47" d="M46.39,86.93a29,29,0,0,1,1.32-2.62A.6.6,0,0,0,47.8,84l1.48.09A8.35,8.35,0,0,1,46.39,86.93Z"/><path class="cls-70" d="M42.35,89.27c.37-1.51.81-3.06,1.34-4.66l.72-1.16,1-.06,1.72-.07a.77.77,0,0,1,.43.19.7.7,0,0,1,.19.36.34.34,0,0,1,0,.1.6.6,0,0,1-.09.34,29,29,0,0,0-1.32,2.62A26.93,26.93,0,0,1,42.35,89.27Z"/><path class="cls-70" d="M34.24,91.09a17.9,17.9,0,0,1-3.67-.36,20.78,20.78,0,0,1-1.74-2,.75.75,0,0,1-.1-.32h0a.66.66,0,0,1,.57-.7l2.32-1,2,1.45c.69,1,1.32,2,1.89,3Z"/><path class="cls-71" d="M38,86l-4.67-.89L31,75.85l-.13-.53A5.86,5.86,0,0,1,33,74.59a7.45,7.45,0,0,1,1.06-.07,14.89,14.89,0,0,1,6.85,2.1l1.69,6.32Z"/><polygon class="cls-72" points="35.82 89.73 33.58 88.08 31.62 86.63 31.62 86.63 31.57 86.59 32.3 84.95 33.34 85.15 33.34 85.15 38.01 86.04 37.88 86.13 38.03 86.25 37.75 86.69 36.47 88.7 35.82 89.73"/><polygon class="cls-72" points="41.22 88.6 39.87 87.6 38.13 86.32 38.03 86.25 37.88 86.13 38.01 86.04 42.62 82.94 42.62 82.94 43.52 82.34 44.41 83.45 43.69 84.61 41.22 88.6"/><path class="cls-16" d="M26,67.07c-1.08-1.12-3.91-8.8.86-12.29-.55,3.06,1.56,1.72,3.42,1,7.15-2.9,9.23-.06,10.45,4.1C42,64.2,26,67.07,26,67.07Z"/><path class="cls-10" d="M28.85,59.12c1-1.19,5.28-5.74,9.07-3.8,2.42,1.23,3,5.08,3,5.08Z"/><path class="cls-10" d="M25.64,59.09a9,9,0,0,1,1-4.21c-4.91,3.54-2.28,11-1.21,12.1,0,0,1.55-.26,3.66-.75A9.05,9.05,0,0,1,25.64,59.09Z"/><path class="cls-45" d="M27.28,65.85s3.32,11.87,6.37,13,11.17,1.57,11.8.6c2.23-3.42,1.77-9.35-3.68-15.89-.67-.8.37-1.9-.08-2.63-2.94-4.79-5-6.43-9.12-4.54S26,61.73,27.28,65.85Z"/><path class="cls-73" d="M41.77,63.54c-.65-.77.29-1.82-.05-2.56l-.18,0c-5.86,1.06-1.52,4.33-.06,8.21,1.13,3,3,6.26,5.17,6.62C47,72.48,45.63,68.17,41.77,63.54Z"/><path class="cls-74" d="M40.29,65.67c-.32-.52-.41-1.72.27-1.88s1,1.12,1.12,1.64C41.82,66.28,40.78,66.48,40.29,65.67Z"/><path class="cls-16" d="M29.5,73.41c-3.16.27-6.13-4-6.19-7.29C23.22,60.37,28,58.86,29.25,59c1.89.16,3.49,15,3.49,15a4.24,4.24,0,0,1-1.47.9c-.47.14-1.12-2.27-1.41-1.93S29.57,73.4,29.5,73.41Z"/><path class="cls-10" d="M31.43,73.32c-1.95-5.23-5.44-7.83-7.82-9.67a8.85,8.85,0,0,0-.43,2.61c0,3.24,3.16,7.42,6.32,7.15.07,0,0-.08.36-.49s.94,2.07,1.41,1.93a3.36,3.36,0,0,0,.83-.4A3.72,3.72,0,0,1,31.43,73.32Z"/><path class="cls-16" d="M33.73,72.28C31.84,71,32.2,67.94,31,64.41c-1.38-.08-3.62,3.64-3.09,5.38,0,0,2.92,8.39,6,9.51s9.3,2.23,12.89,1.11c4-1.24,1-8.19-.94-10.93-1.16-1.2-2.58-.34-3.81,0C39.17,70.44,38.29,75.45,33.73,72.28Z"/><path class="cls-10" d="M34.13,78.32c-2.72-1-2.42-8.53-6.58-11.08a5.22,5.22,0,0,0,.11,2.45s3,8.75,6.07,9.86,9.12,1.93,12.75,1A42,42,0,0,1,34.13,78.32Z"/><path class="cls-45" d="M28.44,70.9c-1.78-.25-3.23.58-3.13,2.23s4,2.56,5.18,1.51S30.14,71.13,28.44,70.9Z"/><path class="cls-45" d="M40.34,70.58s4,.38,4.18-.27-5.67-6-5.67-6S39.88,70.16,40.34,70.58Z"/><path class="cls-48" d="M28.23,71.68c-1.14-.1-2,.47-1.92,1.52s2.61,1.49,3.34.79S29.31,71.77,28.23,71.68Z"/><path class="cls-45" d="M29.36,72.77c-.66-.06-1.18.27-1.11.88s1.51.87,1.94.46S30,72.82,29.36,72.77Z"/><path class="cls-10" d="M29.82,70.13a11.76,11.76,0,0,1-2.1-6.33s-.81,3.15.15,4.92S29.82,70.13,29.82,70.13Z"/><path class="cls-10" d="M25.1,67.92A11.77,11.77,0,0,1,26,61.31s-2.1,2.5-2,4.51S25.1,67.92,25.1,67.92Z"/><path class="cls-10" d="M24.49,61.61a9,9,0,0,1,4.21-2.77s-2.47.06-3.57,1.1S24.49,61.61,24.49,61.61Z"/><path class="cls-10" d="M24.62,67.38a11.64,11.64,0,0,1,.48-6.64s-2,2.61-1.75,4.61S24.62,67.38,24.62,67.38Z"/><path class="cls-73" d="M37.13,66.18c.67-.59.93-3.12-.1-3.25s-4.09,2.79-4,3.44S36.15,67.05,37.13,66.18Z"/><path class="cls-10" d="M33,64.65s0,.8.49.83,1.74-1.83,3.79-2.57c0,0-.16-1.44-.75-1.44S33.14,64,33,64.65Z"/><path class="cls-10" d="M41.51,60s.4.69.28,1S40.06,61,38.88,62c0,0-1.07-1-.89-1.47S41,59.77,41.51,60Z"/><path class="cls-47" d="M42,123a25.61,25.61,0,0,1-1.3-6.21A43.83,43.83,0,0,1,41,110a20.7,20.7,0,0,0-.68,6.67A20,20,0,0,0,42,123Z"/><path class="cls-64" d="M78,79.08a.73.73,0,0,0-.73.74.78.78,0,0,0,1.55-.08A.75.75,0,0,0,78,79.08Z"/><path class="cls-75" d="M77.87,78.92a.68.68,0,0,0-.68.69.72.72,0,1,0,.68-.69Z"/><path class="cls-76" d="M39.36,73.68l5-1.71s.93,2.58.28,3.13S40.43,77.19,39.36,73.68Z"/><polygon class="cls-77" points="44.02 72.24 44.31 73.46 40.16 74.69 39.62 73.73 44.02 72.24"/><path class="cls-74" d="M35.48,67.07c-.32-.52-.41-1.73.27-1.89s1,1.13,1.13,1.64C37,67.68,36,67.88,35.48,67.07Z"/><path class="cls-78" d="M42.66,76.54a3.27,3.27,0,0,0,1.83-.63s-.16.92-.87.94A1.09,1.09,0,0,1,42.66,76.54Z"/><rect class="cls-79" x="45.68" y="102.59" width="6.05" height="1.05"/><path class="cls-45" d="M27.34,132c1.26.14,2-.44,1.89-.91,0-.17-3.42-1.27-3.69-.62C25.36,130.88,26.07,131.81,27.34,132Z"/><path class="cls-80" d="M31,130.89c.51-.1.93.09,1,.46l.47,2.3a.44.44,0,0,1-.13.39,1,1,0,0,1-.45.25l-6.23,1.28c-.42.08-.78-.08-.85-.39l-.45-2.2a.64.64,0,0,1,.19-.55,1.23,1.23,0,0,1,.63-.35Z"/><path class="cls-81" d="M26.29,131.86a3.16,3.16,0,0,0,1.39,2.59,3.74,3.74,0,0,0,1,.49l-3.05.63c-.42.08-.78-.08-.85-.39l-.45-2.2a.64.64,0,0,1,.19-.55,1.23,1.23,0,0,1,.63-.35Z"/><path class="cls-82" d="M31,130.39c.51-.1.94.11,1,.5l.51,2.47a.52.52,0,0,1-.13.41.79.79,0,0,1-.45.26l-6.22,1.28c-.43.08-.8-.1-.86-.43l-.49-2.35a.71.71,0,0,1,.19-.58,1.16,1.16,0,0,1,.63-.37Z"/><path class="cls-83" d="M29.42,130.83a4.78,4.78,0,0,1,1.9,3.33l-2.77.56a7.17,7.17,0,0,1-1.72-1.15,6.79,6.79,0,0,1-1.58-2l4.06-.84Z"/><polygon class="cls-84" points="30.81 134.28 30.82 134.46 29.61 134.72 29.6 134.53 30.81 134.28"/><polygon class="cls-85" points="30.98 131.77 31.06 132.66 30.31 132.83 30.09 132.03 30.98 131.77"/><polygon class="cls-81" points="30.92 131.85 30.99 132.61 30.35 132.76 30.16 132.07 30.92 131.85"/><polygon class="cls-83" points="30.73 132.1 30.76 132.45 30.47 132.52 30.38 132.21 30.73 132.1"/><path class="cls-45" d="M26.13,134.2c.11-.14.8.58,1,.8s.31.42.14.48C26.86,135.64,26,134.4,26.13,134.2Z"/><path class="cls-45" d="M27.56,134.63c0-.19.72.06,1,.22s.25.21.12.33C28.34,135.52,27.55,135.08,27.56,134.63Z"/><path class="cls-45" d="M28.88,134.13c0-.18.62.28.94.47s.37.23.24.36C29.72,135.29,28.86,134.72,28.88,134.13Z"/><path class="cls-45" d="M23.22,129.43c1.87,1,2.1,4.83,3.28,4.15s1.87-3.18-2.49-5.07Z"/><path class="cls-45" d="M26,129.91c-2.11-.45-.78,3.37-.25,4s2.95.19,2.64-.5C27.45,131.34,28.81,130.51,26,129.91Z"/><path class="cls-45" d="M28.23,133.88c.69.86,1.24,1.15,1.44.94s-.22-.42-.91-1.28-1.35-2.4-1.56-2.18S27.54,133,28.23,133.88Z"/><path class="cls-45" d="M27,134.05c.52,1,1.21,1.24,1.44,1.07s-.45-1-1-2-.91-1.63-1.14-1.47S26.49,133,27,134.05Z"/><path class="cls-45" d="M25.47,133.61c.53,1,1.05,1.44,1.28,1.28s-.23-.76-.76-1.76-.81-2.07-1-1.91S25,132.61,25.47,133.61Z"/><polygon class="cls-46" points="26.54 128.45 24.25 125.87 21.11 129.65 23.41 131.63 26.54 128.45"/><path class="cls-86" d="M25.18,128.57a3.65,3.65,0,0,1,1.2-.3l-2.13-2.4-3.14,3.78,2.21,1.91C23,130.51,23.77,129.18,25.18,128.57Z"/><path class="cls-13" d="M6.63,113.08c-.66,2.2,10.92,15.74,13.5,17.85,1.39,1.14,5.94-5.4,5.23-6.7-1.12-2-7.72-9.9-8.23-11.49C16,109.38,7.3,110.87,6.63,113.08Z"/><path class="cls-47" d="M25.19,125.62a1.93,1.93,0,0,0,.17-1.39c-1.12-2-7.55-9.83-8.06-11.43a2.77,2.77,0,0,0-.83-1C16.67,115.17,23.4,123,25.19,125.62Z"/><path class="cls-47" d="M6.94,112.65a1.5,1.5,0,0,0-.37.58c-.66,2.2,11,15.59,13.56,17.7a.81.81,0,0,0,.9,0C17.77,127.74,8.27,116.33,6.94,112.65Z"/><path class="cls-64" d="M19.43,127.17a.75.75,0,0,0-1-.14.73.73,0,0,0-.06,1,.75.75,0,0,0,1.05.14A.74.74,0,0,0,19.43,127.17Z"/><path class="cls-75" d="M19.47,127a.7.7,0,0,0-1-.13.68.68,0,0,0-.05,1,.7.7,0,0,0,1,.13A.68.68,0,0,0,19.47,127Z"/><path class="cls-47" d="M17.71,112.51s-2.28-.83-2.48-1.23,2.84.53,2.84.53Z"/><path class="cls-47" d="M17.42,112.36s-2.26.88-2.68.71,2.47-1.47,2.47-1.47Z"/><path class="cls-47" d="M7.1,113.9C8,112.09,14.85,99.83,19,94.05c-3.66,3.94-11.77,17-12.5,19A1.19,1.19,0,0,0,7,114.28,2.3,2.3,0,0,1,7.1,113.9Z"/></g></g></svg>