<svg xmlns="http://www.w3.org/2000/svg" xmlns:xlink="http://www.w3.org/1999/xlink" viewBox="0 0 177.28 306.67"><defs><style>.cls-1,.cls-29,.cls-31{fill:none;}.cls-1{clip-rule:evenodd;}.cls-2{clip-path:url(#clip-path);}.cls-3{fill:url(#GradientFill_14);}.cls-4{fill:#4d95d0;}.cls-10,.cls-11,.cls-12,.cls-13,.cls-14,.cls-15,.cls-16,.cls-17,.cls-18,.cls-19,.cls-20,.cls-21,.cls-22,.cls-23,.cls-24,.cls-25,.cls-26,.cls-27,.cls-28,.cls-29,.cls-30,.cls-31,.cls-32,.cls-33,.cls-4,.cls-5,.cls-6,.cls-7,.cls-8,.cls-9{fill-rule:evenodd;}.cls-5{fill:#95c5ea;}.cls-6{fill:#e4f1fb;}.cls-7{fill:#465b65;}.cls-8{fill:#546e79;}.cls-9{fill:#f1582a;}.cls-10{fill:#f05123;}.cls-11{fill:#ffca28;}.cls-12{fill:#fec00f;}.cls-13{fill:#cfd8db;}.cls-14{fill:#eaeced;}.cls-15{fill:#c4161c;}.cls-16{fill:#ed1c24;}.cls-17{fill:#34c1d6;}.cls-18{fill:#5ac7da;}.cls-19{fill:#87d3e1;}.cls-20{fill:#aebdc4;}.cls-21{fill:#c1cad0;}.cls-22{fill:#fff;}.cls-23{fill:#fdeab0;}.cls-24{fill:#478ecc;}.cls-25{fill:#1d2c5a;}.cls-26{fill:#71b2e1;}.cls-27{fill:#3174ba;}.cls-28{fill:#bcddf4;}.cls-29{stroke:#a3238e;stroke-width:16px;}.cls-29,.cls-31{stroke-linecap:round;stroke-linejoin:round;}.cls-30{fill:#fff200;}.cls-31{stroke:#610054;stroke-width:8px;}.cls-32{fill:url(#GradientFill_16);}.cls-33{fill:url(#GradientFill_16-2);}</style><clipPath id="clip-path"><path class="cls-1" d="M5.05,38.18H169.54v234a20.06,20.06,0,0,1-20,20H25a20.06,20.06,0,0,1-20-20Z"/></clipPath><linearGradient id="GradientFill_14" x1="87.29" y1="251.17" x2="87.29" y2="84.68" gradientUnits="userSpaceOnUse"><stop offset="0" stop-color="#284776"/><stop offset="1" stop-color="#a3238e"/></linearGradient><radialGradient id="GradientFill_16" cx="104.21" cy="127.37" r="39.61" gradientUnits="userSpaceOnUse"><stop offset="0" stop-color="#fff200"/><stop offset="1" stop-color="#ffcb05"/></radialGradient><radialGradient id="GradientFill_16-2" cx="155.79" cy="105.94" r="2.7" xlink:href="#GradientFill_16"/></defs><title>startup-2</title><g id="Layer_2" data-name="Layer 2"><g id="Layer_1-2" data-name="Layer 1"><g class="cls-2"><rect class="cls-3" x="5.05" y="29.18" width="164.49" height="277.48"/><path class="cls-4" d="M169.54,217.59c-7-17.07-33.89-14.25-33.76,10.58-6.84-6.36-23.84-3.94-21.53,12.29-5.33-3-9.47,2.71-6.83,6.83-5.26-4.11-11.66,4.77-16-.51s-3-8.95-3-12.86h-2.1c0,3.91,1.28,7.67-3,12.86s-10.78-3.6-16,.51c2.65-4.12-1.5-9.84-6.83-6.83,2.31-16.23-14.69-18.65-21.52-12.29.12-24.83-26.81-27.65-33.76-10.58v89.08H169.54Z"/><path class="cls-5" d="M169.54,227c-9.28-3-11.72,5.49-9.2,12.48-10.31-13.74-27.83-4.7-25.61,9.43-.73-3.13-4.4-1.64-4,1.11-9.68-6-18,1.59-16.17,9.49-1.39-3.14-4.75-3.15-5.76-.56a5.93,5.93,0,0,0-6.74-6.41,7.92,7.92,0,0,1-7.82-3.76,27.94,27.94,0,0,1-4-14.71l-2.95,2.28-3-2.28a27.85,27.85,0,0,1-4,14.71,7.92,7.92,0,0,1-7.82,3.76A5.93,5.93,0,0,0,65.79,259c-1-2.59-4.37-2.58-5.76.56,1.86-7.9-6.48-15.5-16.17-9.49.39-2.75-3.27-4.24-4-1.11,2.22-14.13-15.3-23.17-25.6-9.43,2.52-7,.07-15.46-9.2-12.48v79.67H169.54Z"/><path class="cls-6" d="M153.28,275.57c-.43-5.91-11.06-6.94-11.49.69-4.36-10.71-20-11.6-23.56-3.23a4.19,4.19,0,0,0-7.53-1.65c.32-5.29-3.84-8.06-8.29-8.42a9.69,9.69,0,0,1-7.49-4.75,44.64,44.64,0,0,1-6.58-24.29l-1-1.79-1.05,1.79a44.55,44.55,0,0,1-6.58,24.29A9.68,9.68,0,0,1,72.18,263c-4.46.36-8.62,3.13-8.29,8.42A4.19,4.19,0,0,0,56.36,273c-3.56-8.37-19.21-7.48-23.57,3.23-.42-7.63-11.06-6.6-11.49-.69-1.36-9.08-7.08-15.64-16.25-8.84v39.94H169.54V266.73C160.36,259.93,154.64,266.49,153.28,275.57Z"/><polygon class="cls-7" points="94.13 211.53 80.71 211.53 80.31 212.98 94.49 212.98 94.13 211.53"/><polygon class="cls-8" points="80.31 212.98 79.25 216.8 95.45 216.8 94.49 212.98 80.31 212.98"/><path class="cls-7" d="M96.43,218H78.26a.61.61,0,0,1,0-1.21H96.43a.61.61,0,0,1,0,1.21Z"/><path class="cls-9" d="M78.91,218c-1.87,4.93-.12,10.74,1,12.21l1-1.53c0,3.05,3.68,8.29,6.41,10.95V218Z"/><path class="cls-10" d="M95.79,218c1.86,4.93.12,10.74-1,12.21l-1-1.53c0,3.05-3.69,8.29-6.41,10.95V218Z"/><path class="cls-11" d="M82,218a9.86,9.86,0,0,0,.62,7.75l.67-1c0,1.94,2.34,5.27,4.07,7V218Z"/><path class="cls-12" d="M92.71,218a9.85,9.85,0,0,1-.63,7.75l-.66-1c0,1.94-2.34,5.27-4.07,7V218Z"/><path class="cls-13" d="M95.46,167H87.34v44.57h9.8a2.81,2.81,0,0,0,2.81-2.81v-27.1A26.14,26.14,0,0,0,95.46,167Z"/><path class="cls-14" d="M79.23,167h0a26.14,26.14,0,0,0-4.49,14.66v27.1a2.81,2.81,0,0,0,2.81,2.81h9.79V167Z"/><path class="cls-15" d="M95.46,167l-3.63-5.37a5.37,5.37,0,0,0-4.49-2.37V167Z"/><path class="cls-16" d="M87.34,159.25a5.39,5.39,0,0,0-4.48,2.37L79.23,167h8.11Z"/><path class="cls-7" d="M95.09,186.05a7.77,7.77,0,1,1-7.77-7.77A7.77,7.77,0,0,1,95.09,186.05Z"/><path class="cls-17" d="M93.57,186.05a6.23,6.23,0,0,0-1.68-4.25c0,.13,0,.25,0,.37a14,14,0,0,1-4.33,10.13A6.26,6.26,0,0,0,93.57,186.05Z"/><path class="cls-18" d="M91.9,182.17c0-.12,0-.24,0-.37a6.24,6.24,0,0,0-3.31-1.87,4.43,4.43,0,0,1,0,.52,6.89,6.89,0,0,1-6.88,6.89l-.52,0a6.25,6.25,0,0,0,6.12,5h.25A14,14,0,0,0,91.9,182.17Z"/><path class="cls-19" d="M88.6,180.45a4.43,4.43,0,0,0,0-.52,6.48,6.48,0,0,0-1.26-.13,6.25,6.25,0,0,0-6.25,6.25,6.59,6.59,0,0,0,.13,1.27l.52,0A6.89,6.89,0,0,0,88.6,180.45Z"/><polygon class="cls-20" points="99.95 194.75 99.95 207.13 102.47 207.13 102.47 196.07 99.95 194.75"/><path class="cls-13" d="M111.75,203.2a3.72,3.72,0,0,0-2-3.31l-7.26-3.82v11.06h7.19a2.08,2.08,0,0,0,2.08-2.08Z"/><polygon class="cls-20" points="74.74 194.75 74.74 207.13 72.21 207.13 72.21 196.07 74.74 194.75"/><path class="cls-13" d="M62.94,203.2a3.72,3.72,0,0,1,2-3.31l7.26-3.82v11.06H65a2.08,2.08,0,0,1-2.08-2.08Z"/><path class="cls-21" d="M96.43,211.56H88l.18-10.14,10,9.94A3.94,3.94,0,0,1,96.43,211.56Z"/><path class="cls-20" d="M87.35,214.26h0A1.38,1.38,0,0,1,86,212.88v-10.4a1.38,1.38,0,0,1,2.76,0v10.4A1.38,1.38,0,0,1,87.35,214.26Z"/><path class="cls-22" d="M87.31,213.44h0a.66.66,0,0,1-.66-.66v-5.29a.66.66,0,0,1,1.32,0v5.29A.66.66,0,0,1,87.31,213.44Z"/><path class="cls-23" d="M50.54,190.26a1.37,1.37,0,1,1-1.37-1.36A1.37,1.37,0,0,1,50.54,190.26Z"/><path class="cls-24" d="M59.71,201.21a.84.84,0,0,1-1.68,0,.84.84,0,0,1,1.68,0Z"/><path class="cls-25" d="M34.92,199.61H34.5a1.26,1.26,0,1,1-.37-.88,1.21,1.21,0,0,1,.37.88h.85a2.1,2.1,0,1,0-2.1,2.09,2.1,2.1,0,0,0,2.1-2.09Z"/><path class="cls-25" d="M128,189.76a1,1,0,1,1-1-1A1,1,0,0,1,128,189.76Z"/><path class="cls-23" d="M138.93,204.12a1.48,1.48,0,1,1-1.47-1.47A1.47,1.47,0,0,1,138.93,204.12Z"/><path class="cls-24" d="M116.09,197.14a.66.66,0,0,1-1.32,0,.66.66,0,0,1,1.32,0Z"/><path class="cls-24" d="M106.55,228.5a1.26,1.26,0,1,1-1.26-1.26A1.25,1.25,0,0,1,106.55,228.5Z"/><path class="cls-26" d="M76.27,239.85a1.16,1.16,0,1,1-1.15-1.15A1.15,1.15,0,0,1,76.27,239.85Z"/><path class="cls-27" d="M46.22,211.26H45.13v-1.08a.67.67,0,1,0-1.33,0v1.08H42.71a.67.67,0,0,0,0,1.34H43.8v1.09a.67.67,0,1,0,1.33,0V212.6h1.09a.67.67,0,0,0,0-1.34Z"/><path class="cls-28" d="M124.43,215.65h-.62V215a.38.38,0,0,0-.76,0v.62h-.63a.38.38,0,1,0,0,.76h.63V217a.38.38,0,0,0,.76,0v-.62h.62a.38.38,0,1,0,0-.76Z"/><path class="cls-22" d="M66.05,218.24a.74.74,0,1,1-1.48,0,.74.74,0,1,1,1.48,0Z"/><path class="cls-22" d="M63.6,233.72a.65.65,0,0,1-.65.65.66.66,0,1,1,.65-.65Z"/><path class="cls-25" d="M137.52,192.29h-.42a.66.66,0,1,1-1.31,0,.66.66,0,0,1,1.31,0h.84a1.5,1.5,0,1,0-1.5,1.5,1.5,1.5,0,0,0,1.5-1.5Z"/></g><path class="cls-29" d="M8,16.54a7.66,7.66,0,0,1,2.76-6.32Q13.52,8,18.71,8a21.26,21.26,0,0,1,7.75,1.07v7.37a17.92,17.92,0,0,0-7.11-1.33,4.28,4.28,0,0,0-2.76.64,2.29,2.29,0,0,0-.72,1.81v.77a3.75,3.75,0,0,0,.49,2.12A6.24,6.24,0,0,0,18.48,22l5.83,3.27a7.43,7.43,0,0,1,4.2,6.91v3.17a7.39,7.39,0,0,1-3.07,6.36Q22.37,44,16.82,44a22.61,22.61,0,0,1-8.36-1.18V35.36a19.86,19.86,0,0,0,7.87,1.48c2.94,0,4.4-.83,4.4-2.51v-.76a2.77,2.77,0,0,0-.48-1.77,6.47,6.47,0,0,0-1.82-1.3l-5.47-3q-5-2.76-5-7.77V16.54ZM50.24,8.26V14.9H43.85V43.69H36.07V14.9H29.68V8.26ZM67.93,43.69l-1.48-8.18h-7l-1.38,8.18H50.75l7-35.43H68.39l6.85,35.43ZM60.52,29h4.8L62.87,15.31,60.52,29Zm24.95,1.89V43.69H77.8V8.26H89.36a9.81,9.81,0,0,1,6.54,2,7.21,7.21,0,0,1,2.35,5.83v6.54c0,4.1-1.39,6.65-4.19,7.68l5.57,13.39H91.2L86.44,30.91Zm0-16.11v10h3a2.12,2.12,0,0,0,1.63-.51,2.67,2.67,0,0,0,.46-1.79V16.74a1.87,1.87,0,0,0-.51-1.53,2.53,2.53,0,0,0-1.58-.41ZM121,8.26V14.9h-6.39V43.69h-7.78V14.9H100.4V8.26Zm15.85,0h7.67V35.05a8.62,8.62,0,0,1-2.68,6.67c-1.79,1.66-4.44,2.48-7.93,2.48s-6.14-.81-7.93-2.45a8.63,8.63,0,0,1-2.68-6.7V8.26h7.67V34.64c0,1.71,1,2.56,2.94,2.56s2.94-.85,2.94-2.56V8.26Zm24.8,8.79a1.92,1.92,0,0,0-2.2-2.15h-2.86V26.82h2.86a1.92,1.92,0,0,0,2.2-2.15V17.05ZM148.83,8.26h11.55a9.81,9.81,0,0,1,6.52,2,7.23,7.23,0,0,1,2.38,5.88v9.46a7.23,7.23,0,0,1-2.38,5.88,9.81,9.81,0,0,1-6.52,2h-3.83V43.69h-7.72Z"/><path class="cls-30" d="M159.08,33.47V26.82h.33a1.92,1.92,0,0,0,2.2-2.15V17.05a1.92,1.92,0,0,0-2.2-2.15h-.33V8.26h1.3a9.81,9.81,0,0,1,6.52,2,7.23,7.23,0,0,1,2.38,5.88v9.46a7.23,7.23,0,0,1-2.38,5.88,9.81,9.81,0,0,1-6.52,2Zm0-25.21V14.9h-2.53V26.82h2.53v6.65h-2.53V43.69h-7.72V8.26ZM88,35.17V24.82h.46a2.12,2.12,0,0,0,1.63-.51,2.67,2.67,0,0,0,.46-1.79V16.74a1.87,1.87,0,0,0-.51-1.53,2.53,2.53,0,0,0-1.58-.41H88V8.26h1.33a9.81,9.81,0,0,1,6.54,2,7.21,7.21,0,0,1,2.35,5.83v6.54c0,4.1-1.39,6.65-4.19,7.68l5.57,13.39H91.2L88,35.17ZM121,8.26V14.9h-6.39V43.69h-7.78V14.9H100.4V8.26Zm15.85,0h7.67V35.05a8.62,8.62,0,0,1-2.68,6.67c-1.79,1.66-4.44,2.48-7.93,2.48s-6.14-.81-7.93-2.45a8.63,8.63,0,0,1-2.68-6.7V8.26h7.67V34.64c0,1.71,1,2.56,2.94,2.56s2.94-.85,2.94-2.56ZM88,8.26V14.8H85.47v10H88V35.17l-1.59-4.26h-1V43.69H77.8V8.26ZM62.92,35.51V29h2.4L62.92,15.6V8.26h5.47l6.85,35.43H67.93l-1.48-8.18ZM8,16.54a7.66,7.66,0,0,1,2.76-6.32Q13.52,8,18.71,8a21.26,21.26,0,0,1,7.75,1.07v7.37a17.92,17.92,0,0,0-7.11-1.33,4.28,4.28,0,0,0-2.76.64,2.29,2.29,0,0,0-.72,1.81v.77a3.75,3.75,0,0,0,.49,2.12A6.24,6.24,0,0,0,18.48,22l5.83,3.27a7.43,7.43,0,0,1,4.2,6.91v3.17a7.39,7.39,0,0,1-3.07,6.36Q22.37,44,16.82,44a22.61,22.61,0,0,1-8.36-1.18V35.36a19.86,19.86,0,0,0,7.87,1.48c2.94,0,4.4-.83,4.4-2.51v-.76a2.77,2.77,0,0,0-.48-1.77,6.47,6.47,0,0,0-1.82-1.3l-5.47-3q-5-2.76-5-7.77V16.54ZM62.92,8.26V15.6l-.05-.29L60.52,29h2.4v6.49H59.44l-1.38,8.18H50.75l7-35.43Zm-12.68,0V14.9H43.85V43.69H36.07V14.9H29.68V8.26Z"/><path class="cls-22" d="M44.58,119.86h0a3,3,0,0,1-3,2.5,2.86,2.86,0,0,1-2.32-1.06,4.38,4.38,0,0,1-.87-2.86,6.28,6.28,0,0,1,1.21-4,3.85,3.85,0,0,1,3.19-1.57,2.4,2.4,0,0,1,1.35.39,1.68,1.68,0,0,1,.76,1h0c0-.2.05-.6.11-1.21h1.31c-.33,3.86-.49,5.83-.49,5.89,0,1.46.42,2.18,1.25,2.18a2.19,2.19,0,0,0,1.89-1.23,6,6,0,0,0,.75-3.18A6.38,6.38,0,0,0,47.86,112a6.85,6.85,0,0,0-5.07-1.83,6.75,6.75,0,0,0-5.16,2.19,7.69,7.69,0,0,0-2,5.46,7.14,7.14,0,0,0,1.94,5.21,7,7,0,0,0,5.23,2,10.5,10.5,0,0,0,4.44-.86v1.3a11.56,11.56,0,0,1-4.54.78,8.41,8.41,0,0,1-6.17-2.31,8.1,8.1,0,0,1-2.34-6,8.8,8.8,0,0,1,2.46-6.39A8.38,8.38,0,0,1,42.88,109a8.53,8.53,0,0,1,5.92,2.12,7.13,7.13,0,0,1,2.34,5.54,6.51,6.51,0,0,1-1.24,4.11,3.67,3.67,0,0,1-3,1.6c-1.53,0-2.3-.83-2.31-2.5Zm-1.88-5.72a2.42,2.42,0,0,0-2.11,1.24,5.6,5.6,0,0,0-.8,3.08,3.19,3.19,0,0,0,.54,2,1.73,1.73,0,0,0,1.44.71,2.32,2.32,0,0,0,2.07-1.3,6.72,6.72,0,0,0,.76-3.44C44.6,114.89,44,114.14,42.7,114.14Z"/><path class="cls-31" d="M70.44,112.4q11.57-1.19,10.42,7.66l-.4,3.1a12.23,12.23,0,0,1-5,8.4l-5.31,4.49a15.82,15.82,0,0,0-2.81,2.78,6.73,6.73,0,0,0-.79,2.68l-.09.68,11.2-1.14-.9,6.94-19.36,2,1.11-8.58a13.59,13.59,0,0,1,5.54-9L70,127.3a6.72,6.72,0,0,0,1.81-2,7.84,7.84,0,0,0,.75-2.7l.09-.73a1.87,1.87,0,0,0-.53-1.79,3.81,3.81,0,0,0-2.71-.37,21.84,21.84,0,0,0-7.6,2.17l1-7.57a25.3,25.3,0,0,1,7.67-1.93Zm13.67-1.13,19.51-2-.82,6.37-6.42,14.2a38.44,38.44,0,0,0-3.06,11.06l-.71,5.47-8.1.83.79-6.15a37.76,37.76,0,0,1,3.25-11.71l5.11-11.83-10.5,1.07,1-7.31Zm30.12,14.42a8.89,8.89,0,0,0,2.83-.76l1.06-8.21a2.62,2.62,0,0,0-.28-1.92c-.29-.4-1-.55-2-.44a3.28,3.28,0,0,0-2.19.87,3.71,3.71,0,0,0-.82,2l-.78,6.1c-.23,1.72.5,2.5,2.17,2.33Zm-9.36-7.77a11.55,11.55,0,0,1,3.5-7.16q2.94-2.79,8.38-3.35t7.7,1.68q2.26,2.23,1.69,6.66l-2.46,19a10.1,10.1,0,0,1-3.8,6.83,16.72,16.72,0,0,1-8.91,3.19c-3.77.38-6.49.3-8.17-.26l1-7.47a17.7,17.7,0,0,0,7.4.6c2.88-.3,4.42-1.29,4.64-3l.4-3.1a17.7,17.7,0,0,1-5.41,1.17q-3.74.39-5.55-1.61c-1.21-1.33-1.65-3.33-1.3-6l.93-7.21Zm34.1,5.24a8.89,8.89,0,0,0,2.83-.76l1.06-8.2a2.67,2.67,0,0,0-.28-1.92c-.3-.41-1-.55-2-.45a3.38,3.38,0,0,0-2.19.87,3.74,3.74,0,0,0-.82,2l-.79,6.11c-.22,1.72.5,2.49,2.18,2.32Zm-9.36-7.77a11.58,11.58,0,0,1,3.5-7.16q2.94-2.79,8.38-3.34t7.7,1.68c1.51,1.49,2.07,3.7,1.69,6.65l-2.46,19a10.1,10.1,0,0,1-3.8,6.83,16.64,16.64,0,0,1-8.91,3.19c-3.77.39-6.49.3-8.17-.25l1-7.47a17.55,17.55,0,0,0,7.4.59q4.31-.43,4.64-3l.4-3.11a18,18,0,0,1-5.41,1.18q-3.74.38-5.55-1.62c-1.22-1.33-1.65-3.32-1.31-6Z"/><path class="cls-32" d="M139.83,141.45v-7.81a2.63,2.63,0,0,0,.71-1.5l.4-3.11a7.65,7.65,0,0,1-1.11.42V123a8,8,0,0,0,2-.63l1.06-8.2a2.67,2.67,0,0,0-.28-1.92c-.3-.41-1-.55-2-.45a7.15,7.15,0,0,0-.76.12v-6.83c.53-.1,1.08-.17,1.66-.23q5.43-.56,7.7,1.68c1.51,1.49,2.07,3.7,1.69,6.65l-2.46,19a10.1,10.1,0,0,1-3.8,6.83A13.83,13.83,0,0,1,139.83,141.45Zm0-36.33V112a2.67,2.67,0,0,0-1.43.75,3.74,3.74,0,0,0-.82,2l-.79,6.11c-.22,1.72.5,2.49,2.18,2.32a8.1,8.1,0,0,0,.86-.13v6.42a25,25,0,0,1-4.3.76q-3.74.38-5.55-1.62c-1.22-1.33-1.65-3.32-1.31-6l.94-7.21a11.58,11.58,0,0,1,3.5-7.16,12.84,12.84,0,0,1,6.72-3.11Zm0,28.52v7.81a22.33,22.33,0,0,1-4.12.78c-3.77.39-6.49.3-8.17-.25l1-7.47a17.55,17.55,0,0,0,7.4.59,6.26,6.26,0,0,0,3.93-1.46ZM115.09,144v-7.81a2.57,2.57,0,0,0,.71-1.51l.4-3.1a6.68,6.68,0,0,1-1.11.41v-6.41a8.9,8.9,0,0,0,2-.63l1.06-8.21a2.62,2.62,0,0,0-.28-1.92c-.29-.4-1-.55-2-.44a7.59,7.59,0,0,0-.76.12v-6.84c.53-.09,1.09-.17,1.66-.23q5.43-.55,7.7,1.68t1.69,6.66l-2.46,19a10.1,10.1,0,0,1-3.8,6.83A13.83,13.83,0,0,1,115.09,144Zm0-36.34v6.84a2.71,2.71,0,0,0-1.43.75,3.71,3.71,0,0,0-.82,2l-.78,6.1c-.23,1.72.5,2.5,2.17,2.33.29,0,.58-.08.86-.13V132a23.17,23.17,0,0,1-4.3.76q-3.74.39-5.55-1.61c-1.21-1.33-1.65-3.33-1.3-6l.93-7.21a11.55,11.55,0,0,1,3.5-7.16,12.77,12.77,0,0,1,6.72-3.12Zm0,28.53V144a22.17,22.17,0,0,1-4.12.78,23.61,23.61,0,0,1-7.76-.14v-3.29l.55-4.3a17.7,17.7,0,0,0,7.4.6,6.21,6.21,0,0,0,3.93-1.46Zm-11.88-23.72.41-3.18-.41,0Zm-32.77,0q11.57-1.19,10.42,7.66l-.4,3.1a12.23,12.23,0,0,1-5,8.4l-5.31,4.49a15.82,15.82,0,0,0-2.81,2.78,6.73,6.73,0,0,0-.79,2.68l-.09.68,11.2-1.14-.9,6.94-19.36,2,1.11-8.58a13.59,13.59,0,0,1,5.54-9L70,127.3a6.72,6.72,0,0,0,1.81-2,7.84,7.84,0,0,0,.75-2.7l.09-.73a1.87,1.87,0,0,0-.53-1.79,3.81,3.81,0,0,0-2.71-.37,21.84,21.84,0,0,0-7.6,2.17l1-7.57a25.3,25.3,0,0,1,7.67-1.93Zm32.77-3.08v3.13l-.41,3.19-6.42,14.2a38.44,38.44,0,0,0-3.06,11.06l-.71,5.47-8.1.83.79-6.15a37.76,37.76,0,0,1,3.25-11.71l5.11-11.83-10.5,1.07,1-7.31,19.1-2Zm0,32-.41,3.17a2.45,2.45,0,0,0,.41.12Z"/><path class="cls-22" d="M17,83.36h6.27v1.73H19v4.77H23v1.75H19v5.92H17V83.36Zm13.33,3.3c0-1.14-.61-1.71-1.82-1.71s-1.82.57-1.82,1.71v7.57c0,1.15.61,1.73,1.82,1.73s1.82-.58,1.82-1.73V86.66Zm-5.6-.06a3.39,3.39,0,0,1,.95-2.51,3.87,3.87,0,0,1,2.82-.94,3.87,3.87,0,0,1,2.83.95,3.38,3.38,0,0,1,1,2.5v7.71a3.34,3.34,0,0,1-1,2.49,3.9,3.9,0,0,1-2.82.94,3.9,3.9,0,0,1-2.82-.94,3.34,3.34,0,0,1-1-2.49V86.6ZM36.62,92v5.52h-2V83.36h3.81A3.61,3.61,0,0,1,41,84.2a3,3,0,0,1,.88,2.32v2.25a2.84,2.84,0,0,1-1.77,3l2.26,5.77H40.21l-2-5.52Zm0-6.94v5.29h1.67a1.42,1.42,0,0,0,1.65-1.61V86.64c0-1-.55-1.57-1.65-1.57ZM53.84,86.6c0-1.06-.56-1.59-1.66-1.59H50.24v10.8h1.94a1.47,1.47,0,0,0,1.66-1.65V86.6Zm-5.56-3.24h4.09a3.53,3.53,0,0,1,2.55.84,3,3,0,0,1,.88,2.34v7.73a3,3,0,0,1-3.34,3.26H48.28V83.36Zm9.88,0h6.46v1.73h-4.5V89.5H64v1.74H60.12v4.57h4.5v1.72H58.16V83.36Zm7.69,3a2.82,2.82,0,0,1,1-2.3,4.22,4.22,0,0,1,2.77-.81,9.43,9.43,0,0,1,2.92.37v1.88a7.58,7.58,0,0,0-2.73-.44c-1.3,0-2,.48-2,1.45v.81a1.91,1.91,0,0,0,.26,1.06,2.91,2.91,0,0,0,.93.76l2.43,1.36a3,3,0,0,1,1.69,2.78v1.17a2.8,2.8,0,0,1-1.06,2.35,4.82,4.82,0,0,1-3,.82A8.89,8.89,0,0,1,66,97.19V95.31a8.32,8.32,0,0,0,2.91.5c1.52,0,2.28-.51,2.28-1.54v-.71a1.76,1.76,0,0,0-.23-1,2.36,2.36,0,0,0-.86-.68l-2.36-1.3a3.21,3.21,0,0,1-1.86-3V86.37Zm9.17-3h2V97.53H75V83.36Zm4.35,3.13a2.92,2.92,0,0,1,1-2.38,4.88,4.88,0,0,1,3.15-.85,9.43,9.43,0,0,1,2.65.35v1.88a8.23,8.23,0,0,0-2.63-.42q-2.22,0-2.22,1.59v7.69c0,1,.61,1.51,1.84,1.51a2.75,2.75,0,0,0,1.55-.36V90.38h1.94V96.8a7.09,7.09,0,0,1-3.42.83,4.63,4.63,0,0,1-2.89-.78,2.8,2.8,0,0,1-1-2.35v-8Zm15.79-3.13h2V97.53H95q-3.28-8.39-4.29-11.12c0,.15,0,.48.09,1,.11,1.21.16,2.56.16,4v6.13H89.06V83.36h2.11q2.91,7.35,3.53,9.11c.42,1.17.66,1.83.71,2,0-.13,0-.75-.11-1.85s-.12-2.18-.14-3.21v-6Zm4.54,0h2V97.53h-2V83.36Zm10.65,0h2V97.53h-2.09q-3.28-8.39-4.29-11.12c0,.15,0,.48.09,1,.11,1.21.16,2.56.16,4v6.13h-1.92V83.36h2.11q2.91,7.35,3.53,9.11c.42,1.17.66,1.83.71,2,0-.13,0-.75-.11-1.85s-.12-2.18-.14-3.21v-6Zm4.33,3.13a2.92,2.92,0,0,1,1-2.38,4.88,4.88,0,0,1,3.15-.85,9.43,9.43,0,0,1,2.65.35v1.88a8.23,8.23,0,0,0-2.63-.42q-2.22,0-2.22,1.59v7.69c0,1,.62,1.51,1.84,1.51a2.75,2.75,0,0,0,1.55-.36V90.38H122V96.8a7.06,7.06,0,0,1-3.42.83,4.63,4.63,0,0,1-2.89-.78,2.8,2.8,0,0,1-1-2.35Z"/><path class="cls-22" d="M127.45,148.69h2.18v15.57h-2.18V148.69Zm11.71,0h2.14v15.57H139q-3.6-9.21-4.71-12.22,0,.26.09,1.05c.13,1.34.19,2.81.19,4.44v6.73h-2.12V148.69h2.32q3.19,8.07,3.89,10c.45,1.28.72,2,.78,2.18,0-.14-.05-.81-.13-2s-.13-2.39-.15-3.53v-6.63Zm7.14,9.5v6.07h-2.16V148.69h4.18a4,4,0,0,1,2.82.91,3.35,3.35,0,0,1,1,2.55v2.48c0,1.7-.65,2.8-2,3.29l2.48,6.34h-2.39L148,158.19Zm0-7.62v5.81h1.84a1.88,1.88,0,0,0,1.39-.44,1.85,1.85,0,0,0,.42-1.33v-2.32c0-1.15-.6-1.72-1.81-1.72Zm9.12,13.85a1.27,1.27,0,1,1,1.26-1.27A1.12,1.12,0,0,1,155.42,164.42Z"/><path class="cls-31" d="M155.23,104.74V104h1.12v.71a2.2,2.2,0,0,1-.06.53,3.24,3.24,0,0,1,.49-.22l.67-.22.35,1.06-.67.23a2.32,2.32,0,0,1-.53.1,4,4,0,0,1,.36.4l.41.57-.9.66-.42-.57a1.93,1.93,0,0,1-.26-.46,3.22,3.22,0,0,1-.26.46l-.42.57-.9-.66.41-.58a2.31,2.31,0,0,1,.36-.39,2.09,2.09,0,0,1-.53-.11l-.67-.22.35-1.06.68.22a2.7,2.7,0,0,1,.48.21A2.24,2.24,0,0,1,155.23,104.74Z"/><path class="cls-33" d="M155.23,104.74V104h1.12v.71a2.2,2.2,0,0,1-.06.53,3.24,3.24,0,0,1,.49-.22l.67-.22.35,1.06-.67.23a2.32,2.32,0,0,1-.53.1,4,4,0,0,1,.36.4l.41.57-.9.66-.42-.57a1.93,1.93,0,0,1-.26-.46,3.22,3.22,0,0,1-.26.46l-.42.57-.9-.66.41-.58a2.31,2.31,0,0,1,.36-.39,2.09,2.09,0,0,1-.53-.11l-.67-.22.35-1.06.68.22a2.7,2.7,0,0,1,.48.21A2.24,2.24,0,0,1,155.23,104.74Z"/><path class="cls-22" d="M47.52,57.6a1.17,1.17,0,0,0-1.35-1.31H44.43v7.26h1.74a1.18,1.18,0,0,0,1.35-1.31V57.6Zm-7.8-5.37h7.05a6,6,0,0,1,4,1.22A4.39,4.39,0,0,1,52.19,57V62.8a4.41,4.41,0,0,1-1.45,3.59,6,6,0,0,1-4,1.21H44.43v6.24H39.72V52.23ZM63.6,73.84l-.9-5H58.43l-.84,5H53.13l4.24-21.61h6.51l4.18,21.61Zm-4.52-9H62l-1.49-8.35-1.44,8.35Zm10.23-7.54A4.72,4.72,0,0,1,71,53.46a8.26,8.26,0,0,1,5.22-1.38,15.36,15.36,0,0,1,3.93.43v4.31a11.56,11.56,0,0,0-3.44-.53,4,4,0,0,0-2.2.39,1.35,1.35,0,0,0-.5,1.13V68.29c0,1,.78,1.5,2.35,1.5a13.51,13.51,0,0,0,3.88-.47v4.21A15.46,15.46,0,0,1,76.2,74,8.13,8.13,0,0,1,71,72.62a4.68,4.68,0,0,1-1.7-3.86V57.35ZM87.14,73.84H82.47V52.23h4.67V62l3.56-9.73h5l-4,10.45,4.33,11.16H90.85L87.14,63.52V73.84Zm19.71,0-.9-5h-4.28l-.84,5H96.37l4.24-21.61h6.52l4.18,21.61Zm-4.52-9h2.93l-1.5-8.35-1.43,8.35Zm10.23-7.45a4.65,4.65,0,0,1,1.88-3.91,8.66,8.66,0,0,1,5.38-1.45,13.94,13.94,0,0,1,4.4.59V57.1a10.38,10.38,0,0,0-3.74-.72,4.91,4.91,0,0,0-2.53.44,1.34,1.34,0,0,0-.66,1.18V68.26a1.41,1.41,0,0,0,.47,1.14,2.13,2.13,0,0,0,1.39.39,3.35,3.35,0,0,0,1.42-.25v-7.3h4.55V72.69A12,12,0,0,1,119.35,74a8,8,0,0,1-5.06-1.38,4.62,4.62,0,0,1-1.73-3.86V57.44Zm14.9-5.21H138.4v4.06h-6.26v4.58h5.42v4.05h-5.42v4.87h6.26v4H127.46Z"/></g></g></svg>