<svg xmlns="http://www.w3.org/2000/svg" xmlns:xlink="http://www.w3.org/1999/xlink" viewBox="0 0 92.53 65.93"><defs><style>.cls-1,.cls-16{fill:#fff;}.cls-1,.cls-14,.cls-15,.cls-17{stroke:#bcbec0;stroke-miterlimit:2.61;stroke-width:0.22px;}.cls-2{fill:#43525a;}.cls-10,.cls-11,.cls-12,.cls-13,.cls-14,.cls-16,.cls-17,.cls-18,.cls-2,.cls-7,.cls-8,.cls-9{fill-rule:evenodd;}.cls-3{fill:#fff200;}.cls-12,.cls-4{fill:#231f20;}.cls-5,.cls-9{fill:#00aeef;}.cls-13,.cls-6{fill:#ec008c;}.cls-7{fill:#939598;}.cls-8{fill:#647883;}.cls-10{fill:#ffcb05;}.cls-11{fill:#8ed8f8;}.cls-14{fill:url(#GradientFill_9);}.cls-15{fill:#0095da;}.cls-17{fill:none;}.cls-18{fill:#d1d3d4;}</style><linearGradient id="GradientFill_9" x1="12.84" y1="66.29" x2="12.84" y2="59.68" gradientUnits="userSpaceOnUse"><stop offset="0" stop-color="#56c5d0"/><stop offset="0.18" stop-color="#50c2d1"/><stop offset="0.44" stop-color="#3eb8d3"/><stop offset="0.73" stop-color="#22a8d6"/><stop offset="1" stop-color="#0095da"/></linearGradient></defs><title>stationary</title><g id="Layer_2" data-name="Layer 2"><g id="Layer_1-2" data-name="Layer 1"><rect class="cls-1" x="23.42" y="0.11" width="44.65" height="65.45"/><path class="cls-2" d="M27.13,2.08H25.65v9h3V9.62H27.13V7.45a3,3,0,1,0,0-5.13V2.08Zm0,2.94V4.75a1.49,1.49,0,1,1,0,.27Z"/><circle class="cls-3" cx="29.34" cy="10.36" r="0.74"/><circle class="cls-4" cx="30.82" cy="10.36" r="0.74"/><circle class="cls-5" cx="29.34" cy="8.88" r="0.74"/><circle class="cls-6" cx="30.82" cy="8.88" r="0.74"/><path class="cls-7" d="M25.83,11.81l.05,0a.07.07,0,0,1,0,.06s0,0,0,0,0,0-.05,0a.07.07,0,0,1-.06,0,.08.08,0,0,1,0,0,.14.14,0,0,1,0-.06l.06,0Zm0,.3h.09V13a.26.26,0,0,1,0,.14.13.13,0,0,1-.09,0l-.11,0V13l.07,0a.07.07,0,0,0,.06,0s0,0,0-.09v-.82Zm.28,0h.09v.35a.59.59,0,0,0,0,.17.18.18,0,0,0,.08.11.25.25,0,0,0,.13,0,.29.29,0,0,0,.14,0,.23.23,0,0,0,.07-.1.62.62,0,0,0,0-.18v-.35h.1v.36a.59.59,0,0,1,0,.23.24.24,0,0,1-.11.13.4.4,0,0,1-.18,0,.48.48,0,0,1-.18,0,.27.27,0,0,1-.1-.13.47.47,0,0,1,0-.23v-.36Zm1.23.08-.06.07a.22.22,0,0,0-.15-.08.11.11,0,0,0-.08,0,.11.11,0,0,0,0,.07.14.14,0,0,0,0,.07l.12.08a.34.34,0,0,1,.14.11.15.15,0,0,1,0,.11.21.21,0,0,1-.22.22.28.28,0,0,1-.13,0,.18.18,0,0,1-.09-.08l.06-.06a.22.22,0,0,0,.15.08.13.13,0,0,0,.1,0,.09.09,0,0,0,0-.08.11.11,0,0,0,0-.08l-.12-.07a.37.37,0,0,1-.13-.11.15.15,0,0,1,0-.11.18.18,0,0,1,.06-.14.2.2,0,0,1,.14-.06.34.34,0,0,1,.21.1Zm.25-.35h.09v.27h.15v.08h-.15v.66h-.09v-.66h-.13v-.08h.13Z"/><path class="cls-8" d="M28.1,12.11v.08a.41.41,0,0,1,.11-.07l.12,0a.34.34,0,0,1,.25.11.4.4,0,0,1,.1.28.41.41,0,0,1-.11.28.32.32,0,0,1-.24.11l-.12,0a.38.38,0,0,1-.11-.08v.35h-.19v-1Zm.19.15a.2.2,0,0,0-.14.06.23.23,0,0,0-.06.16.21.21,0,0,0,.06.16.2.2,0,0,0,.14.06.2.2,0,0,0,.15-.06.22.22,0,0,0,0-.16.2.2,0,0,0,0-.15.18.18,0,0,0-.15-.07Zm.5-.15H29v.1a.22.22,0,0,1,.07-.09l.09,0,.08,0-.06.16h-.06a.1.1,0,0,0-.07.05.48.48,0,0,0,0,.21v.33h-.18v-.74Zm.56-.3a.11.11,0,1,1-.12.12.12.12,0,0,1,0-.09.11.11,0,0,1,.08,0Zm-.09.3h.18v.74h-.18v-.74Zm.35,0h.18v.08a.31.31,0,0,1,.12-.07.19.19,0,0,1,.1,0,.26.26,0,0,1,.19.08.27.27,0,0,1,.06.19v.49h-.18v-.32a.77.77,0,0,0,0-.18.09.09,0,0,0,0-.06.11.11,0,0,0-.07,0,.18.18,0,0,0-.1,0,.2.2,0,0,0-.06.11s0,.07,0,.15v.29h-.18v-.74Zm.86-.27h.18v.27h.11v.16h-.11v.58h-.18v-.58h-.1v-.16h.1Z"/><path class="cls-7" d="M31,11.81l.05,0a.07.07,0,0,1,0,.06s0,0,0,0A.05.05,0,0,1,31,12a.09.09,0,0,1-.06,0,.08.08,0,0,1,0,0,.14.14,0,0,1,0-.06l.06,0Zm-.05.3H31v.74H31v-.74Zm.37-.27h.1v.27h.15v.08h-.15v.66h-.1v-.66h-.13v-.08h.13Z"/><path class="cls-9" d="M39.93.11H68.07V2.35h-27a1.12,1.12,0,0,1-1.12-1.12Z"/><path class="cls-10" d="M50.75,2.35H68.07V4.6H51.87a1.13,1.13,0,0,1-1.12-1.13Z"/><path class="cls-9" d="M51.56,65.55H23.42V63.31h27a1.13,1.13,0,0,1,1.13,1.12Z"/><path class="cls-11" d="M40.74,63.31H23.42V61.07h16.2a1.12,1.12,0,0,1,1.12,1.12Z"/><path class="cls-12" d="M58.4,63.8a.19.19,0,0,0,0,.08l.05,0,.08,0,.09,0,.12,0a.19.19,0,0,1,.1,0l.08.08a.25.25,0,0,1,0,.13.29.29,0,0,1,0,.14.22.22,0,0,1-.09.1.31.31,0,0,1-.13.06l-.16,0h-.17l-.07,0-.05,0v-.12l.06,0,.08,0h.25a.16.16,0,0,0,.09,0,.17.17,0,0,0,.06-.06.24.24,0,0,0,0-.09s0-.06,0-.08a.12.12,0,0,0,0,0l-.07,0-.09,0-.12,0-.11,0a.27.27,0,0,1-.07-.08.28.28,0,0,1,0-.13.29.29,0,0,1,0-.14.25.25,0,0,1,.08-.1l.11,0a.36.36,0,0,1,.14,0,.41.41,0,0,1,.16,0l.14,0v.12l-.14,0-.15,0-.1,0-.08,0,0,.06a.22.22,0,0,0,0,.08Zm.78.78v-.75h.12v.75Zm0-.93v-.13h.13v.13Zm.46.56a.46.46,0,0,0,0,.14.2.2,0,0,0,.06.09l.07,0h.07a.2.2,0,0,0,.11,0l.09-.06V64s0,0,0,0l0,0-.06,0h-.07l-.09,0-.07.06a.31.31,0,0,0,0,.1.41.41,0,0,0,0,.12Zm.21-.4h.08l.07,0,0,0,0,0h0l0-.08h.09v.79a.33.33,0,0,1,0,.15.29.29,0,0,1-.2.17.41.41,0,0,1-.16,0l-.14,0-.09,0v-.1l.05,0h.17A.33.33,0,0,0,60,64.8a.27.27,0,0,0,.07-.19v-.1h0a.22.22,0,0,1-.09.07l-.12,0h-.07l-.07,0a.18.18,0,0,1-.07,0,.2.2,0,0,1-.06-.07.3.3,0,0,1,0-.1.51.51,0,0,1,0-.13.48.48,0,0,1,0-.18.24.24,0,0,1,.08-.13.25.25,0,0,1,.1-.08l.13,0Zm.68.12h0l0,0,.06,0,.07,0h.17l.08,0A.22.22,0,0,1,61,64a.25.25,0,0,1,0,.13v.5H60.9v-.49a.2.2,0,0,0,0-.14.16.16,0,0,0-.11,0,.19.19,0,0,0-.12,0,.28.28,0,0,0-.1.09v.54h-.12v-.75h.09l0,.1Zm1.18.57h0l0,0a.1.1,0,0,1,0,0l-.07,0h-.07l-.11,0a.18.18,0,0,1-.07,0,.12.12,0,0,1,0-.07.18.18,0,0,1,0-.1.16.16,0,0,1,0-.1.22.22,0,0,1,0-.08l.09-.05h.22l.09,0h0V64.1s0,0,0-.06,0,0,0,0l-.07-.06a.21.21,0,0,0-.12,0h-.11l-.1,0v-.1l0,0h.18a.34.34,0,0,1,.18,0,.27.27,0,0,1,.11.1s0,0,0,.06a.15.15,0,0,1,0,.07v.5h-.11V64.5Zm0-.25-.09,0h-.1a.21.21,0,0,0-.12,0,.14.14,0,0,0,0,.11.13.13,0,0,0,0,.06.05.05,0,0,0,0,0l0,0h.13l.06,0,.05,0,0,0v-.15Zm.75.33h-.12l-.11,0-.07,0,0-.06a.29.29,0,0,1,0-.09v-.46H62v-.1h.14v-.21h.13v.21h.22v.1h-.22v.49l0,0a.05.05,0,0,0,0,0h.16v.1Zm.47,0h-.11l-.08,0s0,0-.06-.06a.16.16,0,0,1,0-.07s0,0,0-.06v-.53h.12v.46a.3.3,0,0,0,0,.1.16.16,0,0,0,.06.08l.11,0a.18.18,0,0,0,.11,0,.12.12,0,0,0,.06-.08.2.2,0,0,0,0-.09v-.46h.12v.46a.17.17,0,0,1,0,.07.13.13,0,0,1,0,.06.16.16,0,0,1,0,.07l-.06.06a.24.24,0,0,1-.09,0l-.1,0Zm.95-.67h-.1l-.08,0-.06,0-.05,0v.53h-.12v-.75h.09l0,.12h0l0-.06.06,0a.11.11,0,0,1,.07,0h.12v.12Zm.42,0-.08,0-.06,0L64.1,64s0,0,0,.08h.39a.22.22,0,0,0,0-.08.16.16,0,0,0,0-.07.1.1,0,0,0,0,0l-.08,0Zm.07.58h.11l.1,0v.11l-.1,0h-.13l-.15,0a.35.35,0,0,1-.12-.07.27.27,0,0,1-.09-.12A.82.82,0,0,1,64,64a.36.36,0,0,1,.08-.12.28.28,0,0,1,.11-.08l.13,0a.25.25,0,0,1,.12,0l.09.06a.23.23,0,0,1,.06.12.47.47,0,0,1,0,.17v0h-.52a.22.22,0,0,0,0,.12.16.16,0,0,0,.06.08.19.19,0,0,0,.09,0Z"/><rect class="cls-1" x="0.11" y="41.71" width="65.45" height="24.12"/><path class="cls-2" d="M3.91,53.77H2.43v9h3V61.31H3.91V59.14a3,3,0,1,0,0-5.13v-.24Zm0,2.94v-.27a1.49,1.49,0,1,1,0,.27Z"/><circle class="cls-3" cx="6.12" cy="62.05" r="0.74"/><circle class="cls-4" cx="7.6" cy="62.05" r="0.74"/><path class="cls-9" d="M6.12,61.31a.74.74,0,1,0-.73-.74A.74.74,0,0,0,6.12,61.31Z"/><path class="cls-13" d="M7.6,61.31a.74.74,0,0,0,0-1.48.74.74,0,1,0,0,1.48Z"/><path class="cls-7" d="M2.6,63.5l.06,0a.14.14,0,0,1,0,.06.08.08,0,0,1,0,.05l-.06,0a.05.05,0,0,1-.05,0s0,0,0-.05a.07.07,0,0,1,0-.06l.05,0Zm0,.3h.09v.85a.26.26,0,0,1,0,.14.13.13,0,0,1-.09,0l-.11,0v-.09l.07,0a.09.09,0,0,0,.06,0,.55.55,0,0,0,0-.09V63.8Zm.28,0h.09v.35a.59.59,0,0,0,0,.17.21.21,0,0,0,.07.11.33.33,0,0,0,.14,0,.33.33,0,0,0,.14,0,.23.23,0,0,0,.07-.1.62.62,0,0,0,0-.18V63.8h.09v.37a.61.61,0,0,1,0,.22.28.28,0,0,1-.11.13.42.42,0,0,1-.36,0,.28.28,0,0,1-.11-.13.67.67,0,0,1,0-.23V63.8Zm1.23.08L4,64a.22.22,0,0,0-.15-.08.11.11,0,0,0-.08,0,.13.13,0,0,0,0,.07.09.09,0,0,0,0,.07.31.31,0,0,0,.12.08.42.42,0,0,1,.14.11.21.21,0,0,1,0,.11.22.22,0,0,1-.23.22.27.27,0,0,1-.12,0,.18.18,0,0,1-.09-.08l.05-.06a.24.24,0,0,0,.16.08.13.13,0,0,0,.1,0,.12.12,0,0,0,0-.08.13.13,0,0,0,0-.08l-.12-.07a.42.42,0,0,1-.14-.11.2.2,0,0,1,0-.11.18.18,0,0,1,.06-.14.16.16,0,0,1,.14-.05.32.32,0,0,1,.21.09Zm.25-.35h.09v.27h.15v.09H4.41v.65H4.32v-.65H4.19V63.8h.13Z"/><path class="cls-8" d="M4.88,63.8v.08A.41.41,0,0,1,5,63.81a.23.23,0,0,1,.12,0,.33.33,0,0,1,.25.1.45.45,0,0,1,.1.28.41.41,0,0,1-.11.28.34.34,0,0,1-.24.11l-.12,0a.28.28,0,0,1-.11-.08v.35H4.69v-1Zm.19.15a.17.17,0,0,0-.14.06.23.23,0,0,0-.06.16.21.21,0,0,0,.06.16.19.19,0,0,0,.28,0,.23.23,0,0,0,.06-.16.25.25,0,0,0,0-.15A.18.18,0,0,0,5.07,64Zm.5-.15h.16v.1a.16.16,0,0,1,.07-.09s0,0,.09,0H6l0,.16H5.85s0,0-.07,0a.48.48,0,0,0,0,.21v.33H5.57V63.8Zm.56-.3a.09.09,0,0,1,.08,0,.1.1,0,0,1,0,.16.12.12,0,0,1-.2-.08.11.11,0,0,1,.12-.12ZM6,63.8h.18v.74H6V63.8Zm.35,0h.18v.08a.25.25,0,0,1,.12-.07.18.18,0,0,1,.1,0,.26.26,0,0,1,.19.07.29.29,0,0,1,.06.19v.49H6.86v-.32c0-.09,0-.15,0-.18a.09.09,0,0,0,0-.06.11.11,0,0,0-.08,0,.15.15,0,0,0-.09,0,.2.2,0,0,0-.06.11s0,.07,0,.15v.29H6.39V63.8Zm.85-.27h.19v.27h.11V64H7.43v.58H7.24V64H7.15V63.8h.09Z"/><path class="cls-7" d="M7.78,63.5l0,0a.07.07,0,0,1,0,.06s0,0,0,.05a.05.05,0,0,1,0,0,.07.07,0,0,1-.06,0,.08.08,0,0,1,0-.05.14.14,0,0,1,0-.06.11.11,0,0,1,.06,0Zm0,.3h.09v.74H7.73V63.8Zm.37-.27h.1v.27h.15v.09H8.2v.65H8.1v-.65H8V63.8H8.1Z"/><path class="cls-14" d="M12.84,61.23h0a.15.15,0,0,1,.16.15V64.6a.16.16,0,0,1-.16.15h0a.15.15,0,0,1-.15-.15V61.38A.15.15,0,0,1,12.84,61.23Z"/><path class="cls-12" d="M13.79,62.48l.39-.95h.1l.39.95h-.13l-.11-.28H14l-.11.28Zm.44-.8-.12.32,0,.09h.32l0-.09-.12-.32Zm.65.47a.37.37,0,0,0,0,.11.2.2,0,0,0,0,.08l.06,0,.08,0h.07l0,0,0,0,0,0V62l-.08-.06-.09,0H15l-.06,0a.16.16,0,0,0,0,.08.25.25,0,0,0,0,.13Zm-.12,0a.37.37,0,0,1,0-.12l0-.1.06-.07.06,0,.07,0h.06a.2.2,0,0,1,.11,0,.16.16,0,0,1,.08.06h0v-.42h.12v1h-.09l0-.07h0l0,0-.05,0,0,0h-.07l-.11,0a.18.18,0,0,1-.09-.06.3.3,0,0,1-.07-.11.35.35,0,0,1,0-.16Zm.9,0s0,.08,0,.11l0,.08.06,0,.09,0h.06l.05,0,0,0,0,0V62L16,61.9l-.1,0h-.07l-.06,0a.16.16,0,0,0-.05.08.44.44,0,0,0,0,.13Zm-.11,0a.41.41,0,0,1,0-.12.3.3,0,0,1,0-.1.18.18,0,0,1,.05-.07l.06,0,.07,0h.07a.16.16,0,0,1,.1,0l.09.06h0v-.42h.11v1h-.09l0-.07h0l0,0,0,0-.05,0h-.08l-.1,0a.21.21,0,0,1-.1-.06.3.3,0,0,1-.07-.11.37.37,0,0,1,0-.16Zm1.19-.26h-.08l-.07,0a.15.15,0,0,0-.06,0l-.05,0v.47h-.11V61.8h.09l0,.11h0l0,0,.05,0,.07,0h.1v.1Zm.38,0-.07,0-.06,0A.15.15,0,0,0,17,62a.17.17,0,0,0,0,.07h.34a.17.17,0,0,0,0-.07.06.06,0,0,0,0-.06.1.1,0,0,0,0,0l-.07,0Zm.06.52h.1l.09,0v.09l-.09,0h-.11l-.14,0a.24.24,0,0,1-.11-.06.21.21,0,0,1-.07-.11.35.35,0,0,1,0-.16.41.41,0,0,1,0-.16.39.39,0,0,1,.06-.11.3.3,0,0,1,.1-.07.25.25,0,0,1,.12,0,.22.22,0,0,1,.11,0,.16.16,0,0,1,.08.06s0,.06.06.1a.61.61,0,0,1,0,.15v.05h-.47a.36.36,0,0,0,0,.11.18.18,0,0,0,.05.07l.08,0Zm.49-.42a.07.07,0,0,0,0,.05l0,0,.05,0h0l.07,0,.07,0a.09.09,0,0,1,0,.06s0,0,0,.09a.15.15,0,0,1,0,.09.18.18,0,0,1,0,.07l-.09,0h-.24l0,0h0v-.09l.08,0h.16l.06,0s0,0,0,0a.06.06,0,0,0,0-.09,0,0,0,0,0,0,0l0,0,0,0-.07,0a.09.09,0,0,1-.07,0,.12.12,0,0,1-.05-.05.19.19,0,0,1,0-.08.3.3,0,0,1,0-.1l.05-.06.08,0h.2l.08,0v.1l-.08,0h-.16l0,0,0,0v0Zm.59,0a.07.07,0,0,0,0,.05l0,0,.05,0h0l.07,0,.07,0s0,0,.05.06a.22.22,0,0,1,0,.09.15.15,0,0,1,0,.09.18.18,0,0,1,0,.07l-.09,0h-.23l0,0h0v-.09l.08,0h.17l.05,0,0,0a.43.43,0,0,0,0-.05v0s0,0,0,0l-.05,0,0,0-.07,0a.09.09,0,0,1-.07,0l-.05-.05a.19.19,0,0,1,0-.08.3.3,0,0,1,0-.1l.05-.06.08,0h.2l.09,0v.1l-.09,0h-.15l-.05,0,0,0a.08.08,0,0,0,0,0Zm.82.5v-.14h.14v.14Zm.14-.57v.14h-.14v-.14Zm.65.57h-.11v-.95h.37l.09,0a.25.25,0,0,1,.13.09.25.25,0,0,1,0,.15.28.28,0,0,1,0,.13.34.34,0,0,1-.08.09.59.59,0,0,1-.14.06l-.18,0h-.1v.39Zm0-.5h.24l.1,0,.05-.06a.19.19,0,0,0,0-.08.12.12,0,0,0,0-.09.17.17,0,0,0-.08-.06h-.3V62Zm1,.52h-.1l-.07,0-.06-.05,0-.07s0,0,0-.05V61.8h.11v.42a.2.2,0,0,0,0,.09.13.13,0,0,0,.05.07.17.17,0,0,0,.1,0,.15.15,0,0,0,.1,0,.2.2,0,0,0,.06-.07s0-.06,0-.09V61.8h.11v.49l0,.05,0,.06-.06.06-.07,0Zm.59-.6h0l0,0,.05,0a.08.08,0,0,1,.06,0h.16l.07,0a.15.15,0,0,1,0,.08.18.18,0,0,1,0,.11v.45h-.11v-.43a.23.23,0,0,0,0-.13.13.13,0,0,0-.1,0,.2.2,0,0,0-.11,0,.2.2,0,0,0-.09.09v.48h-.12V61.8h.09l0,.1Zm.93,0-.07,0-.06,0a.09.09,0,0,0,0,.06.19.19,0,0,0,0,.07h.35a.17.17,0,0,0,0-.07.16.16,0,0,0,0-.06.1.1,0,0,0,0,0l-.07,0Zm.06.52h.1l.09,0v.09l-.09,0h-.12l-.13,0a.2.2,0,0,1-.11-.06.31.31,0,0,1-.08-.11.63.63,0,0,1,0-.16.78.78,0,0,1,0-.16.41.41,0,0,1,.07-.11.23.23,0,0,1,.1-.07.25.25,0,0,1,.12,0,.27.27,0,0,1,.19.08.44.44,0,0,1,.06.1.61.61,0,0,1,0,.15v.05h-.47a.2.2,0,0,0,0,.11.18.18,0,0,0,.05.07l.08,0Zm.43-.07H23l-.12.43h-.14l.12-.43Zm1.17.15H24l-.24-.57c0-.08-.07-.16-.1-.25h0c0,.13,0,.25,0,.36v.46h-.11v-.95h.17l.22.54c0,.06,0,.13.09.22h0l.08-.22.23-.54h.17v.95h-.12V62c0-.11,0-.23,0-.36h0a1.45,1.45,0,0,1-.1.25l-.24.57Zm1.08-.07h0l0,0,0,0-.06,0h-.16a.26.26,0,0,1-.12-.12.22.22,0,0,1,0-.09.28.28,0,0,1,0-.09.2.2,0,0,1,.06-.07l.07,0H25l.08,0h0v-.05a.07.07,0,0,0,0,0,.06.06,0,0,0,0,0,.1.1,0,0,0-.06-.05.16.16,0,0,0-.11,0h-.09l-.09,0v-.09l0,0h.16a.38.38,0,0,1,.16,0,.24.24,0,0,1,.1.1.07.07,0,0,1,0,0,.13.13,0,0,1,0,.06v.45h-.09l0-.07Zm0-.23h-.17a.18.18,0,0,0-.11,0,.1.1,0,0,0,0,.09.13.13,0,0,0,0,.06l0,0,0,0H25l.05,0,0,0,0,0v-.14Zm.44-.28h0l0,0,.05,0,.06,0h.15a.15.15,0,0,1,.07,0l.06.08A.37.37,0,0,1,26,62v.45h-.11v-.43a.17.17,0,0,0,0-.13.13.13,0,0,0-.1,0,.23.23,0,0,0-.11,0l-.09.09v.48h-.11v-1h.11v.45Zm1.06.51h0l0,0-.05,0-.06,0H26.3l-.07-.05a.16.16,0,0,1,0-.07.2.2,0,0,1,0-.09.29.29,0,0,1,0-.09.18.18,0,0,1,0-.07l.08,0h.2l.08,0h0V62l-.06-.05a.2.2,0,0,0-.11,0h-.1l-.09,0v-.09l0,0h.16a.4.4,0,0,1,.17,0,.28.28,0,0,1,.09.1.08.08,0,0,1,0,0v.51h-.09v-.07Zm0-.23h-.16a.16.16,0,0,0-.11,0,.1.1,0,0,0,0,.09.13.13,0,0,0,0,.06l0,0,.05,0h.11l.06,0,0,0,0,0v-.14Zm.7-.29h-.09l-.07,0-.06,0,0,0v.47h-.11V61.8H27l0,.11h0l0,0,.05,0,.07,0h.1v.1Zm.52.52h0l0,0-.05,0-.06,0h-.16a.18.18,0,0,1-.07-.05l-.05-.07a.22.22,0,0,1,0-.09.15.15,0,0,1,0-.09.18.18,0,0,1,.05-.07l.08,0h.2l.08,0h0V62s0,0,0,0a.1.1,0,0,0-.06-.05.16.16,0,0,0-.11,0h-.09l-.09,0v-.09l0,0h.16a.43.43,0,0,1,.17,0,.28.28,0,0,1,.09.1s0,0,0,0v.51h-.09v-.07Zm0-.23h-.17a.2.2,0,0,0-.11,0,.13.13,0,0,0,0,.09s0,0,0,.06l0,0,0,0h.12l0,0,0,0,0,0v-.14Zm.4-.2a.43.43,0,0,0,0,.05l0,0,0,0h.06l.07,0,.06,0a.1.1,0,0,1,.05.06.2.2,0,0,1,0,.09.29.29,0,0,1,0,.09.2.2,0,0,1-.06.07l-.09,0h-.23l0,0h0v-.09l.09,0h.16l.05,0,0,0a.07.07,0,0,0,0-.05.06.06,0,0,0,0,0s0,0,0,0l0,0-.06,0-.07,0a.11.11,0,0,1-.07,0,.1.1,0,0,1,0-.05.11.11,0,0,1,0-.08.16.16,0,0,1,0-.1l.05-.06.08,0h.19l.09,0v.1l-.08,0h-.16l0,0,0,0s0,0,0,0Zm.63-.08h0l0,0,.05,0,.06,0h.14s.05,0,.08,0a.22.22,0,0,1,.05.08.37.37,0,0,1,0,.12v.45h-.11v-.43a.23.23,0,0,0,0-.13.15.15,0,0,0-.1,0,.2.2,0,0,0-.11,0,.28.28,0,0,0-.1.09v.48h-.11v-1h.11v.45Zm1,.58h-.2l-.07,0,0-.06a.19.19,0,0,1,0-.08V61.9h-.13v-.1h.13v-.18h.11v.18h.2v.1h-.2v.39a.07.07,0,0,0,0,.05l0,0,0,0h.14v.09Zm.52-.59H30.3l-.07,0-.06,0s0,0-.05,0v.47H30V61.8h.09l0,.11h0l0,0,.06,0,.06,0h.1Z"/><path class="cls-12" d="M30.9,62.41h0l0,0,0,0-.06,0H30.6a.13.13,0,0,1-.07-.05.18.18,0,0,1-.05-.07.2.2,0,0,1,0-.09.29.29,0,0,1,0-.09.18.18,0,0,1,.05-.07l.08,0h.2l.08,0h0V62a.1.1,0,0,0-.06-.05.18.18,0,0,0-.11,0h-.1l-.09,0v-.09l0,0h.16a.4.4,0,0,1,.17,0,.32.32,0,0,1,.1.1.43.43,0,0,1,0,0s0,0,0,.06v.45h-.1v-.07Zm0-.23h-.16a.16.16,0,0,0-.11,0,.1.1,0,0,0,0,.09.13.13,0,0,0,0,.06.05.05,0,0,0,0,0l0,0h.11l.06,0,0,0,0,0v-.14Zm.36.15h.13l-.12.43h-.13l.12-.43Zm.66.15v-.95H32v.95Zm.85-.42.18.26h0a2.62,2.62,0,0,1,0-.28v-.51h.12v.95h-.12L32.56,62a3.1,3.1,0,0,1-.18-.26h0a2.91,2.91,0,0,1,0,.31v.48h-.12v-.95h.12l.37.53Zm1.3-.06a.41.41,0,0,1,0,.16.31.31,0,0,1-.06.13.47.47,0,0,1-.1.1.52.52,0,0,1-.15.07l-.1,0h-.34v-.95h.34l.1,0a.52.52,0,0,1,.15.07.32.32,0,0,1,.1.1.31.31,0,0,1,.06.13.36.36,0,0,1,0,.15ZM34,62a.36.36,0,0,0-.06-.22.29.29,0,0,0-.18-.12l-.09,0h-.21v.75h.21l.09,0a.29.29,0,0,0,.18-.12A.41.41,0,0,0,34,62Zm.32.48v-.95h.12v.95Zm.27,0,.38-.95H35l.39.95h-.12l-.11-.28h-.41l-.11.28Zm.43-.8-.12.32,0,.09h.32l0-.09L35,61.68Z"/><path class="cls-12" d="M14.35,63.47l-.15,0a.37.37,0,0,0-.2.2.48.48,0,0,0,0,.18A.88.88,0,0,0,14,64a.36.36,0,0,0,.08.12l.12.07.16,0h.21v.1l-.1,0h-.12a.71.71,0,0,1-.21,0,.38.38,0,0,1-.15-.09.86.86,0,0,1-.1-.16.6.6,0,0,1,0-.2.45.45,0,0,1,0-.2.35.35,0,0,1,.09-.16.57.57,0,0,1,.16-.11.65.65,0,0,1,.2,0h.17l0,0v.1l-.1,0Zm.87.53a.37.37,0,0,0,0-.11.79.79,0,0,0,0-.09.18.18,0,0,0-.07,0l-.08,0-.09,0-.06,0a.25.25,0,0,0,0,.09.31.31,0,0,0,0,.22.2.2,0,0,0,0,.08.18.18,0,0,0,.07,0,.17.17,0,0,0,.16,0,.18.18,0,0,0,.07,0,.59.59,0,0,0,0-.08.37.37,0,0,0,0-.11Zm.12,0a.59.59,0,0,1,0,.14.35.35,0,0,1-.07.12l-.1.07a.28.28,0,0,1-.13,0,.32.32,0,0,1-.14,0l-.1-.07a.23.23,0,0,1-.06-.12.32.32,0,0,1,0-.14.37.37,0,0,1,0-.15.24.24,0,0,1,.06-.11.23.23,0,0,1,.1-.07.32.32,0,0,1,.14,0,.28.28,0,0,1,.13,0,.18.18,0,0,1,.1.07.41.41,0,0,1,.07.11.68.68,0,0,1,0,.15Zm.28-.25h0l.05,0,.05,0,.06,0h.16l.07.05s0,0,0,.07a.2.2,0,0,1,0,.11v.46H16V63.9a.23.23,0,0,0,0-.13.17.17,0,0,0-.1,0,.2.2,0,0,0-.11,0,.24.24,0,0,0-.09.08v.49h-.12v-.68h.09l0,.09Zm1,.59h-.12l-.09,0-.07,0a.15.15,0,0,1,0-.06s0,0,0-.07v-.42h-.13v-.09h.13v-.19h.11v.19h.21v.09h-.21v.4a.06.06,0,0,0,0,0,.05.05,0,0,0,0,0l0,0h.15v.09Zm.54-.08h0s0,0,0,0l0,0-.06,0H17l-.09,0-.07,0a.18.18,0,0,1-.05-.07.29.29,0,0,1,0-.09.2.2,0,0,1,0-.09.18.18,0,0,1,.05-.07l.08,0,.1,0h.1l.08,0h0V63.9a.43.43,0,0,1,0,0,0,0,0,0,0,0,0s0,0-.06-.06l-.11,0h-.1l-.09,0v-.09l0,0H17a.29.29,0,0,1,.17,0,.18.18,0,0,1,.1.09.43.43,0,0,0,0,0,.13.13,0,0,1,0,.06v.46h-.1v-.08Zm0-.22-.08,0H17a.18.18,0,0,0-.11,0,.12.12,0,0,0,0,.1.07.07,0,0,0,0,0l0,0,0,0h.12l.05,0,0,0,0,0V64Zm.61-.4h.1l.07,0v.09l-.08,0h-.16a.18.18,0,0,0-.07,0,.16.16,0,0,0-.05.08.22.22,0,0,0,0,.12.37.37,0,0,0,0,.11.35.35,0,0,0,0,.08.13.13,0,0,0,.07,0l.1,0h.08s.06,0,.08,0v.1h-.17a.28.28,0,0,1-.13,0,.24.24,0,0,1-.11-.06.21.21,0,0,1-.07-.11.33.33,0,0,1,0-.15c0-.05,0-.09,0-.12a1,1,0,0,1,0-.1l.06-.07.07,0a.11.11,0,0,1,.08,0Zm.71.7H18.4l-.1,0-.06,0a.09.09,0,0,1,0-.06.15.15,0,0,1,0-.07v-.42h-.13v-.09h.13v-.19h.11v.19h.2v.09h-.2v.4a.06.06,0,0,0,0,0,.05.05,0,0,0,0,0l0,0h.15v.09Zm.46,0V64.2h.14v.14Zm.14-.58v.14H19v-.14Zm.49-.47h.12l.25.4.25-.4h.13l-.32.5.34.55h-.13L20,63.89l-.27.45h-.13l.34-.55-.31-.5Zm.86.52a.89.89,0,0,1,.05-.32.43.43,0,0,1,.12-.17.33.33,0,0,1,.19-.06.3.3,0,0,1,.18.06.35.35,0,0,1,.13.18.83.83,0,0,1,.05.31.93.93,0,0,1-.05.32.33.33,0,0,1-.13.17.3.3,0,0,1-.18.06.41.41,0,0,1-.19,0,.41.41,0,0,1-.12-.18.85.85,0,0,1-.05-.32Zm.1,0a.91.91,0,0,0,0,.27.39.39,0,0,0,.1.14.19.19,0,0,0,.26,0,.24.24,0,0,0,.09-.14.7.7,0,0,0,0-.27,1,1,0,0,0,0-.26.39.39,0,0,0-.1-.14.19.19,0,0,0-.26,0,.25.25,0,0,0-.09.13.7.7,0,0,0,0,.27Zm.71,0a.89.89,0,0,1,.05-.32.37.37,0,0,1,.13-.17.3.3,0,0,1,.36,0,.35.35,0,0,1,.13.18.67.67,0,0,1,0,.31.74.74,0,0,1,0,.32.33.33,0,0,1-.13.17.28.28,0,0,1-.18.06.35.35,0,0,1-.18,0,.35.35,0,0,1-.13-.18.85.85,0,0,1-.05-.32Zm.1,0a.64.64,0,0,0,0,.27.28.28,0,0,0,.09.14.19.19,0,0,0,.26,0,.24.24,0,0,0,.09-.14.7.7,0,0,0,0-.27,1,1,0,0,0,0-.26.3.3,0,0,0-.1-.14.19.19,0,0,0-.26,0,.25.25,0,0,0-.09.13.7.7,0,0,0,0,.27Zm.72,0a.92.92,0,0,1,0-.32.37.37,0,0,1,.13-.17.3.3,0,0,1,.36,0,.35.35,0,0,1,.13.18.67.67,0,0,1,.05.31,1,1,0,0,1,0,.32.4.4,0,0,1-.14.17.28.28,0,0,1-.18.06.35.35,0,0,1-.18,0,.35.35,0,0,1-.13-.18.89.89,0,0,1,0-.32Zm.09,0a.85.85,0,0,0,0,.27.28.28,0,0,0,.09.14.24.24,0,0,0,.13,0,.21.21,0,0,0,.13,0,.32.32,0,0,0,.1-.14,1,1,0,0,0,0-.27,1,1,0,0,0,0-.26.3.3,0,0,0-.1-.14.21.21,0,0,0-.13,0,.24.24,0,0,0-.13,0,.25.25,0,0,0-.09.13,1,1,0,0,0,0,.27Zm1.15-.52h.12l.25.4.25-.4h.13l-.32.5.34.55H24l-.27-.45-.27.45H23.3l.34-.55-.31-.5Zm.86.52a.89.89,0,0,1,0-.32.43.43,0,0,1,.12-.17.33.33,0,0,1,.19-.06.3.3,0,0,1,.18.06.35.35,0,0,1,.13.18.83.83,0,0,1,.05.31.93.93,0,0,1-.05.32.33.33,0,0,1-.13.17.3.3,0,0,1-.18.06.41.41,0,0,1-.19,0,.41.41,0,0,1-.12-.18.85.85,0,0,1,0-.32Zm.1,0a.91.91,0,0,0,0,.27.3.3,0,0,0,.1.14.19.19,0,0,0,.26,0,.24.24,0,0,0,.09-.14.7.7,0,0,0,0-.27,1,1,0,0,0,0-.26.39.39,0,0,0-.1-.14.24.24,0,0,0-.13,0,.21.21,0,0,0-.13,0,.34.34,0,0,0-.1.13,1,1,0,0,0,0,.27Zm.71,0a.89.89,0,0,1,.05-.32.43.43,0,0,1,.12-.17.33.33,0,0,1,.19-.06.3.3,0,0,1,.18.06.35.35,0,0,1,.13.18.83.83,0,0,1,0,.31.93.93,0,0,1,0,.32.33.33,0,0,1-.13.17.3.3,0,0,1-.18.06.41.41,0,0,1-.19,0,.41.41,0,0,1-.12-.18.85.85,0,0,1-.05-.32Zm.1,0a.91.91,0,0,0,0,.27.39.39,0,0,0,.1.14.19.19,0,0,0,.26,0,.24.24,0,0,0,.09-.14.7.7,0,0,0,0-.27,1,1,0,0,0,0-.26.39.39,0,0,0-.1-.14.19.19,0,0,0-.26,0,.25.25,0,0,0-.09.13.7.7,0,0,0,0,.27Zm.71,0a.89.89,0,0,1,.05-.32.37.37,0,0,1,.13-.17.3.3,0,0,1,.36,0,.35.35,0,0,1,.13.18.67.67,0,0,1,.05.31.74.74,0,0,1-.05.32.33.33,0,0,1-.13.17.28.28,0,0,1-.18.06.35.35,0,0,1-.18,0,.35.35,0,0,1-.13-.18.85.85,0,0,1-.05-.32Zm.1,0a.64.64,0,0,0,0,.27.28.28,0,0,0,.09.14.19.19,0,0,0,.26,0,.24.24,0,0,0,.09-.14.7.7,0,0,0,0-.27,1,1,0,0,0,0-.26.3.3,0,0,0-.1-.14.19.19,0,0,0-.26,0,.25.25,0,0,0-.09.13.7.7,0,0,0,0,.27Zm1.15-.52h.12l.25.4.25-.4h.13l-.32.5.34.55H27.7l-.27-.45-.27.45H27l.34-.55-.31-.5Zm.86.52a.89.89,0,0,1,0-.32.43.43,0,0,1,.12-.17.32.32,0,0,1,.18-.06.33.33,0,0,1,.19.06.42.42,0,0,1,.13.18.83.83,0,0,1,.05.31.93.93,0,0,1-.05.32.33.33,0,0,1-.13.17.33.33,0,0,1-.19.06.29.29,0,0,1-.3-.23.85.85,0,0,1,0-.32Zm.1,0a.91.91,0,0,0,0,.27.3.3,0,0,0,.1.14.21.21,0,0,0,.13,0,.24.24,0,0,0,.13,0,.24.24,0,0,0,.09-.14.7.7,0,0,0,0-.27,1,1,0,0,0,0-.26.39.39,0,0,0-.1-.14.24.24,0,0,0-.13,0,.21.21,0,0,0-.13,0,.27.27,0,0,0-.1.13A1,1,0,0,0,28,63.81Z"/><rect class="cls-15" x="38.21" y="27.97" width="54.21" height="37.59"/><rect class="cls-15" x="38.21" y="27.97" width="3.6" height="37.59"/><path class="cls-16" d="M79.77,65.55h-38V28H92.42V56.16Z"/><path class="cls-16" d="M92.42,56.16,79.77,65.55c1.26-2.34,1.26-4.69,0-9.39,6.32.94,9.49.94,12.65,0Z"/><path class="cls-17" d="M79.77,65.55h-38V28H92.42V56.16"/><path class="cls-17" d="M92.42,56.16,79.77,65.55c1.26-2.34,1.26-4.69,0-9.39,6.32.94,9.49.94,12.65,0Z"/><path class="cls-18" d="M53,46.11a.89.89,0,0,1-.2.58,1.11,1.11,0,0,1-.58.36h0l1,1.36h-.72l-.9-1.28h-.41v1.28H50.6V45.12h1a3.23,3.23,0,0,1,.46,0,1.58,1.58,0,0,1,.37.08,1.1,1.1,0,0,1,.45.33.94.94,0,0,1,.16.55Zm-1.54.52.35,0a1.11,1.11,0,0,0,.24,0,.54.54,0,0,0,.26-.19.61.61,0,0,0,.07-.28.46.46,0,0,0-.06-.23.38.38,0,0,0-.19-.16.58.58,0,0,0-.21-.06l-.32,0h-.43v1Zm2.87,1.28H56v.5H53.77V45.12H55.9v.5H54.37v.85h1.32V47H54.37v.93Zm3.86-2.35a1.33,1.33,0,0,0-.45.08,1.13,1.13,0,0,0-.36.24,1.1,1.1,0,0,0-.23.38,1.42,1.42,0,0,0-.08.52,1.53,1.53,0,0,0,.07.51,1,1,0,0,0,.22.37.93.93,0,0,0,.35.23,1.37,1.37,0,0,0,.47.07l.38,0a1.9,1.9,0,0,0,.36-.08v.51a2,2,0,0,1-.37.08,2.73,2.73,0,0,1-.41,0,2.09,2.09,0,0,1-.74-.12,1.39,1.39,0,0,1-.85-.86,2,2,0,0,1-.11-.67,2,2,0,0,1,.12-.7,1.51,1.51,0,0,1,.33-.56,1.41,1.41,0,0,1,.54-.37,1.86,1.86,0,0,1,.73-.14,2.38,2.38,0,0,1,.39,0,2.44,2.44,0,0,1,.34.08v.51a1.76,1.76,0,0,0-.37-.08,1.84,1.84,0,0,0-.33,0Zm2,2.35H61.8v.5H59.57V45.12h2.14v.5H60.18v.85h1.31V47H60.18v.93Zm2.25.5V45.12H63v3.29Zm2.3-1.28h-.3v1.29h-.61V45.12h.95l.42,0a1.4,1.4,0,0,1,.32.06,1.06,1.06,0,0,1,.52.33.89.89,0,0,1,.18.58.87.87,0,0,1-.39.75,1.21,1.21,0,0,1-.46.2,2.38,2.38,0,0,1-.63.07Zm-.3-.52.13,0h.16a1.58,1.58,0,0,0,.41,0,.84.84,0,0,0,.27-.11.46.46,0,0,0,.14-.17.51.51,0,0,0,0-.22.52.52,0,0,0-.07-.25.41.41,0,0,0-.23-.16.65.65,0,0,0-.21,0l-.31,0h-.34v1Zm3.77,1.8h-.6V45.62H66.53v-.5h2.73v.5H68.2v2.79ZM73.14,46a.87.87,0,0,1-.09.4.83.83,0,0,1-.32.29h0l.23.11a.8.8,0,0,1,.17.15.72.72,0,0,1,.12.21.66.66,0,0,1,0,.25.82.82,0,0,1,0,.26.84.84,0,0,1-.13.27,1.19,1.19,0,0,1-.26.23,1.34,1.34,0,0,1-.4.17l-.14,0-.16,0-.2,0h-1.2V45.12H71.9a1.4,1.4,0,0,1,.89.21.94.94,0,0,1,.32.42,1,1,0,0,1,0,.24Zm-1.77,1v.93H72l.19,0a.73.73,0,0,0,.21-.07.4.4,0,0,0,.14-.11.33.33,0,0,0,.07-.13.32.32,0,0,0,0-.14.41.41,0,0,0-.08-.25.47.47,0,0,0-.24-.15.43.43,0,0,0-.17,0h-.81Zm.54-.51a.86.86,0,0,0,.36,0,.39.39,0,0,0,.2-.15.43.43,0,0,0,0-.23.46.46,0,0,0-.06-.23.39.39,0,0,0-.23-.15l-.15,0h-.71v.85Zm4.43.29a2,2,0,0,0-.07-.52,1.07,1.07,0,0,0-.21-.38.84.84,0,0,0-.31-.22,1,1,0,0,0-.78,0,.77.77,0,0,0-.31.22,1.07,1.07,0,0,0-.21.38,1.64,1.64,0,0,0-.07.52,1.7,1.7,0,0,0,.07.53,1,1,0,0,0,.21.37.79.79,0,0,0,.31.23,1.12,1.12,0,0,0,.78,0,.87.87,0,0,0,.31-.23,1,1,0,0,0,.21-.37,2.06,2.06,0,0,0,.07-.53Zm.62,0a2.17,2.17,0,0,1-.1.69,1.46,1.46,0,0,1-.32.54,1.29,1.29,0,0,1-.5.35,1.65,1.65,0,0,1-.68.13,1.62,1.62,0,0,1-.68-.13,1.41,1.41,0,0,1-.51-.35,1.59,1.59,0,0,1-.31-.54,2.22,2.22,0,0,1,0-1.38,1.59,1.59,0,0,1,.31-.54,1.41,1.41,0,0,1,.51-.35,1.79,1.79,0,0,1,.68-.13,1.83,1.83,0,0,1,.68.13,1.29,1.29,0,0,1,.5.35,1.46,1.46,0,0,1,.32.54,2.17,2.17,0,0,1,.1.69Zm3.08,0a2,2,0,0,0-.07-.52,1.07,1.07,0,0,0-.21-.38.84.84,0,0,0-.31-.22,1,1,0,0,0-.78,0,.77.77,0,0,0-.31.22,1.07,1.07,0,0,0-.21.38,1.64,1.64,0,0,0-.07.52,1.7,1.7,0,0,0,.07.53,1,1,0,0,0,.21.37.79.79,0,0,0,.31.23,1.12,1.12,0,0,0,.78,0,.87.87,0,0,0,.31-.23,1,1,0,0,0,.21-.37,2.06,2.06,0,0,0,.07-.53Zm.62,0a2.17,2.17,0,0,1-.1.69,1.46,1.46,0,0,1-.32.54,1.29,1.29,0,0,1-.5.35,1.65,1.65,0,0,1-.68.13,1.62,1.62,0,0,1-.68-.13,1.41,1.41,0,0,1-.51-.35,1.59,1.59,0,0,1-.31-.54,2.22,2.22,0,0,1,0-1.38,1.59,1.59,0,0,1,.31-.54,1.41,1.41,0,0,1,.51-.35,1.79,1.79,0,0,1,.68-.13,1.83,1.83,0,0,1,.68.13,1.29,1.29,0,0,1,.5.35,1.46,1.46,0,0,1,.32.54,2.17,2.17,0,0,1,.1.69Zm.64,1.65V45.12h.6v1.5h0l1.25-1.5h.74l-1.37,1.63L84,48.41h-.78l-1.33-1.49h0v1.49Z"/></g></g></svg>